<svg xmlns="http://www.w3.org/2000/svg" width="69.517" height="30.252" viewBox="0 0 69.517 30.252">
  <g id="Grupo_841502" data-name="Grupo 841502" transform="translate(69.517 55.482) rotate(180)">
    <path id="Trazado_113512" data-name="Trazado 113512" d="M164.471,95.9c-2.734,0-4.084-2.291-5.168-4.133-1.1-1.863-1.842-3.005-3.242-3.005s-2.143,1.142-3.238,3.005c-1.084,1.842-2.434,4.133-5.167,4.133s-4.084-2.291-5.168-4.133c-1.1-1.863-1.841-3.005-3.24-3.005s-2.141,1.142-3.238,3.005c-1.084,1.842-2.434,4.133-5.167,4.133s-4.083-2.291-5.166-4.133c-1.1-1.863-1.84-3.005-3.237-3.005S120.3,89.9,119.2,91.764c-1.084,1.842-2.433,4.133-5.166,4.133s-4.081-2.291-5.166-4.133c-1.1-1.863-1.84-3.005-3.237-3.005a1.191,1.191,0,0,1,0-2.379c2.732,0,4.081,2.292,5.166,4.134,1.1,1.862,1.84,3,3.237,3s2.14-1.142,3.237-3c1.084-1.842,2.434-4.134,5.166-4.134s4.081,2.292,5.164,4.133c1.1,1.863,1.84,3.005,3.238,3.005s2.141-1.142,3.238-3.005c1.084-1.84,2.434-4.133,5.167-4.133s4.083,2.292,5.168,4.133c1.1,1.863,1.84,3.005,3.24,3.005s2.141-1.142,3.238-3.005c1.083-1.84,2.434-4.133,5.167-4.133s4.085,2.292,5.17,4.133c1.1,1.863,1.842,3.005,3.241,3.005s2.144-1.142,3.242-3.005c1.084-1.84,2.435-4.133,5.17-4.133a1.191,1.191,0,0,1,0,2.379c-1.4,0-2.144,1.142-3.242,3.005C168.556,93.606,167.206,95.9,164.471,95.9Z" transform="translate(-104.499 -61.149)" fill="#023ba2"/>
    <path id="Trazado_113538" data-name="Trazado 113538" d="M164.471,95.9c-2.734,0-4.084-2.291-5.168-4.133-1.1-1.863-1.842-3.005-3.242-3.005s-2.143,1.142-3.238,3.005c-1.084,1.842-2.434,4.133-5.167,4.133s-4.084-2.291-5.168-4.133c-1.1-1.863-1.841-3.005-3.24-3.005s-2.141,1.142-3.238,3.005c-1.084,1.842-2.434,4.133-5.167,4.133s-4.083-2.291-5.166-4.133c-1.1-1.863-1.84-3.005-3.237-3.005S120.3,89.9,119.2,91.764c-1.084,1.842-2.433,4.133-5.166,4.133s-4.081-2.291-5.166-4.133c-1.1-1.863-1.84-3.005-3.237-3.005a1.191,1.191,0,0,1,0-2.379c2.732,0,4.081,2.292,5.166,4.134,1.1,1.862,1.84,3,3.237,3s2.14-1.142,3.237-3c1.084-1.842,2.434-4.134,5.166-4.134s4.081,2.292,5.164,4.133c1.1,1.863,1.84,3.005,3.238,3.005s2.141-1.142,3.238-3.005c1.084-1.84,2.434-4.133,5.167-4.133s4.083,2.292,5.168,4.133c1.1,1.863,1.84,3.005,3.24,3.005s2.141-1.142,3.238-3.005c1.083-1.84,2.434-4.133,5.167-4.133s4.085,2.292,5.17,4.133c1.1,1.863,1.842,3.005,3.241,3.005s2.144-1.142,3.242-3.005c1.084-1.84,2.435-4.133,5.17-4.133a1.191,1.191,0,0,1,0,2.379c-1.4,0-2.144,1.142-3.242,3.005C168.556,93.606,167.206,95.9,164.471,95.9Z" transform="translate(-104.499 -50.781)" fill="#023ba2"/>
    <path id="Trazado_113539" data-name="Trazado 113539" d="M164.471,95.9c-2.734,0-4.084-2.291-5.168-4.133-1.1-1.863-1.842-3.005-3.242-3.005s-2.143,1.142-3.238,3.005c-1.084,1.842-2.434,4.133-5.167,4.133s-4.084-2.291-5.168-4.133c-1.1-1.863-1.841-3.005-3.24-3.005s-2.141,1.142-3.238,3.005c-1.084,1.842-2.434,4.133-5.167,4.133s-4.083-2.291-5.166-4.133c-1.1-1.863-1.84-3.005-3.237-3.005S120.3,89.9,119.2,91.764c-1.084,1.842-2.433,4.133-5.166,4.133s-4.081-2.291-5.166-4.133c-1.1-1.863-1.84-3.005-3.237-3.005a1.191,1.191,0,0,1,0-2.379c2.732,0,4.081,2.292,5.166,4.134,1.1,1.862,1.84,3,3.237,3s2.14-1.142,3.237-3c1.084-1.842,2.434-4.134,5.166-4.134s4.081,2.292,5.164,4.133c1.1,1.863,1.84,3.005,3.238,3.005s2.141-1.142,3.238-3.005c1.084-1.84,2.434-4.133,5.167-4.133s4.083,2.292,5.168,4.133c1.1,1.863,1.84,3.005,3.24,3.005s2.141-1.142,3.238-3.005c1.083-1.84,2.434-4.133,5.167-4.133s4.085,2.292,5.17,4.133c1.1,1.863,1.842,3.005,3.241,3.005s2.144-1.142,3.242-3.005c1.084-1.84,2.435-4.133,5.17-4.133a1.191,1.191,0,0,1,0,2.379c-1.4,0-2.144,1.142-3.242,3.005C168.556,93.606,167.206,95.9,164.471,95.9Z" transform="translate(-104.499 -40.415)" fill="#023ba2"/>
  </g>
</svg>
