<svg xmlns="http://www.w3.org/2000/svg" width="143.482" height="66.625" viewBox="0 0 143.482 66.625">
  <g id="ONDAS" transform="translate(143.482 66.625) rotate(180)">
    <path id="Trazado_113510" data-name="Trazado 113510" d="M228.281,83.492c-5.644,0-8.429-2.994-10.667-5.4-2.267-2.435-3.8-3.927-6.692-3.927s-4.422,1.492-6.684,3.927c-2.238,2.407-5.024,5.4-10.665,5.4s-8.43-2.994-10.667-5.4c-2.264-2.435-3.8-3.927-6.687-3.927s-4.42,1.492-6.684,3.927c-2.238,2.407-5.024,5.4-10.665,5.4s-8.427-3-10.662-5.4c-2.264-2.433-3.8-3.925-6.681-3.925s-4.417,1.492-6.681,3.925c-2.238,2.408-5.021,5.4-10.662,5.4s-8.424-2.994-10.662-5.4c-2.264-2.433-3.8-3.925-6.681-3.925-1.293,0-2.342-.7-2.342-1.554s1.048-1.554,2.342-1.554c5.638,0,8.424,2.994,10.662,5.4,2.262,2.435,3.8,3.927,6.681,3.927s4.417-1.492,6.681-3.927c2.238-2.407,5.024-5.4,10.662-5.4s8.424,2.994,10.659,5.4c2.264,2.435,3.8,3.927,6.684,3.927s4.42-1.492,6.684-3.927c2.238-2.407,5.024-5.4,10.665-5.4s8.427,2.994,10.667,5.4c2.262,2.435,3.8,3.927,6.687,3.927s4.42-1.492,6.684-3.927c2.235-2.407,5.024-5.4,10.665-5.4s8.432,2.994,10.67,5.4c2.267,2.435,3.8,3.927,6.689,3.927s4.425-1.492,6.692-3.927c2.238-2.407,5.026-5.4,10.67-5.4,1.293,0,2.339.695,2.339,1.554s-1.046,1.554-2.339,1.554c-2.89,0-4.425,1.492-6.692,3.927C236.713,80.5,233.927,83.492,228.281,83.492Z" transform="translate(-104.499 -71.056)" fill="#0a3699"/>
    <path id="Trazado_113511" data-name="Trazado 113511" d="M228.281,91.155c-5.644,0-8.429-3-10.667-5.4-2.267-2.437-3.8-3.929-6.692-3.929s-4.422,1.492-6.684,3.927c-2.238,2.407-5.024,5.4-10.665,5.4s-8.43-3-10.667-5.4c-2.264-2.435-3.8-3.927-6.687-3.927s-4.42,1.492-6.684,3.927c-2.238,2.407-5.024,5.4-10.665,5.4s-8.427-3-10.662-5.4c-2.264-2.435-3.8-3.927-6.681-3.927s-4.417,1.492-6.681,3.927c-2.238,2.407-5.021,5.4-10.662,5.4s-8.424-3-10.662-5.4c-2.264-2.435-3.8-3.927-6.681-3.927-1.293,0-2.342-.695-2.342-1.554s1.048-1.554,2.342-1.554c5.638,0,8.424,3,10.662,5.4,2.262,2.433,3.8,3.925,6.681,3.925s4.417-1.492,6.681-3.925c2.238-2.406,5.024-5.4,10.662-5.4s8.424,3,10.659,5.4c2.264,2.433,3.8,3.925,6.684,3.925s4.42-1.492,6.684-3.925c2.238-2.406,5.024-5.4,10.665-5.4s8.427,3,10.667,5.4c2.262,2.433,3.8,3.925,6.687,3.925s4.42-1.492,6.684-3.925c2.235-2.406,5.024-5.4,10.665-5.4s8.432,3,10.67,5.4c2.267,2.433,3.8,3.925,6.689,3.925s4.425-1.492,6.692-3.925c2.238-2.406,5.026-5.4,10.67-5.4,1.293,0,2.339.7,2.339,1.554s-1.046,1.554-2.339,1.554c-2.89,0-4.425,1.492-6.692,3.927C236.713,88.16,233.927,91.155,228.281,91.155Z" transform="translate(-104.499 -65.17)" fill="#0a3699"/>
    <path id="Trazado_113512" data-name="Trazado 113512" d="M228.281,98.816c-5.644,0-8.429-2.994-10.667-5.4-2.267-2.435-3.8-3.927-6.692-3.927s-4.422,1.492-6.684,3.927c-2.238,2.406-5.024,5.4-10.665,5.4s-8.43-2.994-10.667-5.4c-2.264-2.435-3.8-3.927-6.687-3.927s-4.42,1.492-6.684,3.927c-2.238,2.406-5.024,5.4-10.665,5.4s-8.427-2.994-10.662-5.4c-2.264-2.435-3.8-3.927-6.681-3.927s-4.417,1.492-6.681,3.927c-2.238,2.406-5.021,5.4-10.662,5.4s-8.424-2.994-10.662-5.4c-2.264-2.435-3.8-3.927-6.681-3.927-1.293,0-2.342-.695-2.342-1.554s1.048-1.554,2.342-1.554c5.638,0,8.424,3,10.662,5.4,2.262,2.433,3.8,3.925,6.681,3.925s4.417-1.492,6.681-3.925c2.238-2.407,5.024-5.4,10.662-5.4s8.424,3,10.659,5.4c2.264,2.435,3.8,3.927,6.684,3.927s4.42-1.492,6.684-3.927c2.238-2.4,5.024-5.4,10.665-5.4s8.427,3,10.667,5.4c2.262,2.435,3.8,3.927,6.687,3.927s4.42-1.492,6.684-3.927c2.235-2.4,5.024-5.4,10.665-5.4s8.432,3,10.67,5.4c2.267,2.435,3.8,3.927,6.689,3.927s4.425-1.492,6.692-3.927c2.238-2.4,5.026-5.4,10.67-5.4,1.293,0,2.339.7,2.339,1.554s-1.046,1.554-2.339,1.554c-2.89,0-4.425,1.492-6.692,3.927C236.713,95.822,233.927,98.816,228.281,98.816Z" transform="translate(-104.499 -59.284)" fill="#0a3699"/>
    <path id="Trazado_113538" data-name="Trazado 113538" d="M228.281,98.816c-5.644,0-8.429-2.994-10.667-5.4-2.267-2.435-3.8-3.927-6.692-3.927s-4.422,1.492-6.684,3.927c-2.238,2.406-5.024,5.4-10.665,5.4s-8.43-2.994-10.667-5.4c-2.264-2.435-3.8-3.927-6.687-3.927s-4.42,1.492-6.684,3.927c-2.238,2.406-5.024,5.4-10.665,5.4s-8.427-2.994-10.662-5.4c-2.264-2.435-3.8-3.927-6.681-3.927s-4.417,1.492-6.681,3.927c-2.238,2.406-5.021,5.4-10.662,5.4s-8.424-2.994-10.662-5.4c-2.264-2.435-3.8-3.927-6.681-3.927-1.293,0-2.342-.695-2.342-1.554s1.048-1.554,2.342-1.554c5.638,0,8.424,3,10.662,5.4,2.262,2.433,3.8,3.925,6.681,3.925s4.417-1.492,6.681-3.925c2.238-2.407,5.024-5.4,10.662-5.4s8.424,3,10.659,5.4c2.264,2.435,3.8,3.927,6.684,3.927s4.42-1.492,6.684-3.927c2.238-2.4,5.024-5.4,10.665-5.4s8.427,3,10.667,5.4c2.262,2.435,3.8,3.927,6.687,3.927s4.42-1.492,6.684-3.927c2.235-2.4,5.024-5.4,10.665-5.4s8.432,3,10.67,5.4c2.267,2.435,3.8,3.927,6.689,3.927s4.425-1.492,6.692-3.927c2.238-2.4,5.026-5.4,10.67-5.4,1.293,0,2.339.7,2.339,1.554s-1.046,1.554-2.339,1.554c-2.89,0-4.425,1.492-6.692,3.927C236.713,95.822,233.927,98.816,228.281,98.816Z" transform="translate(-104.499 -45.736)" fill="#0a3699"/>
    <path id="Trazado_113539" data-name="Trazado 113539" d="M228.281,98.816c-5.644,0-8.429-2.994-10.667-5.4-2.267-2.435-3.8-3.927-6.692-3.927s-4.422,1.492-6.684,3.927c-2.238,2.406-5.024,5.4-10.665,5.4s-8.43-2.994-10.667-5.4c-2.264-2.435-3.8-3.927-6.687-3.927s-4.42,1.492-6.684,3.927c-2.238,2.406-5.024,5.4-10.665,5.4s-8.427-2.994-10.662-5.4c-2.264-2.435-3.8-3.927-6.681-3.927s-4.417,1.492-6.681,3.927c-2.238,2.406-5.021,5.4-10.662,5.4s-8.424-2.994-10.662-5.4c-2.264-2.435-3.8-3.927-6.681-3.927-1.293,0-2.342-.695-2.342-1.554s1.048-1.554,2.342-1.554c5.638,0,8.424,3,10.662,5.4,2.262,2.433,3.8,3.925,6.681,3.925s4.417-1.492,6.681-3.925c2.238-2.407,5.024-5.4,10.662-5.4s8.424,3,10.659,5.4c2.264,2.435,3.8,3.927,6.684,3.927s4.42-1.492,6.684-3.927c2.238-2.4,5.024-5.4,10.665-5.4s8.427,3,10.667,5.4c2.262,2.435,3.8,3.927,6.687,3.927s4.42-1.492,6.684-3.927c2.235-2.4,5.024-5.4,10.665-5.4s8.432,3,10.67,5.4c2.267,2.435,3.8,3.927,6.689,3.927s4.425-1.492,6.692-3.927c2.238-2.4,5.026-5.4,10.67-5.4,1.293,0,2.339.7,2.339,1.554s-1.046,1.554-2.339,1.554c-2.89,0-4.425,1.492-6.692,3.927C236.713,95.822,233.927,98.816,228.281,98.816Z" transform="translate(-104.499 -32.191)" fill="#0a3699"/>
  </g>
</svg>
