<svg xmlns="http://www.w3.org/2000/svg" xmlns:xlink="http://www.w3.org/1999/xlink" width="1240" height="371.656" viewBox="0 0 1240 371.656">
  <defs>
    <clipPath id="clip-path">
      <rect id="Rect치ngulo_45843" data-name="Rect치ngulo 45843" width="1240" height="371.656" rx="20" transform="translate(180 2427.172)" fill="#1565c0"/>
    </clipPath>
  </defs>
  <g id="Enmascarar_grupo_65" data-name="Enmascarar grupo 65" transform="translate(-180 -2427.172)" clip-path="url(#clip-path)">
    <rect id="Rect치ngulo_35207" data-name="Rect치ngulo 35207" width="1240" height="382" transform="translate(180 2422)" fill="#edf8ff"/>
    <g id="Grupo_95250" data-name="Grupo 95250" transform="translate(8632 10161.161)">
      <g id="_1_group" data-name="1_group" transform="translate(-8450 -7620.736)">
        <path id="_1" data-name="1" d="M1238,186.7V450.274H0v-106.8c9.754-4.356,25.483-18.251,30.02-23.507,18.243-21.122,23.151-51.567,31.891-77.217,8.753-25.679,33.6-51.7,59.166-42.66,19.395,6.86,26.956,29.461,36.035,47.921,22.546,45.851,71.617,79.065,122.678,77.253,36.044-1.28,74.709-18.257,106.265-.8,35.176,19.463,70.636,99.06,122.864,69.887C551.773,370.42,527.2,300.843,563.185,270.4c23.986-20.292,61.134-10.88,87.821,5.7s50.729,39.681,81.5,46.018c49.176,10.127,94.631-25.229,135.268-54.716s96.53-55.277,138.479-27.686c26.368,17.341,39.6,52.247,69.117,63.415,31.252,11.823,65.756-9.031,87.282-34.588,14.74-17.5,25.972-37.657,40.7-55.139C1211.973,203.183,1222.978,189.175,1238,186.7ZM127.693,363.783c10.214-.7,20.794-6.563,23.807-16.346,3.425-11.116-3.6-22.493-10.294-32.005q-11.286-16.049-22.57-32.1c-6.506-9.251-15.775-19.669-26.823-17.258-7.261,1.585-12.3,8.694-13.621,16.007s.381,14.81,2.382,21.965C87.883,330.188,94.473,366.057,127.693,363.783ZM951.1,269.322c-2.68.851-83.074,34.978-60.436,49.673,7.8,5.065,18.3,1.732,26.219-3.155s15.379-11.368,24.588-12.688c18.469-2.649,36.267,16.447,53.9,10.344a20.948,20.948,0,0,0,13.677-20.195c-.577-12.332-17.406-25.761-28.935-27.925C970.419,263.557,960.5,266.333,951.1,269.322Z" transform="translate(0 -186.699)" fill="#e2f3ff"/>
      </g>
      <path id="Trazado_144951" data-name="Trazado 144951" d="M717.7,181.438c7.954-35.232,34.1-37.539,51.1-28.629,20.562,10.783,20.939,45.374-1.19,69.251-29.4,31.724-96,19.622-95.945-8.124C671.689,198.638,711.248,210.012,717.7,181.438Z" transform="translate(-8082.266 -7828.402)" fill="#e2f3ff"/>
      <g id="Grupo_94249" data-name="Grupo 94249" transform="translate(-7730.979 -7598.242)">
        <circle id="Elipse_4566" data-name="Elipse 4566" cx="30.861" cy="30.861" r="30.861" fill="#e2f3ff"/>
      </g>
      <path id="Trazado_144954" data-name="Trazado 144954" d="M212.354,197.448c27.884,11.289,43.342,34.981,30.073,61.98-16.057,32.672-56.62,33.177-79.288,13.4-36.393-31.755-42.072-99.5-14.681-111.943C170.3,150.964,169.779,180.212,212.354,197.448Z" transform="translate(-8378.13 -7822.666)" fill="#e2f3ff"/>
    </g>
  </g>
</svg>
