<svg xmlns="http://www.w3.org/2000/svg" width="66.439" height="63.363" viewBox="0 0 66.439 63.363">
  <g id="Grupo_848081" data-name="Grupo 848081" transform="translate(-1.28 -3.137)">
    <path id="Trazado_571382" data-name="Trazado 571382" d="M51.029,28.536v33.89a2.456,2.456,0,0,1-2.45,2.46H8.159a2.456,2.456,0,0,1-2.45-2.46V12.506a2.454,2.454,0,0,1,2.45-2.45h40.42a2.454,2.454,0,0,1,2.45,2.45v10.78" fill="#bbdeaf"/>
    <path id="Trazado_571383" data-name="Trazado 571383" d="M9.7,60.239V14.7a.645.645,0,0,1,.645-.645H46.388a.645.645,0,0,1,.645.645V60.239a.645.645,0,0,1-.645.645H10.349a.645.645,0,0,1-.645-.645Z" fill="#e8f3ff"/>
    <path id="Trazado_571384" data-name="Trazado 571384" d="M39.184,15.548H17.553a1,1,0,0,1-1-1V5.137a1,1,0,0,1,1-1H39.184a1,1,0,0,1,1,1v9.414A1,1,0,0,1,39.184,15.548Z" fill="#bbdeaf"/>
    <path id="Trazado_571385" data-name="Trazado 571385" d="M20.556,9.844a1.7,1.7,0,0,1,1.7-1.7H34.477a1.7,1.7,0,0,1,0,3.408H22.26a1.7,1.7,0,0,1-1.7-1.7Z" fill="#fff"/>
    <path id="Trazado_571386" data-name="Trazado 571386" d="M63.29,39.758v7.213a20.01,20.01,0,0,1-9.52,17.038l-2.1,1.294-2.1-1.294a20.01,20.01,0,0,1-9.52-17.038V39.758a4.687,4.687,0,0,0,4.681-4.693H58.609A4.687,4.687,0,0,0,63.29,39.758Z" fill="#ff854e"/>
    <g id="Grupo_848080" data-name="Grupo 848080">
      <path id="Trazado_571387" data-name="Trazado 571387" d="M66.72,64.5H54.826a21.179,21.179,0,0,0,9.463-17.532v-7.21a1,1,0,0,0-1-1,3.692,3.692,0,0,1-3.68-3.69,1,1,0,0,0-1-1h-6.58V28.536a1,1,0,0,0-2,0v5.532h-2V14.7a1.646,1.646,0,0,0-1.645-1.645H41.179v-2h7.4a1.452,1.452,0,0,1,1.45,1.45v10.78a1,1,0,0,0,2,0V12.506a3.454,3.454,0,0,0-3.45-3.45h-7.4V5.137a2,2,0,0,0-1.99-2H17.549a2,2,0,0,0-1.99,2V9.056h-7.4a3.454,3.454,0,0,0-3.45,3.45v49.92A3.432,3.432,0,0,0,5.415,64.5H2.28a1,1,0,1,0,0,2H66.72a1,1,0,0,0,0-2ZM62.289,40.667v6.3c0,12.241-10.234,16.778-10.62,17.16-.255-.259-10.63-5.116-10.63-17.16v-6.3a5.693,5.693,0,0,0,4.59-4.6H57.7a5.693,5.693,0,0,0,4.59,4.6ZM39.179,5.137v9.41H17.559l-.01-9.41Zm.01,11.41a1.984,1.984,0,0,0,1.92-1.49s0,0,0,0h4.923V34.067H44.719a1,1,0,0,0-1,1,3.692,3.692,0,0,1-3.68,3.69,1,1,0,0,0-1,1v3.52H25.759a1,1,0,0,0,0,2h13.28v1.69a21.208,21.208,0,0,0,1,6.44H25.329a1,1,0,0,0,0,2h15.46a20.77,20.77,0,0,0,2.678,4.477H10.7V15.053h4.924s0,0,0,0a1.984,1.984,0,0,0,1.92,1.49h21.64ZM6.709,12.506a1.452,1.452,0,0,1,1.45-1.45h7.4v2h-5.21A1.646,1.646,0,0,0,8.7,14.7V60.239a1.646,1.646,0,0,0,1.645,1.645H45.256l0,0a18.756,18.756,0,0,0,2.358,2H8.159a1.457,1.457,0,0,1-1.45-1.46Z" fill="#2d346a"/>
      <path id="Trazado_571388" data-name="Trazado 571388" d="M14.086,21.451a1,1,0,0,0,0,1.415l2.589,2.594a1,1,0,0,0,1.416,0l5.525-5.535A1,1,0,0,0,22.2,18.512l-4.817,4.826L15.5,21.452a1,1,0,0,0-1.414,0Z" fill="#2d346a"/>
      <path id="Trazado_571389" data-name="Trazado 571389" d="M22.2,28.834l-4.817,4.826L15.5,31.774a1,1,0,0,0-1.416,1.413l2.589,2.594a1,1,0,0,0,1.416,0l5.525-5.535A1,1,0,0,0,22.2,28.834Z" fill="#2d346a"/>
      <path id="Trazado_571390" data-name="Trazado 571390" d="M22.2,39.156l-4.817,4.826L15.5,42.1a1,1,0,0,0-1.416,1.413L16.673,46.1a1,1,0,0,0,1.416,0l5.525-5.535A1,1,0,0,0,22.2,39.156Z" fill="#2d346a"/>
      <path id="Trazado_571391" data-name="Trazado 571391" d="M22.2,49.477,17.381,54.3,15.5,52.418a1,1,0,0,0-1.416,1.413l2.589,2.594a1,1,0,0,0,1.416,0l5.525-5.535A1,1,0,0,0,22.2,49.477Z" fill="#2d346a"/>
      <path id="Trazado_571392" data-name="Trazado 571392" d="M25.758,24.281H41.945a1,1,0,0,0,0-2H25.758a1,1,0,0,0,0,2Z" fill="#2d346a"/>
      <path id="Trazado_571393" data-name="Trazado 571393" d="M25.758,35.031H41.945a1,1,0,0,0,0-2H25.758a1,1,0,0,0,0,2Z" fill="#2d346a"/>
      <path id="Trazado_571394" data-name="Trazado 571394" d="M22.259,12.547h12.22a2.705,2.705,0,0,0,0-5.41H22.259a2.705,2.705,0,0,0,0,5.41Zm0-3.41h12.22a.705.705,0,0,1,0,1.41H22.259a.705.705,0,0,1,0-1.41Z" fill="#2d346a"/>
      <path id="Trazado_571395" data-name="Trazado 571395" d="M44.819,49.947a1,1,0,0,0,0,1.41l3.78,3.78a.978.978,0,0,0,1.41,0l8.5-8.5a1,1,0,1,0-1.41-1.41l-7.79,7.79-3.08-3.07A1,1,0,0,0,44.819,49.947Z" fill="#2d346a"/>
    </g>
  </g>
</svg>
