<svg xmlns="http://www.w3.org/2000/svg" width="505.535" height="322.413" viewBox="0 0 505.535 322.413">
  <g id="Grupo_848507" data-name="Grupo 848507" transform="translate(-914.465 -1262.587)">
    <g id="Grupo_841538" data-name="Grupo 841538" transform="translate(0 -130)">
      <g id="Rectángulo_276336" data-name="Rectángulo 276336" transform="translate(915 1499)" fill="#efefef" stroke="#707070" stroke-width="2">
        <rect width="171" height="109" stroke="none"/>
        <rect x="1" y="1" width="169" height="107" fill="none"/>
      </g>
      <g id="Rectángulo_276337" data-name="Rectángulo 276337" transform="translate(915 1606)" fill="#efefef" stroke="#707070" stroke-width="2">
        <rect width="171" height="109" stroke="none"/>
        <rect x="1" y="1" width="169" height="107" fill="none"/>
      </g>
      <g id="Rectángulo_276338" data-name="Rectángulo 276338" transform="translate(1101 1499)" fill="none" stroke="#707070" stroke-width="2">
        <rect width="135" height="109" stroke="none"/>
        <rect x="1" y="1" width="133" height="107" fill="none"/>
      </g>
      <g id="Rectángulo_276339" data-name="Rectángulo 276339" transform="translate(1084 1606)" fill="#fff" stroke="#707070" stroke-width="2">
        <rect width="170" height="109" stroke="none"/>
        <rect x="1" y="1" width="168" height="107" fill="none"/>
      </g>
      <g id="Rectángulo_276340" data-name="Rectángulo 276340" transform="translate(1252 1499)" fill="#fff" stroke="#707070" stroke-width="2">
        <rect width="168" height="109" stroke="none"/>
        <rect x="1" y="1" width="166" height="107" fill="none"/>
      </g>
      <g id="Rectángulo_276341" data-name="Rectángulo 276341" transform="translate(1252 1606)" fill="#fff" stroke="#707070" stroke-width="2">
        <rect width="168" height="109" stroke="none"/>
        <rect x="1" y="1" width="166" height="107" fill="none"/>
      </g>
      <g id="Rectángulo_276343" data-name="Rectángulo 276343" transform="translate(1252 1393)" fill="#efefef" stroke="#707070" stroke-width="2">
        <rect width="168" height="109" stroke="none"/>
        <rect x="1" y="1" width="166" height="107" fill="none"/>
      </g>
      <g id="Rectángulo_276344" data-name="Rectángulo 276344" transform="translate(915 1393)" fill="#efefef" stroke="#707070" stroke-width="2">
        <rect width="172" height="109" stroke="none"/>
        <rect x="1" y="1" width="170" height="107" fill="none"/>
      </g>
      <path id="Trazado_565818" data-name="Trazado 565818" d="M448.589-10259.22l170,107.568" transform="translate(466.411 11652.651)" fill="none" stroke="#707070" stroke-width="2"/>
      <g id="Rectángulo_276345" data-name="Rectángulo 276345" transform="translate(1084 1500)" fill="#f8f4dc" stroke="#707070" stroke-width="2">
        <rect width="170" height="108" stroke="none"/>
        <rect x="1" y="1" width="168" height="106" fill="none"/>
      </g>
      <path id="Trazado_591509" data-name="Trazado 591509" d="M7.859,12.352h-4.5V17H1.016V5.625H8.422v1.9H3.359v2.938h4.5ZM14.266,17a2.507,2.507,0,0,1-.227-.758,2.732,2.732,0,0,1-2.133.914,3,3,0,0,1-2.059-.719,2.312,2.312,0,0,1-.816-1.812,2.389,2.389,0,0,1,1-2.062,4.915,4.915,0,0,1,2.879-.727h1.039v-.484a1.393,1.393,0,0,0-.3-.937,1.183,1.183,0,0,0-.949-.352,1.345,1.345,0,0,0-.895.273.929.929,0,0,0-.324.75H9.219a2.268,2.268,0,0,1,.453-1.359,3,3,0,0,1,1.281-.98,4.669,4.669,0,0,1,1.859-.355,3.689,3.689,0,0,1,2.48.785,2.747,2.747,0,0,1,.918,2.207v3.664a4.041,4.041,0,0,0,.336,1.82V17ZM12.4,15.43a1.945,1.945,0,0,0,.922-.223,1.462,1.462,0,0,0,.625-.6V13.156H13.1q-1.7,0-1.8,1.172l-.008.133a.9.9,0,0,0,.3.7A1.153,1.153,0,0,0,12.4,15.43Zm9.063-.094a1.481,1.481,0,0,0,1.016-.344,1.2,1.2,0,0,0,.406-.914H25a2.9,2.9,0,0,1-.469,1.574,3.093,3.093,0,0,1-1.262,1.109,3.949,3.949,0,0,1-1.77.395A3.67,3.67,0,0,1,18.641,16a4.56,4.56,0,0,1-1.047-3.184v-.148a4.508,4.508,0,0,1,1.039-3.117,3.627,3.627,0,0,1,2.852-1.164,3.555,3.555,0,0,1,2.543.9A3.2,3.2,0,0,1,25,11.7H22.883a1.551,1.551,0,0,0-.406-1.072,1.51,1.51,0,0,0-2.223.163,3.333,3.333,0,0,0-.4,1.866v.235a3.375,3.375,0,0,0,.4,1.878A1.377,1.377,0,0,0,21.461,15.336Zm7.531-8.867V8.547h1.445V10.2H28.992v4.219a1.007,1.007,0,0,0,.18.672.9.9,0,0,0,.688.2,3.6,3.6,0,0,0,.664-.055v1.711a4.648,4.648,0,0,1-1.367.2,2.156,2.156,0,0,1-2.422-2.4V10.2H25.5V8.547h1.234V6.469ZM31.109,12.7a5.013,5.013,0,0,1,.484-2.242A3.546,3.546,0,0,1,32.988,8.93,4.069,4.069,0,0,1,35.1,8.391a3.849,3.849,0,0,1,2.793,1.047A4.2,4.2,0,0,1,39.1,12.281l.016.578a4.418,4.418,0,0,1-1.086,3.121,4.209,4.209,0,0,1-5.832,0,4.5,4.5,0,0,1-1.09-3.187Zm2.258.16A3.16,3.16,0,0,0,33.82,14.7a1.628,1.628,0,0,0,2.578.008,3.457,3.457,0,0,0,.461-2.015A3.128,3.128,0,0,0,36.4,10.86a1.5,1.5,0,0,0-1.3-.649,1.474,1.474,0,0,0-1.281.646A3.516,3.516,0,0,0,33.367,12.856Zm11.891-2.192a6.134,6.134,0,0,0-.812-.062,1.654,1.654,0,0,0-1.68.867V17H40.508V8.547h2.133L42.7,9.555a2.092,2.092,0,0,1,1.883-1.164,2.366,2.366,0,0,1,.7.1Zm4.977,6.492a4.15,4.15,0,0,1-3.027-1.141,4.054,4.054,0,0,1-1.168-3.039v-.219a5.106,5.106,0,0,1,.492-2.277,3.612,3.612,0,0,1,1.395-1.547,3.914,3.914,0,0,1,2.059-.543,3.508,3.508,0,0,1,2.73,1.094,4.444,4.444,0,0,1,1,3.1v.922H48.328a2.1,2.1,0,0,0,.66,1.328,2,2,0,0,0,1.395.5,2.437,2.437,0,0,0,2.039-.945l1.109,1.242a3.389,3.389,0,0,1-1.375,1.121A4.511,4.511,0,0,1,50.234,17.156Zm-.258-6.945a1.411,1.411,0,0,0-1.09.455,2.357,2.357,0,0,0-.535,1.3h3.141v-.181a1.681,1.681,0,0,0-.406-1.165A1.456,1.456,0,0,0,49.977,10.211Zm9.594,4.453a.727.727,0,0,0-.41-.652,4.659,4.659,0,0,0-1.316-.426q-3.016-.633-3.016-2.562a2.323,2.323,0,0,1,.934-1.879A3.766,3.766,0,0,1,58.2,8.391a4.053,4.053,0,0,1,2.574.758,2.388,2.388,0,0,1,.965,1.969H59.484a1.092,1.092,0,0,0-.312-.8A1.322,1.322,0,0,0,58.2,10a1.351,1.351,0,0,0-.883.258.814.814,0,0,0-.312.656.7.7,0,0,0,.355.605,3.657,3.657,0,0,0,1.2.4,9.8,9.8,0,0,1,1.422.379,2.336,2.336,0,0,1,1.789,2.273,2.2,2.2,0,0,1-.992,1.871,4.28,4.28,0,0,1-2.562.715,4.47,4.47,0,0,1-1.887-.379,3.166,3.166,0,0,1-1.293-1.039,2.414,2.414,0,0,1-.469-1.426H56.7a1.179,1.179,0,0,0,.445.922,1.766,1.766,0,0,0,1.109.32,1.635,1.635,0,0,0,.98-.246A.766.766,0,0,0,59.57,14.664ZM7.859,33.07h-4.5v3.047H8.641V38H1.016V26.625H8.625v1.9H3.359v2.711h4.5Zm5.227-1,1.422-2.523h2.414l-2.406,4.141L17.023,38H14.6l-1.508-2.656L11.594,38H9.164l2.508-4.312-2.4-4.141H11.7Zm7.625-4.6v2.078h1.445V31.2H20.711v4.219a1.007,1.007,0,0,0,.18.672.9.9,0,0,0,.688.2,3.6,3.6,0,0,0,.664-.055v1.711a4.648,4.648,0,0,1-1.367.2,2.156,2.156,0,0,1-2.422-2.4V31.2H17.219V29.547h1.234V27.469ZM27.3,38.156a4.15,4.15,0,0,1-3.027-1.141,4.054,4.054,0,0,1-1.168-3.039v-.219A5.106,5.106,0,0,1,23.6,31.48,3.612,3.612,0,0,1,25,29.934a3.914,3.914,0,0,1,2.059-.543,3.508,3.508,0,0,1,2.73,1.094,4.444,4.444,0,0,1,1,3.1v.922H25.4a2.1,2.1,0,0,0,.66,1.328,2,2,0,0,0,1.395.5,2.437,2.437,0,0,0,2.039-.945L30.6,36.633a3.389,3.389,0,0,1-1.375,1.121A4.511,4.511,0,0,1,27.3,38.156Zm-.258-6.945a1.411,1.411,0,0,0-1.09.455,2.357,2.357,0,0,0-.535,1.3h3.141v-.181a1.681,1.681,0,0,0-.406-1.165A1.456,1.456,0,0,0,27.047,31.211Zm9.766.453A6.134,6.134,0,0,0,36,31.6a1.654,1.654,0,0,0-1.68.867V38H32.063V29.547H34.2l.063,1.008a2.092,2.092,0,0,1,1.883-1.164,2.366,2.366,0,0,1,.7.1Zm3.164-2.117.07.977a2.951,2.951,0,0,1,2.43-1.133,2.453,2.453,0,0,1,2,.789,3.682,3.682,0,0,1,.672,2.359V38H42.891V32.594a1.465,1.465,0,0,0-.312-1.043,1.4,1.4,0,0,0-1.039-.324,1.553,1.553,0,0,0-1.43.813V38H37.852V29.547ZM46.508,33.7a5.013,5.013,0,0,1,.484-2.242,3.546,3.546,0,0,1,1.395-1.523,4.069,4.069,0,0,1,2.113-.539,3.849,3.849,0,0,1,2.793,1.047A4.2,4.2,0,0,1,54.5,33.281l.016.578A4.418,4.418,0,0,1,53.43,36.98a4.209,4.209,0,0,1-5.832,0,4.5,4.5,0,0,1-1.09-3.187Zm2.258.16a3.16,3.16,0,0,0,.453,1.843,1.628,1.628,0,0,0,2.578.008,3.457,3.457,0,0,0,.461-2.015A3.128,3.128,0,0,0,51.8,31.86a1.5,1.5,0,0,0-1.3-.649,1.474,1.474,0,0,0-1.281.646A3.516,3.516,0,0,0,48.766,33.856Zm11.719,1.808a.727.727,0,0,0-.41-.652,4.659,4.659,0,0,0-1.316-.426q-3.016-.633-3.016-2.562a2.323,2.323,0,0,1,.934-1.879,3.766,3.766,0,0,1,2.441-.754,4.053,4.053,0,0,1,2.574.758,2.388,2.388,0,0,1,.965,1.969H60.4a1.092,1.092,0,0,0-.312-.8A1.322,1.322,0,0,0,59.109,31a1.351,1.351,0,0,0-.883.258.814.814,0,0,0-.312.656.7.7,0,0,0,.355.605,3.657,3.657,0,0,0,1.2.4,9.8,9.8,0,0,1,1.422.379A2.336,2.336,0,0,1,62.68,35.57a2.205,2.205,0,0,1-.992,1.871,4.28,4.28,0,0,1-2.562.715,4.47,4.47,0,0,1-1.887-.379,3.166,3.166,0,0,1-1.293-1.039,2.414,2.414,0,0,1-.469-1.426h2.141a1.179,1.179,0,0,0,.445.922,1.766,1.766,0,0,0,1.109.32,1.635,1.635,0,0,0,.98-.246A.766.766,0,0,0,60.484,35.664Z" transform="translate(1001 1401)" fill="#12263f"/>
      <path id="Trazado_591512" data-name="Trazado 591512" d="M7.859,12.352h-4.5V17H1.016V5.625H8.422v1.9H3.359v2.938h4.5ZM14.266,17a2.507,2.507,0,0,1-.227-.758,2.732,2.732,0,0,1-2.133.914,3,3,0,0,1-2.059-.719,2.312,2.312,0,0,1-.816-1.812,2.389,2.389,0,0,1,1-2.062,4.915,4.915,0,0,1,2.879-.727h1.039v-.484a1.393,1.393,0,0,0-.3-.937,1.183,1.183,0,0,0-.949-.352,1.345,1.345,0,0,0-.895.273.929.929,0,0,0-.324.75H9.219a2.268,2.268,0,0,1,.453-1.359,3,3,0,0,1,1.281-.98,4.669,4.669,0,0,1,1.859-.355,3.689,3.689,0,0,1,2.48.785,2.747,2.747,0,0,1,.918,2.207v3.664a4.041,4.041,0,0,0,.336,1.82V17ZM12.4,15.43a1.945,1.945,0,0,0,.922-.223,1.462,1.462,0,0,0,.625-.6V13.156H13.1q-1.7,0-1.8,1.172l-.008.133a.9.9,0,0,0,.3.7A1.153,1.153,0,0,0,12.4,15.43Zm9.063-.094a1.481,1.481,0,0,0,1.016-.344,1.2,1.2,0,0,0,.406-.914H25a2.9,2.9,0,0,1-.469,1.574,3.093,3.093,0,0,1-1.262,1.109,3.949,3.949,0,0,1-1.77.395A3.67,3.67,0,0,1,18.641,16a4.56,4.56,0,0,1-1.047-3.184v-.148a4.508,4.508,0,0,1,1.039-3.117,3.627,3.627,0,0,1,2.852-1.164,3.555,3.555,0,0,1,2.543.9A3.2,3.2,0,0,1,25,11.7H22.883a1.551,1.551,0,0,0-.406-1.072,1.51,1.51,0,0,0-2.223.163,3.333,3.333,0,0,0-.4,1.866v.235a3.375,3.375,0,0,0,.4,1.878A1.377,1.377,0,0,0,21.461,15.336Zm7.531-8.867V8.547h1.445V10.2H28.992v4.219a1.007,1.007,0,0,0,.18.672.9.9,0,0,0,.688.2,3.6,3.6,0,0,0,.664-.055v1.711a4.648,4.648,0,0,1-1.367.2,2.156,2.156,0,0,1-2.422-2.4V10.2H25.5V8.547h1.234V6.469ZM31.109,12.7a5.013,5.013,0,0,1,.484-2.242A3.546,3.546,0,0,1,32.988,8.93,4.069,4.069,0,0,1,35.1,8.391a3.849,3.849,0,0,1,2.793,1.047A4.2,4.2,0,0,1,39.1,12.281l.016.578a4.418,4.418,0,0,1-1.086,3.121,4.209,4.209,0,0,1-5.832,0,4.5,4.5,0,0,1-1.09-3.187Zm2.258.16A3.16,3.16,0,0,0,33.82,14.7a1.628,1.628,0,0,0,2.578.008,3.457,3.457,0,0,0,.461-2.015A3.128,3.128,0,0,0,36.4,10.86a1.5,1.5,0,0,0-1.3-.649,1.474,1.474,0,0,0-1.281.646A3.516,3.516,0,0,0,33.367,12.856Zm11.891-2.192a6.134,6.134,0,0,0-.812-.062,1.654,1.654,0,0,0-1.68.867V17H40.508V8.547h2.133L42.7,9.555a2.092,2.092,0,0,1,1.883-1.164,2.366,2.366,0,0,1,.7.1Zm4.977,6.492a4.15,4.15,0,0,1-3.027-1.141,4.054,4.054,0,0,1-1.168-3.039v-.219a5.106,5.106,0,0,1,.492-2.277,3.612,3.612,0,0,1,1.395-1.547,3.914,3.914,0,0,1,2.059-.543,3.508,3.508,0,0,1,2.73,1.094,4.444,4.444,0,0,1,1,3.1v.922H48.328a2.1,2.1,0,0,0,.66,1.328,2,2,0,0,0,1.395.5,2.437,2.437,0,0,0,2.039-.945l1.109,1.242a3.389,3.389,0,0,1-1.375,1.121A4.511,4.511,0,0,1,50.234,17.156Zm-.258-6.945a1.411,1.411,0,0,0-1.09.455,2.357,2.357,0,0,0-.535,1.3h3.141v-.181a1.681,1.681,0,0,0-.406-1.165A1.456,1.456,0,0,0,49.977,10.211Zm9.594,4.453a.727.727,0,0,0-.41-.652,4.659,4.659,0,0,0-1.316-.426q-3.016-.633-3.016-2.562a2.323,2.323,0,0,1,.934-1.879A3.766,3.766,0,0,1,58.2,8.391a4.053,4.053,0,0,1,2.574.758,2.388,2.388,0,0,1,.965,1.969H59.484a1.092,1.092,0,0,0-.312-.8A1.322,1.322,0,0,0,58.2,10a1.351,1.351,0,0,0-.883.258.814.814,0,0,0-.312.656.7.7,0,0,0,.355.605,3.657,3.657,0,0,0,1.2.4,9.8,9.8,0,0,1,1.422.379,2.336,2.336,0,0,1,1.789,2.273,2.2,2.2,0,0,1-.992,1.871,4.28,4.28,0,0,1-2.562.715,4.47,4.47,0,0,1-1.887-.379,3.166,3.166,0,0,1-1.293-1.039,2.414,2.414,0,0,1-.469-1.426H56.7a1.179,1.179,0,0,0,.445.922,1.766,1.766,0,0,0,1.109.32,1.635,1.635,0,0,0,.98-.246A.766.766,0,0,0,59.57,14.664ZM3.508,38H1.164V26.625H3.508Zm4.1-8.453.07.977a2.951,2.951,0,0,1,2.43-1.133,2.453,2.453,0,0,1,2,.789,3.682,3.682,0,0,1,.672,2.359V38H10.523V32.594a1.465,1.465,0,0,0-.312-1.043,1.4,1.4,0,0,0-1.039-.324,1.553,1.553,0,0,0-1.43.813V38H5.484V29.547ZM17.2,27.469v2.078h1.445V31.2H17.2v4.219a1.007,1.007,0,0,0,.18.672.9.9,0,0,0,.688.2,3.6,3.6,0,0,0,.664-.055v1.711a4.648,4.648,0,0,1-1.367.2,2.156,2.156,0,0,1-2.422-2.4V31.2H13.7V29.547h1.234V27.469Zm6.594,10.688a4.15,4.15,0,0,1-3.027-1.141,4.054,4.054,0,0,1-1.168-3.039v-.219a5.106,5.106,0,0,1,.492-2.277,3.612,3.612,0,0,1,1.395-1.547,3.914,3.914,0,0,1,2.059-.543,3.508,3.508,0,0,1,2.73,1.094,4.444,4.444,0,0,1,1,3.1v.922H21.883a2.1,2.1,0,0,0,.66,1.328,2,2,0,0,0,1.395.5,2.437,2.437,0,0,0,2.039-.945l1.109,1.242a3.389,3.389,0,0,1-1.375,1.121A4.511,4.511,0,0,1,23.789,38.156Zm-.258-6.945a1.411,1.411,0,0,0-1.09.455,2.357,2.357,0,0,0-.535,1.3h3.141v-.181a1.681,1.681,0,0,0-.406-1.165A1.456,1.456,0,0,0,23.531,31.211Zm9.766.453a6.134,6.134,0,0,0-.812-.062,1.654,1.654,0,0,0-1.68.867V38H28.547V29.547H30.68l.063,1.008a2.092,2.092,0,0,1,1.883-1.164,2.366,2.366,0,0,1,.7.1Zm3.164-2.117.07.977a2.951,2.951,0,0,1,2.43-1.133,2.453,2.453,0,0,1,2,.789,3.682,3.682,0,0,1,.672,2.359V38H39.375V32.594a1.465,1.465,0,0,0-.312-1.043,1.4,1.4,0,0,0-1.039-.324,1.553,1.553,0,0,0-1.43.813V38H34.336V29.547ZM42.992,33.7a5.013,5.013,0,0,1,.484-2.242,3.546,3.546,0,0,1,1.395-1.523,4.069,4.069,0,0,1,2.113-.539,3.849,3.849,0,0,1,2.793,1.047,4.2,4.2,0,0,1,1.207,2.844l.016.578a4.418,4.418,0,0,1-1.086,3.121,4.209,4.209,0,0,1-5.832,0,4.5,4.5,0,0,1-1.09-3.187Zm2.258.16A3.16,3.16,0,0,0,45.7,35.7a1.628,1.628,0,0,0,2.578.008,3.457,3.457,0,0,0,.461-2.015,3.128,3.128,0,0,0-.461-1.831,1.5,1.5,0,0,0-1.3-.649,1.474,1.474,0,0,0-1.281.646A3.516,3.516,0,0,0,45.25,33.856Zm11.719,1.808a.727.727,0,0,0-.41-.652,4.659,4.659,0,0,0-1.316-.426q-3.016-.633-3.016-2.562a2.323,2.323,0,0,1,.934-1.879,3.766,3.766,0,0,1,2.441-.754,4.053,4.053,0,0,1,2.574.758,2.388,2.388,0,0,1,.965,1.969H56.883a1.092,1.092,0,0,0-.312-.8A1.322,1.322,0,0,0,55.594,31a1.351,1.351,0,0,0-.883.258.814.814,0,0,0-.312.656.7.7,0,0,0,.355.605,3.657,3.657,0,0,0,1.2.4,9.8,9.8,0,0,1,1.422.379,2.336,2.336,0,0,1,1.789,2.273,2.205,2.205,0,0,1-.992,1.871,4.28,4.28,0,0,1-2.562.715,4.47,4.47,0,0,1-1.887-.379,3.166,3.166,0,0,1-1.293-1.039,2.414,2.414,0,0,1-.469-1.426H54.1a1.179,1.179,0,0,0,.445.922,1.766,1.766,0,0,0,1.109.32,1.635,1.635,0,0,0,.98-.246A.766.766,0,0,0,56.969,35.664Z" transform="translate(931 1450)" fill="#12263f"/>
      <path id="Trazado_591511" data-name="Trazado 591511" d="M1.016,17V5.625h3.5A5.315,5.315,0,0,1,7.2,6.3,4.712,4.712,0,0,1,9.047,8.223a5.928,5.928,0,0,1,.664,2.832v.523a5.945,5.945,0,0,1-.652,2.82,4.672,4.672,0,0,1-1.84,1.914A5.355,5.355,0,0,1,4.539,17ZM3.359,7.523v7.594H4.492a2.545,2.545,0,0,0,2.1-.9,4.06,4.06,0,0,0,.742-2.57v-.6a4.124,4.124,0,0,0-.719-2.629,2.537,2.537,0,0,0-2.1-.895Zm11.8,9.633a4.15,4.15,0,0,1-3.027-1.141,4.054,4.054,0,0,1-1.168-3.039v-.219a5.106,5.106,0,0,1,.492-2.277,3.612,3.612,0,0,1,1.395-1.547,3.914,3.914,0,0,1,2.059-.543,3.508,3.508,0,0,1,2.73,1.094,4.444,4.444,0,0,1,1,3.1v.922H13.25a2.1,2.1,0,0,0,.66,1.328,2,2,0,0,0,1.395.5,2.437,2.437,0,0,0,2.039-.945l1.109,1.242a3.389,3.389,0,0,1-1.375,1.121A4.511,4.511,0,0,1,15.156,17.156ZM14.9,10.211a1.411,1.411,0,0,0-1.09.455,2.357,2.357,0,0,0-.535,1.3h3.141v-.181a1.681,1.681,0,0,0-.406-1.165A1.456,1.456,0,0,0,14.9,10.211Zm12.633,2.641a5.119,5.119,0,0,1-.867,3.168,2.872,2.872,0,0,1-2.422,1.137,2.639,2.639,0,0,1-2.2-1.055l-.1.9H19.914V5h2.258V9.3a2.571,2.571,0,0,1,2.055-.914,2.9,2.9,0,0,1,2.426,1.137,5.126,5.126,0,0,1,.879,3.2Zm-2.258-.164a3.363,3.363,0,0,0-.406-1.871,1.374,1.374,0,0,0-1.211-.59,1.489,1.489,0,0,0-1.484.883v3.336a1.509,1.509,0,0,0,1.5.891,1.394,1.394,0,0,0,1.438-1.078A5.562,5.562,0,0,0,25.273,12.688ZM31.3,17H29.039V8.547H31.3Zm-2.4-10.641a1.112,1.112,0,0,1,.34-.836,1.465,1.465,0,0,1,1.848,0,1.105,1.105,0,0,1,.344.836,1.108,1.108,0,0,1-.348.844,1.448,1.448,0,0,1-1.836,0A1.108,1.108,0,0,1,28.906,6.359ZM35.547,17H33.281V5h2.266Zm4.242,0H37.523V8.547h2.266Zm-2.4-10.641a1.112,1.112,0,0,1,.34-.836,1.465,1.465,0,0,1,1.848,0,1.105,1.105,0,0,1,.344.836,1.108,1.108,0,0,1-.348.844,1.448,1.448,0,0,1-1.836,0A1.108,1.108,0,0,1,37.391,6.359ZM41.3,12.711a5.094,5.094,0,0,1,.887-3.148,2.877,2.877,0,0,1,2.426-1.172,2.589,2.589,0,0,1,2.039.922V5h2.266V17H46.875l-.109-.9a2.657,2.657,0,0,1-2.172,1.055A2.869,2.869,0,0,1,42.2,15.98,5.258,5.258,0,0,1,41.3,12.711Zm2.258.168a3.337,3.337,0,0,0,.414,1.823,1.349,1.349,0,0,0,1.2.634,1.511,1.511,0,0,0,1.477-.884V11.111a1.489,1.489,0,0,0-1.461-.884Q43.555,10.227,43.555,12.879ZM55.563,17a2.507,2.507,0,0,1-.227-.758,2.732,2.732,0,0,1-2.133.914,3,3,0,0,1-2.059-.719,2.312,2.312,0,0,1-.816-1.812,2.389,2.389,0,0,1,1-2.062,4.915,4.915,0,0,1,2.879-.727h1.039v-.484a1.393,1.393,0,0,0-.3-.937,1.183,1.183,0,0,0-.949-.352,1.345,1.345,0,0,0-.895.273.929.929,0,0,0-.324.75H50.516a2.268,2.268,0,0,1,.453-1.359,3,3,0,0,1,1.281-.98,4.669,4.669,0,0,1,1.859-.355,3.689,3.689,0,0,1,2.48.785,2.747,2.747,0,0,1,.918,2.207v3.664a4.041,4.041,0,0,0,.336,1.82V17ZM53.7,15.43a1.945,1.945,0,0,0,.922-.223,1.462,1.462,0,0,0,.625-.6V13.156H54.4q-1.7,0-1.8,1.172l-.008.133a.9.9,0,0,0,.3.7A1.153,1.153,0,0,0,53.7,15.43Zm5.2-2.719a5.094,5.094,0,0,1,.887-3.148A2.877,2.877,0,0,1,62.2,8.391a2.589,2.589,0,0,1,2.039.922V5h2.266V17H64.469l-.109-.9a2.657,2.657,0,0,1-2.172,1.055,2.869,2.869,0,0,1-2.395-1.176A5.258,5.258,0,0,1,58.891,12.711Zm2.258.168a3.337,3.337,0,0,0,.414,1.823,1.349,1.349,0,0,0,1.2.634,1.511,1.511,0,0,0,1.477-.884V11.111a1.489,1.489,0,0,0-1.461-.884Q61.148,10.227,61.148,12.879Zm11,4.277a4.15,4.15,0,0,1-3.027-1.141,4.054,4.054,0,0,1-1.168-3.039v-.219a5.106,5.106,0,0,1,.492-2.277A3.612,3.612,0,0,1,69.84,8.934,3.914,3.914,0,0,1,71.9,8.391a3.508,3.508,0,0,1,2.73,1.094,4.444,4.444,0,0,1,1,3.1v.922H70.242a2.1,2.1,0,0,0,.66,1.328,2,2,0,0,0,1.395.5,2.437,2.437,0,0,0,2.039-.945l1.109,1.242a3.389,3.389,0,0,1-1.375,1.121A4.511,4.511,0,0,1,72.148,17.156Zm-.258-6.945a1.411,1.411,0,0,0-1.09.455,2.357,2.357,0,0,0-.535,1.3h3.141v-.181A1.681,1.681,0,0,0,73,10.623,1.456,1.456,0,0,0,71.891,10.211Zm9.594,4.453a.727.727,0,0,0-.41-.652,4.659,4.659,0,0,0-1.316-.426q-3.016-.633-3.016-2.562a2.323,2.323,0,0,1,.934-1.879,3.766,3.766,0,0,1,2.441-.754,4.053,4.053,0,0,1,2.574.758,2.388,2.388,0,0,1,.965,1.969H81.4a1.092,1.092,0,0,0-.312-.8A1.322,1.322,0,0,0,80.109,10a1.351,1.351,0,0,0-.883.258.814.814,0,0,0-.312.656.7.7,0,0,0,.355.605,3.657,3.657,0,0,0,1.2.4,9.8,9.8,0,0,1,1.422.379A2.336,2.336,0,0,1,83.68,14.57a2.2,2.2,0,0,1-.992,1.871,4.28,4.28,0,0,1-2.562.715,4.47,4.47,0,0,1-1.887-.379,3.166,3.166,0,0,1-1.293-1.039,2.414,2.414,0,0,1-.469-1.426h2.141a1.179,1.179,0,0,0,.445.922,1.766,1.766,0,0,0,1.109.32,1.635,1.635,0,0,0,.98-.246A.766.766,0,0,0,81.484,14.664Z" transform="translate(1293 1437)" fill="#12263f"/>
      <path id="Trazado_591513" data-name="Trazado 591513" d="M10.359,11.57a6.867,6.867,0,0,1-.594,2.945,4.472,4.472,0,0,1-1.7,1.953,4.7,4.7,0,0,1-2.535.688,4.732,4.732,0,0,1-2.523-.68,4.515,4.515,0,0,1-1.719-1.941,6.67,6.67,0,0,1-.617-2.9V11.07a6.831,6.831,0,0,1,.605-2.957A4.508,4.508,0,0,1,2.988,6.152a4.706,4.706,0,0,1,2.527-.684,4.706,4.706,0,0,1,2.527.684A4.508,4.508,0,0,1,9.754,8.113a6.811,6.811,0,0,1,.605,2.949Zm-2.375-.516a4.787,4.787,0,0,0-.641-2.719,2.088,2.088,0,0,0-1.828-.93,2.088,2.088,0,0,0-1.82.918,4.732,4.732,0,0,0-.648,2.691v.555a4.847,4.847,0,0,0,.641,2.7,2.082,2.082,0,0,0,1.844.961,2.064,2.064,0,0,0,1.813-.926,4.819,4.819,0,0,0,.641-2.7Zm11.539,1.8a5.07,5.07,0,0,1-.887,3.129,2.843,2.843,0,0,1-2.395,1.176,2.633,2.633,0,0,1-2.07-.891V20.25H11.914V8.547h2.094l.078.828a2.654,2.654,0,0,1,2.141-.984,2.862,2.862,0,0,1,2.43,1.156,5.207,5.207,0,0,1,.867,3.188Zm-2.258-.164a3.327,3.327,0,0,0-.418-1.82,1.361,1.361,0,0,0-1.215-.641,1.479,1.479,0,0,0-1.461.813V14.5a1.5,1.5,0,0,0,1.477.836Q17.266,15.336,17.266,12.688Zm3.3.008a5.013,5.013,0,0,1,.484-2.242A3.546,3.546,0,0,1,22.449,8.93a4.069,4.069,0,0,1,2.113-.539,3.849,3.849,0,0,1,2.793,1.047,4.2,4.2,0,0,1,1.207,2.844l.016.578a4.418,4.418,0,0,1-1.086,3.121,3.775,3.775,0,0,1-2.914,1.176,3.793,3.793,0,0,1-2.918-1.172A4.5,4.5,0,0,1,20.57,12.8Zm2.258.16a3.16,3.16,0,0,0,.453,1.843,1.628,1.628,0,0,0,2.578.008,3.457,3.457,0,0,0,.461-2.015,3.128,3.128,0,0,0-.461-1.831,1.5,1.5,0,0,0-1.3-.649,1.474,1.474,0,0,0-1.281.646A3.516,3.516,0,0,0,22.828,12.856Zm11.891-2.192a6.134,6.134,0,0,0-.812-.062,1.654,1.654,0,0,0-1.68.867V17H29.969V8.547H32.1l.063,1.008a2.092,2.092,0,0,1,1.883-1.164,2.366,2.366,0,0,1,.7.1Zm4.18-4.2V8.547h1.445V10.2H38.9v4.219a1.007,1.007,0,0,0,.18.672.9.9,0,0,0,.688.2,3.6,3.6,0,0,0,.664-.055v1.711a4.648,4.648,0,0,1-1.367.2,2.156,2.156,0,0,1-2.422-2.4V10.2H35.406V8.547h1.234V6.469Zm7.766,9.672a2.831,2.831,0,0,1-2.312,1.016,2.67,2.67,0,0,1-2.074-.781,3.335,3.335,0,0,1-.73-2.289V8.547H43.8v5.467q0,1.322,1.2,1.322a1.63,1.63,0,0,0,1.578-.8V8.547h2.266V17H46.727Zm5.969-7.594.07.977a2.951,2.951,0,0,1,2.43-1.133,2.453,2.453,0,0,1,2,.789,3.682,3.682,0,0,1,.672,2.359V17H55.547V11.594a1.465,1.465,0,0,0-.312-1.043,1.4,1.4,0,0,0-1.039-.324,1.553,1.553,0,0,0-1.43.813V17H50.508V8.547ZM61.9,17H59.633V8.547H61.9ZM59.5,6.359a1.112,1.112,0,0,1,.34-.836,1.465,1.465,0,0,1,1.848,0,1.105,1.105,0,0,1,.344.836,1.108,1.108,0,0,1-.348.844,1.448,1.448,0,0,1-1.836,0A1.108,1.108,0,0,1,59.5,6.359Zm3.906,6.352a5.094,5.094,0,0,1,.887-3.148,2.877,2.877,0,0,1,2.426-1.172,2.589,2.589,0,0,1,2.039.922V5h2.266V17H68.984l-.109-.9A2.657,2.657,0,0,1,66.7,17.156a2.869,2.869,0,0,1-2.395-1.176A5.258,5.258,0,0,1,63.406,12.711Zm2.258.168a3.337,3.337,0,0,0,.414,1.823,1.349,1.349,0,0,0,1.2.634,1.511,1.511,0,0,0,1.477-.884V11.111a1.489,1.489,0,0,0-1.461-.884Q65.664,10.227,65.664,12.879ZM77.672,17a2.507,2.507,0,0,1-.227-.758,2.732,2.732,0,0,1-2.133.914,3,3,0,0,1-2.059-.719,2.312,2.312,0,0,1-.816-1.812,2.389,2.389,0,0,1,1-2.062,4.915,4.915,0,0,1,2.879-.727h1.039v-.484a1.393,1.393,0,0,0-.3-.937,1.183,1.183,0,0,0-.949-.352,1.345,1.345,0,0,0-.895.273.929.929,0,0,0-.324.75H72.625a2.268,2.268,0,0,1,.453-1.359,3,3,0,0,1,1.281-.98,4.669,4.669,0,0,1,1.859-.355,3.689,3.689,0,0,1,2.48.785,2.747,2.747,0,0,1,.918,2.207v3.664a4.041,4.041,0,0,0,.336,1.82V17ZM75.8,15.43a1.945,1.945,0,0,0,.922-.223,1.462,1.462,0,0,0,.625-.6V13.156h-.844q-1.7,0-1.8,1.172l-.008.133a.9.9,0,0,0,.3.7A1.153,1.153,0,0,0,75.8,15.43ZM81,12.711a5.094,5.094,0,0,1,.887-3.148,2.877,2.877,0,0,1,2.426-1.172,2.589,2.589,0,0,1,2.039.922V5h2.266V17H86.578l-.109-.9A2.657,2.657,0,0,1,84.3,17.156,2.869,2.869,0,0,1,81.9,15.98,5.258,5.258,0,0,1,81,12.711Zm2.258.168a3.337,3.337,0,0,0,.414,1.823,1.349,1.349,0,0,0,1.2.634,1.511,1.511,0,0,0,1.477-.884V11.111a1.489,1.489,0,0,0-1.461-.884Q83.258,10.227,83.258,12.879Zm11,4.277a4.15,4.15,0,0,1-3.027-1.141,4.054,4.054,0,0,1-1.168-3.039v-.219a5.106,5.106,0,0,1,.492-2.277,3.612,3.612,0,0,1,1.395-1.547,3.914,3.914,0,0,1,2.059-.543,3.508,3.508,0,0,1,2.73,1.094,4.444,4.444,0,0,1,1,3.1v.922H92.352a2.1,2.1,0,0,0,.66,1.328,2,2,0,0,0,1.395.5,2.437,2.437,0,0,0,2.039-.945l1.109,1.242a3.389,3.389,0,0,1-1.375,1.121A4.511,4.511,0,0,1,94.258,17.156ZM94,10.211a1.411,1.411,0,0,0-1.09.455,2.357,2.357,0,0,0-.535,1.3h3.141v-.181a1.681,1.681,0,0,0-.406-1.165A1.456,1.456,0,0,0,94,10.211Zm9.594,4.453a.727.727,0,0,0-.41-.652,4.659,4.659,0,0,0-1.316-.426q-3.016-.633-3.016-2.562a2.323,2.323,0,0,1,.934-1.879,3.766,3.766,0,0,1,2.441-.754,4.053,4.053,0,0,1,2.574.758,2.388,2.388,0,0,1,.965,1.969h-2.258a1.092,1.092,0,0,0-.312-.8,1.322,1.322,0,0,0-.977-.316,1.351,1.351,0,0,0-.883.258.814.814,0,0,0-.312.656.7.7,0,0,0,.355.605,3.657,3.657,0,0,0,1.2.4A9.8,9.8,0,0,1,104,12.3a2.336,2.336,0,0,1,1.789,2.273,2.2,2.2,0,0,1-.992,1.871,4.28,4.28,0,0,1-2.562.715,4.47,4.47,0,0,1-1.887-.379,3.166,3.166,0,0,1-1.293-1.039,2.414,2.414,0,0,1-.469-1.426h2.141a1.179,1.179,0,0,0,.445.922,1.766,1.766,0,0,0,1.109.32,1.635,1.635,0,0,0,.98-.246A.766.766,0,0,0,103.594,14.664Z" transform="translate(947 1542)" fill="#12263f"/>
      <path id="Trazado_591522" data-name="Trazado 591522" d="M7.438,14.656H3.328L2.547,17H.055L4.289,5.625H6.461L10.719,17H8.227Zm-3.477-1.9H6.8L5.375,8.5ZM13.75,8.547l.07.945a2.971,2.971,0,0,1,2.43-1.1A2.255,2.255,0,0,1,18.492,9.68a2.9,2.9,0,0,1,2.539-1.289,2.521,2.521,0,0,1,2.047.8,3.681,3.681,0,0,1,.672,2.41V17H21.484V11.609a1.61,1.61,0,0,0-.281-1.051,1.246,1.246,0,0,0-.992-.332A1.409,1.409,0,0,0,18.8,11.2l.008,5.8H16.555V11.617a1.59,1.59,0,0,0-.289-1.062,1.259,1.259,0,0,0-.984-.328,1.463,1.463,0,0,0-1.391.8V17H11.633V8.547Zm15.625,8.609a4.15,4.15,0,0,1-3.027-1.141,4.054,4.054,0,0,1-1.168-3.039v-.219a5.106,5.106,0,0,1,.492-2.277,3.612,3.612,0,0,1,1.395-1.547,3.914,3.914,0,0,1,2.059-.543,3.508,3.508,0,0,1,2.73,1.094,4.444,4.444,0,0,1,1,3.1v.922H27.469a2.1,2.1,0,0,0,.66,1.328,2,2,0,0,0,1.395.5,2.437,2.437,0,0,0,2.039-.945l1.109,1.242A3.389,3.389,0,0,1,31.3,16.754,4.511,4.511,0,0,1,29.375,17.156Zm-.258-6.945a1.411,1.411,0,0,0-1.09.455,2.357,2.357,0,0,0-.535,1.3h3.141v-.181a1.681,1.681,0,0,0-.406-1.165A1.456,1.456,0,0,0,29.117,10.211Zm7.094-1.664.07.977a2.951,2.951,0,0,1,2.43-1.133,2.453,2.453,0,0,1,2,.789,3.682,3.682,0,0,1,.672,2.359V17H39.125V11.594a1.465,1.465,0,0,0-.312-1.043,1.4,1.4,0,0,0-1.039-.324,1.553,1.553,0,0,0-1.43.813V17H34.086V8.547ZM47.992,17a2.507,2.507,0,0,1-.227-.758,2.732,2.732,0,0,1-2.133.914,3,3,0,0,1-2.059-.719,2.312,2.312,0,0,1-.816-1.812,2.389,2.389,0,0,1,1-2.062,4.915,4.915,0,0,1,2.879-.727h1.039v-.484a1.393,1.393,0,0,0-.3-.937,1.183,1.183,0,0,0-.949-.352,1.345,1.345,0,0,0-.895.273.929.929,0,0,0-.324.75H42.945A2.268,2.268,0,0,1,43.4,9.727a3,3,0,0,1,1.281-.98,4.669,4.669,0,0,1,1.859-.355,3.689,3.689,0,0,1,2.48.785,2.747,2.747,0,0,1,.918,2.207v3.664a4.041,4.041,0,0,0,.336,1.82V17Zm-1.867-1.57a1.945,1.945,0,0,0,.922-.223,1.462,1.462,0,0,0,.625-.6V13.156h-.844q-1.7,0-1.8,1.172l-.008.133a.9.9,0,0,0,.3.7A1.153,1.153,0,0,0,46.125,15.43Zm8.141-.25H58.4V17H51.383V15.625l3.977-5.258H51.5V8.547h6.773v1.33ZM64.711,17a2.507,2.507,0,0,1-.227-.758,2.732,2.732,0,0,1-2.133.914,3,3,0,0,1-2.059-.719,2.312,2.312,0,0,1-.816-1.812,2.389,2.389,0,0,1,1-2.062,4.915,4.915,0,0,1,2.879-.727h1.039v-.484a1.393,1.393,0,0,0-.3-.937,1.183,1.183,0,0,0-.949-.352,1.345,1.345,0,0,0-.895.273.929.929,0,0,0-.324.75H59.664a2.268,2.268,0,0,1,.453-1.359,3,3,0,0,1,1.281-.98,4.669,4.669,0,0,1,1.859-.355,3.689,3.689,0,0,1,2.48.785,2.747,2.747,0,0,1,.918,2.207v3.664a4.041,4.041,0,0,0,.336,1.82V17Zm-1.867-1.57a1.945,1.945,0,0,0,.922-.223,1.462,1.462,0,0,0,.625-.6V13.156h-.844q-1.7,0-1.8,1.172l-.008.133a.9.9,0,0,0,.3.7A1.153,1.153,0,0,0,62.844,15.43Zm10.125-.766a.727.727,0,0,0-.41-.652,4.659,4.659,0,0,0-1.316-.426q-3.016-.633-3.016-2.562a2.323,2.323,0,0,1,.934-1.879A3.766,3.766,0,0,1,71.6,8.391a4.053,4.053,0,0,1,2.574.758,2.388,2.388,0,0,1,.965,1.969H72.883a1.092,1.092,0,0,0-.312-.8A1.322,1.322,0,0,0,71.594,10a1.351,1.351,0,0,0-.883.258.814.814,0,0,0-.312.656.7.7,0,0,0,.355.605,3.657,3.657,0,0,0,1.2.4,9.8,9.8,0,0,1,1.422.379,2.336,2.336,0,0,1,1.789,2.273,2.2,2.2,0,0,1-.992,1.871,4.28,4.28,0,0,1-2.562.715,4.47,4.47,0,0,1-1.887-.379,3.166,3.166,0,0,1-1.293-1.039,2.414,2.414,0,0,1-.469-1.426H70.1a1.179,1.179,0,0,0,.445.922,1.766,1.766,0,0,0,1.109.32,1.635,1.635,0,0,0,.98-.246A.766.766,0,0,0,72.969,14.664Z" transform="translate(962 1649)" fill="#12263f"/>
      <path id="Trazado_591514" data-name="Trazado 591514" d="M7.859,12.352h-4.5V17H1.016V5.625H8.422v1.9H3.359v2.938h4.5Zm11.266-.781a6.867,6.867,0,0,1-.594,2.945,4.472,4.472,0,0,1-1.7,1.953,4.7,4.7,0,0,1-2.535.688,4.732,4.732,0,0,1-2.523-.68,4.515,4.515,0,0,1-1.719-1.941,6.67,6.67,0,0,1-.617-2.9V11.07a6.831,6.831,0,0,1,.605-2.957,4.508,4.508,0,0,1,1.711-1.961,4.706,4.706,0,0,1,2.527-.684,4.706,4.706,0,0,1,2.527.684A4.508,4.508,0,0,1,18.52,8.113a6.811,6.811,0,0,1,.605,2.949Zm-2.375-.516a4.787,4.787,0,0,0-.641-2.719,2.088,2.088,0,0,0-1.828-.93,2.088,2.088,0,0,0-1.82.918,4.732,4.732,0,0,0-.648,2.691v.555a4.847,4.847,0,0,0,.641,2.7,2.082,2.082,0,0,0,1.844.961,2.064,2.064,0,0,0,1.813-.926,4.819,4.819,0,0,0,.641-2.7Z" transform="translate(1158 1508)" fill="#12263f"/>
      <path id="Trazado_591519" data-name="Trazado 591519" d="M7.859,12.352h-4.5V17H1.016V5.625H8.422v1.9H3.359v2.938h4.5Zm6.844,2.3H10.594L9.813,17H7.32L11.555,5.625h2.172L17.984,17H15.492Zm-3.477-1.9H14.07L12.641,8.5Z" transform="translate(1158 1615)" fill="#12263f"/>
      <path id="Trazado_591515" data-name="Trazado 591515" d="M1.016,17V5.625h3.5A5.315,5.315,0,0,1,7.2,6.3,4.712,4.712,0,0,1,9.047,8.223a5.928,5.928,0,0,1,.664,2.832v.523a5.945,5.945,0,0,1-.652,2.82,4.672,4.672,0,0,1-1.84,1.914A5.355,5.355,0,0,1,4.539,17ZM3.359,7.523v7.594H4.492a2.545,2.545,0,0,0,2.1-.9,4.06,4.06,0,0,0,.742-2.57v-.6a4.124,4.124,0,0,0-.719-2.629,2.537,2.537,0,0,0-2.1-.895Zm17.4,4.047a6.867,6.867,0,0,1-.594,2.945,4.472,4.472,0,0,1-1.7,1.953,4.7,4.7,0,0,1-2.535.688,4.732,4.732,0,0,1-2.523-.68,4.515,4.515,0,0,1-1.719-1.941,6.67,6.67,0,0,1-.617-2.9V11.07a6.831,6.831,0,0,1,.605-2.957,4.508,4.508,0,0,1,1.711-1.961,4.706,4.706,0,0,1,2.527-.684,4.706,4.706,0,0,1,2.527.684,4.508,4.508,0,0,1,1.711,1.961,6.811,6.811,0,0,1,.605,2.949Zm-2.375-.516a4.787,4.787,0,0,0-.641-2.719,2.088,2.088,0,0,0-1.828-.93,2.088,2.088,0,0,0-1.82.918,4.732,4.732,0,0,0-.648,2.691v.555a4.847,4.847,0,0,0,.641,2.7,2.082,2.082,0,0,0,1.844.961,2.064,2.064,0,0,0,1.813-.926,4.819,4.819,0,0,0,.641-2.7Z" transform="translate(1325 1508)" fill="#12263f"/>
      <path id="Trazado_591518" data-name="Trazado 591518" d="M1.016,17V5.625h3.5A5.315,5.315,0,0,1,7.2,6.3,4.712,4.712,0,0,1,9.047,8.223a5.928,5.928,0,0,1,.664,2.832v.523a5.945,5.945,0,0,1-.652,2.82,4.672,4.672,0,0,1-1.84,1.914A5.355,5.355,0,0,1,4.539,17ZM3.359,7.523v7.594H4.492a2.545,2.545,0,0,0,2.1-.9,4.06,4.06,0,0,0,.742-2.57v-.6a4.124,4.124,0,0,0-.719-2.629,2.537,2.537,0,0,0-2.1-.895Zm14.477,7.133H13.727L12.945,17H10.453L14.688,5.625h2.172L21.117,17H18.625Zm-3.477-1.9H17.2L15.773,8.5Z" transform="translate(1325 1615)" fill="#12263f"/>
      <path id="Trazado_591516" data-name="Trazado 591516" d="M7.266,11.071H2.644V14.85H8.013V16H1.238V5.336h6.7v1.15h-5.3V9.921H7.266Zm6.9,2.827a1,1,0,0,0-.414-.853,3.983,3.983,0,0,0-1.443-.524,6.822,6.822,0,0,1-1.633-.527,2.324,2.324,0,0,1-.894-.732,1.752,1.752,0,0,1-.289-1.011A2.056,2.056,0,0,1,10.316,8.6a3.218,3.218,0,0,1,2.106-.674,3.311,3.311,0,0,1,2.186.7,2.21,2.21,0,0,1,.839,1.78H14.084a1.223,1.223,0,0,0-.472-.959,1.77,1.77,0,0,0-1.19-.4,1.852,1.852,0,0,0-1.157.322,1.014,1.014,0,0,0-.417.842.822.822,0,0,0,.388.74,4.776,4.776,0,0,0,1.4.476,7.308,7.308,0,0,1,1.644.542,2.4,2.4,0,0,1,.934.758,1.864,1.864,0,0,1,.3,1.08,2.028,2.028,0,0,1-.85,1.7,3.564,3.564,0,0,1-2.2.641,3.991,3.991,0,0,1-1.685-.337,2.74,2.74,0,0,1-1.146-.941,2.268,2.268,0,0,1-.414-1.307h1.355a1.4,1.4,0,0,0,.546,1.08,2.117,2.117,0,0,0,1.344.4,2.185,2.185,0,0,0,1.234-.311A.956.956,0,0,0,14.165,13.9Zm4.958-7.742V8.075H20.6V9.123H19.124v4.921a1.1,1.1,0,0,0,.2.715A.832.832,0,0,0,20,15a3.281,3.281,0,0,0,.645-.088V16a3.951,3.951,0,0,1-1.04.146,1.687,1.687,0,0,1-1.37-.549,2.36,2.36,0,0,1-.461-1.56V9.123H16.326V8.075h1.443V6.156Zm6.892,3.135a4.06,4.06,0,0,0-.667-.051,1.786,1.786,0,0,0-1.809,1.135V16H22.185V8.075H23.5l.022.916a2.11,2.11,0,0,1,1.89-1.062,1.384,1.384,0,0,1,.6.1ZM31.86,16a2.846,2.846,0,0,1-.19-.835,3.023,3.023,0,0,1-2.256.981,2.8,2.8,0,0,1-1.923-.663,2.145,2.145,0,0,1-.751-1.681,2.24,2.24,0,0,1,.941-1.923A4.437,4.437,0,0,1,30.33,11.2h1.318v-.623a1.522,1.522,0,0,0-.425-1.132,1.707,1.707,0,0,0-1.252-.421,1.976,1.976,0,0,0-1.216.366,1.079,1.079,0,0,0-.491.886H26.9a1.87,1.87,0,0,1,.421-1.146,2.874,2.874,0,0,1,1.143-.875,3.844,3.844,0,0,1,1.586-.322,3.133,3.133,0,0,1,2.146.685A2.47,2.47,0,0,1,33,10.5v3.647a4.459,4.459,0,0,0,.278,1.736V16Zm-2.249-1.033a2.381,2.381,0,0,0,1.208-.33,1.994,1.994,0,0,0,.828-.857V12.155H30.586q-2.49,0-2.49,1.458a1.234,1.234,0,0,0,.425,1A1.633,1.633,0,0,0,29.612,14.967Zm7.354-8.811V8.075h1.479V9.123H36.965v4.921a1.1,1.1,0,0,0,.2.715.832.832,0,0,0,.674.238,3.281,3.281,0,0,0,.645-.088V16a3.951,3.951,0,0,1-1.04.146,1.687,1.687,0,0,1-1.37-.549,2.36,2.36,0,0,1-.461-1.56V9.123H34.167V8.075H35.61V6.156Zm6.35,9.99a3.463,3.463,0,0,1-2.622-1.058,3.928,3.928,0,0,1-1.011-2.831v-.249a4.756,4.756,0,0,1,.45-2.106,3.514,3.514,0,0,1,1.26-1.45,3.167,3.167,0,0,1,1.754-.524,2.968,2.968,0,0,1,2.4,1.018,4.408,4.408,0,0,1,.857,2.915v.564H41.038a2.817,2.817,0,0,0,.685,1.893,2.153,2.153,0,0,0,1.666.721,2.36,2.36,0,0,0,1.216-.293,3.055,3.055,0,0,0,.872-.776l.828.645A3.328,3.328,0,0,1,43.315,16.146Zm-.168-7.1a1.807,1.807,0,0,0-1.377.6,2.9,2.9,0,0,0-.688,1.674h3.97v-.1a2.581,2.581,0,0,0-.557-1.6A1.7,1.7,0,0,0,43.147,9.042Zm4.5,2.93a4.658,4.658,0,0,1,.857-2.948,2.954,2.954,0,0,1,4.534-.07l.066-.879h1.238V15.81a3.224,3.224,0,0,1-.912,2.424,3.365,3.365,0,0,1-2.45.886,4.076,4.076,0,0,1-1.677-.366,2.887,2.887,0,0,1-1.252-1l.7-.813a2.65,2.65,0,0,0,2.131,1.077,2.076,2.076,0,0,0,1.542-.557,2.128,2.128,0,0,0,.553-1.567v-.681a2.785,2.785,0,0,1-2.219.938,2.707,2.707,0,0,1-2.252-1.121A4.9,4.9,0,0,1,47.651,11.972Zm1.362.154a3.553,3.553,0,0,0,.549,2.106A1.785,1.785,0,0,0,51.1,15a1.985,1.985,0,0,0,1.882-1.165V10.214a2.008,2.008,0,0,0-1.868-1.135,1.8,1.8,0,0,0-1.545.769A3.87,3.87,0,0,0,49.014,12.125ZM57.861,16H56.506V8.075h1.355ZM56.4,5.973a.809.809,0,0,1,.2-.557.756.756,0,0,1,.6-.227.768.768,0,0,1,.6.227A.8.8,0,0,1,58,5.973a.774.774,0,0,1-.205.549.782.782,0,0,1-.6.22.77.77,0,0,1-.6-.22A.782.782,0,0,1,56.4,5.973ZM64.922,16a2.846,2.846,0,0,1-.19-.835,3.023,3.023,0,0,1-2.256.981,2.8,2.8,0,0,1-1.923-.663A2.145,2.145,0,0,1,59.8,13.8a2.24,2.24,0,0,1,.941-1.923,4.437,4.437,0,0,1,2.648-.685h1.318v-.623a1.522,1.522,0,0,0-.425-1.132,1.707,1.707,0,0,0-1.252-.421,1.976,1.976,0,0,0-1.216.366,1.079,1.079,0,0,0-.491.886H59.963a1.87,1.87,0,0,1,.421-1.146,2.874,2.874,0,0,1,1.143-.875,3.844,3.844,0,0,1,1.586-.322,3.133,3.133,0,0,1,2.146.685,2.47,2.47,0,0,1,.806,1.886v3.647a4.459,4.459,0,0,0,.278,1.736V16Zm-2.249-1.033a2.381,2.381,0,0,0,1.208-.33,1.994,1.994,0,0,0,.828-.857V12.155H63.647q-2.49,0-2.49,1.458a1.234,1.234,0,0,0,.425,1A1.633,1.633,0,0,0,62.673,14.967ZM78.6,12.125a4.745,4.745,0,0,1-.828,2.915,2.653,2.653,0,0,1-2.241,1.106,2.906,2.906,0,0,1-2.271-.916v3.816H71.9V8.075H73.14l.066.879a2.791,2.791,0,0,1,2.3-1.025,2.7,2.7,0,0,1,2.26,1.077,4.8,4.8,0,0,1,.831,3Zm-1.355-.154a3.5,3.5,0,0,0-.571-2.117A1.84,1.84,0,0,0,75.1,9.079a1.992,1.992,0,0,0-1.846,1.091v3.787a2,2,0,0,0,1.86,1.084,1.832,1.832,0,0,0,1.549-.773A3.822,3.822,0,0,0,77.241,11.972ZM85.21,16a2.846,2.846,0,0,1-.19-.835,3.023,3.023,0,0,1-2.256.981,2.8,2.8,0,0,1-1.923-.663A2.145,2.145,0,0,1,80.09,13.8a2.24,2.24,0,0,1,.941-1.923,4.437,4.437,0,0,1,2.648-.685H85v-.623a1.522,1.522,0,0,0-.425-1.132A1.707,1.707,0,0,0,83.32,9.02a1.976,1.976,0,0,0-1.216.366,1.079,1.079,0,0,0-.491.886H80.251a1.87,1.87,0,0,1,.421-1.146,2.874,2.874,0,0,1,1.143-.875A3.844,3.844,0,0,1,83.4,7.929a3.133,3.133,0,0,1,2.146.685,2.47,2.47,0,0,1,.806,1.886v3.647a4.459,4.459,0,0,0,.278,1.736V16Zm-2.249-1.033a2.381,2.381,0,0,0,1.208-.33A1.994,1.994,0,0,0,85,13.781V12.155H83.936q-2.49,0-2.49,1.458a1.234,1.234,0,0,0,.425,1A1.633,1.633,0,0,0,82.961,14.967Zm9.346-5.676a4.06,4.06,0,0,0-.667-.051,1.786,1.786,0,0,0-1.809,1.135V16H88.477V8.075h1.318l.022.916a2.11,2.11,0,0,1,1.89-1.062,1.384,1.384,0,0,1,.6.1ZM98.152,16a2.846,2.846,0,0,1-.19-.835,3.023,3.023,0,0,1-2.256.981,2.8,2.8,0,0,1-1.923-.663,2.145,2.145,0,0,1-.751-1.681,2.24,2.24,0,0,1,.941-1.923,4.437,4.437,0,0,1,2.648-.685h1.318v-.623a1.522,1.522,0,0,0-.425-1.132,1.707,1.707,0,0,0-1.252-.421,1.976,1.976,0,0,0-1.216.366,1.079,1.079,0,0,0-.491.886H93.193a1.87,1.87,0,0,1,.421-1.146,2.874,2.874,0,0,1,1.143-.875,3.844,3.844,0,0,1,1.586-.322,3.133,3.133,0,0,1,2.146.685,2.47,2.47,0,0,1,.806,1.886v3.647a4.459,4.459,0,0,0,.278,1.736V16ZM95.9,14.967a2.381,2.381,0,0,0,1.208-.33,1.994,1.994,0,0,0,.828-.857V12.155H96.877q-2.49,0-2.49,1.458a1.234,1.234,0,0,0,.425,1A1.633,1.633,0,0,0,95.9,14.967ZM2.3,29.075l.037.879a2.927,2.927,0,0,1,2.351-1.025A2.266,2.266,0,0,1,6.951,30.2,3,3,0,0,1,7.98,29.28a3.039,3.039,0,0,1,1.5-.352q2.607,0,2.651,2.761V37H10.774V31.771a1.82,1.82,0,0,0-.388-1.271,1.71,1.71,0,0,0-1.3-.421,1.8,1.8,0,0,0-1.252.45,1.827,1.827,0,0,0-.579,1.212V37H5.889V31.807A1.512,1.512,0,0,0,4.2,30.079a1.813,1.813,0,0,0-1.824,1.135V37H1.018V29.075ZM19.065,37a2.846,2.846,0,0,1-.19-.835,3.023,3.023,0,0,1-2.256.981,2.8,2.8,0,0,1-1.923-.663,2.145,2.145,0,0,1-.751-1.681,2.24,2.24,0,0,1,.941-1.923,4.437,4.437,0,0,1,2.648-.685h1.318v-.623a1.522,1.522,0,0,0-.425-1.132,1.707,1.707,0,0,0-1.252-.421,1.976,1.976,0,0,0-1.216.366,1.079,1.079,0,0,0-.491.886H14.106a1.87,1.87,0,0,1,.421-1.146,2.874,2.874,0,0,1,1.143-.875,3.844,3.844,0,0,1,1.586-.322,3.133,3.133,0,0,1,2.146.685,2.47,2.47,0,0,1,.806,1.886v3.647a4.459,4.459,0,0,0,.278,1.736V37Zm-2.249-1.033a2.381,2.381,0,0,0,1.208-.33,1.994,1.994,0,0,0,.828-.857V33.155H17.791q-2.49,0-2.49,1.458a1.234,1.234,0,0,0,.425,1A1.633,1.633,0,0,0,16.816,35.967Zm8.174-4,1.758-2.893H28.33l-2.593,3.918L28.411,37H26.843l-1.831-2.966L23.181,37H21.606l2.673-4.006-2.593-3.918h1.567ZM31.238,37H29.883V29.075h1.355ZM29.773,26.973a.809.809,0,0,1,.2-.557.756.756,0,0,1,.6-.227.768.768,0,0,1,.6.227.8.8,0,0,1,.205.557.774.774,0,0,1-.205.549.782.782,0,0,1-.6.22.77.77,0,0,1-.6-.22A.782.782,0,0,1,29.773,26.973Zm4.907,2.1.037.879a2.927,2.927,0,0,1,2.351-1.025A2.266,2.266,0,0,1,39.331,30.2a3,3,0,0,1,1.029-.923,3.039,3.039,0,0,1,1.5-.352q2.607,0,2.651,2.761V37H43.154V31.771a1.82,1.82,0,0,0-.388-1.271,1.71,1.71,0,0,0-1.3-.421,1.8,1.8,0,0,0-1.252.45,1.827,1.827,0,0,0-.579,1.212V37H38.269V31.807a1.512,1.512,0,0,0-1.692-1.729,1.813,1.813,0,0,0-1.824,1.135V37H33.4V29.075ZM48.025,37H46.67V29.075h1.355ZM46.56,26.973a.809.809,0,0,1,.2-.557.756.756,0,0,1,.6-.227.768.768,0,0,1,.6.227.8.8,0,0,1,.205.557.774.774,0,0,1-.205.549.782.782,0,0,1-.6.22.77.77,0,0,1-.6-.22A.782.782,0,0,1,46.56,26.973Zm4.907,8.921H56.1V37H49.812V36L54.185,30.2H49.878V29.075h6.006v.959ZM62.52,37a2.846,2.846,0,0,1-.19-.835,3.023,3.023,0,0,1-2.256.981,2.8,2.8,0,0,1-1.923-.663A2.145,2.145,0,0,1,57.4,34.8a2.24,2.24,0,0,1,.941-1.923,4.437,4.437,0,0,1,2.648-.685h1.318v-.623a1.522,1.522,0,0,0-.425-1.132,1.707,1.707,0,0,0-1.252-.421,1.976,1.976,0,0,0-1.216.366,1.079,1.079,0,0,0-.491.886H57.561a1.87,1.87,0,0,1,.421-1.146,2.874,2.874,0,0,1,1.143-.875,3.844,3.844,0,0,1,1.586-.322,3.133,3.133,0,0,1,2.146.685,2.47,2.47,0,0,1,.806,1.886v3.647a4.459,4.459,0,0,0,.278,1.736V37Zm-2.249-1.033a2.381,2.381,0,0,0,1.208-.33,1.994,1.994,0,0,0,.828-.857V33.155H61.245q-2.49,0-2.49,1.458a1.234,1.234,0,0,0,.425,1A1.633,1.633,0,0,0,60.271,35.967Zm9.346-5.676a4.06,4.06,0,0,0-.667-.051,1.786,1.786,0,0,0-1.809,1.135V37H65.786V29.075H67.1l.022.916a2.11,2.11,0,0,1,1.89-1.062,1.384,1.384,0,0,1,.6.1Zm11.052,2H76.194V37H74.788V26.336h6.606v1.15h-5.2v3.655h4.475Zm8.5,2.725,1.846-5.94h1.45l-3.186,9.148q-.74,1.978-2.351,1.978l-.256-.022-.505-.1v-1.1l.366.029a1.8,1.8,0,0,0,1.073-.278,2.014,2.014,0,0,0,.634-1.018l.3-.806-2.827-7.837h1.479Zm16.633-3a6.6,6.6,0,0,1-.527,2.736,3.994,3.994,0,0,1-1.494,1.783,4.123,4.123,0,0,1-6-1.769,6.33,6.33,0,0,1-.553-2.655v-.769a6.518,6.518,0,0,1,.535-2.717,3.954,3.954,0,0,1,3.75-2.432,4.134,4.134,0,0,1,2.26.619,3.987,3.987,0,0,1,1.505,1.794,6.629,6.629,0,0,1,.527,2.736Zm-1.4-.688a4.781,4.781,0,0,0-.762-2.911,2.512,2.512,0,0,0-2.131-1.014,2.485,2.485,0,0,0-2.1,1.014,4.683,4.683,0,0,0-.787,2.816v.784A4.788,4.788,0,0,0,99.4,34.9a2.708,2.708,0,0,0,4.237.059,4.761,4.761,0,0,0,.769-2.845Z" transform="translate(1116 1538)" fill="#12263f"/>
      <path id="Trazado_591520" data-name="Trazado 591520" d="M7.266,11.071H2.644V14.85H8.013V16H1.238V5.336h6.7v1.15h-5.3V9.921H7.266Zm6.9,2.827a1,1,0,0,0-.414-.853,3.983,3.983,0,0,0-1.443-.524,6.822,6.822,0,0,1-1.633-.527,2.324,2.324,0,0,1-.894-.732,1.752,1.752,0,0,1-.289-1.011A2.056,2.056,0,0,1,10.316,8.6a3.218,3.218,0,0,1,2.106-.674,3.311,3.311,0,0,1,2.186.7,2.21,2.21,0,0,1,.839,1.78H14.084a1.223,1.223,0,0,0-.472-.959,1.77,1.77,0,0,0-1.19-.4,1.852,1.852,0,0,0-1.157.322,1.014,1.014,0,0,0-.417.842.822.822,0,0,0,.388.74,4.776,4.776,0,0,0,1.4.476,7.308,7.308,0,0,1,1.644.542,2.4,2.4,0,0,1,.934.758,1.864,1.864,0,0,1,.3,1.08,2.028,2.028,0,0,1-.85,1.7,3.564,3.564,0,0,1-2.2.641,3.991,3.991,0,0,1-1.685-.337,2.74,2.74,0,0,1-1.146-.941,2.268,2.268,0,0,1-.414-1.307h1.355a1.4,1.4,0,0,0,.546,1.08,2.117,2.117,0,0,0,1.344.4,2.185,2.185,0,0,0,1.234-.311A.956.956,0,0,0,14.165,13.9Zm4.958-7.742V8.075H20.6V9.123H19.124v4.921a1.1,1.1,0,0,0,.2.715A.832.832,0,0,0,20,15a3.281,3.281,0,0,0,.645-.088V16a3.951,3.951,0,0,1-1.04.146,1.687,1.687,0,0,1-1.37-.549,2.36,2.36,0,0,1-.461-1.56V9.123H16.326V8.075h1.443V6.156Zm6.892,3.135a4.06,4.06,0,0,0-.667-.051,1.786,1.786,0,0,0-1.809,1.135V16H22.185V8.075H23.5l.022.916a2.11,2.11,0,0,1,1.89-1.062,1.384,1.384,0,0,1,.6.1ZM31.86,16a2.846,2.846,0,0,1-.19-.835,3.023,3.023,0,0,1-2.256.981,2.8,2.8,0,0,1-1.923-.663,2.145,2.145,0,0,1-.751-1.681,2.24,2.24,0,0,1,.941-1.923A4.437,4.437,0,0,1,30.33,11.2h1.318v-.623a1.522,1.522,0,0,0-.425-1.132,1.707,1.707,0,0,0-1.252-.421,1.976,1.976,0,0,0-1.216.366,1.079,1.079,0,0,0-.491.886H26.9a1.87,1.87,0,0,1,.421-1.146,2.874,2.874,0,0,1,1.143-.875,3.844,3.844,0,0,1,1.586-.322,3.133,3.133,0,0,1,2.146.685A2.47,2.47,0,0,1,33,10.5v3.647a4.459,4.459,0,0,0,.278,1.736V16Zm-2.249-1.033a2.381,2.381,0,0,0,1.208-.33,1.994,1.994,0,0,0,.828-.857V12.155H30.586q-2.49,0-2.49,1.458a1.234,1.234,0,0,0,.425,1A1.633,1.633,0,0,0,29.612,14.967Zm7.354-8.811V8.075h1.479V9.123H36.965v4.921a1.1,1.1,0,0,0,.2.715.832.832,0,0,0,.674.238,3.281,3.281,0,0,0,.645-.088V16a3.951,3.951,0,0,1-1.04.146,1.687,1.687,0,0,1-1.37-.549,2.36,2.36,0,0,1-.461-1.56V9.123H34.167V8.075H35.61V6.156Zm6.35,9.99a3.463,3.463,0,0,1-2.622-1.058,3.928,3.928,0,0,1-1.011-2.831v-.249a4.756,4.756,0,0,1,.45-2.106,3.514,3.514,0,0,1,1.26-1.45,3.167,3.167,0,0,1,1.754-.524,2.968,2.968,0,0,1,2.4,1.018,4.408,4.408,0,0,1,.857,2.915v.564H41.038a2.817,2.817,0,0,0,.685,1.893,2.153,2.153,0,0,0,1.666.721,2.36,2.36,0,0,0,1.216-.293,3.055,3.055,0,0,0,.872-.776l.828.645A3.328,3.328,0,0,1,43.315,16.146Zm-.168-7.1a1.807,1.807,0,0,0-1.377.6,2.9,2.9,0,0,0-.688,1.674h3.97v-.1a2.581,2.581,0,0,0-.557-1.6A1.7,1.7,0,0,0,43.147,9.042Zm4.5,2.93a4.658,4.658,0,0,1,.857-2.948,2.954,2.954,0,0,1,4.534-.07l.066-.879h1.238V15.81a3.224,3.224,0,0,1-.912,2.424,3.365,3.365,0,0,1-2.45.886,4.076,4.076,0,0,1-1.677-.366,2.887,2.887,0,0,1-1.252-1l.7-.813a2.65,2.65,0,0,0,2.131,1.077,2.076,2.076,0,0,0,1.542-.557,2.128,2.128,0,0,0,.553-1.567v-.681a2.785,2.785,0,0,1-2.219.938,2.707,2.707,0,0,1-2.252-1.121A4.9,4.9,0,0,1,47.651,11.972Zm1.362.154a3.553,3.553,0,0,0,.549,2.106A1.785,1.785,0,0,0,51.1,15a1.985,1.985,0,0,0,1.882-1.165V10.214a2.008,2.008,0,0,0-1.868-1.135,1.8,1.8,0,0,0-1.545.769A3.87,3.87,0,0,0,49.014,12.125ZM57.861,16H56.506V8.075h1.355ZM56.4,5.973a.809.809,0,0,1,.2-.557.756.756,0,0,1,.6-.227.768.768,0,0,1,.6.227A.8.8,0,0,1,58,5.973a.774.774,0,0,1-.205.549.782.782,0,0,1-.6.22.77.77,0,0,1-.6-.22A.782.782,0,0,1,56.4,5.973ZM64.922,16a2.846,2.846,0,0,1-.19-.835,3.023,3.023,0,0,1-2.256.981,2.8,2.8,0,0,1-1.923-.663A2.145,2.145,0,0,1,59.8,13.8a2.24,2.24,0,0,1,.941-1.923,4.437,4.437,0,0,1,2.648-.685h1.318v-.623a1.522,1.522,0,0,0-.425-1.132,1.707,1.707,0,0,0-1.252-.421,1.976,1.976,0,0,0-1.216.366,1.079,1.079,0,0,0-.491.886H59.963a1.87,1.87,0,0,1,.421-1.146,2.874,2.874,0,0,1,1.143-.875,3.844,3.844,0,0,1,1.586-.322,3.133,3.133,0,0,1,2.146.685,2.47,2.47,0,0,1,.806,1.886v3.647a4.459,4.459,0,0,0,.278,1.736V16Zm-2.249-1.033a2.381,2.381,0,0,0,1.208-.33,1.994,1.994,0,0,0,.828-.857V12.155H63.647q-2.49,0-2.49,1.458a1.234,1.234,0,0,0,.425,1A1.633,1.633,0,0,0,62.673,14.967ZM78.6,12.125a4.745,4.745,0,0,1-.828,2.915,2.653,2.653,0,0,1-2.241,1.106,2.906,2.906,0,0,1-2.271-.916v3.816H71.9V8.075H73.14l.066.879a2.791,2.791,0,0,1,2.3-1.025,2.7,2.7,0,0,1,2.26,1.077,4.8,4.8,0,0,1,.831,3Zm-1.355-.154a3.5,3.5,0,0,0-.571-2.117A1.84,1.84,0,0,0,75.1,9.079a1.992,1.992,0,0,0-1.846,1.091v3.787a2,2,0,0,0,1.86,1.084,1.832,1.832,0,0,0,1.549-.773A3.822,3.822,0,0,0,77.241,11.972ZM85.21,16a2.846,2.846,0,0,1-.19-.835,3.023,3.023,0,0,1-2.256.981,2.8,2.8,0,0,1-1.923-.663A2.145,2.145,0,0,1,80.09,13.8a2.24,2.24,0,0,1,.941-1.923,4.437,4.437,0,0,1,2.648-.685H85v-.623a1.522,1.522,0,0,0-.425-1.132A1.707,1.707,0,0,0,83.32,9.02a1.976,1.976,0,0,0-1.216.366,1.079,1.079,0,0,0-.491.886H80.251a1.87,1.87,0,0,1,.421-1.146,2.874,2.874,0,0,1,1.143-.875A3.844,3.844,0,0,1,83.4,7.929a3.133,3.133,0,0,1,2.146.685,2.47,2.47,0,0,1,.806,1.886v3.647a4.459,4.459,0,0,0,.278,1.736V16Zm-2.249-1.033a2.381,2.381,0,0,0,1.208-.33A1.994,1.994,0,0,0,85,13.781V12.155H83.936q-2.49,0-2.49,1.458a1.234,1.234,0,0,0,.425,1A1.633,1.633,0,0,0,82.961,14.967Zm9.346-5.676a4.06,4.06,0,0,0-.667-.051,1.786,1.786,0,0,0-1.809,1.135V16H88.477V8.075h1.318l.022.916a2.11,2.11,0,0,1,1.89-1.062,1.384,1.384,0,0,1,.6.1ZM98.152,16a2.846,2.846,0,0,1-.19-.835,3.023,3.023,0,0,1-2.256.981,2.8,2.8,0,0,1-1.923-.663,2.145,2.145,0,0,1-.751-1.681,2.24,2.24,0,0,1,.941-1.923,4.437,4.437,0,0,1,2.648-.685h1.318v-.623a1.522,1.522,0,0,0-.425-1.132,1.707,1.707,0,0,0-1.252-.421,1.976,1.976,0,0,0-1.216.366,1.079,1.079,0,0,0-.491.886H93.193a1.87,1.87,0,0,1,.421-1.146,2.874,2.874,0,0,1,1.143-.875,3.844,3.844,0,0,1,1.586-.322,3.133,3.133,0,0,1,2.146.685,2.47,2.47,0,0,1,.806,1.886v3.647a4.459,4.459,0,0,0,.278,1.736V16ZM95.9,14.967a2.381,2.381,0,0,0,1.208-.33,1.994,1.994,0,0,0,.828-.857V12.155H96.877q-2.49,0-2.49,1.458a1.234,1.234,0,0,0,.425,1A1.633,1.633,0,0,0,95.9,14.967ZM2.3,29.075l.037.879a2.927,2.927,0,0,1,2.351-1.025A2.266,2.266,0,0,1,6.951,30.2,3,3,0,0,1,7.98,29.28a3.039,3.039,0,0,1,1.5-.352q2.607,0,2.651,2.761V37H10.774V31.771a1.82,1.82,0,0,0-.388-1.271,1.71,1.71,0,0,0-1.3-.421,1.8,1.8,0,0,0-1.252.45,1.827,1.827,0,0,0-.579,1.212V37H5.889V31.807A1.512,1.512,0,0,0,4.2,30.079a1.813,1.813,0,0,0-1.824,1.135V37H1.018V29.075ZM19.065,37a2.846,2.846,0,0,1-.19-.835,3.023,3.023,0,0,1-2.256.981,2.8,2.8,0,0,1-1.923-.663,2.145,2.145,0,0,1-.751-1.681,2.24,2.24,0,0,1,.941-1.923,4.437,4.437,0,0,1,2.648-.685h1.318v-.623a1.522,1.522,0,0,0-.425-1.132,1.707,1.707,0,0,0-1.252-.421,1.976,1.976,0,0,0-1.216.366,1.079,1.079,0,0,0-.491.886H14.106a1.87,1.87,0,0,1,.421-1.146,2.874,2.874,0,0,1,1.143-.875,3.844,3.844,0,0,1,1.586-.322,3.133,3.133,0,0,1,2.146.685,2.47,2.47,0,0,1,.806,1.886v3.647a4.459,4.459,0,0,0,.278,1.736V37Zm-2.249-1.033a2.381,2.381,0,0,0,1.208-.33,1.994,1.994,0,0,0,.828-.857V33.155H17.791q-2.49,0-2.49,1.458a1.234,1.234,0,0,0,.425,1A1.633,1.633,0,0,0,16.816,35.967Zm8.174-4,1.758-2.893H28.33l-2.593,3.918L28.411,37H26.843l-1.831-2.966L23.181,37H21.606l2.673-4.006-2.593-3.918h1.567ZM31.238,37H29.883V29.075h1.355ZM29.773,26.973a.809.809,0,0,1,.2-.557.756.756,0,0,1,.6-.227.768.768,0,0,1,.6.227.8.8,0,0,1,.205.557.774.774,0,0,1-.205.549.782.782,0,0,1-.6.22.77.77,0,0,1-.6-.22A.782.782,0,0,1,29.773,26.973Zm4.907,2.1.037.879a2.927,2.927,0,0,1,2.351-1.025A2.266,2.266,0,0,1,39.331,30.2a3,3,0,0,1,1.029-.923,3.039,3.039,0,0,1,1.5-.352q2.607,0,2.651,2.761V37H43.154V31.771a1.82,1.82,0,0,0-.388-1.271,1.71,1.71,0,0,0-1.3-.421,1.8,1.8,0,0,0-1.252.45,1.827,1.827,0,0,0-.579,1.212V37H38.269V31.807a1.512,1.512,0,0,0-1.692-1.729,1.813,1.813,0,0,0-1.824,1.135V37H33.4V29.075ZM48.025,37H46.67V29.075h1.355ZM46.56,26.973a.809.809,0,0,1,.2-.557.756.756,0,0,1,.6-.227.768.768,0,0,1,.6.227.8.8,0,0,1,.205.557.774.774,0,0,1-.205.549.782.782,0,0,1-.6.22.77.77,0,0,1-.6-.22A.782.782,0,0,1,46.56,26.973Zm4.907,8.921H56.1V37H49.812V36L54.185,30.2H49.878V29.075h6.006v.959ZM62.52,37a2.846,2.846,0,0,1-.19-.835,3.023,3.023,0,0,1-2.256.981,2.8,2.8,0,0,1-1.923-.663A2.145,2.145,0,0,1,57.4,34.8a2.24,2.24,0,0,1,.941-1.923,4.437,4.437,0,0,1,2.648-.685h1.318v-.623a1.522,1.522,0,0,0-.425-1.132,1.707,1.707,0,0,0-1.252-.421,1.976,1.976,0,0,0-1.216.366,1.079,1.079,0,0,0-.491.886H57.561a1.87,1.87,0,0,1,.421-1.146,2.874,2.874,0,0,1,1.143-.875,3.844,3.844,0,0,1,1.586-.322,3.133,3.133,0,0,1,2.146.685,2.47,2.47,0,0,1,.806,1.886v3.647a4.459,4.459,0,0,0,.278,1.736V37Zm-2.249-1.033a2.381,2.381,0,0,0,1.208-.33,1.994,1.994,0,0,0,.828-.857V33.155H61.245q-2.49,0-2.49,1.458a1.234,1.234,0,0,0,.425,1A1.633,1.633,0,0,0,60.271,35.967Zm9.346-5.676a4.06,4.06,0,0,0-.667-.051,1.786,1.786,0,0,0-1.809,1.135V37H65.786V29.075H67.1l.022.916a2.11,2.11,0,0,1,1.89-1.062,1.384,1.384,0,0,1,.6.1Zm11.052,2H76.194V37H74.788V26.336h6.606v1.15h-5.2v3.655h4.475Zm8.5,2.725,1.846-5.94h1.45l-3.186,9.148q-.74,1.978-2.351,1.978l-.256-.022-.505-.1v-1.1l.366.029a1.8,1.8,0,0,0,1.073-.278,2.014,2.014,0,0,0,.634-1.018l.3-.806-2.827-7.837h1.479ZM2.3,50.075l.037.879a2.927,2.927,0,0,1,2.351-1.025A2.266,2.266,0,0,1,6.951,51.2,3,3,0,0,1,7.98,50.28a3.039,3.039,0,0,1,1.5-.352q2.607,0,2.651,2.761V58H10.774V52.771a1.82,1.82,0,0,0-.388-1.271,1.71,1.71,0,0,0-1.3-.421,1.8,1.8,0,0,0-1.252.45,1.827,1.827,0,0,0-.579,1.212V58H5.889V52.807A1.512,1.512,0,0,0,4.2,51.079a1.813,1.813,0,0,0-1.824,1.135V58H1.018V50.075ZM15.645,58H14.29V50.075h1.355ZM14.18,47.973a.809.809,0,0,1,.2-.557.756.756,0,0,1,.6-.227.768.768,0,0,1,.6.227.8.8,0,0,1,.205.557.774.774,0,0,1-.205.549.782.782,0,0,1-.6.22.77.77,0,0,1-.6-.22A.782.782,0,0,1,14.18,47.973Zm4.915,2.1.044,1a2.888,2.888,0,0,1,2.373-1.143q2.512,0,2.534,2.834V58H22.69V52.756a1.824,1.824,0,0,0-.392-1.267,1.57,1.57,0,0,0-1.2-.41,1.956,1.956,0,0,0-1.157.352,2.387,2.387,0,0,0-.776.923V58H17.813V50.075ZM27.561,58H26.206V50.075h1.355ZM26.1,47.973a.809.809,0,0,1,.2-.557.756.756,0,0,1,.6-.227.768.768,0,0,1,.6.227.8.8,0,0,1,.205.557.774.774,0,0,1-.205.549.782.782,0,0,1-.6.22.77.77,0,0,1-.6-.22A.782.782,0,0,1,26.1,47.973ZM31,50.075l.037.879a2.927,2.927,0,0,1,2.351-1.025A2.266,2.266,0,0,1,35.654,51.2a3,3,0,0,1,1.029-.923,3.039,3.039,0,0,1,1.5-.352q2.607,0,2.651,2.761V58H39.478V52.771a1.82,1.82,0,0,0-.388-1.271,1.71,1.71,0,0,0-1.3-.421,1.8,1.8,0,0,0-1.252.45,1.827,1.827,0,0,0-.579,1.212V58H34.592V52.807A1.512,1.512,0,0,0,32.9,51.079a1.813,1.813,0,0,0-1.824,1.135V58H29.722V50.075ZM44.348,58H42.993V50.075h1.355ZM42.883,47.973a.809.809,0,0,1,.2-.557.756.756,0,0,1,.6-.227.768.768,0,0,1,.6.227.8.8,0,0,1,.205.557.774.774,0,0,1-.205.549.782.782,0,0,1-.6.22.77.77,0,0,1-.6-.22A.782.782,0,0,1,42.883,47.973Zm4.907,8.921h4.636V58H46.135V57L50.508,51.2H46.2V50.075h6.006v.959ZM58.843,58a2.846,2.846,0,0,1-.19-.835,3.023,3.023,0,0,1-2.256.981,2.8,2.8,0,0,1-1.923-.663,2.145,2.145,0,0,1-.751-1.681,2.24,2.24,0,0,1,.941-1.923,4.437,4.437,0,0,1,2.648-.685H58.63v-.623a1.522,1.522,0,0,0-.425-1.132,1.707,1.707,0,0,0-1.252-.421,1.976,1.976,0,0,0-1.216.366,1.079,1.079,0,0,0-.491.886H53.884a1.87,1.87,0,0,1,.421-1.146,2.874,2.874,0,0,1,1.143-.875,3.844,3.844,0,0,1,1.586-.322,3.133,3.133,0,0,1,2.146.685,2.47,2.47,0,0,1,.806,1.886v3.647a4.459,4.459,0,0,0,.278,1.736V58Zm-2.249-1.033a2.381,2.381,0,0,0,1.208-.33,1.994,1.994,0,0,0,.828-.857V54.155H57.568q-2.49,0-2.49,1.458a1.234,1.234,0,0,0,.425,1A1.633,1.633,0,0,0,56.594,56.967Zm9.346-5.676a4.06,4.06,0,0,0-.667-.051,1.786,1.786,0,0,0-1.809,1.135V58H62.109V50.075h1.318l.022.916a2.11,2.11,0,0,1,1.89-1.062,1.384,1.384,0,0,1,.6.1ZM77,55.209H72.532l-1,2.791h-1.45L74.15,47.336h1.23L79.46,58H78.018Zm-4.043-1.15h3.625l-1.816-4.988Z" transform="translate(1112 1645)" fill="#12263f"/>
      <path id="Trazado_591517" data-name="Trazado 591517" d="M7.266,11.071H2.644V14.85H8.013V16H1.238V5.336h6.7v1.15h-5.3V9.921H7.266Zm6.9,2.827a1,1,0,0,0-.414-.853,3.983,3.983,0,0,0-1.443-.524,6.822,6.822,0,0,1-1.633-.527,2.324,2.324,0,0,1-.894-.732,1.752,1.752,0,0,1-.289-1.011A2.056,2.056,0,0,1,10.316,8.6a3.218,3.218,0,0,1,2.106-.674,3.311,3.311,0,0,1,2.186.7,2.21,2.21,0,0,1,.839,1.78H14.084a1.223,1.223,0,0,0-.472-.959,1.77,1.77,0,0,0-1.19-.4,1.852,1.852,0,0,0-1.157.322,1.014,1.014,0,0,0-.417.842.822.822,0,0,0,.388.74,4.776,4.776,0,0,0,1.4.476,7.308,7.308,0,0,1,1.644.542,2.4,2.4,0,0,1,.934.758,1.864,1.864,0,0,1,.3,1.08,2.028,2.028,0,0,1-.85,1.7,3.564,3.564,0,0,1-2.2.641,3.991,3.991,0,0,1-1.685-.337,2.74,2.74,0,0,1-1.146-.941,2.268,2.268,0,0,1-.414-1.307h1.355a1.4,1.4,0,0,0,.546,1.08,2.117,2.117,0,0,0,1.344.4,2.185,2.185,0,0,0,1.234-.311A.956.956,0,0,0,14.165,13.9Zm4.958-7.742V8.075H20.6V9.123H19.124v4.921a1.1,1.1,0,0,0,.2.715A.832.832,0,0,0,20,15a3.281,3.281,0,0,0,.645-.088V16a3.951,3.951,0,0,1-1.04.146,1.687,1.687,0,0,1-1.37-.549,2.36,2.36,0,0,1-.461-1.56V9.123H16.326V8.075h1.443V6.156Zm6.892,3.135a4.06,4.06,0,0,0-.667-.051,1.786,1.786,0,0,0-1.809,1.135V16H22.185V8.075H23.5l.022.916a2.11,2.11,0,0,1,1.89-1.062,1.384,1.384,0,0,1,.6.1ZM31.86,16a2.846,2.846,0,0,1-.19-.835,3.023,3.023,0,0,1-2.256.981,2.8,2.8,0,0,1-1.923-.663,2.145,2.145,0,0,1-.751-1.681,2.24,2.24,0,0,1,.941-1.923A4.437,4.437,0,0,1,30.33,11.2h1.318v-.623a1.522,1.522,0,0,0-.425-1.132,1.707,1.707,0,0,0-1.252-.421,1.976,1.976,0,0,0-1.216.366,1.079,1.079,0,0,0-.491.886H26.9a1.87,1.87,0,0,1,.421-1.146,2.874,2.874,0,0,1,1.143-.875,3.844,3.844,0,0,1,1.586-.322,3.133,3.133,0,0,1,2.146.685A2.47,2.47,0,0,1,33,10.5v3.647a4.459,4.459,0,0,0,.278,1.736V16Zm-2.249-1.033a2.381,2.381,0,0,0,1.208-.33,1.994,1.994,0,0,0,.828-.857V12.155H30.586q-2.49,0-2.49,1.458a1.234,1.234,0,0,0,.425,1A1.633,1.633,0,0,0,29.612,14.967Zm7.354-8.811V8.075h1.479V9.123H36.965v4.921a1.1,1.1,0,0,0,.2.715.832.832,0,0,0,.674.238,3.281,3.281,0,0,0,.645-.088V16a3.951,3.951,0,0,1-1.04.146,1.687,1.687,0,0,1-1.37-.549,2.36,2.36,0,0,1-.461-1.56V9.123H34.167V8.075H35.61V6.156Zm6.35,9.99a3.463,3.463,0,0,1-2.622-1.058,3.928,3.928,0,0,1-1.011-2.831v-.249a4.756,4.756,0,0,1,.45-2.106,3.514,3.514,0,0,1,1.26-1.45,3.167,3.167,0,0,1,1.754-.524,2.968,2.968,0,0,1,2.4,1.018,4.408,4.408,0,0,1,.857,2.915v.564H41.038a2.817,2.817,0,0,0,.685,1.893,2.153,2.153,0,0,0,1.666.721,2.36,2.36,0,0,0,1.216-.293,3.055,3.055,0,0,0,.872-.776l.828.645A3.328,3.328,0,0,1,43.315,16.146Zm-.168-7.1a1.807,1.807,0,0,0-1.377.6,2.9,2.9,0,0,0-.688,1.674h3.97v-.1a2.581,2.581,0,0,0-.557-1.6A1.7,1.7,0,0,0,43.147,9.042Zm4.5,2.93a4.658,4.658,0,0,1,.857-2.948,2.954,2.954,0,0,1,4.534-.07l.066-.879h1.238V15.81a3.224,3.224,0,0,1-.912,2.424,3.365,3.365,0,0,1-2.45.886,4.076,4.076,0,0,1-1.677-.366,2.887,2.887,0,0,1-1.252-1l.7-.813a2.65,2.65,0,0,0,2.131,1.077,2.076,2.076,0,0,0,1.542-.557,2.128,2.128,0,0,0,.553-1.567v-.681a2.785,2.785,0,0,1-2.219.938,2.707,2.707,0,0,1-2.252-1.121A4.9,4.9,0,0,1,47.651,11.972Zm1.362.154a3.553,3.553,0,0,0,.549,2.106A1.785,1.785,0,0,0,51.1,15a1.985,1.985,0,0,0,1.882-1.165V10.214a2.008,2.008,0,0,0-1.868-1.135,1.8,1.8,0,0,0-1.545.769A3.87,3.87,0,0,0,49.014,12.125ZM57.861,16H56.506V8.075h1.355ZM56.4,5.973a.809.809,0,0,1,.2-.557.756.756,0,0,1,.6-.227.768.768,0,0,1,.6.227A.8.8,0,0,1,58,5.973a.774.774,0,0,1-.205.549.782.782,0,0,1-.6.22.77.77,0,0,1-.6-.22A.782.782,0,0,1,56.4,5.973ZM64.922,16a2.846,2.846,0,0,1-.19-.835,3.023,3.023,0,0,1-2.256.981,2.8,2.8,0,0,1-1.923-.663A2.145,2.145,0,0,1,59.8,13.8a2.24,2.24,0,0,1,.941-1.923,4.437,4.437,0,0,1,2.648-.685h1.318v-.623a1.522,1.522,0,0,0-.425-1.132,1.707,1.707,0,0,0-1.252-.421,1.976,1.976,0,0,0-1.216.366,1.079,1.079,0,0,0-.491.886H59.963a1.87,1.87,0,0,1,.421-1.146,2.874,2.874,0,0,1,1.143-.875,3.844,3.844,0,0,1,1.586-.322,3.133,3.133,0,0,1,2.146.685,2.47,2.47,0,0,1,.806,1.886v3.647a4.459,4.459,0,0,0,.278,1.736V16Zm-2.249-1.033a2.381,2.381,0,0,0,1.208-.33,1.994,1.994,0,0,0,.828-.857V12.155H63.647q-2.49,0-2.49,1.458a1.234,1.234,0,0,0,.425,1A1.633,1.633,0,0,0,62.673,14.967ZM78.6,12.125a4.745,4.745,0,0,1-.828,2.915,2.653,2.653,0,0,1-2.241,1.106,2.906,2.906,0,0,1-2.271-.916v3.816H71.9V8.075H73.14l.066.879a2.791,2.791,0,0,1,2.3-1.025,2.7,2.7,0,0,1,2.26,1.077,4.8,4.8,0,0,1,.831,3Zm-1.355-.154a3.5,3.5,0,0,0-.571-2.117A1.84,1.84,0,0,0,75.1,9.079a1.992,1.992,0,0,0-1.846,1.091v3.787a2,2,0,0,0,1.86,1.084,1.832,1.832,0,0,0,1.549-.773A3.822,3.822,0,0,0,77.241,11.972ZM85.21,16a2.846,2.846,0,0,1-.19-.835,3.023,3.023,0,0,1-2.256.981,2.8,2.8,0,0,1-1.923-.663A2.145,2.145,0,0,1,80.09,13.8a2.24,2.24,0,0,1,.941-1.923,4.437,4.437,0,0,1,2.648-.685H85v-.623a1.522,1.522,0,0,0-.425-1.132A1.707,1.707,0,0,0,83.32,9.02a1.976,1.976,0,0,0-1.216.366,1.079,1.079,0,0,0-.491.886H80.251a1.87,1.87,0,0,1,.421-1.146,2.874,2.874,0,0,1,1.143-.875A3.844,3.844,0,0,1,83.4,7.929a3.133,3.133,0,0,1,2.146.685,2.47,2.47,0,0,1,.806,1.886v3.647a4.459,4.459,0,0,0,.278,1.736V16Zm-2.249-1.033a2.381,2.381,0,0,0,1.208-.33A1.994,1.994,0,0,0,85,13.781V12.155H83.936q-2.49,0-2.49,1.458a1.234,1.234,0,0,0,.425,1A1.633,1.633,0,0,0,82.961,14.967Zm9.346-5.676a4.06,4.06,0,0,0-.667-.051,1.786,1.786,0,0,0-1.809,1.135V16H88.477V8.075h1.318l.022.916a2.11,2.11,0,0,1,1.89-1.062,1.384,1.384,0,0,1,.6.1ZM98.152,16a2.846,2.846,0,0,1-.19-.835,3.023,3.023,0,0,1-2.256.981,2.8,2.8,0,0,1-1.923-.663,2.145,2.145,0,0,1-.751-1.681,2.24,2.24,0,0,1,.941-1.923,4.437,4.437,0,0,1,2.648-.685h1.318v-.623a1.522,1.522,0,0,0-.425-1.132,1.707,1.707,0,0,0-1.252-.421,1.976,1.976,0,0,0-1.216.366,1.079,1.079,0,0,0-.491.886H93.193a1.87,1.87,0,0,1,.421-1.146,2.874,2.874,0,0,1,1.143-.875,3.844,3.844,0,0,1,1.586-.322,3.133,3.133,0,0,1,2.146.685,2.47,2.47,0,0,1,.806,1.886v3.647a4.459,4.459,0,0,0,.278,1.736V16ZM95.9,14.967a2.381,2.381,0,0,0,1.208-.33,1.994,1.994,0,0,0,.828-.857V12.155H96.877q-2.49,0-2.49,1.458a1.234,1.234,0,0,0,.425,1A1.633,1.633,0,0,0,95.9,14.967ZM2.3,29.075l.037.879a2.927,2.927,0,0,1,2.351-1.025A2.266,2.266,0,0,1,6.951,30.2,3,3,0,0,1,7.98,29.28a3.039,3.039,0,0,1,1.5-.352q2.607,0,2.651,2.761V37H10.774V31.771a1.82,1.82,0,0,0-.388-1.271,1.71,1.71,0,0,0-1.3-.421,1.8,1.8,0,0,0-1.252.45,1.827,1.827,0,0,0-.579,1.212V37H5.889V31.807A1.512,1.512,0,0,0,4.2,30.079a1.813,1.813,0,0,0-1.824,1.135V37H1.018V29.075ZM15.645,37H14.29V29.075h1.355ZM14.18,26.973a.809.809,0,0,1,.2-.557.756.756,0,0,1,.6-.227.768.768,0,0,1,.6.227.8.8,0,0,1,.205.557.774.774,0,0,1-.205.549.782.782,0,0,1-.6.22.77.77,0,0,1-.6-.22A.782.782,0,0,1,14.18,26.973Zm4.915,2.1.044,1a2.888,2.888,0,0,1,2.373-1.143q2.512,0,2.534,2.834V37H22.69V31.756a1.824,1.824,0,0,0-.392-1.267,1.57,1.57,0,0,0-1.2-.41,1.956,1.956,0,0,0-1.157.352,2.387,2.387,0,0,0-.776.923V37H17.813V29.075ZM27.561,37H26.206V29.075h1.355ZM26.1,26.973a.809.809,0,0,1,.2-.557.756.756,0,0,1,.6-.227.768.768,0,0,1,.6.227.8.8,0,0,1,.205.557.774.774,0,0,1-.205.549.782.782,0,0,1-.6.22.77.77,0,0,1-.6-.22A.782.782,0,0,1,26.1,26.973ZM31,29.075l.037.879a2.927,2.927,0,0,1,2.351-1.025A2.266,2.266,0,0,1,35.654,30.2a3,3,0,0,1,1.029-.923,3.039,3.039,0,0,1,1.5-.352q2.607,0,2.651,2.761V37H39.478V31.771a1.82,1.82,0,0,0-.388-1.271,1.71,1.71,0,0,0-1.3-.421,1.8,1.8,0,0,0-1.252.45,1.827,1.827,0,0,0-.579,1.212V37H34.592V31.807A1.512,1.512,0,0,0,32.9,30.079a1.813,1.813,0,0,0-1.824,1.135V37H29.722V29.075ZM44.348,37H42.993V29.075h1.355ZM42.883,26.973a.809.809,0,0,1,.2-.557.756.756,0,0,1,.6-.227.768.768,0,0,1,.6.227.8.8,0,0,1,.205.557.774.774,0,0,1-.205.549.782.782,0,0,1-.6.22.77.77,0,0,1-.6-.22A.782.782,0,0,1,42.883,26.973Zm4.907,8.921h4.636V37H46.135V36L50.508,30.2H46.2V29.075h6.006v.959ZM58.843,37a2.846,2.846,0,0,1-.19-.835,3.023,3.023,0,0,1-2.256.981,2.8,2.8,0,0,1-1.923-.663,2.145,2.145,0,0,1-.751-1.681,2.24,2.24,0,0,1,.941-1.923,4.437,4.437,0,0,1,2.648-.685H58.63v-.623a1.522,1.522,0,0,0-.425-1.132,1.707,1.707,0,0,0-1.252-.421,1.976,1.976,0,0,0-1.216.366,1.079,1.079,0,0,0-.491.886H53.884a1.87,1.87,0,0,1,.421-1.146,2.874,2.874,0,0,1,1.143-.875,3.844,3.844,0,0,1,1.586-.322,3.133,3.133,0,0,1,2.146.685,2.47,2.47,0,0,1,.806,1.886v3.647a4.459,4.459,0,0,0,.278,1.736V37Zm-2.249-1.033a2.381,2.381,0,0,0,1.208-.33,1.994,1.994,0,0,0,.828-.857V33.155H57.568q-2.49,0-2.49,1.458a1.234,1.234,0,0,0,.425,1A1.633,1.633,0,0,0,56.594,35.967Zm9.346-5.676a4.06,4.06,0,0,0-.667-.051,1.786,1.786,0,0,0-1.809,1.135V37H62.109V29.075h1.318l.022.916a2.11,2.11,0,0,1,1.89-1.062,1.384,1.384,0,0,1,.6.1ZM71.111,37V26.336h3.01a4.846,4.846,0,0,1,2.461.615,4.161,4.161,0,0,1,1.652,1.75,5.7,5.7,0,0,1,.59,2.607v.681a5.718,5.718,0,0,1-.582,2.644,4.1,4.1,0,0,1-1.663,1.743A5.155,5.155,0,0,1,74.063,37Zm1.406-9.514V35.85H74a3.219,3.219,0,0,0,2.531-1.012,4.18,4.18,0,0,0,.9-2.881v-.623a4.246,4.246,0,0,0-.853-2.826,3.036,3.036,0,0,0-2.421-1.023Zm14.524,7.529,1.846-5.94h1.45l-3.186,9.148Q86.411,40.2,84.8,40.2l-.256-.022-.505-.1v-1.1l.366.029a1.8,1.8,0,0,0,1.073-.278,2.014,2.014,0,0,0,.634-1.018l.3-.806-2.827-7.837h1.479ZM2.3,50.075l.037.879a2.927,2.927,0,0,1,2.351-1.025A2.266,2.266,0,0,1,6.951,51.2,3,3,0,0,1,7.98,50.28a3.039,3.039,0,0,1,1.5-.352q2.607,0,2.651,2.761V58H10.774V52.771a1.82,1.82,0,0,0-.388-1.271,1.71,1.71,0,0,0-1.3-.421,1.8,1.8,0,0,0-1.252.45,1.827,1.827,0,0,0-.579,1.212V58H5.889V52.807A1.512,1.512,0,0,0,4.2,51.079a1.813,1.813,0,0,0-1.824,1.135V58H1.018V50.075ZM19.065,58a2.846,2.846,0,0,1-.19-.835,3.023,3.023,0,0,1-2.256.981,2.8,2.8,0,0,1-1.923-.663,2.145,2.145,0,0,1-.751-1.681,2.24,2.24,0,0,1,.941-1.923,4.437,4.437,0,0,1,2.648-.685h1.318v-.623a1.522,1.522,0,0,0-.425-1.132,1.707,1.707,0,0,0-1.252-.421,1.976,1.976,0,0,0-1.216.366,1.079,1.079,0,0,0-.491.886H14.106a1.87,1.87,0,0,1,.421-1.146,2.874,2.874,0,0,1,1.143-.875,3.844,3.844,0,0,1,1.586-.322,3.133,3.133,0,0,1,2.146.685,2.47,2.47,0,0,1,.806,1.886v3.647a4.459,4.459,0,0,0,.278,1.736V58Zm-2.249-1.033a2.381,2.381,0,0,0,1.208-.33,1.994,1.994,0,0,0,.828-.857V54.155H17.791q-2.49,0-2.49,1.458a1.234,1.234,0,0,0,.425,1A1.633,1.633,0,0,0,16.816,56.967Zm8.174-4,1.758-2.893H28.33l-2.593,3.918L28.411,58H26.843l-1.831-2.966L23.181,58H21.606l2.673-4.006-2.593-3.918h1.567ZM31.238,58H29.883V50.075h1.355ZM29.773,47.973a.809.809,0,0,1,.2-.557.756.756,0,0,1,.6-.227.768.768,0,0,1,.6.227.8.8,0,0,1,.205.557.774.774,0,0,1-.205.549.782.782,0,0,1-.6.22.77.77,0,0,1-.6-.22A.782.782,0,0,1,29.773,47.973Zm4.907,2.1.037.879a2.927,2.927,0,0,1,2.351-1.025A2.266,2.266,0,0,1,39.331,51.2a3,3,0,0,1,1.029-.923,3.039,3.039,0,0,1,1.5-.352q2.607,0,2.651,2.761V58H43.154V52.771a1.82,1.82,0,0,0-.388-1.271,1.71,1.71,0,0,0-1.3-.421,1.8,1.8,0,0,0-1.252.45,1.827,1.827,0,0,0-.579,1.212V58H38.269V52.807a1.512,1.512,0,0,0-1.692-1.729,1.813,1.813,0,0,0-1.824,1.135V58H33.4V50.075ZM48.025,58H46.67V50.075h1.355ZM46.56,47.973a.809.809,0,0,1,.2-.557.756.756,0,0,1,.6-.227.768.768,0,0,1,.6.227.8.8,0,0,1,.205.557.774.774,0,0,1-.205.549.782.782,0,0,1-.6.22.77.77,0,0,1-.6-.22A.782.782,0,0,1,46.56,47.973Zm4.907,8.921H56.1V58H49.812V57L54.185,51.2H49.878V50.075h6.006v.959ZM62.52,58a2.846,2.846,0,0,1-.19-.835,3.023,3.023,0,0,1-2.256.981,2.8,2.8,0,0,1-1.923-.663A2.145,2.145,0,0,1,57.4,55.8a2.24,2.24,0,0,1,.941-1.923,4.437,4.437,0,0,1,2.648-.685h1.318v-.623a1.522,1.522,0,0,0-.425-1.132,1.707,1.707,0,0,0-1.252-.421,1.976,1.976,0,0,0-1.216.366,1.079,1.079,0,0,0-.491.886H57.561a1.87,1.87,0,0,1,.421-1.146,2.874,2.874,0,0,1,1.143-.875,3.844,3.844,0,0,1,1.586-.322,3.133,3.133,0,0,1,2.146.685,2.47,2.47,0,0,1,.806,1.886v3.647a4.459,4.459,0,0,0,.278,1.736V58Zm-2.249-1.033a2.381,2.381,0,0,0,1.208-.33,1.994,1.994,0,0,0,.828-.857V54.155H61.245q-2.49,0-2.49,1.458a1.234,1.234,0,0,0,.425,1A1.633,1.633,0,0,0,60.271,56.967Zm9.346-5.676a4.06,4.06,0,0,0-.667-.051,1.786,1.786,0,0,0-1.809,1.135V58H65.786V50.075H67.1l.022.916a2.11,2.11,0,0,1,1.89-1.062,1.384,1.384,0,0,1,.6.1Zm13.374,1.721a6.6,6.6,0,0,1-.527,2.736,3.994,3.994,0,0,1-1.494,1.783,4.123,4.123,0,0,1-6-1.769,6.33,6.33,0,0,1-.553-2.655v-.769a6.518,6.518,0,0,1,.535-2.717,3.954,3.954,0,0,1,3.75-2.432,4.134,4.134,0,0,1,2.26.619A3.987,3.987,0,0,1,82.463,49.6a6.629,6.629,0,0,1,.527,2.736Zm-1.4-.688a4.781,4.781,0,0,0-.762-2.911A2.512,2.512,0,0,0,78.7,48.4a2.485,2.485,0,0,0-2.1,1.014,4.683,4.683,0,0,0-.787,2.816v.784a4.788,4.788,0,0,0,.773,2.889,2.708,2.708,0,0,0,4.237.059,4.761,4.761,0,0,0,.769-2.845Z" transform="translate(1279 1538)" fill="#12263f"/>
      <path id="Trazado_591521" data-name="Trazado 591521" d="M7.266,11.071H2.644V14.85H8.013V16H1.238V5.336h6.7v1.15h-5.3V9.921H7.266Zm6.9,2.827a1,1,0,0,0-.414-.853,3.983,3.983,0,0,0-1.443-.524,6.822,6.822,0,0,1-1.633-.527,2.324,2.324,0,0,1-.894-.732,1.752,1.752,0,0,1-.289-1.011A2.056,2.056,0,0,1,10.316,8.6a3.218,3.218,0,0,1,2.106-.674,3.311,3.311,0,0,1,2.186.7,2.21,2.21,0,0,1,.839,1.78H14.084a1.223,1.223,0,0,0-.472-.959,1.77,1.77,0,0,0-1.19-.4,1.852,1.852,0,0,0-1.157.322,1.014,1.014,0,0,0-.417.842.822.822,0,0,0,.388.74,4.776,4.776,0,0,0,1.4.476,7.308,7.308,0,0,1,1.644.542,2.4,2.4,0,0,1,.934.758,1.864,1.864,0,0,1,.3,1.08,2.028,2.028,0,0,1-.85,1.7,3.564,3.564,0,0,1-2.2.641,3.991,3.991,0,0,1-1.685-.337,2.74,2.74,0,0,1-1.146-.941,2.268,2.268,0,0,1-.414-1.307h1.355a1.4,1.4,0,0,0,.546,1.08,2.117,2.117,0,0,0,1.344.4,2.185,2.185,0,0,0,1.234-.311A.956.956,0,0,0,14.165,13.9Zm4.958-7.742V8.075H20.6V9.123H19.124v4.921a1.1,1.1,0,0,0,.2.715A.832.832,0,0,0,20,15a3.281,3.281,0,0,0,.645-.088V16a3.951,3.951,0,0,1-1.04.146,1.687,1.687,0,0,1-1.37-.549,2.36,2.36,0,0,1-.461-1.56V9.123H16.326V8.075h1.443V6.156Zm6.892,3.135a4.06,4.06,0,0,0-.667-.051,1.786,1.786,0,0,0-1.809,1.135V16H22.185V8.075H23.5l.022.916a2.11,2.11,0,0,1,1.89-1.062,1.384,1.384,0,0,1,.6.1ZM31.86,16a2.846,2.846,0,0,1-.19-.835,3.023,3.023,0,0,1-2.256.981,2.8,2.8,0,0,1-1.923-.663,2.145,2.145,0,0,1-.751-1.681,2.24,2.24,0,0,1,.941-1.923A4.437,4.437,0,0,1,30.33,11.2h1.318v-.623a1.522,1.522,0,0,0-.425-1.132,1.707,1.707,0,0,0-1.252-.421,1.976,1.976,0,0,0-1.216.366,1.079,1.079,0,0,0-.491.886H26.9a1.87,1.87,0,0,1,.421-1.146,2.874,2.874,0,0,1,1.143-.875,3.844,3.844,0,0,1,1.586-.322,3.133,3.133,0,0,1,2.146.685A2.47,2.47,0,0,1,33,10.5v3.647a4.459,4.459,0,0,0,.278,1.736V16Zm-2.249-1.033a2.381,2.381,0,0,0,1.208-.33,1.994,1.994,0,0,0,.828-.857V12.155H30.586q-2.49,0-2.49,1.458a1.234,1.234,0,0,0,.425,1A1.633,1.633,0,0,0,29.612,14.967Zm7.354-8.811V8.075h1.479V9.123H36.965v4.921a1.1,1.1,0,0,0,.2.715.832.832,0,0,0,.674.238,3.281,3.281,0,0,0,.645-.088V16a3.951,3.951,0,0,1-1.04.146,1.687,1.687,0,0,1-1.37-.549,2.36,2.36,0,0,1-.461-1.56V9.123H34.167V8.075H35.61V6.156Zm6.35,9.99a3.463,3.463,0,0,1-2.622-1.058,3.928,3.928,0,0,1-1.011-2.831v-.249a4.756,4.756,0,0,1,.45-2.106,3.514,3.514,0,0,1,1.26-1.45,3.167,3.167,0,0,1,1.754-.524,2.968,2.968,0,0,1,2.4,1.018,4.408,4.408,0,0,1,.857,2.915v.564H41.038a2.817,2.817,0,0,0,.685,1.893,2.153,2.153,0,0,0,1.666.721,2.36,2.36,0,0,0,1.216-.293,3.055,3.055,0,0,0,.872-.776l.828.645A3.328,3.328,0,0,1,43.315,16.146Zm-.168-7.1a1.807,1.807,0,0,0-1.377.6,2.9,2.9,0,0,0-.688,1.674h3.97v-.1a2.581,2.581,0,0,0-.557-1.6A1.7,1.7,0,0,0,43.147,9.042Zm4.5,2.93a4.658,4.658,0,0,1,.857-2.948,2.954,2.954,0,0,1,4.534-.07l.066-.879h1.238V15.81a3.224,3.224,0,0,1-.912,2.424,3.365,3.365,0,0,1-2.45.886,4.076,4.076,0,0,1-1.677-.366,2.887,2.887,0,0,1-1.252-1l.7-.813a2.65,2.65,0,0,0,2.131,1.077,2.076,2.076,0,0,0,1.542-.557,2.128,2.128,0,0,0,.553-1.567v-.681a2.785,2.785,0,0,1-2.219.938,2.707,2.707,0,0,1-2.252-1.121A4.9,4.9,0,0,1,47.651,11.972Zm1.362.154a3.553,3.553,0,0,0,.549,2.106A1.785,1.785,0,0,0,51.1,15a1.985,1.985,0,0,0,1.882-1.165V10.214a2.008,2.008,0,0,0-1.868-1.135,1.8,1.8,0,0,0-1.545.769A3.87,3.87,0,0,0,49.014,12.125ZM57.861,16H56.506V8.075h1.355ZM56.4,5.973a.809.809,0,0,1,.2-.557.756.756,0,0,1,.6-.227.768.768,0,0,1,.6.227A.8.8,0,0,1,58,5.973a.774.774,0,0,1-.205.549.782.782,0,0,1-.6.22.77.77,0,0,1-.6-.22A.782.782,0,0,1,56.4,5.973ZM64.922,16a2.846,2.846,0,0,1-.19-.835,3.023,3.023,0,0,1-2.256.981,2.8,2.8,0,0,1-1.923-.663A2.145,2.145,0,0,1,59.8,13.8a2.24,2.24,0,0,1,.941-1.923,4.437,4.437,0,0,1,2.648-.685h1.318v-.623a1.522,1.522,0,0,0-.425-1.132,1.707,1.707,0,0,0-1.252-.421,1.976,1.976,0,0,0-1.216.366,1.079,1.079,0,0,0-.491.886H59.963a1.87,1.87,0,0,1,.421-1.146,2.874,2.874,0,0,1,1.143-.875,3.844,3.844,0,0,1,1.586-.322,3.133,3.133,0,0,1,2.146.685,2.47,2.47,0,0,1,.806,1.886v3.647a4.459,4.459,0,0,0,.278,1.736V16Zm-2.249-1.033a2.381,2.381,0,0,0,1.208-.33,1.994,1.994,0,0,0,.828-.857V12.155H63.647q-2.49,0-2.49,1.458a1.234,1.234,0,0,0,.425,1A1.633,1.633,0,0,0,62.673,14.967ZM78.6,12.125a4.745,4.745,0,0,1-.828,2.915,2.653,2.653,0,0,1-2.241,1.106,2.906,2.906,0,0,1-2.271-.916v3.816H71.9V8.075H73.14l.066.879a2.791,2.791,0,0,1,2.3-1.025,2.7,2.7,0,0,1,2.26,1.077,4.8,4.8,0,0,1,.831,3Zm-1.355-.154a3.5,3.5,0,0,0-.571-2.117A1.84,1.84,0,0,0,75.1,9.079a1.992,1.992,0,0,0-1.846,1.091v3.787a2,2,0,0,0,1.86,1.084,1.832,1.832,0,0,0,1.549-.773A3.822,3.822,0,0,0,77.241,11.972ZM85.21,16a2.846,2.846,0,0,1-.19-.835,3.023,3.023,0,0,1-2.256.981,2.8,2.8,0,0,1-1.923-.663A2.145,2.145,0,0,1,80.09,13.8a2.24,2.24,0,0,1,.941-1.923,4.437,4.437,0,0,1,2.648-.685H85v-.623a1.522,1.522,0,0,0-.425-1.132A1.707,1.707,0,0,0,83.32,9.02a1.976,1.976,0,0,0-1.216.366,1.079,1.079,0,0,0-.491.886H80.251a1.87,1.87,0,0,1,.421-1.146,2.874,2.874,0,0,1,1.143-.875A3.844,3.844,0,0,1,83.4,7.929a3.133,3.133,0,0,1,2.146.685,2.47,2.47,0,0,1,.806,1.886v3.647a4.459,4.459,0,0,0,.278,1.736V16Zm-2.249-1.033a2.381,2.381,0,0,0,1.208-.33A1.994,1.994,0,0,0,85,13.781V12.155H83.936q-2.49,0-2.49,1.458a1.234,1.234,0,0,0,.425,1A1.633,1.633,0,0,0,82.961,14.967Zm9.346-5.676a4.06,4.06,0,0,0-.667-.051,1.786,1.786,0,0,0-1.809,1.135V16H88.477V8.075h1.318l.022.916a2.11,2.11,0,0,1,1.89-1.062,1.384,1.384,0,0,1,.6.1ZM98.152,16a2.846,2.846,0,0,1-.19-.835,3.023,3.023,0,0,1-2.256.981,2.8,2.8,0,0,1-1.923-.663,2.145,2.145,0,0,1-.751-1.681,2.24,2.24,0,0,1,.941-1.923,4.437,4.437,0,0,1,2.648-.685h1.318v-.623a1.522,1.522,0,0,0-.425-1.132,1.707,1.707,0,0,0-1.252-.421,1.976,1.976,0,0,0-1.216.366,1.079,1.079,0,0,0-.491.886H93.193a1.87,1.87,0,0,1,.421-1.146,2.874,2.874,0,0,1,1.143-.875,3.844,3.844,0,0,1,1.586-.322,3.133,3.133,0,0,1,2.146.685,2.47,2.47,0,0,1,.806,1.886v3.647a4.459,4.459,0,0,0,.278,1.736V16ZM95.9,14.967a2.381,2.381,0,0,0,1.208-.33,1.994,1.994,0,0,0,.828-.857V12.155H96.877q-2.49,0-2.49,1.458a1.234,1.234,0,0,0,.425,1A1.633,1.633,0,0,0,95.9,14.967ZM2.3,29.075l.037.879a2.927,2.927,0,0,1,2.351-1.025A2.266,2.266,0,0,1,6.951,30.2,3,3,0,0,1,7.98,29.28a3.039,3.039,0,0,1,1.5-.352q2.607,0,2.651,2.761V37H10.774V31.771a1.82,1.82,0,0,0-.388-1.271,1.71,1.71,0,0,0-1.3-.421,1.8,1.8,0,0,0-1.252.45,1.827,1.827,0,0,0-.579,1.212V37H5.889V31.807A1.512,1.512,0,0,0,4.2,30.079a1.813,1.813,0,0,0-1.824,1.135V37H1.018V29.075ZM15.645,37H14.29V29.075h1.355ZM14.18,26.973a.809.809,0,0,1,.2-.557.756.756,0,0,1,.6-.227.768.768,0,0,1,.6.227.8.8,0,0,1,.205.557.774.774,0,0,1-.205.549.782.782,0,0,1-.6.22.77.77,0,0,1-.6-.22A.782.782,0,0,1,14.18,26.973Zm4.915,2.1.044,1a2.888,2.888,0,0,1,2.373-1.143q2.512,0,2.534,2.834V37H22.69V31.756a1.824,1.824,0,0,0-.392-1.267,1.57,1.57,0,0,0-1.2-.41,1.956,1.956,0,0,0-1.157.352,2.387,2.387,0,0,0-.776.923V37H17.813V29.075ZM27.561,37H26.206V29.075h1.355ZM26.1,26.973a.809.809,0,0,1,.2-.557.756.756,0,0,1,.6-.227.768.768,0,0,1,.6.227.8.8,0,0,1,.205.557.774.774,0,0,1-.205.549.782.782,0,0,1-.6.22.77.77,0,0,1-.6-.22A.782.782,0,0,1,26.1,26.973ZM31,29.075l.037.879a2.927,2.927,0,0,1,2.351-1.025A2.266,2.266,0,0,1,35.654,30.2a3,3,0,0,1,1.029-.923,3.039,3.039,0,0,1,1.5-.352q2.607,0,2.651,2.761V37H39.478V31.771a1.82,1.82,0,0,0-.388-1.271,1.71,1.71,0,0,0-1.3-.421,1.8,1.8,0,0,0-1.252.45,1.827,1.827,0,0,0-.579,1.212V37H34.592V31.807A1.512,1.512,0,0,0,32.9,30.079a1.813,1.813,0,0,0-1.824,1.135V37H29.722V29.075ZM44.348,37H42.993V29.075h1.355ZM42.883,26.973a.809.809,0,0,1,.2-.557.756.756,0,0,1,.6-.227.768.768,0,0,1,.6.227.8.8,0,0,1,.205.557.774.774,0,0,1-.205.549.782.782,0,0,1-.6.22.77.77,0,0,1-.6-.22A.782.782,0,0,1,42.883,26.973Zm4.907,8.921h4.636V37H46.135V36L50.508,30.2H46.2V29.075h6.006v.959ZM58.843,37a2.846,2.846,0,0,1-.19-.835,3.023,3.023,0,0,1-2.256.981,2.8,2.8,0,0,1-1.923-.663,2.145,2.145,0,0,1-.751-1.681,2.24,2.24,0,0,1,.941-1.923,4.437,4.437,0,0,1,2.648-.685H58.63v-.623a1.522,1.522,0,0,0-.425-1.132,1.707,1.707,0,0,0-1.252-.421,1.976,1.976,0,0,0-1.216.366,1.079,1.079,0,0,0-.491.886H53.884a1.87,1.87,0,0,1,.421-1.146,2.874,2.874,0,0,1,1.143-.875,3.844,3.844,0,0,1,1.586-.322,3.133,3.133,0,0,1,2.146.685,2.47,2.47,0,0,1,.806,1.886v3.647a4.459,4.459,0,0,0,.278,1.736V37Zm-2.249-1.033a2.381,2.381,0,0,0,1.208-.33,1.994,1.994,0,0,0,.828-.857V33.155H57.568q-2.49,0-2.49,1.458a1.234,1.234,0,0,0,.425,1A1.633,1.633,0,0,0,56.594,35.967Zm9.346-5.676a4.06,4.06,0,0,0-.667-.051,1.786,1.786,0,0,0-1.809,1.135V37H62.109V29.075h1.318l.022.916a2.11,2.11,0,0,1,1.89-1.062,1.384,1.384,0,0,1,.6.1ZM71.111,37V26.336h3.01a4.846,4.846,0,0,1,2.461.615,4.161,4.161,0,0,1,1.652,1.75,5.7,5.7,0,0,1,.59,2.607v.681a5.718,5.718,0,0,1-.582,2.644,4.1,4.1,0,0,1-1.663,1.743A5.155,5.155,0,0,1,74.063,37Zm1.406-9.514V35.85H74a3.219,3.219,0,0,0,2.531-1.012,4.18,4.18,0,0,0,.9-2.881v-.623a4.246,4.246,0,0,0-.853-2.826,3.036,3.036,0,0,0-2.421-1.023Zm14.524,7.529,1.846-5.94h1.45l-3.186,9.148Q86.411,40.2,84.8,40.2l-.256-.022-.505-.1v-1.1l.366.029a1.8,1.8,0,0,0,1.073-.278,2.014,2.014,0,0,0,.634-1.018l.3-.806-2.827-7.837h1.479Zm14.319-.806H96.892l-1,2.791h-1.45l4.072-10.664h1.23L103.821,37h-1.443Zm-4.043-1.15h3.625l-1.816-4.988Z" transform="translate(1279 1645)" fill="#12263f"/>
      <g id="Rectángulo_276342" data-name="Rectángulo 276342" transform="translate(1084 1393)" fill="#efefef" stroke="#707070" stroke-width="2">
        <rect width="170" height="109" stroke="none"/>
        <rect x="1" y="1" width="168" height="107" fill="none"/>
      </g>
      <path id="Trazado_591510" data-name="Trazado 591510" d="M7.859,12.352h-4.5V17H1.016V5.625H8.422v1.9H3.359v2.938h4.5Zm1.258.344A5.013,5.013,0,0,1,9.6,10.453,3.546,3.546,0,0,1,11,8.93a4.069,4.069,0,0,1,2.113-.539A3.849,3.849,0,0,1,15.9,9.438a4.2,4.2,0,0,1,1.207,2.844l.016.578a4.418,4.418,0,0,1-1.086,3.121,3.775,3.775,0,0,1-2.914,1.176,3.793,3.793,0,0,1-2.918-1.172A4.5,4.5,0,0,1,9.117,12.8Zm2.258.16a3.16,3.16,0,0,0,.453,1.843,1.628,1.628,0,0,0,2.578.008,3.457,3.457,0,0,0,.461-2.015,3.128,3.128,0,0,0-.461-1.831,1.5,1.5,0,0,0-1.3-.649,1.474,1.474,0,0,0-1.281.646A3.516,3.516,0,0,0,11.375,12.856Zm11.891-2.192a6.134,6.134,0,0,0-.812-.062,1.654,1.654,0,0,0-1.68.867V17H18.516V8.547h2.133l.063,1.008a2.092,2.092,0,0,1,1.883-1.164,2.366,2.366,0,0,1,.7.1Zm4.18-4.2V8.547h1.445V10.2H27.445v4.219a1.007,1.007,0,0,0,.18.672.9.9,0,0,0,.688.2,3.6,3.6,0,0,0,.664-.055v1.711a4.648,4.648,0,0,1-1.367.2,2.156,2.156,0,0,1-2.422-2.4V10.2H23.953V8.547h1.234V6.469ZM35.047,17a2.507,2.507,0,0,1-.227-.758,2.732,2.732,0,0,1-2.133.914,3,3,0,0,1-2.059-.719,2.312,2.312,0,0,1-.816-1.812,2.389,2.389,0,0,1,1-2.062,4.915,4.915,0,0,1,2.879-.727h1.039v-.484a1.393,1.393,0,0,0-.3-.937,1.183,1.183,0,0,0-.949-.352,1.345,1.345,0,0,0-.895.273.929.929,0,0,0-.324.75H30a2.268,2.268,0,0,1,.453-1.359,3,3,0,0,1,1.281-.98,4.669,4.669,0,0,1,1.859-.355,3.689,3.689,0,0,1,2.48.785,2.747,2.747,0,0,1,.918,2.207v3.664a4.041,4.041,0,0,0,.336,1.82V17ZM33.18,15.43a1.945,1.945,0,0,0,.922-.223,1.462,1.462,0,0,0,.625-.6V13.156h-.844q-1.7,0-1.8,1.172l-.008.133a.9.9,0,0,0,.3.7A1.153,1.153,0,0,0,33.18,15.43ZM41.109,17H38.844V5h2.266Zm5.75.156a4.15,4.15,0,0,1-3.027-1.141,4.054,4.054,0,0,1-1.168-3.039v-.219a5.106,5.106,0,0,1,.492-2.277,3.612,3.612,0,0,1,1.395-1.547,3.914,3.914,0,0,1,2.059-.543,3.508,3.508,0,0,1,2.73,1.094,4.444,4.444,0,0,1,1,3.1v.922H44.953a2.1,2.1,0,0,0,.66,1.328,2,2,0,0,0,1.395.5,2.437,2.437,0,0,0,2.039-.945l1.109,1.242a3.389,3.389,0,0,1-1.375,1.121A4.511,4.511,0,0,1,46.859,17.156ZM46.6,10.211a1.411,1.411,0,0,0-1.09.455,2.357,2.357,0,0,0-.535,1.3h3.141v-.181a1.681,1.681,0,0,0-.406-1.165A1.456,1.456,0,0,0,46.6,10.211Zm7.609,4.969h4.133V17H51.328V15.625L55.3,10.367H51.445V8.547h6.773v1.33ZM64.656,17a2.507,2.507,0,0,1-.227-.758,2.732,2.732,0,0,1-2.133.914,3,3,0,0,1-2.059-.719,2.312,2.312,0,0,1-.816-1.812,2.389,2.389,0,0,1,1-2.062,4.915,4.915,0,0,1,2.879-.727h1.039v-.484a1.393,1.393,0,0,0-.3-.937,1.183,1.183,0,0,0-.949-.352,1.345,1.345,0,0,0-.895.273.929.929,0,0,0-.324.75H59.609a2.268,2.268,0,0,1,.453-1.359,3,3,0,0,1,1.281-.98A4.669,4.669,0,0,1,63.2,8.391a3.689,3.689,0,0,1,2.48.785,2.747,2.747,0,0,1,.918,2.207v3.664a4.041,4.041,0,0,0,.336,1.82V17Zm-1.867-1.57a1.945,1.945,0,0,0,.922-.223,1.462,1.462,0,0,0,.625-.6V13.156h-.844q-1.7,0-1.8,1.172l-.008.133a.9.9,0,0,0,.3.7A1.153,1.153,0,0,0,62.789,15.43Zm10.125-.766a.727.727,0,0,0-.41-.652,4.659,4.659,0,0,0-1.316-.426q-3.016-.633-3.016-2.562a2.323,2.323,0,0,1,.934-1.879,3.766,3.766,0,0,1,2.441-.754,4.053,4.053,0,0,1,2.574.758,2.388,2.388,0,0,1,.965,1.969H72.828a1.092,1.092,0,0,0-.312-.8A1.322,1.322,0,0,0,71.539,10a1.351,1.351,0,0,0-.883.258.814.814,0,0,0-.312.656.7.7,0,0,0,.355.605,3.657,3.657,0,0,0,1.2.4,9.8,9.8,0,0,1,1.422.379,2.336,2.336,0,0,1,1.789,2.273,2.2,2.2,0,0,1-.992,1.871,4.28,4.28,0,0,1-2.562.715,4.47,4.47,0,0,1-1.887-.379,3.166,3.166,0,0,1-1.293-1.039,2.414,2.414,0,0,1-.469-1.426h2.141a1.179,1.179,0,0,0,.445.922,1.766,1.766,0,0,0,1.109.32,1.635,1.635,0,0,0,.98-.246A.766.766,0,0,0,72.914,14.664Z" transform="translate(1129 1437)" fill="#12263f"/>
    </g>
  </g>
</svg>
