<svg xmlns="http://www.w3.org/2000/svg" width="62.039" height="76.468" viewBox="0 0 62.039 76.468"><g transform="translate(0 76.468) rotate(-90)"><path d="M170.467,82.636c-3.008,0-4.492-2.787-5.685-5.028-1.208-2.267-2.026-3.657-3.566-3.657s-2.357,1.39-3.562,3.657c-1.193,2.241-2.677,5.028-5.684,5.028s-4.492-2.787-5.685-5.028c-1.207-2.267-2.025-3.657-3.564-3.657s-2.355,1.39-3.562,3.657c-1.193,2.241-2.677,5.028-5.684,5.028s-4.491-2.789-5.682-5.03c-1.207-2.266-2.024-3.655-3.561-3.655s-2.354,1.39-3.561,3.655c-1.193,2.243-2.676,5.03-5.682,5.03s-4.49-2.787-5.682-5.03c-1.207-2.266-2.024-3.655-3.561-3.655a1.463,1.463,0,0,1,0-2.895c3,0,4.49,2.787,5.682,5.028,1.205,2.267,2.024,3.657,3.561,3.657s2.354-1.39,3.561-3.657c1.193-2.241,2.677-5.028,5.682-5.028s4.49,2.787,5.681,5.028c1.207,2.267,2.024,3.657,3.562,3.657s2.355-1.39,3.562-3.657c1.193-2.241,2.677-5.028,5.684-5.028s4.491,2.787,5.685,5.028c1.205,2.267,2.024,3.657,3.564,3.657s2.355-1.39,3.562-3.657c1.191-2.241,2.677-5.028,5.684-5.028s4.494,2.787,5.686,5.028c1.208,2.267,2.026,3.657,3.565,3.657s2.358-1.39,3.566-3.657c1.193-2.241,2.679-5.028,5.686-5.028a1.463,1.463,0,0,1,0,2.895c-1.54,0-2.358,1.39-3.566,3.657C174.961,79.848,173.477,82.636,170.467,82.636Z" transform="translate(-104.499 -71.056)" fill="#008bfd"/><path d="M170.467,90.3c-3.008,0-4.492-2.789-5.685-5.028-1.208-2.269-2.026-3.658-3.566-3.658s-2.357,1.39-3.562,3.657c-1.193,2.241-2.677,5.03-5.684,5.03s-4.492-2.789-5.685-5.03c-1.207-2.267-2.025-3.657-3.564-3.657s-2.355,1.39-3.562,3.657c-1.193,2.241-2.677,5.03-5.684,5.03s-4.491-2.791-5.682-5.03c-1.207-2.267-2.024-3.657-3.561-3.657s-2.354,1.39-3.561,3.657C119.479,87.51,118,90.3,114.99,90.3s-4.49-2.789-5.682-5.03c-1.207-2.267-2.024-3.657-3.561-3.657a1.463,1.463,0,0,1,0-2.894c3,0,4.49,2.789,5.682,5.03,1.205,2.266,2.024,3.655,3.561,3.655s2.354-1.39,3.561-3.655c1.193-2.241,2.677-5.03,5.682-5.03s4.49,2.789,5.681,5.03c1.207,2.266,2.024,3.655,3.562,3.655s2.355-1.39,3.562-3.655c1.193-2.241,2.677-5.03,5.684-5.03s4.491,2.789,5.685,5.03c1.205,2.266,2.024,3.655,3.564,3.655s2.355-1.39,3.562-3.655c1.191-2.241,2.677-5.03,5.684-5.03s4.494,2.789,5.686,5.03c1.208,2.266,2.026,3.655,3.565,3.655s2.358-1.39,3.566-3.655c1.193-2.241,2.679-5.03,5.686-5.03a1.463,1.463,0,0,1,0,2.894c-1.54,0-2.358,1.39-3.566,3.657C174.961,87.51,173.477,90.3,170.467,90.3Z" transform="translate(-104.499 -66.103)" fill="#008bfd"/><path d="M170.467,97.96c-3.008,0-4.492-2.787-5.685-5.028-1.208-2.267-2.026-3.657-3.566-3.657s-2.357,1.39-3.562,3.657c-1.193,2.241-2.677,5.028-5.684,5.028s-4.492-2.787-5.685-5.028c-1.207-2.267-2.025-3.657-3.564-3.657s-2.355,1.39-3.562,3.657c-1.193,2.241-2.677,5.028-5.684,5.028s-4.491-2.787-5.682-5.028c-1.207-2.267-2.024-3.657-3.561-3.657s-2.354,1.39-3.561,3.657c-1.193,2.241-2.676,5.028-5.682,5.028s-4.49-2.787-5.682-5.028c-1.207-2.267-2.024-3.657-3.561-3.657a1.463,1.463,0,0,1,0-2.895c3,0,4.49,2.789,5.682,5.03,1.205,2.266,2.024,3.655,3.561,3.655s2.354-1.39,3.561-3.655c1.193-2.241,2.677-5.03,5.682-5.03s4.49,2.789,5.681,5.028c1.207,2.267,2.024,3.657,3.562,3.657s2.355-1.39,3.562-3.657c1.193-2.239,2.677-5.028,5.684-5.028s4.491,2.789,5.685,5.028c1.205,2.267,2.024,3.657,3.564,3.657s2.355-1.39,3.562-3.657c1.191-2.239,2.677-5.028,5.684-5.028s4.494,2.789,5.686,5.028c1.208,2.267,2.026,3.657,3.565,3.657s2.358-1.39,3.566-3.657c1.193-2.239,2.679-5.028,5.686-5.028a1.463,1.463,0,0,1,0,2.895c-1.54,0-2.358,1.39-3.566,3.657C174.961,95.172,173.477,97.96,170.467,97.96Z" transform="translate(-104.499 -61.149)" fill="#008bfd"/><path d="M170.467,97.96c-3.008,0-4.492-2.787-5.685-5.028-1.208-2.267-2.026-3.657-3.566-3.657s-2.357,1.39-3.562,3.657c-1.193,2.241-2.677,5.028-5.684,5.028s-4.492-2.787-5.685-5.028c-1.207-2.267-2.025-3.657-3.564-3.657s-2.355,1.39-3.562,3.657c-1.193,2.241-2.677,5.028-5.684,5.028s-4.491-2.787-5.682-5.028c-1.207-2.267-2.024-3.657-3.561-3.657s-2.354,1.39-3.561,3.657c-1.193,2.241-2.676,5.028-5.682,5.028s-4.49-2.787-5.682-5.028c-1.207-2.267-2.024-3.657-3.561-3.657a1.463,1.463,0,0,1,0-2.895c3,0,4.49,2.789,5.682,5.03,1.205,2.266,2.024,3.655,3.561,3.655s2.354-1.39,3.561-3.655c1.193-2.241,2.677-5.03,5.682-5.03s4.49,2.789,5.681,5.028c1.207,2.267,2.024,3.657,3.562,3.657s2.355-1.39,3.562-3.657c1.193-2.239,2.677-5.028,5.684-5.028s4.491,2.789,5.685,5.028c1.205,2.267,2.024,3.657,3.564,3.657s2.355-1.39,3.562-3.657c1.191-2.239,2.677-5.028,5.684-5.028s4.494,2.789,5.686,5.028c1.208,2.267,2.026,3.657,3.565,3.657s2.358-1.39,3.566-3.657c1.193-2.239,2.679-5.028,5.686-5.028a1.463,1.463,0,0,1,0,2.895c-1.54,0-2.358,1.39-3.566,3.657C174.961,95.172,173.477,97.96,170.467,97.96Z" transform="translate(-104.499 -48.534)" fill="#008bfd"/><path d="M170.467,97.96c-3.008,0-4.492-2.787-5.685-5.028-1.208-2.267-2.026-3.657-3.566-3.657s-2.357,1.39-3.562,3.657c-1.193,2.241-2.677,5.028-5.684,5.028s-4.492-2.787-5.685-5.028c-1.207-2.267-2.025-3.657-3.564-3.657s-2.355,1.39-3.562,3.657c-1.193,2.241-2.677,5.028-5.684,5.028s-4.491-2.787-5.682-5.028c-1.207-2.267-2.024-3.657-3.561-3.657s-2.354,1.39-3.561,3.657c-1.193,2.241-2.676,5.028-5.682,5.028s-4.49-2.787-5.682-5.028c-1.207-2.267-2.024-3.657-3.561-3.657a1.463,1.463,0,0,1,0-2.895c3,0,4.49,2.789,5.682,5.03,1.205,2.266,2.024,3.655,3.561,3.655s2.354-1.39,3.561-3.655c1.193-2.241,2.677-5.03,5.682-5.03s4.49,2.789,5.681,5.028c1.207,2.267,2.024,3.657,3.562,3.657s2.355-1.39,3.562-3.657c1.193-2.239,2.677-5.028,5.684-5.028s4.491,2.789,5.685,5.028c1.205,2.267,2.024,3.657,3.564,3.657s2.355-1.39,3.562-3.657c1.191-2.239,2.677-5.028,5.684-5.028s4.494,2.789,5.686,5.028c1.208,2.267,2.026,3.657,3.565,3.657s2.358-1.39,3.566-3.657c1.193-2.239,2.679-5.028,5.686-5.028a1.463,1.463,0,0,1,0,2.895c-1.54,0-2.358,1.39-3.566,3.657C174.961,95.172,173.477,97.96,170.467,97.96Z" transform="translate(-104.499 -35.921)" fill="#008bfd"/></g></svg>