<svg xmlns="http://www.w3.org/2000/svg" width="473.784" height="284.454" viewBox="0 0 473.784 284.454">
  <g id="Grupo_848501" data-name="Grupo 848501" transform="translate(4761.36 10682.75)">
    <g id="Grupo_848494" data-name="Grupo 848494">
      <g id="Grupo_848492" data-name="Grupo 848492">
        <g id="Grupo_848491" data-name="Grupo 848491">
          <g id="Grupo_848489" data-name="Grupo 848489">
            <path id="Trazado_591458" data-name="Trazado 591458" d="M-4381.117-10553.407c1.1,50.237-58.312,70.81-100.782,72.725s-17.733.65-113.05-3.664-83.021-86.634-83.021-86.634l23.214.531v15.224l80.387.673,9.041,9.787,57.619.874,8.862-9.8,90.5,2.042.264-16.062,26.971-.027v14.328Z" transform="translate(1.203)" fill="#fff" stroke="#707070" stroke-width="1"/>
            <g id="Grupo_848488" data-name="Grupo 848488">
              <path id="Trazado_591443" data-name="Trazado 591443" d="M-4551.653-10514.626l-14.061,6.53" fill="none" stroke="#707070" stroke-width="1"/>
              <path id="Trazado_591444" data-name="Trazado 591444" d="M-4551.653-10502.946l-10.972,6.821" transform="matrix(0.995, 0.105, -0.105, 0.995, -1122.325, 418.833)" fill="none" stroke="#707070" stroke-width="1"/>
              <g id="Elipse_7288" data-name="Elipse 7288" transform="translate(-4570 -10509)" fill="#fff" stroke="#707070" stroke-width="1">
                <circle cx="6.5" cy="6.5" r="6.5" stroke="none"/>
                <circle cx="6.5" cy="6.5" r="6" fill="none"/>
              </g>
            </g>
          </g>
        </g>
        <g id="Grupo_848490" data-name="Grupo 848490">
          <g id="Grupo_848487" data-name="Grupo 848487">
            <path id="Trazado_591442" data-name="Trazado 591442" d="M-4371.822-10578.369h-12.348l-22.868,10.559,27.092.055Z" fill="#fff" stroke="#707070" stroke-width="1"/>
            <path id="Trazado_591445" data-name="Trazado 591445" d="M-4407.038-10565.121h-64.535l-26.808,11.827,91.342,1.593v-16.228" fill="#fff" stroke="#707070" stroke-width="1"/>
            <path id="Trazado_591446" data-name="Trazado 591446" d="M-4565.028-10544.944l-9.232-9.512,26.911-11.937,8.908,7.384Z" fill="#fff" stroke="#707070" stroke-width="1"/>
            <path id="Trazado_591447" data-name="Trazado 591447" d="M-4574.26-10554.509l-80.7-.5,28.085-12.458,79.412,1.064Z" fill="#fff" stroke="#707070" stroke-width="1"/>
            <path id="Trazado_591448" data-name="Trazado 591448" d="M-4654.646-10570.475v15.288l28.638-12.571-.715-14.559Z" fill="#fff" stroke="#707070" stroke-width="1"/>
            <path id="Trazado_591449" data-name="Trazado 591449" d="M-4677.081-10571.023l22.462.636,28.185-12.2-25.1-.883Z" fill="#fff" stroke="#707070" stroke-width="1"/>
            <path id="Trazado_591450" data-name="Trazado 591450" d="M-4490.062-10557.356l-48.714-1.377-26.5,14,58.8.915,8.917-9.812,6.328-2.743Z" fill="#fff" stroke="#707070" stroke-width="1"/>
            <path id="Trazado_591451" data-name="Trazado 591451" d="M-4511.656-10546.925l10.153-7.789-37.243-1.655-18.165,9.444Z" fill="#e5e5e5" stroke="#707070" stroke-width="1"/>
            <path id="Trazado_591452" data-name="Trazado 591452" d="M-4517.468-10546.925c10.093-7.74,10.7-8.134,10.7-8.134" fill="none" stroke="#707070" stroke-width="1"/>
            <path id="Trazado_591453" data-name="Trazado 591453" d="M-4517.467-10546.667c10.532-7.986,11.168-8.393,11.168-8.393" transform="translate(-7 -0.259)" fill="none" stroke="#707070" stroke-width="1"/>
            <path id="Trazado_591454" data-name="Trazado 591454" d="M-4517.468-10546.39c10.584-8.25,11.223-8.669,11.223-8.669" transform="translate(-13 -0.535)" fill="none" stroke="#707070" stroke-width="1"/>
            <path id="Trazado_591455" data-name="Trazado 591455" d="M-4517.468-10546.078c10.85-8.546,11.5-8.979,11.5-8.979" transform="translate(-20 -0.846)" fill="none" stroke="#707070" stroke-width="1"/>
            <path id="Trazado_591456" data-name="Trazado 591456" d="M-4517.468-10544.991c11.364-9.58,12.049-10.066,12.049-10.066" transform="matrix(0.996, 0.087, -0.087, 0.996, -963.375, 351.662)" fill="none" stroke="#707070" stroke-linecap="round" stroke-width="1"/>
            <path id="Trazado_591457" data-name="Trazado 591457" d="M-4517.468-10544.991c11.364-9.58,12.049-10.066,12.049-10.066" transform="matrix(0.996, 0.087, -0.087, 0.996, -968.375, 351.375)" fill="none" stroke="#707070" stroke-linecap="round" stroke-width="1"/>
          </g>
          <path id="Trazado_591459" data-name="Trazado 591459" d="M-4371.822-10578.548l4.467,5.416" fill="none" stroke="#707070" stroke-width="1"/>
        </g>
      </g>
      <g id="Grupo_848493" data-name="Grupo 848493">
        <path id="Trazado_591460" data-name="Trazado 591460" d="M-4552.6-10544.566s-2.4,5.857,15.734,6.134" fill="none" stroke="#707070" stroke-width="1"/>
        <path id="Trazado_591461" data-name="Trazado 591461" d="M-4533.39-10538.433l159.128,6.193" fill="none" stroke="#707070" stroke-width="1" stroke-dasharray="4 7"/>
      </g>
      <path id="Trazado_591462" data-name="Trazado 591462" d="M-4544.674-10544.566v3.25h49.809l2.345-3.25,118.258,4.92" fill="none" stroke="#707070" stroke-width="1" stroke-dasharray="4"/>
      <path id="Trazado_591463" data-name="Trazado 591463" d="M-4374.823-10539.676v7.895a1.456,1.456,0,0,0,1.192.462,1.679,1.679,0,0,0,1.247-.444v-7.895a1.436,1.436,0,0,0-1.206-.526A1.537,1.537,0,0,0-4374.823-10539.676Z" transform="matrix(1, 0.017, -0.017, 1, -183.903, 74.38)" fill="#ebebeb" stroke="#707070" stroke-width="0.5"/>
      <path id="Trazado_591464" data-name="Trazado 591464" d="M-4371.669-10532.239s1.644-.1,2.111.336.274,1.021-1.085,1.659-40.784,16.526-40.784,16.526-3.353.793-1.983,2.651,7,.414,7,.414v4.238s-3.015.521-3.981,0-1.057-1.5-.185-2.025,4.167-.384,4.167-.384v2.409s41.649-18.8,44.115-20.09,2.239-6.271-.312-9.57-9.065-3.809-9.065-3.809Z" fill="#ebebeb" stroke="#707070" stroke-linejoin="round" stroke-width="0.5"/>
    </g>
    <g id="Grupo_848495" data-name="Grupo 848495" transform="translate(-10263.19 -516.675) rotate(54)">
      <path id="Trazado_591465" data-name="Trazado 591465" d="M-4727-10473.346v123.445" transform="translate(0 0.558)" fill="none" stroke="#12263f" stroke-width="1"/>
      <path id="Polígono_25" data-name="Polígono 25" d="M4,0,8,7H0Z" transform="translate(-4731 -10474)" fill="#12263f"/>
    </g>
    <path id="Trazado_591470" data-name="Trazado 591470" d="M18.226,6.3H15.4V14h-1.9V6.3H10.7V4.758h7.528Zm4.666,7a2.3,2.3,0,0,1-1.879.825,2.17,2.17,0,0,1-1.685-.635,2.71,2.71,0,0,1-.594-1.86v-4.5h1.834v4.442q0,1.074.978,1.074A1.325,1.325,0,0,0,22.828,12V7.132h1.841V14H22.943Zm9.35-2.672a4.159,4.159,0,0,1-.7,2.574,2.334,2.334,0,0,1-1.968.924,2.144,2.144,0,0,1-1.784-.857L27.7,14h-1.65V4.25h1.834v3.5A2.089,2.089,0,0,1,29.557,7a2.353,2.353,0,0,1,1.971.924,4.165,4.165,0,0,1,.714,2.6ZM30.407,10.5a2.732,2.732,0,0,0-.33-1.52,1.116,1.116,0,0,0-.984-.479,1.21,1.21,0,0,0-1.206.717v2.71a1.226,1.226,0,0,0,1.219.724,1.133,1.133,0,0,0,1.168-.876A4.519,4.519,0,0,0,30.407,10.5Zm6.125,3.631a3.372,3.372,0,0,1-2.46-.927,3.294,3.294,0,0,1-.949-2.469v-.178a4.149,4.149,0,0,1,.4-1.85,2.935,2.935,0,0,1,1.133-1.257A3.18,3.18,0,0,1,36.33,7a2.85,2.85,0,0,1,2.219.889,3.611,3.611,0,0,1,.809,2.52v.749H34.984a1.7,1.7,0,0,0,.536,1.079,1.621,1.621,0,0,0,1.133.406,1.98,1.98,0,0,0,1.657-.768l.9,1.009a2.754,2.754,0,0,1-1.117.911A3.665,3.665,0,0,1,36.533,14.127Zm-.209-5.643a1.146,1.146,0,0,0-.885.37A1.915,1.915,0,0,0,35,9.912h2.552V9.765a1.366,1.366,0,0,0-.33-.947A1.183,1.183,0,0,0,36.323,8.484Zm7.935.368A4.984,4.984,0,0,0,43.6,8.8a1.344,1.344,0,0,0-1.365.7V14H40.4V7.132h1.733l.051.819A1.7,1.7,0,0,1,43.712,7a1.922,1.922,0,0,1,.571.083ZM47.121,14H45.286V7.132h1.834Zm-.54-9.655h2L46.823,6.313H45.331ZM52.681,14a2.037,2.037,0,0,1-.184-.616,2.22,2.22,0,0,1-1.733.743,2.439,2.439,0,0,1-1.673-.584,1.878,1.878,0,0,1-.663-1.473,1.941,1.941,0,0,1,.809-1.676,3.994,3.994,0,0,1,2.339-.59h.844V9.411a1.132,1.132,0,0,0-.244-.762.961.961,0,0,0-.771-.286,1.093,1.093,0,0,0-.727.222.755.755,0,0,0-.263.609H48.581a1.843,1.843,0,0,1,.368-1.1,2.434,2.434,0,0,1,1.041-.8A3.794,3.794,0,0,1,51.5,7a3,3,0,0,1,2.015.638,2.232,2.232,0,0,1,.746,1.793v2.977a3.284,3.284,0,0,0,.273,1.479V14Zm-1.517-1.276a1.58,1.58,0,0,0,.749-.181,1.188,1.188,0,0,0,.508-.486V10.877h-.686q-1.377,0-1.466.952l-.006.108a.734.734,0,0,0,.241.565A.937.937,0,0,0,51.164,12.724Zm7.458-2.209a4.139,4.139,0,0,1,.72-2.558A2.338,2.338,0,0,1,61.314,7a2.1,2.1,0,0,1,1.657.749V4.25h1.841V14H63.155l-.089-.73a2.159,2.159,0,0,1-1.765.857,2.331,2.331,0,0,1-1.946-.955A4.272,4.272,0,0,1,58.623,10.515Zm1.834.137a2.711,2.711,0,0,0,.336,1.481,1.1,1.1,0,0,0,.978.515,1.227,1.227,0,0,0,1.2-.718V9.215A1.21,1.21,0,0,0,61.784,8.5Q60.457,8.5,60.457,10.652Zm8.938,3.475a3.372,3.372,0,0,1-2.46-.927,3.294,3.294,0,0,1-.949-2.469v-.178a4.149,4.149,0,0,1,.4-1.85,2.935,2.935,0,0,1,1.133-1.257A3.18,3.18,0,0,1,69.192,7a2.85,2.85,0,0,1,2.219.889,3.611,3.611,0,0,1,.809,2.52v.749H67.846a1.7,1.7,0,0,0,.536,1.079,1.621,1.621,0,0,0,1.133.406,1.98,1.98,0,0,0,1.657-.768l.9,1.009a2.754,2.754,0,0,1-1.117.911A3.665,3.665,0,0,1,69.395,14.127Zm-.209-5.643a1.146,1.146,0,0,0-.885.37,1.915,1.915,0,0,0-.435,1.058h2.552V9.765a1.366,1.366,0,0,0-.33-.947A1.183,1.183,0,0,0,69.185,8.484ZM31.525,20.629a4.119,4.119,0,0,1-.72,2.542,2.31,2.31,0,0,1-1.946.955,2.14,2.14,0,0,1-1.682-.724v3.237H25.342V17.132h1.7l.063.673a2.156,2.156,0,0,1,1.739-.8,2.326,2.326,0,0,1,1.974.939,4.231,4.231,0,0,1,.7,2.59ZM29.69,20.5a2.7,2.7,0,0,0-.34-1.479,1.106,1.106,0,0,0-.987-.521,1.2,1.2,0,0,0-1.187.66v2.812a1.222,1.222,0,0,0,1.2.679Q29.69,22.648,29.69,20.5ZM36.774,23.3a2.3,2.3,0,0,1-1.879.825,2.17,2.17,0,0,1-1.685-.635,2.71,2.71,0,0,1-.594-1.86v-4.5h1.834v4.442q0,1.074.978,1.074A1.325,1.325,0,0,0,36.711,22V17.132h1.841V24H36.825Zm7.021-4.45a4.984,4.984,0,0,0-.66-.051,1.344,1.344,0,0,0-1.365.7V24H39.935V17.132h1.733l.051.819A1.7,1.7,0,0,1,43.249,17a1.922,1.922,0,0,1,.571.083Zm.616,1.663a4.025,4.025,0,0,1,.752-2.545A2.437,2.437,0,0,1,47.191,17a2.138,2.138,0,0,1,1.758.774l.076-.647h1.663v6.64a2.935,2.935,0,0,1-.409,1.568,2.629,2.629,0,0,1-1.152,1.016,4.05,4.05,0,0,1-1.739.349,3.766,3.766,0,0,1-1.473-.3,2.614,2.614,0,0,1-1.085-.778l.813-1.117a2.149,2.149,0,0,0,1.663.768,1.573,1.573,0,0,0,1.136-.39,1.464,1.464,0,0,0,.406-1.108V23.41a2.122,2.122,0,0,1-1.669.717,2.431,2.431,0,0,1-2-.968,4.024,4.024,0,0,1-.765-2.568Zm1.834.137a2.506,2.506,0,0,0,.375,1.465,1.191,1.191,0,0,0,1.028.531,1.274,1.274,0,0,0,1.2-.629V19.126A1.271,1.271,0,0,0,47.66,18.5a1.2,1.2,0,0,0-1.038.54A2.825,2.825,0,0,0,46.245,20.652ZM56.077,24a2.037,2.037,0,0,1-.184-.616,2.22,2.22,0,0,1-1.733.743,2.439,2.439,0,0,1-1.673-.584,1.878,1.878,0,0,1-.663-1.473,1.941,1.941,0,0,1,.809-1.676,3.994,3.994,0,0,1,2.339-.59h.844v-.394a1.132,1.132,0,0,0-.244-.762.961.961,0,0,0-.771-.286,1.093,1.093,0,0,0-.727.222.755.755,0,0,0-.263.609H51.977a1.843,1.843,0,0,1,.368-1.1,2.434,2.434,0,0,1,1.041-.8A3.794,3.794,0,0,1,54.9,17a3,3,0,0,1,2.015.638,2.232,2.232,0,0,1,.746,1.793v2.977a3.284,3.284,0,0,0,.273,1.479V24ZM54.56,22.724a1.58,1.58,0,0,0,.749-.181,1.188,1.188,0,0,0,.508-.486V20.877h-.686q-1.377,0-1.466.952l-.006.108a.734.734,0,0,0,.241.565A.937.937,0,0,0,54.56,22.724Z" transform="translate(-4744 -10425)" fill="#12263f"/>
    <g id="Grupo_848496" data-name="Grupo 848496" transform="matrix(0.454, 0.891, -0.891, 0.454, -11789.286, -1593.87)">
      <path id="Trazado_591465-2" data-name="Trazado 591465" d="M-4727-10473.346v123.445" transform="translate(0 0.558)" fill="none" stroke="#12263f" stroke-width="1"/>
      <path id="Polígono_25-2" data-name="Polígono 25" d="M4,0,8,7H0Z" transform="translate(-4731 -10474)" fill="#12263f"/>
    </g>
    <path id="Trazado_591471" data-name="Trazado 591471" d="M7.835,11.708,9.93,4.758h2.12L8.832,14H6.845L3.639,4.758H5.753Zm8.125,2.418A3.372,3.372,0,0,1,13.5,13.2a3.294,3.294,0,0,1-.949-2.469v-.178a4.149,4.149,0,0,1,.4-1.85,2.935,2.935,0,0,1,1.133-1.257A3.18,3.18,0,0,1,15.757,7a2.85,2.85,0,0,1,2.219.889,3.611,3.611,0,0,1,.809,2.52v.749H14.411a1.7,1.7,0,0,0,.536,1.079,1.621,1.621,0,0,0,1.133.406,1.98,1.98,0,0,0,1.657-.768l.9,1.009a2.754,2.754,0,0,1-1.117.911A3.665,3.665,0,0,1,15.96,14.127Zm-.209-5.643a1.146,1.146,0,0,0-.885.37,1.915,1.915,0,0,0-.435,1.058h2.552V9.765a1.366,1.366,0,0,0-.33-.947A1.183,1.183,0,0,0,15.751,8.484Zm7.935.368a4.984,4.984,0,0,0-.66-.051,1.344,1.344,0,0,0-1.365.7V14H19.826V7.132h1.733l.051.819A1.7,1.7,0,0,1,23.139,7a1.922,1.922,0,0,1,.571.083Zm3.4-3.409V7.132h1.174V8.478H27.081v3.428a.818.818,0,0,0,.146.546.733.733,0,0,0,.559.165,2.926,2.926,0,0,0,.54-.044v1.39a3.777,3.777,0,0,1-1.111.165,1.752,1.752,0,0,1-1.968-1.949v-3.7h-1V7.132h1V5.443Zm5.357,8.684a3.372,3.372,0,0,1-2.46-.927,3.294,3.294,0,0,1-.949-2.469v-.178a4.149,4.149,0,0,1,.4-1.85,2.935,2.935,0,0,1,1.133-1.257A3.18,3.18,0,0,1,32.236,7a2.85,2.85,0,0,1,2.219.889,3.611,3.611,0,0,1,.809,2.52v.749H30.89a1.7,1.7,0,0,0,.536,1.079,1.621,1.621,0,0,0,1.133.406,1.98,1.98,0,0,0,1.657-.768l.9,1.009A2.754,2.754,0,0,1,34,13.8,3.665,3.665,0,0,1,32.439,14.127Zm-.209-5.643a1.146,1.146,0,0,0-.885.37,1.915,1.915,0,0,0-.435,1.058h2.552V9.765a1.366,1.366,0,0,0-.33-.947A1.183,1.183,0,0,0,32.229,8.484Zm3.79,2.031a4.139,4.139,0,0,1,.72-2.558A2.338,2.338,0,0,1,38.71,7a2.1,2.1,0,0,1,1.657.749V4.25h1.841V14H40.551l-.089-.73a2.159,2.159,0,0,1-1.765.857,2.331,2.331,0,0,1-1.946-.955A4.272,4.272,0,0,1,36.019,10.515Zm1.834.137a2.711,2.711,0,0,0,.336,1.481,1.1,1.1,0,0,0,.978.515,1.227,1.227,0,0,0,1.2-.718V9.215A1.21,1.21,0,0,0,39.18,8.5Q37.853,8.5,37.853,10.652Zm8.938,3.475a3.372,3.372,0,0,1-2.46-.927,3.294,3.294,0,0,1-.949-2.469v-.178a4.149,4.149,0,0,1,.4-1.85,2.935,2.935,0,0,1,1.133-1.257A3.18,3.18,0,0,1,46.588,7a2.85,2.85,0,0,1,2.219.889,3.611,3.611,0,0,1,.809,2.52v.749H45.242a1.7,1.7,0,0,0,.536,1.079,1.621,1.621,0,0,0,1.133.406,1.98,1.98,0,0,0,1.657-.768l.9,1.009a2.754,2.754,0,0,1-1.117.911A3.665,3.665,0,0,1,46.791,14.127Zm-.209-5.643a1.146,1.146,0,0,0-.885.37,1.915,1.915,0,0,0-.435,1.058h2.552V9.765a1.366,1.366,0,0,0-.33-.947A1.183,1.183,0,0,0,46.581,8.484Zm7.935.368a4.984,4.984,0,0,0-.66-.051,1.344,1.344,0,0,0-1.365.7V14H50.656V7.132h1.733l.051.819A1.7,1.7,0,0,1,53.97,7a1.922,1.922,0,0,1,.571.083Zm.368,1.65a4.073,4.073,0,0,1,.394-1.822,2.881,2.881,0,0,1,1.133-1.238A3.306,3.306,0,0,1,58.128,7a3.128,3.128,0,0,1,2.269.851,3.414,3.414,0,0,1,.981,2.311l.013.47a3.59,3.59,0,0,1-.882,2.536,3.42,3.42,0,0,1-4.739,0,3.653,3.653,0,0,1-.885-2.59Zm1.834.13a2.567,2.567,0,0,0,.368,1.5,1.323,1.323,0,0,0,2.095.006,2.809,2.809,0,0,0,.375-1.637,2.542,2.542,0,0,0-.375-1.488,1.217,1.217,0,0,0-1.054-.528,1.2,1.2,0,0,0-1.041.524A2.857,2.857,0,0,0,56.719,10.633Zm8.753-.118a4.139,4.139,0,0,1,.72-2.558A2.338,2.338,0,0,1,68.163,7a2.1,2.1,0,0,1,1.657.749V4.25h1.841V14H70l-.089-.73a2.159,2.159,0,0,1-1.765.857,2.331,2.331,0,0,1-1.946-.955A4.272,4.272,0,0,1,65.472,10.515Zm1.834.137a2.711,2.711,0,0,0,.336,1.481,1.1,1.1,0,0,0,.978.515,1.228,1.228,0,0,0,1.2-.718V9.215A1.21,1.21,0,0,0,68.633,8.5Q67.306,8.5,67.306,10.652Zm8.938,3.475a3.372,3.372,0,0,1-2.46-.927,3.294,3.294,0,0,1-.949-2.469v-.178a4.149,4.149,0,0,1,.4-1.85,2.935,2.935,0,0,1,1.133-1.257A3.18,3.18,0,0,1,76.041,7a2.85,2.85,0,0,1,2.219.889,3.611,3.611,0,0,1,.809,2.52v.749H74.7a1.7,1.7,0,0,0,.536,1.079,1.621,1.621,0,0,0,1.133.406,1.98,1.98,0,0,0,1.657-.768l.9,1.009a2.754,2.754,0,0,1-1.117.911A3.665,3.665,0,0,1,76.244,14.127Zm-.209-5.643a1.146,1.146,0,0,0-.885.37,1.915,1.915,0,0,0-.435,1.058h2.552V9.765a1.366,1.366,0,0,0-.33-.947A1.183,1.183,0,0,0,76.034,8.484ZM23.527,22.648a1.2,1.2,0,0,0,.825-.279.979.979,0,0,0,.33-.743H26.4a2.353,2.353,0,0,1-.381,1.279,2.513,2.513,0,0,1-1.025.9,3.208,3.208,0,0,1-1.438.321,2.982,2.982,0,0,1-2.323-.936,3.705,3.705,0,0,1-.851-2.587v-.121a3.663,3.663,0,0,1,.844-2.533A2.947,2.947,0,0,1,23.546,17a2.889,2.889,0,0,1,2.066.733,2.6,2.6,0,0,1,.79,1.952h-1.72a1.261,1.261,0,0,0-.33-.871,1.227,1.227,0,0,0-1.806.132,2.708,2.708,0,0,0-.327,1.516v.191a2.742,2.742,0,0,0,.324,1.526A1.119,1.119,0,0,0,23.527,22.648Zm7.782-3.8a4.984,4.984,0,0,0-.66-.051,1.344,1.344,0,0,0-1.365.7V24H27.449V17.132h1.733l.051.819A1.7,1.7,0,0,1,30.763,17a1.922,1.922,0,0,1,.571.083Zm4.043,5.275a3.372,3.372,0,0,1-2.46-.927,3.294,3.294,0,0,1-.949-2.469v-.178a4.149,4.149,0,0,1,.4-1.85,2.935,2.935,0,0,1,1.133-1.257A3.18,3.18,0,0,1,35.149,17a2.85,2.85,0,0,1,2.219.889,3.611,3.611,0,0,1,.809,2.52v.749H33.8a1.7,1.7,0,0,0,.536,1.079,1.621,1.621,0,0,0,1.133.406,1.98,1.98,0,0,0,1.657-.768l.9,1.009a2.754,2.754,0,0,1-1.117.911A3.665,3.665,0,0,1,35.352,24.127Zm-.209-5.643a1.146,1.146,0,0,0-.885.37,1.915,1.915,0,0,0-.435,1.058h2.552v-.147a1.366,1.366,0,0,0-.33-.947A1.183,1.183,0,0,0,35.143,18.484Zm6.932,4.164a1.2,1.2,0,0,0,.825-.279.979.979,0,0,0,.33-.743h1.72a2.353,2.353,0,0,1-.381,1.279,2.513,2.513,0,0,1-1.025.9,3.208,3.208,0,0,1-1.438.321,2.982,2.982,0,0,1-2.323-.936,3.705,3.705,0,0,1-.851-2.587v-.121a3.663,3.663,0,0,1,.844-2.533A2.947,2.947,0,0,1,42.094,17a2.889,2.889,0,0,1,2.066.733,2.6,2.6,0,0,1,.79,1.952H43.23a1.261,1.261,0,0,0-.33-.871,1.227,1.227,0,0,0-1.806.132,2.708,2.708,0,0,0-.327,1.516v.191a2.742,2.742,0,0,0,.324,1.526A1.119,1.119,0,0,0,42.074,22.648ZM47.933,24H46.093V17.132h1.841Zm-1.949-8.646a.9.9,0,0,1,.276-.679,1.19,1.19,0,0,1,1.5,0,.969.969,0,0,1,0,1.365,1.177,1.177,0,0,1-1.492,0A.9.9,0,0,1,45.985,15.354Zm3.174,5.161a4.139,4.139,0,0,1,.72-2.558A2.338,2.338,0,0,1,51.85,17a2.1,2.1,0,0,1,1.657.749v-3.5h1.841V24H53.691l-.089-.73a2.159,2.159,0,0,1-1.765.857,2.331,2.331,0,0,1-1.946-.955A4.272,4.272,0,0,1,49.158,20.515Zm1.834.137a2.711,2.711,0,0,0,.336,1.481,1.1,1.1,0,0,0,.978.515,1.227,1.227,0,0,0,1.2-.718V19.215A1.21,1.21,0,0,0,52.32,18.5Q50.993,18.5,50.993,20.652ZM60.749,24a2.037,2.037,0,0,1-.184-.616,2.22,2.22,0,0,1-1.733.743,2.439,2.439,0,0,1-1.673-.584A1.878,1.878,0,0,1,56.5,22.07a1.941,1.941,0,0,1,.809-1.676,3.994,3.994,0,0,1,2.339-.59h.844v-.394a1.132,1.132,0,0,0-.244-.762.961.961,0,0,0-.771-.286,1.093,1.093,0,0,0-.727.222.755.755,0,0,0-.263.609H56.649a1.843,1.843,0,0,1,.368-1.1,2.434,2.434,0,0,1,1.041-.8A3.794,3.794,0,0,1,59.569,17a3,3,0,0,1,2.015.638,2.232,2.232,0,0,1,.746,1.793v2.977a3.284,3.284,0,0,0,.273,1.479V24Zm-1.517-1.276a1.58,1.58,0,0,0,.749-.181,1.188,1.188,0,0,0,.508-.486V20.877H59.8q-1.377,0-1.466.952l-.006.108a.734.734,0,0,0,.241.565A.937.937,0,0,0,59.232,22.724Z" transform="translate(-4765 -10508)" fill="#12263f"/>
    <g id="Grupo_848497" data-name="Grupo 848497" transform="matrix(0.755, -0.656, 0.656, 0.755, 5913.261, -5732.531)">
      <path id="Trazado_591465-3" data-name="Trazado 591465" d="M-4727-10473.346v123.445" transform="translate(0 0.558)" fill="none" stroke="#12263f" stroke-width="1"/>
      <path id="Polígono_25-3" data-name="Polígono 25" d="M4,0,8,7H0Z" transform="translate(-4731 -10474)" fill="#12263f"/>
    </g>
    <path id="Trazado_591469" data-name="Trazado 591469" d="M18.176,10.921a3.27,3.27,0,0,1-1.1,2.349,3.868,3.868,0,0,1-2.618.857,3.478,3.478,0,0,1-2.8-1.2,4.906,4.906,0,0,1-1.019-3.285V9.081a5.54,5.54,0,0,1,.47-2.349,3.52,3.52,0,0,1,1.343-1.558,3.761,3.761,0,0,1,2.028-.543,3.768,3.768,0,0,1,2.577.857,3.515,3.515,0,0,1,1.13,2.406h-1.9a1.93,1.93,0,0,0-.5-1.3,1.845,1.845,0,0,0-1.3-.4,1.618,1.618,0,0,0-1.425.682,3.824,3.824,0,0,0-.486,2.117v.7a4.093,4.093,0,0,0,.454,2.19,1.588,1.588,0,0,0,1.431.692,1.88,1.88,0,0,0,1.317-.4,1.821,1.821,0,0,0,.5-1.247ZM23.285,14a2.037,2.037,0,0,1-.184-.616,2.22,2.22,0,0,1-1.733.743,2.439,2.439,0,0,1-1.673-.584,1.878,1.878,0,0,1-.663-1.473,1.941,1.941,0,0,1,.809-1.676,3.994,3.994,0,0,1,2.339-.59h.844V9.411a1.132,1.132,0,0,0-.244-.762.961.961,0,0,0-.771-.286,1.093,1.093,0,0,0-.727.222.755.755,0,0,0-.263.609H19.185a1.843,1.843,0,0,1,.368-1.1,2.434,2.434,0,0,1,1.041-.8A3.794,3.794,0,0,1,22.1,7a3,3,0,0,1,2.015.638,2.232,2.232,0,0,1,.746,1.793v2.977a3.284,3.284,0,0,0,.273,1.479V14Zm-1.517-1.276a1.58,1.58,0,0,0,.749-.181,1.188,1.188,0,0,0,.508-.486V10.877H22.34q-1.377,0-1.466.952l-.006.108a.734.734,0,0,0,.241.565A.937.937,0,0,0,21.768,12.724Zm.7-8.474h2L22.708,6.218H21.216ZM28,7.132l.057.768A2.414,2.414,0,0,1,30.027,7a1.832,1.832,0,0,1,1.822,1.047A2.358,2.358,0,0,1,33.911,7a2.049,2.049,0,0,1,1.663.651,2.991,2.991,0,0,1,.546,1.958V14H34.28V9.62a1.308,1.308,0,0,0-.229-.854,1.013,1.013,0,0,0-.806-.27,1.145,1.145,0,0,0-1.143.787L32.109,14H30.274V9.626a1.292,1.292,0,0,0-.235-.863,1.023,1.023,0,0,0-.8-.267,1.189,1.189,0,0,0-1.13.647V14H26.275V7.132ZM41.51,14a2.037,2.037,0,0,1-.184-.616,2.22,2.22,0,0,1-1.733.743,2.439,2.439,0,0,1-1.673-.584,1.878,1.878,0,0,1-.663-1.473,1.941,1.941,0,0,1,.809-1.676,3.994,3.994,0,0,1,2.339-.59h.844V9.411A1.132,1.132,0,0,0,41,8.649a.961.961,0,0,0-.771-.286,1.093,1.093,0,0,0-.727.222.755.755,0,0,0-.263.609H37.409a1.843,1.843,0,0,1,.368-1.1,2.434,2.434,0,0,1,1.041-.8A3.794,3.794,0,0,1,40.329,7a3,3,0,0,1,2.015.638,2.232,2.232,0,0,1,.746,1.793v2.977a3.284,3.284,0,0,0,.273,1.479V14Zm-1.517-1.276a1.58,1.58,0,0,0,.749-.181,1.188,1.188,0,0,0,.508-.486V10.877h-.686q-1.377,0-1.466.952l-.006.108a.734.734,0,0,0,.241.565A.937.937,0,0,0,39.992,12.724Zm8.366-3.872A4.984,4.984,0,0,0,47.7,8.8a1.344,1.344,0,0,0-1.365.7V14H44.5V7.132h1.733l.051.819A1.7,1.7,0,0,1,47.813,7a1.922,1.922,0,0,1,.571.083ZM53.031,14a2.037,2.037,0,0,1-.184-.616,2.22,2.22,0,0,1-1.733.743,2.439,2.439,0,0,1-1.673-.584,1.878,1.878,0,0,1-.663-1.473,1.941,1.941,0,0,1,.809-1.676,3.994,3.994,0,0,1,2.339-.59h.844V9.411a1.132,1.132,0,0,0-.244-.762.961.961,0,0,0-.771-.286,1.093,1.093,0,0,0-.727.222.755.755,0,0,0-.263.609H48.93a1.843,1.843,0,0,1,.368-1.1,2.434,2.434,0,0,1,1.041-.8A3.794,3.794,0,0,1,51.85,7a3,3,0,0,1,2.015.638,2.232,2.232,0,0,1,.746,1.793v2.977a3.284,3.284,0,0,0,.273,1.479V14Zm-1.517-1.276a1.58,1.58,0,0,0,.749-.181,1.188,1.188,0,0,0,.508-.486V10.877h-.686q-1.377,0-1.466.952l-.006.108a.734.734,0,0,0,.241.565A.937.937,0,0,0,51.513,12.724Zm7.458-2.209a4.139,4.139,0,0,1,.72-2.558A2.338,2.338,0,0,1,61.663,7a2.1,2.1,0,0,1,1.657.749V4.25h1.841V14H63.5l-.089-.73a2.159,2.159,0,0,1-1.765.857,2.331,2.331,0,0,1-1.946-.955A4.272,4.272,0,0,1,58.972,10.515Zm1.834.137a2.711,2.711,0,0,0,.336,1.481,1.1,1.1,0,0,0,.978.515,1.227,1.227,0,0,0,1.2-.718V9.215A1.21,1.21,0,0,0,62.133,8.5Q60.806,8.5,60.806,10.652Zm8.938,3.475a3.372,3.372,0,0,1-2.46-.927,3.294,3.294,0,0,1-.949-2.469v-.178a4.149,4.149,0,0,1,.4-1.85,2.935,2.935,0,0,1,1.133-1.257A3.18,3.18,0,0,1,69.541,7a2.85,2.85,0,0,1,2.219.889,3.611,3.611,0,0,1,.809,2.52v.749H68.2a1.7,1.7,0,0,0,.536,1.079,1.621,1.621,0,0,0,1.133.406,1.98,1.98,0,0,0,1.657-.768l.9,1.009a2.754,2.754,0,0,1-1.117.911A3.665,3.665,0,0,1,69.744,14.127Zm-.209-5.643a1.146,1.146,0,0,0-.885.37,1.915,1.915,0,0,0-.435,1.058h2.552V9.765a1.366,1.366,0,0,0-.33-.947A1.183,1.183,0,0,0,69.534,8.484ZM16.417,22.648a1.2,1.2,0,0,0,.825-.279.979.979,0,0,0,.33-.743h1.72a2.353,2.353,0,0,1-.381,1.279,2.513,2.513,0,0,1-1.025.9,3.208,3.208,0,0,1-1.438.321,2.982,2.982,0,0,1-2.323-.936,3.705,3.705,0,0,1-.851-2.587v-.121a3.663,3.663,0,0,1,.844-2.533A2.947,2.947,0,0,1,16.436,17a2.889,2.889,0,0,1,2.066.733,2.6,2.6,0,0,1,.79,1.952h-1.72a1.261,1.261,0,0,0-.33-.871,1.227,1.227,0,0,0-1.806.132,2.708,2.708,0,0,0-.327,1.516v.191a2.742,2.742,0,0,0,.324,1.526A1.119,1.119,0,0,0,16.417,22.648ZM24.32,24a2.037,2.037,0,0,1-.184-.616,2.22,2.22,0,0,1-1.733.743,2.439,2.439,0,0,1-1.673-.584,1.878,1.878,0,0,1-.663-1.473,1.941,1.941,0,0,1,.809-1.676,3.994,3.994,0,0,1,2.339-.59h.844v-.394a1.132,1.132,0,0,0-.244-.762.961.961,0,0,0-.771-.286,1.093,1.093,0,0,0-.727.222.755.755,0,0,0-.263.609H20.219a1.843,1.843,0,0,1,.368-1.1,2.434,2.434,0,0,1,1.041-.8A3.794,3.794,0,0,1,23.139,17a3,3,0,0,1,2.015.638,2.232,2.232,0,0,1,.746,1.793v2.977a3.284,3.284,0,0,0,.273,1.479V24ZM22.8,22.724a1.58,1.58,0,0,0,.749-.181,1.188,1.188,0,0,0,.508-.486V20.877h-.686q-1.377,0-1.466.952l-.006.108a.734.734,0,0,0,.241.565A.937.937,0,0,0,22.8,22.724Zm10.689-2.095a4.119,4.119,0,0,1-.72,2.542,2.31,2.31,0,0,1-1.946.955,2.14,2.14,0,0,1-1.682-.724v3.237H27.31V17.132h1.7l.063.673a2.156,2.156,0,0,1,1.739-.8,2.326,2.326,0,0,1,1.974.939,4.231,4.231,0,0,1,.7,2.59ZM31.658,20.5a2.7,2.7,0,0,0-.34-1.479,1.106,1.106,0,0,0-.987-.521,1.2,1.2,0,0,0-1.187.66v2.812a1.222,1.222,0,0,0,1.2.679Q31.658,22.648,31.658,20.5Zm5.167-5.053v1.688H38v1.346H36.825v3.428a.818.818,0,0,0,.146.546.733.733,0,0,0,.559.165,2.925,2.925,0,0,0,.54-.044v1.39a3.777,3.777,0,0,1-1.111.165,1.752,1.752,0,0,1-1.968-1.949v-3.7h-1V17.132h1V15.443ZM43,24a2.037,2.037,0,0,1-.184-.616,2.22,2.22,0,0,1-1.733.743,2.439,2.439,0,0,1-1.673-.584,1.878,1.878,0,0,1-.663-1.473,1.941,1.941,0,0,1,.809-1.676A3.994,3.994,0,0,1,41.9,19.8h.844v-.394a1.132,1.132,0,0,0-.244-.762.961.961,0,0,0-.771-.286,1.093,1.093,0,0,0-.727.222.755.755,0,0,0-.263.609H38.9a1.843,1.843,0,0,1,.368-1.1,2.434,2.434,0,0,1,1.041-.8A3.794,3.794,0,0,1,41.821,17a3,3,0,0,1,2.015.638,2.232,2.232,0,0,1,.746,1.793v2.977a3.284,3.284,0,0,0,.273,1.479V24Zm-1.517-1.276a1.58,1.58,0,0,0,.749-.181,1.188,1.188,0,0,0,.508-.486V20.877h-.686q-1.377,0-1.466.952l-.006.108a.734.734,0,0,0,.241.565A.937.937,0,0,0,41.484,22.724Zm7.363-.076a1.2,1.2,0,0,0,.825-.279.979.979,0,0,0,.33-.743h1.72a2.353,2.353,0,0,1-.381,1.279,2.513,2.513,0,0,1-1.025.9,3.208,3.208,0,0,1-1.438.321,2.982,2.982,0,0,1-2.323-.936,3.705,3.705,0,0,1-.851-2.587v-.121a3.663,3.663,0,0,1,.844-2.533A2.947,2.947,0,0,1,48.866,17a2.889,2.889,0,0,1,2.066.733,2.6,2.6,0,0,1,.79,1.952H50a1.261,1.261,0,0,0-.33-.871,1.227,1.227,0,0,0-1.806.132,2.708,2.708,0,0,0-.327,1.516v.191a2.742,2.742,0,0,0,.324,1.526A1.119,1.119,0,0,0,48.847,22.648ZM54.706,24H52.865V17.132h1.841Zm-1.949-8.646a.9.9,0,0,1,.276-.679,1.19,1.19,0,0,1,1.5,0,.969.969,0,0,1,0,1.365,1.177,1.177,0,0,1-1.492,0A.9.9,0,0,1,52.758,15.354ZM55.931,20.5a4.073,4.073,0,0,1,.394-1.822,2.881,2.881,0,0,1,1.133-1.238A3.306,3.306,0,0,1,59.175,17a3.128,3.128,0,0,1,2.269.851,3.414,3.414,0,0,1,.981,2.311l.013.47a3.59,3.59,0,0,1-.882,2.536,3.42,3.42,0,0,1-4.739,0,3.653,3.653,0,0,1-.885-2.59Zm1.834.13a2.567,2.567,0,0,0,.368,1.5,1.323,1.323,0,0,0,2.095.006A2.809,2.809,0,0,0,60.6,20.5a2.542,2.542,0,0,0-.375-1.488,1.217,1.217,0,0,0-1.054-.528,1.2,1.2,0,0,0-1.041.524A2.857,2.857,0,0,0,57.766,20.633Zm1.771-6.383h2l-1.758,1.968H58.286Zm5.719,2.882.057.793A2.4,2.4,0,0,1,67.287,17a1.993,1.993,0,0,1,1.625.641,2.991,2.991,0,0,1,.546,1.917V24H67.624V19.607a1.19,1.19,0,0,0-.254-.847,1.137,1.137,0,0,0-.844-.263,1.262,1.262,0,0,0-1.162.66V24H63.53V17.132Z" transform="translate(-4461 -10444)" fill="#12263f"/>
    <path id="Trazado_591468" data-name="Trazado 591468" d="M10.136,14a2.037,2.037,0,0,1-.184-.616,2.22,2.22,0,0,1-1.733.743,2.439,2.439,0,0,1-1.673-.584,1.878,1.878,0,0,1-.663-1.473,1.941,1.941,0,0,1,.809-1.676A3.994,3.994,0,0,1,9.032,9.8h.844V9.411a1.132,1.132,0,0,0-.244-.762.961.961,0,0,0-.771-.286,1.093,1.093,0,0,0-.727.222.755.755,0,0,0-.263.609H6.036A1.843,1.843,0,0,1,6.4,8.09a2.434,2.434,0,0,1,1.041-.8A3.794,3.794,0,0,1,8.956,7a3,3,0,0,1,2.015.638,2.232,2.232,0,0,1,.746,1.793v2.977a3.284,3.284,0,0,0,.273,1.479V14ZM8.619,12.724a1.58,1.58,0,0,0,.749-.181,1.188,1.188,0,0,0,.508-.486V10.877H9.191q-1.377,0-1.466.952l-.006.108a.734.734,0,0,0,.241.565A.937.937,0,0,0,8.619,12.724ZM15.062,14H13.221V4.25h1.841Zm4.462-3.485a4.139,4.139,0,0,1,.72-2.558A2.338,2.338,0,0,1,22.216,7a2.1,2.1,0,0,1,1.657.749V4.25h1.841V14H24.057l-.089-.73a2.159,2.159,0,0,1-1.765.857,2.331,2.331,0,0,1-1.946-.955A4.272,4.272,0,0,1,19.525,10.515Zm1.834.137a2.711,2.711,0,0,0,.336,1.481,1.1,1.1,0,0,0,.978.515,1.227,1.227,0,0,0,1.2-.718V9.215A1.21,1.21,0,0,0,22.686,8.5Q21.359,8.5,21.359,10.652ZM30.3,14.127a3.372,3.372,0,0,1-2.46-.927,3.294,3.294,0,0,1-.949-2.469v-.178a4.149,4.149,0,0,1,.4-1.85,2.935,2.935,0,0,1,1.133-1.257A3.18,3.18,0,0,1,30.094,7a2.85,2.85,0,0,1,2.219.889,3.611,3.611,0,0,1,.809,2.52v.749H28.748a1.7,1.7,0,0,0,.536,1.079,1.621,1.621,0,0,0,1.133.406,1.98,1.98,0,0,0,1.657-.768l.9,1.009a2.754,2.754,0,0,1-1.117.911A3.665,3.665,0,0,1,30.3,14.127Zm-.209-5.643a1.146,1.146,0,0,0-.885.37,1.915,1.915,0,0,0-.435,1.058h2.552V9.765a1.366,1.366,0,0,0-.33-.947A1.183,1.183,0,0,0,30.087,8.484ZM37.882,12.1a.591.591,0,0,0-.333-.53,3.785,3.785,0,0,0-1.07-.346q-2.45-.514-2.45-2.082a1.887,1.887,0,0,1,.759-1.527A3.06,3.06,0,0,1,36.771,7a3.293,3.293,0,0,1,2.092.616,1.94,1.94,0,0,1,.784,1.6H37.812a.888.888,0,0,0-.254-.651,1.075,1.075,0,0,0-.793-.257,1.1,1.1,0,0,0-.717.209.661.661,0,0,0-.254.533.565.565,0,0,0,.289.492,2.971,2.971,0,0,0,.974.324,7.959,7.959,0,0,1,1.155.308,1.9,1.9,0,0,1,1.454,1.847,1.792,1.792,0,0,1-.806,1.52,3.478,3.478,0,0,1-2.082.581,3.632,3.632,0,0,1-1.533-.308,2.572,2.572,0,0,1-1.051-.844,1.962,1.962,0,0,1-.381-1.158h1.739a.958.958,0,0,0,.362.749,1.435,1.435,0,0,0,.9.26,1.328,1.328,0,0,0,.8-.2A.622.622,0,0,0,37.882,12.1ZM44.826,14a2.037,2.037,0,0,1-.184-.616,2.22,2.22,0,0,1-1.733.743,2.439,2.439,0,0,1-1.673-.584,1.878,1.878,0,0,1-.663-1.473,1.941,1.941,0,0,1,.809-1.676,3.994,3.994,0,0,1,2.339-.59h.844V9.411a1.132,1.132,0,0,0-.244-.762.961.961,0,0,0-.771-.286,1.093,1.093,0,0,0-.727.222.755.755,0,0,0-.263.609H40.726a1.843,1.843,0,0,1,.368-1.1,2.434,2.434,0,0,1,1.041-.8A3.794,3.794,0,0,1,43.646,7a3,3,0,0,1,2.015.638,2.232,2.232,0,0,1,.746,1.793v2.977a3.284,3.284,0,0,0,.273,1.479V14Zm-1.517-1.276a1.58,1.58,0,0,0,.749-.181,1.188,1.188,0,0,0,.508-.486V10.877h-.686q-1.377,0-1.466.952l-.006.108a.734.734,0,0,0,.241.565A.937.937,0,0,0,43.309,12.724Zm8.366-3.872a4.984,4.984,0,0,0-.66-.051,1.344,1.344,0,0,0-1.365.7V14H47.816V7.132h1.733l.051.819A1.7,1.7,0,0,1,51.13,7a1.922,1.922,0,0,1,.571.083Zm4.043,5.275a3.372,3.372,0,0,1-2.46-.927,3.294,3.294,0,0,1-.949-2.469v-.178a4.149,4.149,0,0,1,.4-1.85,2.935,2.935,0,0,1,1.133-1.257A3.18,3.18,0,0,1,55.516,7a2.85,2.85,0,0,1,2.219.889,3.611,3.611,0,0,1,.809,2.52v.749H54.17a1.7,1.7,0,0,0,.536,1.079,1.621,1.621,0,0,0,1.133.406A1.98,1.98,0,0,0,57.5,11.88l.9,1.009a2.754,2.754,0,0,1-1.117.911A3.665,3.665,0,0,1,55.719,14.127ZM55.51,8.484a1.146,1.146,0,0,0-.885.37,1.915,1.915,0,0,0-.435,1.058h2.552V9.765a1.366,1.366,0,0,0-.33-.947A1.183,1.183,0,0,0,55.51,8.484Zm5.764-1.352.057.793A2.4,2.4,0,0,1,63.3,7a1.993,1.993,0,0,1,1.625.641,2.991,2.991,0,0,1,.546,1.917V14H63.641V9.607a1.19,1.19,0,0,0-.254-.847,1.137,1.137,0,0,0-.844-.263,1.262,1.262,0,0,0-1.162.66V14H59.547V7.132ZM70.845,14a2.037,2.037,0,0,1-.184-.616,2.22,2.22,0,0,1-1.733.743,2.439,2.439,0,0,1-1.673-.584,1.878,1.878,0,0,1-.663-1.473,1.941,1.941,0,0,1,.809-1.676,3.994,3.994,0,0,1,2.339-.59h.844V9.411a1.132,1.132,0,0,0-.244-.762.961.961,0,0,0-.771-.286,1.093,1.093,0,0,0-.727.222.755.755,0,0,0-.263.609H66.745a1.843,1.843,0,0,1,.368-1.1,2.434,2.434,0,0,1,1.041-.8A3.794,3.794,0,0,1,69.665,7a3,3,0,0,1,2.015.638,2.232,2.232,0,0,1,.746,1.793v2.977a3.284,3.284,0,0,0,.273,1.479V14Zm-1.517-1.276a1.58,1.58,0,0,0,.749-.181,1.188,1.188,0,0,0,.508-.486V10.877H69.9q-1.377,0-1.466.952l-.006.108a.734.734,0,0,0,.241.565A.937.937,0,0,0,69.328,12.724Zm4.221-2.209a4.139,4.139,0,0,1,.72-2.558A2.338,2.338,0,0,1,76.241,7a2.1,2.1,0,0,1,1.657.749V4.25h1.841V14H78.082l-.089-.73a2.159,2.159,0,0,1-1.765.857,2.331,2.331,0,0,1-1.946-.955A4.272,4.272,0,0,1,73.55,10.515Zm1.834.137a2.711,2.711,0,0,0,.336,1.481,1.1,1.1,0,0,0,.978.515,1.228,1.228,0,0,0,1.2-.718V9.215A1.21,1.21,0,0,0,76.711,8.5Q75.384,8.5,75.384,10.652Zm5.491-.149a4.073,4.073,0,0,1,.394-1.822A2.881,2.881,0,0,1,82.4,7.443,3.306,3.306,0,0,1,84.118,7a3.127,3.127,0,0,1,2.269.851,3.414,3.414,0,0,1,.981,2.311l.013.47a3.59,3.59,0,0,1-.882,2.536,3.42,3.42,0,0,1-4.739,0,3.653,3.653,0,0,1-.885-2.59Zm1.834.13a2.567,2.567,0,0,0,.368,1.5,1.323,1.323,0,0,0,2.095.006,2.809,2.809,0,0,0,.375-1.637,2.542,2.542,0,0,0-.375-1.488,1.217,1.217,0,0,0-1.054-.528,1.2,1.2,0,0,0-1.041.524A2.857,2.857,0,0,0,82.709,10.633ZM92.37,8.852a4.984,4.984,0,0,0-.66-.051,1.344,1.344,0,0,0-1.365.7V14H88.511V7.132h1.733l.051.819A1.7,1.7,0,0,1,91.824,7a1.922,1.922,0,0,1,.571.083ZM2.646,20.242a9.742,9.742,0,0,1,.387-2.768,7.3,7.3,0,0,1,1.143-2.326,4.266,4.266,0,0,1,1.638-1.406l.355.99a4.418,4.418,0,0,0-1.447,2.12A9.817,9.817,0,0,0,4.2,20.2v.2a10,10,0,0,0,.514,3.364,4.5,4.5,0,0,0,1.454,2.152l-.355.971A4.268,4.268,0,0,1,4.2,25.52a7.181,7.181,0,0,1-1.139-2.263,9.684,9.684,0,0,1-.419-2.679Zm10.664.387a4.119,4.119,0,0,1-.72,2.542,2.31,2.31,0,0,1-1.946.955A2.14,2.14,0,0,1,8.962,23.4v3.237H7.128V17.132h1.7l.063.673a2.156,2.156,0,0,1,1.739-.8,2.326,2.326,0,0,1,1.974.939,4.231,4.231,0,0,1,.7,2.59ZM11.476,20.5a2.7,2.7,0,0,0-.34-1.479,1.106,1.106,0,0,0-.987-.521,1.2,1.2,0,0,0-1.187.66v2.812a1.222,1.222,0,0,0,1.2.679Q11.476,22.648,11.476,20.5Zm6.132,3.631a3.372,3.372,0,0,1-2.46-.927,3.294,3.294,0,0,1-.949-2.469v-.178a4.149,4.149,0,0,1,.4-1.85,2.935,2.935,0,0,1,1.133-1.257A3.18,3.18,0,0,1,17.4,17a2.85,2.85,0,0,1,2.219.889,3.611,3.611,0,0,1,.809,2.52v.749H16.059a1.7,1.7,0,0,0,.536,1.079,1.621,1.621,0,0,0,1.133.406,1.98,1.98,0,0,0,1.657-.768l.9,1.009a2.754,2.754,0,0,1-1.117.911A3.665,3.665,0,0,1,17.608,24.127ZM17.4,18.484a1.146,1.146,0,0,0-.885.37,1.915,1.915,0,0,0-.435,1.058H18.63v-.147a1.366,1.366,0,0,0-.33-.947A1.183,1.183,0,0,0,17.4,18.484Zm5.764-1.352.057.793A2.4,2.4,0,0,1,25.193,17a1.993,1.993,0,0,1,1.625.641,2.991,2.991,0,0,1,.546,1.917V24H25.53V19.607a1.19,1.19,0,0,0-.254-.847,1.137,1.137,0,0,0-.844-.263,1.262,1.262,0,0,0-1.162.66V24H21.435V17.132Zm5.307,3.383a4.139,4.139,0,0,1,.72-2.558A2.338,2.338,0,0,1,31.16,17a2.1,2.1,0,0,1,1.657.749v-3.5h1.841V24H33l-.089-.73a2.159,2.159,0,0,1-1.765.857,2.331,2.331,0,0,1-1.946-.955A4.272,4.272,0,0,1,28.469,20.515Zm1.834.137a2.711,2.711,0,0,0,.336,1.481,1.1,1.1,0,0,0,.978.515,1.227,1.227,0,0,0,1.2-.718V19.215A1.21,1.21,0,0,0,31.63,18.5Q30.3,18.5,30.3,20.652ZM38.015,24H36.175V17.132h1.841Zm-1.949-8.646a.9.9,0,0,1,.276-.679,1.19,1.19,0,0,1,1.5,0,.969.969,0,0,1,0,1.365,1.177,1.177,0,0,1-1.492,0A.9.9,0,0,1,36.067,15.354Zm6.621,8.772a3.372,3.372,0,0,1-2.46-.927,3.294,3.294,0,0,1-.949-2.469v-.178a4.149,4.149,0,0,1,.4-1.85,2.935,2.935,0,0,1,1.133-1.257A3.18,3.18,0,0,1,42.484,17a2.85,2.85,0,0,1,2.219.889,3.611,3.611,0,0,1,.809,2.52v.749H41.138a1.7,1.7,0,0,0,.536,1.079,1.621,1.621,0,0,0,1.133.406,1.98,1.98,0,0,0,1.657-.768l.9,1.009a2.754,2.754,0,0,1-1.117.911A3.665,3.665,0,0,1,42.687,24.127Zm-.209-5.643a1.146,1.146,0,0,0-.885.37,1.915,1.915,0,0,0-.435,1.058h2.552v-.147a1.366,1.366,0,0,0-.33-.947A1.183,1.183,0,0,0,42.478,18.484Zm5.764-1.352.057.793A2.4,2.4,0,0,1,50.273,17a1.993,1.993,0,0,1,1.625.641,2.991,2.991,0,0,1,.546,1.917V24H50.609V19.607a1.19,1.19,0,0,0-.254-.847,1.137,1.137,0,0,0-.844-.263,1.262,1.262,0,0,0-1.162.66V24H46.515V17.132Zm7.789-1.688v1.688H57.2v1.346H56.03v3.428a.818.818,0,0,0,.146.546.733.733,0,0,0,.559.165,2.925,2.925,0,0,0,.54-.044v1.39a3.777,3.777,0,0,1-1.111.165A1.752,1.752,0,0,1,54.2,22.178v-3.7h-1V17.132h1V15.443Zm5.357,8.684a3.372,3.372,0,0,1-2.46-.927,3.294,3.294,0,0,1-.949-2.469v-.178a4.149,4.149,0,0,1,.4-1.85,2.935,2.935,0,0,1,1.133-1.257A3.18,3.18,0,0,1,61.184,17a2.85,2.85,0,0,1,2.219.889,3.611,3.611,0,0,1,.809,2.52v.749H59.839a1.7,1.7,0,0,0,.536,1.079,1.621,1.621,0,0,0,1.133.406,1.98,1.98,0,0,0,1.657-.768l.9,1.009a2.754,2.754,0,0,1-1.117.911A3.665,3.665,0,0,1,61.387,24.127Zm-.209-5.643a1.146,1.146,0,0,0-.885.37,1.915,1.915,0,0,0-.435,1.058h2.552v-.147a1.366,1.366,0,0,0-.33-.947A1.183,1.183,0,0,0,61.178,18.484Zm11.058,1.574L68.548,18.77V17l5.529,2.317v1.492l-5.529,2.323V21.366ZM81.465,24H75.13V22.743l2.99-3.187a7.376,7.376,0,0,0,.911-1.174,1.887,1.887,0,0,0,.3-.952,1.412,1.412,0,0,0-.311-.968,1.123,1.123,0,0,0-.889-.352,1.211,1.211,0,0,0-.981.428,1.7,1.7,0,0,0-.359,1.127H74.946a3.03,3.03,0,0,1,.4-1.542,2.841,2.841,0,0,1,1.139-1.095,3.463,3.463,0,0,1,1.669-.4,3.279,3.279,0,0,1,2.219.686,2.425,2.425,0,0,1,.79,1.936,3.108,3.108,0,0,1-.355,1.4,7.76,7.76,0,0,1-1.219,1.657l-2.1,2.215h3.974Zm1.1-7.465a1.827,1.827,0,0,1,.552-1.381,2,2,0,0,1,1.447-.53,2.034,2.034,0,0,1,1.46.524,1.862,1.862,0,0,1,.552,1.419v.457a1.8,1.8,0,0,1-.552,1.377,2.28,2.28,0,0,1-2.9,0,1.849,1.849,0,0,1-.555-1.412Zm1.219.489a.855.855,0,0,0,.219.613.754.754,0,0,0,.574.232.719.719,0,0,0,.565-.235A.909.909,0,0,0,85.35,17v-.47a.89.89,0,0,0-.209-.616.816.816,0,0,0-1.143,0,.909.909,0,0,0-.216.644Zm3.2,4.71a1.8,1.8,0,0,1,.559-1.381,2.031,2.031,0,0,1,1.447-.524,2.052,2.052,0,0,1,1.457.517A1.852,1.852,0,0,1,91,21.772v.457a1.817,1.817,0,0,1-.546,1.374A2.012,2.012,0,0,1,89,24.127a2.036,2.036,0,0,1-1.466-.527,1.84,1.84,0,0,1-.552-1.4Zm1.219.5a.849.849,0,0,0,.229.6.745.745,0,0,0,.571.248q.774,0,.774-.857v-.482a.863.863,0,0,0-.216-.613.82.82,0,0,0-1.143,0,.89.89,0,0,0-.216.632Zm-3.263,1.079-.9-.482L88.555,15.6l.9.482Zm10.486-2.92a9.244,9.244,0,0,1-.413,2.761,7.5,7.5,0,0,1-1.187,2.342,4.277,4.277,0,0,1-1.657,1.4l-.355-.971a4.464,4.464,0,0,0,1.422-2.095,9.7,9.7,0,0,0,.54-3.256v-.336a9.919,9.919,0,0,0-.517-3.345,4.653,4.653,0,0,0-1.444-2.171l.355-.971A4.278,4.278,0,0,1,93.8,15.1a7.4,7.4,0,0,1,1.187,2.292,9.178,9.178,0,0,1,.441,2.71Z" transform="translate(-4383 -10518)" fill="#12263f"/>
    <g id="Grupo_848498" data-name="Grupo 848498" transform="translate(6192.474 -15067.024) rotate(-89)">
      <path id="Trazado_591465-4" data-name="Trazado 591465" d="M-4727-10473.346v52.45" transform="translate(0 0.558)" fill="none" stroke="#12263f" stroke-width="1"/>
      <path id="Polígono_25-4" data-name="Polígono 25" d="M4,0,8,7H0Z" transform="translate(-4731 -10474)" fill="#12263f"/>
    </g>
    <g id="Grupo_848499" data-name="Grupo 848499" transform="translate(-5569.191 -21992.367) rotate(-161)">
      <path id="Trazado_591465-5" data-name="Trazado 591465" d="M-4727-10473.346v123.445" transform="translate(0 0.558)" fill="none" stroke="#12263f" stroke-width="1"/>
      <path id="Polígono_25-5" data-name="Polígono 25" d="M4,0,8,7H0Z" transform="translate(-4731 -10474)" fill="#12263f"/>
    </g>
    <path id="Trazado_591466" data-name="Trazado 591466" d="M8.881,10.617H7.364V14H5.46V4.758H8.894a3.882,3.882,0,0,1,2.526.73,2.519,2.519,0,0,1,.889,2.063A2.843,2.843,0,0,1,11.9,9.128a2.792,2.792,0,0,1-1.241,1.006l2,3.777V14H10.614ZM7.364,9.074H8.9a1.573,1.573,0,0,0,1.111-.365A1.3,1.3,0,0,0,10.4,7.7a1.4,1.4,0,0,0-.371-1.028A1.543,1.543,0,0,0,8.894,6.3H7.364ZM16.8,14.127a3.372,3.372,0,0,1-2.46-.927,3.294,3.294,0,0,1-.949-2.469v-.178a4.149,4.149,0,0,1,.4-1.85,2.935,2.935,0,0,1,1.133-1.257A3.18,3.18,0,0,1,16.594,7a2.85,2.85,0,0,1,2.219.889,3.611,3.611,0,0,1,.809,2.52v.749H15.248a1.7,1.7,0,0,0,.536,1.079,1.621,1.621,0,0,0,1.133.406,1.98,1.98,0,0,0,1.657-.768l.9,1.009a2.754,2.754,0,0,1-1.117.911A3.665,3.665,0,0,1,16.8,14.127Zm-.209-5.643a1.146,1.146,0,0,0-.885.37,1.915,1.915,0,0,0-.435,1.058h2.552V9.765a1.366,1.366,0,0,0-.33-.947A1.183,1.183,0,0,0,16.587,8.484ZM22.6,7.132v7.243a2.457,2.457,0,0,1-.6,1.768,2.292,2.292,0,0,1-1.739.632,3.73,3.73,0,0,1-.908-.108V15.212a3.444,3.444,0,0,0,.578.057q.832,0,.832-.882V7.132ZM20.618,5.354a.9.9,0,0,1,.276-.679,1.194,1.194,0,0,1,1.5,0,.9.9,0,0,1,.276.679.9.9,0,0,1-.282.686,1.177,1.177,0,0,1-1.492,0A.9.9,0,0,1,20.618,5.354ZM28.019,14a2.037,2.037,0,0,1-.184-.616,2.22,2.22,0,0,1-1.733.743,2.439,2.439,0,0,1-1.673-.584,1.878,1.878,0,0,1-.663-1.473,1.941,1.941,0,0,1,.809-1.676,3.994,3.994,0,0,1,2.339-.59h.844V9.411a1.132,1.132,0,0,0-.244-.762.961.961,0,0,0-.771-.286,1.093,1.093,0,0,0-.727.222.755.755,0,0,0-.263.609H23.919a1.843,1.843,0,0,1,.368-1.1,2.434,2.434,0,0,1,1.041-.8A3.794,3.794,0,0,1,26.839,7a3,3,0,0,1,2.015.638A2.232,2.232,0,0,1,29.6,9.436v2.977a3.284,3.284,0,0,0,.273,1.479V14ZM26.5,12.724a1.58,1.58,0,0,0,.749-.181,1.188,1.188,0,0,0,.508-.486V10.877h-.686q-1.377,0-1.466.952l-.006.108a.734.734,0,0,0,.241.565A.937.937,0,0,0,26.5,12.724Zm7.458-2.209a4.139,4.139,0,0,1,.72-2.558A2.338,2.338,0,0,1,36.652,7a2.1,2.1,0,0,1,1.657.749V4.25H40.15V14H38.493l-.089-.73a2.159,2.159,0,0,1-1.765.857,2.331,2.331,0,0,1-1.946-.955A4.272,4.272,0,0,1,33.961,10.515Zm1.834.137a2.711,2.711,0,0,0,.336,1.481,1.1,1.1,0,0,0,.978.515,1.227,1.227,0,0,0,1.2-.718V9.215A1.21,1.21,0,0,0,37.122,8.5Q35.8,8.5,35.8,10.652Zm8.938,3.475a3.372,3.372,0,0,1-2.46-.927,3.294,3.294,0,0,1-.949-2.469v-.178a4.149,4.149,0,0,1,.4-1.85,2.935,2.935,0,0,1,1.133-1.257A3.18,3.18,0,0,1,44.53,7a2.85,2.85,0,0,1,2.219.889,3.611,3.611,0,0,1,.809,2.52v.749H43.184a1.7,1.7,0,0,0,.536,1.079,1.621,1.621,0,0,0,1.133.406,1.98,1.98,0,0,0,1.657-.768l.9,1.009a2.754,2.754,0,0,1-1.117.911A3.665,3.665,0,0,1,44.733,14.127Zm-.209-5.643a1.146,1.146,0,0,0-.885.37A1.915,1.915,0,0,0,43.2,9.912h2.552V9.765a1.366,1.366,0,0,0-.33-.947A1.183,1.183,0,0,0,44.523,8.484Zm7.027,2.031a4.139,4.139,0,0,1,.72-2.558A2.338,2.338,0,0,1,54.241,7a2.1,2.1,0,0,1,1.657.749V4.25h1.841V14H56.082l-.089-.73a2.159,2.159,0,0,1-1.765.857,2.331,2.331,0,0,1-1.946-.955A4.272,4.272,0,0,1,51.55,10.515Zm1.834.137a2.711,2.711,0,0,0,.336,1.481,1.1,1.1,0,0,0,.978.515,1.227,1.227,0,0,0,1.2-.718V9.215A1.21,1.21,0,0,0,54.711,8.5Q53.385,8.5,53.385,10.652ZM61.1,14H59.256V7.132H61.1ZM59.148,5.354a.9.9,0,0,1,.276-.679,1.19,1.19,0,0,1,1.5,0,.9.9,0,0,1,.279.679.9.9,0,0,1-.282.686,1.177,1.177,0,0,1-1.492,0A.9.9,0,0,1,59.148,5.354ZM62.322,10.5a4.105,4.105,0,0,1,.72-2.558A2.355,2.355,0,0,1,65.02,7a2.109,2.109,0,0,1,1.758.844l.121-.717h1.612v9.509H66.67V13.41a2.115,2.115,0,0,1-1.663.717,2.338,2.338,0,0,1-1.955-.952A4.307,4.307,0,0,1,62.322,10.5Zm1.834.13a2.693,2.693,0,0,0,.346,1.5,1.107,1.107,0,0,0,.974.515,1.234,1.234,0,0,0,1.193-.674V9.132a1.224,1.224,0,0,0-1.181-.648A1.121,1.121,0,0,0,64.506,9,2.974,2.974,0,0,0,64.156,10.633ZM74.065,13.3a2.3,2.3,0,0,1-1.879.825,2.17,2.17,0,0,1-1.685-.635,2.71,2.71,0,0,1-.594-1.86v-4.5h1.834v4.442q0,1.074.978,1.074A1.325,1.325,0,0,0,74,12V7.132h1.841V14H74.116Zm6.322.825a3.372,3.372,0,0,1-2.46-.927,3.294,3.294,0,0,1-.949-2.469v-.178a4.149,4.149,0,0,1,.4-1.85,2.935,2.935,0,0,1,1.133-1.257A3.18,3.18,0,0,1,80.184,7a2.85,2.85,0,0,1,2.219.889,3.611,3.611,0,0,1,.809,2.52v.749H78.839a1.7,1.7,0,0,0,.536,1.079,1.621,1.621,0,0,0,1.133.406,1.98,1.98,0,0,0,1.657-.768l.9,1.009a2.754,2.754,0,0,1-1.117.911A3.665,3.665,0,0,1,80.387,14.127Zm-.209-5.643a1.146,1.146,0,0,0-.885.37,1.915,1.915,0,0,0-.435,1.058h2.552V9.765a1.366,1.366,0,0,0-.33-.947A1.183,1.183,0,0,0,80.178,8.484Zm7.643,2.3H84.247V9.3h3.574ZM91.49,5.443V7.132h1.174V8.478H91.49v3.428a.818.818,0,0,0,.146.546.733.733,0,0,0,.559.165,2.926,2.926,0,0,0,.54-.044v1.39a3.777,3.777,0,0,1-1.111.165,1.752,1.752,0,0,1-1.968-1.949v-3.7h-1V7.132h1V5.443ZM93.21,10.5A4.073,4.073,0,0,1,93.6,8.681a2.881,2.881,0,0,1,1.133-1.238A3.306,3.306,0,0,1,96.453,7a3.127,3.127,0,0,1,2.269.851,3.414,3.414,0,0,1,.981,2.311l.013.47a3.59,3.59,0,0,1-.882,2.536,3.42,3.42,0,0,1-4.739,0,3.653,3.653,0,0,1-.885-2.59Zm1.834.13a2.567,2.567,0,0,0,.368,1.5,1.323,1.323,0,0,0,2.095.006,2.809,2.809,0,0,0,.375-1.637,2.542,2.542,0,0,0-.375-1.488,1.217,1.217,0,0,0-1.054-.528,1.2,1.2,0,0,0-1.041.524A2.857,2.857,0,0,0,95.044,10.633Zm7.522-3.5.057.768A2.414,2.414,0,0,1,104.6,7a1.832,1.832,0,0,1,1.822,1.047A2.358,2.358,0,0,1,108.482,7a2.049,2.049,0,0,1,1.663.651,2.991,2.991,0,0,1,.546,1.958V14H108.85V9.62a1.308,1.308,0,0,0-.229-.854,1.013,1.013,0,0,0-.806-.27,1.145,1.145,0,0,0-1.143.787L106.679,14h-1.834V9.626a1.292,1.292,0,0,0-.235-.863,1.023,1.023,0,0,0-.8-.267,1.189,1.189,0,0,0-1.13.647V14h-1.834V7.132ZM116.08,14a2.037,2.037,0,0,1-.184-.616,2.22,2.22,0,0,1-1.733.743,2.439,2.439,0,0,1-1.673-.584,1.878,1.878,0,0,1-.663-1.473,1.941,1.941,0,0,1,.809-1.676,3.994,3.994,0,0,1,2.339-.59h.844V9.411a1.132,1.132,0,0,0-.244-.762.961.961,0,0,0-.771-.286,1.093,1.093,0,0,0-.727.222.755.755,0,0,0-.263.609H111.98a1.843,1.843,0,0,1,.368-1.1,2.434,2.434,0,0,1,1.041-.8A3.794,3.794,0,0,1,114.9,7a3,3,0,0,1,2.015.638,2.232,2.232,0,0,1,.746,1.793v2.977a3.284,3.284,0,0,0,.273,1.479V14Zm-1.517-1.276a1.58,1.58,0,0,0,.749-.181,1.188,1.188,0,0,0,.508-.486V10.877h-.686q-1.377,0-1.466.952l-.006.108a.734.734,0,0,0,.241.565A.937.937,0,0,0,114.563,12.724Z" transform="translate(-4474 -10687)" fill="#12263f"/>
    <g id="Grupo_848500" data-name="Grupo 848500" transform="matrix(-0.602, 0.799, -0.799, -0.602, -15730.608, -13090.255)">
      <path id="Trazado_591465-6" data-name="Trazado 591465" d="M-4727-10473.346v123.445" transform="translate(0 0.558)" fill="none" stroke="#12263f" stroke-width="1"/>
      <path id="Polígono_25-6" data-name="Polígono 25" d="M4,0,8,7H0Z" transform="translate(-4731 -10474)" fill="#12263f"/>
    </g>
    <path id="Trazado_591467" data-name="Trazado 591467" d="M6.142,11.708,8.237,4.758h2.12L7.139,14H5.152L1.946,4.758H4.06Zm8.125,2.418a3.372,3.372,0,0,1-2.46-.927,3.294,3.294,0,0,1-.949-2.469v-.178a4.149,4.149,0,0,1,.4-1.85,2.935,2.935,0,0,1,1.133-1.257A3.18,3.18,0,0,1,14.064,7a2.85,2.85,0,0,1,2.219.889,3.611,3.611,0,0,1,.809,2.52v.749H12.718a1.7,1.7,0,0,0,.536,1.079,1.621,1.621,0,0,0,1.133.406,1.98,1.98,0,0,0,1.657-.768l.9,1.009a2.754,2.754,0,0,1-1.117.911A3.665,3.665,0,0,1,14.267,14.127Zm-.209-5.643a1.146,1.146,0,0,0-.885.37,1.915,1.915,0,0,0-.435,1.058h2.552V9.765a1.366,1.366,0,0,0-.33-.947A1.183,1.183,0,0,0,14.058,8.484Zm7.935.368a4.984,4.984,0,0,0-.66-.051,1.344,1.344,0,0,0-1.365.7V14H18.133V7.132h1.733l.051.819A1.7,1.7,0,0,1,21.446,7a1.922,1.922,0,0,1,.571.083Zm3.4-3.409V7.132h1.174V8.478H25.388v3.428a.818.818,0,0,0,.146.546.733.733,0,0,0,.559.165,2.926,2.926,0,0,0,.54-.044v1.39a3.777,3.777,0,0,1-1.111.165,1.752,1.752,0,0,1-1.968-1.949v-3.7h-1V7.132h1V5.443Zm5.357,8.684a3.372,3.372,0,0,1-2.46-.927,3.294,3.294,0,0,1-.949-2.469v-.178a4.149,4.149,0,0,1,.4-1.85A2.935,2.935,0,0,1,28.87,7.446,3.18,3.18,0,0,1,30.542,7a2.85,2.85,0,0,1,2.219.889,3.611,3.611,0,0,1,.809,2.52v.749H29.2a1.7,1.7,0,0,0,.536,1.079,1.621,1.621,0,0,0,1.133.406,1.98,1.98,0,0,0,1.657-.768l.9,1.009a2.754,2.754,0,0,1-1.117.911A3.665,3.665,0,0,1,30.746,14.127Zm-.209-5.643a1.146,1.146,0,0,0-.885.37,1.915,1.915,0,0,0-.435,1.058h2.552V9.765a1.366,1.366,0,0,0-.33-.947A1.183,1.183,0,0,0,30.536,8.484Zm3.79,2.031a4.139,4.139,0,0,1,.72-2.558A2.338,2.338,0,0,1,37.017,7a2.1,2.1,0,0,1,1.657.749V4.25h1.841V14H38.858l-.089-.73A2.159,2.159,0,0,1,37,14.127a2.331,2.331,0,0,1-1.946-.955A4.272,4.272,0,0,1,34.326,10.515Zm1.834.137a2.711,2.711,0,0,0,.336,1.481,1.1,1.1,0,0,0,.978.515,1.227,1.227,0,0,0,1.2-.718V9.215A1.21,1.21,0,0,0,37.487,8.5Q36.16,8.5,36.16,10.652ZM45.1,14.127a3.372,3.372,0,0,1-2.46-.927,3.294,3.294,0,0,1-.949-2.469v-.178a4.149,4.149,0,0,1,.4-1.85,2.935,2.935,0,0,1,1.133-1.257A3.18,3.18,0,0,1,44.895,7a2.85,2.85,0,0,1,2.219.889,3.611,3.611,0,0,1,.809,2.52v.749H43.549a1.7,1.7,0,0,0,.536,1.079,1.621,1.621,0,0,0,1.133.406,1.98,1.98,0,0,0,1.657-.768l.9,1.009a2.754,2.754,0,0,1-1.117.911A3.665,3.665,0,0,1,45.1,14.127Zm-.209-5.643a1.146,1.146,0,0,0-.885.37,1.915,1.915,0,0,0-.435,1.058H46.12V9.765a1.366,1.366,0,0,0-.33-.947A1.183,1.183,0,0,0,44.888,8.484Zm7.935.368a4.984,4.984,0,0,0-.66-.051,1.344,1.344,0,0,0-1.365.7V14H48.963V7.132H50.7l.051.819A1.7,1.7,0,0,1,52.277,7a1.922,1.922,0,0,1,.571.083Zm.368,1.65a4.073,4.073,0,0,1,.394-1.822,2.881,2.881,0,0,1,1.133-1.238A3.306,3.306,0,0,1,56.435,7a3.128,3.128,0,0,1,2.269.851,3.414,3.414,0,0,1,.981,2.311l.013.47a3.59,3.59,0,0,1-.882,2.536,3.42,3.42,0,0,1-4.739,0,3.653,3.653,0,0,1-.885-2.59Zm1.834.13a2.567,2.567,0,0,0,.368,1.5,1.323,1.323,0,0,0,2.095.006,2.809,2.809,0,0,0,.375-1.637,2.542,2.542,0,0,0-.375-1.488,1.217,1.217,0,0,0-1.054-.528,1.2,1.2,0,0,0-1.041.524A2.857,2.857,0,0,0,55.025,10.633Zm8.753-.118a4.139,4.139,0,0,1,.72-2.558A2.338,2.338,0,0,1,66.47,7a2.1,2.1,0,0,1,1.657.749V4.25h1.841V14H68.311l-.089-.73a2.159,2.159,0,0,1-1.765.857,2.331,2.331,0,0,1-1.946-.955A4.272,4.272,0,0,1,63.779,10.515Zm1.834.137a2.711,2.711,0,0,0,.336,1.481,1.1,1.1,0,0,0,.978.515,1.228,1.228,0,0,0,1.2-.718V9.215A1.21,1.21,0,0,0,66.94,8.5Q65.613,8.5,65.613,10.652Zm8.938,3.475a3.372,3.372,0,0,1-2.46-.927,3.294,3.294,0,0,1-.949-2.469v-.178a4.149,4.149,0,0,1,.4-1.85,2.935,2.935,0,0,1,1.133-1.257A3.18,3.18,0,0,1,74.348,7a2.85,2.85,0,0,1,2.219.889,3.611,3.611,0,0,1,.809,2.52v.749H73a1.7,1.7,0,0,0,.536,1.079,1.621,1.621,0,0,0,1.133.406,1.98,1.98,0,0,0,1.657-.768l.9,1.009a2.754,2.754,0,0,1-1.117.911A3.665,3.665,0,0,1,74.551,14.127Zm-.209-5.643a1.146,1.146,0,0,0-.885.37,1.915,1.915,0,0,0-.435,1.058h2.552V9.765a1.366,1.366,0,0,0-.33-.947A1.183,1.183,0,0,0,74.341,8.484Zm11.172.368a4.984,4.984,0,0,0-.66-.051,1.344,1.344,0,0,0-1.365.7V14H81.654V7.132h1.733l.051.819A1.7,1.7,0,0,1,84.967,7a1.922,1.922,0,0,1,.571.083Zm4.043,5.275A3.372,3.372,0,0,1,87.1,13.2a3.294,3.294,0,0,1-.949-2.469v-.178a4.149,4.149,0,0,1,.4-1.85,2.935,2.935,0,0,1,1.133-1.257A3.18,3.18,0,0,1,89.354,7a2.85,2.85,0,0,1,2.219.889,3.611,3.611,0,0,1,.809,2.52v.749H88.008a1.7,1.7,0,0,0,.536,1.079,1.621,1.621,0,0,0,1.133.406,1.98,1.98,0,0,0,1.657-.768l.9,1.009a2.754,2.754,0,0,1-1.117.911A3.665,3.665,0,0,1,89.557,14.127Zm-.209-5.643a1.146,1.146,0,0,0-.885.37,1.915,1.915,0,0,0-.435,1.058h2.552V9.765a1.366,1.366,0,0,0-.33-.947A1.183,1.183,0,0,0,89.347,8.484Zm10.264,2.146a4.159,4.159,0,0,1-.7,2.574,2.334,2.334,0,0,1-1.968.924,2.144,2.144,0,0,1-1.784-.857l-.083.73h-1.65V4.25h1.834v3.5A2.089,2.089,0,0,1,96.926,7a2.353,2.353,0,0,1,1.971.924,4.165,4.165,0,0,1,.714,2.6ZM97.777,10.5a2.732,2.732,0,0,0-.33-1.52,1.116,1.116,0,0,0-.984-.479,1.21,1.21,0,0,0-1.206.717v2.71a1.226,1.226,0,0,0,1.219.724,1.133,1.133,0,0,0,1.168-.876A4.519,4.519,0,0,0,97.777,10.5Zm2.679.006a4.073,4.073,0,0,1,.394-1.822,2.881,2.881,0,0,1,1.133-1.238A3.306,3.306,0,0,1,103.7,7a3.127,3.127,0,0,1,2.269.851,3.414,3.414,0,0,1,.981,2.311l.013.47a3.59,3.59,0,0,1-.882,2.536,3.42,3.42,0,0,1-4.739,0,3.653,3.653,0,0,1-.885-2.59Zm1.834.13a2.567,2.567,0,0,0,.368,1.5,1.323,1.323,0,0,0,2.095.006,2.809,2.809,0,0,0,.375-1.637,2.542,2.542,0,0,0-.375-1.488,1.217,1.217,0,0,0-1.054-.528,1.2,1.2,0,0,0-1.041.524A2.857,2.857,0,0,0,102.29,10.633Zm9.521,1.469a.591.591,0,0,0-.333-.53,3.785,3.785,0,0,0-1.07-.346q-2.45-.514-2.45-2.082a1.887,1.887,0,0,1,.759-1.527A3.06,3.06,0,0,1,110.7,7a3.293,3.293,0,0,1,2.092.616,1.94,1.94,0,0,1,.784,1.6h-1.834a.888.888,0,0,0-.254-.651,1.075,1.075,0,0,0-.793-.257,1.1,1.1,0,0,0-.717.209.661.661,0,0,0-.254.533.565.565,0,0,0,.289.492,2.971,2.971,0,0,0,.974.324,7.958,7.958,0,0,1,1.155.308,1.9,1.9,0,0,1,1.454,1.847,1.792,1.792,0,0,1-.806,1.52,3.478,3.478,0,0,1-2.082.581,3.632,3.632,0,0,1-1.533-.308,2.572,2.572,0,0,1-1.051-.844,1.962,1.962,0,0,1-.381-1.158h1.739a.958.958,0,0,0,.362.749,1.435,1.435,0,0,0,.9.26,1.328,1.328,0,0,0,.8-.2A.622.622,0,0,0,111.812,12.1Zm6.125,2.025a3.372,3.372,0,0,1-2.46-.927,3.294,3.294,0,0,1-.949-2.469v-.178a4.149,4.149,0,0,1,.4-1.85,2.935,2.935,0,0,1,1.133-1.257A3.18,3.18,0,0,1,117.734,7a2.85,2.85,0,0,1,2.219.889,3.611,3.611,0,0,1,.809,2.52v.749h-4.374a1.7,1.7,0,0,0,.536,1.079,1.621,1.621,0,0,0,1.133.406,1.98,1.98,0,0,0,1.657-.768l.9,1.009a2.754,2.754,0,0,1-1.117.911A3.665,3.665,0,0,1,117.937,14.127Zm-.209-5.643a1.146,1.146,0,0,0-.885.37,1.915,1.915,0,0,0-.435,1.058h2.552V9.765a1.366,1.366,0,0,0-.33-.947A1.183,1.183,0,0,0,117.728,8.484Z" transform="translate(-4682 -10658)" fill="#12263f"/>
  </g>
</svg>
