<svg xmlns="http://www.w3.org/2000/svg" width="466.15" height="340.928" viewBox="0 0 466.15 340.928"><g transform="translate(6285.49 8067)"><g transform="translate(-6336.046 -8169)"><path d="M199.779,727.321v12.715H137V727.321h18.675V626H180.31V727.321Z" transform="translate(-45.2 -315.194)" fill="#b3b3b3" stroke="#000" stroke-linecap="round" stroke-linejoin="round" stroke-width="2"/><path d="M860,813h11.523v46.488h46.885v10.331H860Z" transform="translate(-480.926 -427.892)" fill="#b3b3b3" stroke="#000" stroke-linecap="round" stroke-linejoin="round" stroke-width="2"/><line x2="56.277" transform="translate(437.182 431.836)" fill="none" stroke="#000" stroke-linecap="round" stroke-linejoin="round" stroke-width="2"/><rect width="11.035" height="37.518" transform="translate(426.147 385.49)" fill="#b3b3b3" stroke="#000" stroke-linecap="round" stroke-linejoin="round" stroke-width="2"/><line x1="55.174" transform="translate(437.182 385.49)" fill="none" stroke="#000" stroke-linecap="round" stroke-linejoin="round" stroke-width="2"/><line x1="57.59" transform="translate(436.314 422.855)" fill="none" stroke="#000" stroke-linecap="round" stroke-linejoin="round" stroke-width="2"/><path d="M119,109v36.555h26.621l2.15,168.868h21.691v2.738l79.864,83.881h34.965l83.44-84.648v-1.971h21.6l-.147-169.662h25.429v-7.947H389.188V117.741l-10.728,8.741.4,165.689-97.745,98.937H254.889l-97.347-98.937-.4-165.689-11.125-9.933.4,19.469h-17.88l.4-27.019Z" transform="translate(-34.352 -3.616)" fill="#b3b3b3" stroke="#000" stroke-miterlimit="10" stroke-width="2"/><path d="M440,103h40.528V244.849H440V103Z" transform="translate(-227.807)" fill="none" stroke="#000" stroke-miterlimit="10" stroke-width="2"/><path d="M216,570h65.56l-7.549,12.715h102.91L368.974,570h67.944" transform="translate(-92.81 -281.444)" fill="none" stroke="#000" stroke-miterlimit="10" stroke-width="2"/><line x1="25" y2="43.707" transform="translate(187.192 244.849)" fill="none" stroke="#000" stroke-miterlimit="10" stroke-width="2"/><line x2="25.326" y2="43.707" transform="translate(252.721 244.849)" fill="none" stroke="#000" stroke-miterlimit="10" stroke-width="2"/><line y1="38.622" x2="23.173" transform="translate(164.623 289.487)" fill="none" stroke="#000" stroke-linecap="round" stroke-miterlimit="10" stroke-width="9"/><line x1="24.408" y1="40.723" transform="translate(277.185 289.156)" fill="none" stroke="#000" stroke-linecap="round" stroke-miterlimit="10" stroke-width="9"/><line x1="41.932" transform="translate(379.801 132.794)" fill="none" stroke="#000" stroke-miterlimit="10" stroke-width="2"/><line x1="117.631" transform="translate(94.562 105.384)" fill="none" stroke="#000" stroke-miterlimit="10" stroke-width="2"/><path d="M542,111H670.339v19.469H661.2V111h9.139" transform="translate(-289.279 -4.821)" fill="#b3b3b3" stroke="#000" stroke-miterlimit="10" stroke-width="2"/><path d="M842,110v19.867h51.256" transform="translate(-470.078 -4.219)" fill="none" stroke="#000" stroke-miterlimit="10" stroke-width="2"/><line x2="17.085" transform="translate(354.836 120.956)" fill="none" stroke="#000" stroke-miterlimit="10" stroke-width="2"/><line x2="11.035" transform="translate(357.732 123.966)" fill="none" stroke="#000" stroke-miterlimit="10" stroke-width="1"/><line x2="8.828" transform="translate(361.042 126.173)" fill="none" stroke="#000" stroke-miterlimit="10" stroke-width="1"/><line x2="17.085" transform="translate(94.582 120.956)" fill="none" stroke="#000" stroke-miterlimit="10" stroke-width="2"/><line x2="11.035" transform="translate(97.311 123.966)" fill="none" stroke="#000" stroke-miterlimit="10" stroke-width="1"/><line x2="9.931" transform="translate(100.622 126.173)" fill="none" stroke="#000" stroke-miterlimit="10" stroke-width="1"/><path d="M127,258.774H265.273s12.317-2.781,12.317-14.3V225" transform="translate(-39.173 -73.525)" fill="none" stroke="#000" stroke-miterlimit="10" stroke-width="2"/><path d="M125.5,249.567H253.839s12.317,0,12.317-11.523V225.33" transform="translate(-38.269 -73.724)" fill="none" stroke="#000" stroke-miterlimit="10" stroke-width="2"/><path d="M426.4,131.1a5.415,5.415,0,0,0-4.569-2.185H178.261s-4.967-.6-5.761,2.185" transform="translate(-66.594 -15.588)" fill="none" stroke="#000" stroke-miterlimit="10" stroke-width="1"/><line x2="39.336" transform="translate(127.163 118.297)" fill="none" stroke="#000" stroke-miterlimit="10" stroke-width="1"/><line x2="22.648" transform="translate(134.315 126.641)" fill="none" stroke="#000" stroke-miterlimit="10" stroke-width="1"/><line x2="24.635" transform="translate(157.36 121.873)" fill="none" stroke="#000" stroke-miterlimit="10" stroke-width="1"/><line x2="32.582" transform="translate(175.241 126.641)" fill="none" stroke="#000" stroke-miterlimit="10" stroke-width="1"/><line x2="31.787" transform="translate(174.446 118.297)" fill="none" stroke="#000" stroke-miterlimit="10" stroke-width="1"/><line x2="13.509" transform="translate(197.491 121.873)" fill="none" stroke="#000" stroke-miterlimit="10" stroke-width="1"/><line x2="39.336" transform="translate(257.195 119.454)" fill="none" stroke="#000" stroke-miterlimit="10" stroke-width="1"/><line x2="22.648" transform="translate(264.347 127.798)" fill="none" stroke="#000" stroke-miterlimit="10" stroke-width="1"/><line x2="24.635" transform="translate(287.392 123.03)" fill="none" stroke="#000" stroke-miterlimit="10" stroke-width="1"/><line x2="31.787" transform="translate(304.478 119.454)" fill="none" stroke="#000" stroke-miterlimit="10" stroke-width="1"/><line x2="13.509" transform="translate(327.523 123.03)" fill="none" stroke="#000" stroke-miterlimit="10" stroke-width="1"/><line x2="15.099" transform="translate(222.921 126.641)" fill="none" stroke="#000" stroke-miterlimit="10" stroke-width="1"/><line x2="29.403" transform="translate(218.153 117.9)" fill="none" stroke="#000" stroke-miterlimit="10" stroke-width="1"/><line x2="15.099" transform="translate(215.371 122.271)" fill="none" stroke="#000" stroke-miterlimit="10" stroke-width="1"/><line x2="9.139" transform="translate(243.98 121.873)" fill="none" stroke="#000" stroke-miterlimit="10" stroke-width="1"/><path d="M498.139,795.112H489S493.768,782,505.688,782H618.134v7.549H507.277A8.426,8.426,0,0,0,498.139,795.112Z" transform="translate(-257.338 -409.209)" fill="none" stroke="#000" stroke-miterlimit="10" stroke-width="2"/><path d="M760.779,727.321v12.715H698V727.321h18.675V626H741.31V727.321Z" transform="translate(-383.295 -315.194)" fill="#b3b3b3" stroke="#000" stroke-linecap="round" stroke-linejoin="round" stroke-width="2"/><path d="M821.549,780.549,814,773v15.1Z" transform="translate(-453.204 -403.785)" fill="none" stroke="#000" stroke-linecap="round" stroke-linejoin="round" stroke-width="2"/><path d="M833,780.139l7.549-7.549v15.1Z" transform="translate(-464.654 -403.538)" fill="none" stroke="#000" stroke-linecap="round" stroke-linejoin="round" stroke-width="2"/><path d="M852.4,789.884h23.045s7.947.445,7.947,10.728h8.741s-1.589-17.483-13.509-17.88-26.621,0-26.621,0" transform="translate(-476.105 -409.544)" fill="none" stroke="#000" stroke-linecap="round" stroke-linejoin="round" stroke-width="2"/><path d="M332.2,603.146s-32.24,37.747-50.636-7.816" transform="translate(-132.321 -296.71)" fill="none" stroke="#000" stroke-linecap="round" stroke-linejoin="round" stroke-width="2"/><path d="M278.781,587.4l-2.07,2.634-.1-.068.1-5.022q-.354-2.475-.711-4.947l2.718,4.192,3.377,3.719v.111Z" transform="translate(-128.97 -287.471)"/><path d="M355.523,592.993s-21.428,20.749-29.983-1.323" transform="translate(-158.826 -294.504)" fill="none" stroke="#000" stroke-linecap="round" stroke-linejoin="round" stroke-width="2"/><path d="M323.356,583.543l-2.225,2.507-.091-.072.4-5.01q-.211-2.491-.4-4.979l2.463,4.347,3.151,3.914-.02.107Z" transform="translate(-156.114 -285.054)"/><path d="M574.71,601.6s32.244,37.747,50.636-7.816" transform="translate(-308.992 -295.776)" fill="none" stroke="#000" stroke-linecap="round" stroke-linejoin="round" stroke-width="2"/><path d="M695.688,585.852l-3.29.624-.028-.115,3.377-3.719,2.718-4.192q-.35,2.471-.707,4.947l.1,5.022-.079.076Z" transform="translate(-379.902 -286.537)"/><path d="M582.71,591.443s21.428,20.749,29.983-1.323" transform="translate(-313.814 -293.57)" fill="none" stroke="#000" stroke-linecap="round" stroke-linejoin="round" stroke-width="2"/><path d="M651.866,582l-3.25.819-.036-.111,3.151-3.914,2.464-4.347q-.21,2.491-.4,4.979l.4,5.01-.076.079Z" transform="translate(-353.511 -284.126)"/><path d="M532,643s10.331,7.911.87,33.34" transform="translate(-283.252 -325.439)" fill="none" stroke="#000" stroke-linecap="round" stroke-linejoin="round" stroke-width="2"/><path d="M530.924,719.476l3.3-.56.024.115-3.449,3.651-2.8,4.136q.4-2.467.795-4.931v-5l.08-.076Z" transform="translate(-280.842 -369.922)"/><path d="M420.538,642.81s-10.331,7.915-.87,33.34" transform="translate(-213.149 -325.324)" fill="none" stroke="#000" stroke-linecap="round" stroke-linejoin="round" stroke-width="2"/><path d="M419.486,719.268l2.014-2.678.1.068v5.022q.4,2.467.795,4.931l-2.8-4.136-3.449-3.651v-.111Z" transform="translate(-213.428 -369.789)"/><line y1="29.681" transform="translate(147.03 202.056)" fill="none" stroke="#000" stroke-linecap="round" stroke-linejoin="round" stroke-width="2"/><path d="M271.558,343.9l-2.865,1.744-.064-.1,1.856-4.669L271.558,336l1.073,4.879,1.856,4.657-.048.1Z" transform="translate(-124.529 -140.421)"/><line y1="29.681" transform="translate(166.102 216.36)" fill="none" stroke="#000" stroke-linecap="round" stroke-linejoin="round" stroke-width="2"/><path d="M319.558,379.9l-2.865,1.744-.064-.1,1.856-4.669L319.558,372l1.073,4.879,1.856,4.657-.048.1Z" transform="translate(-153.456 -162.117)"/><line y1="29.681" transform="translate(184.777 202.056)" fill="none" stroke="#000" stroke-linecap="round" stroke-linejoin="round" stroke-width="2"/><path d="M366.558,343.9l-2.865,1.744-.064-.1,1.856-4.669L366.558,336l1.073,4.879,1.856,4.657-.048.1Z" transform="translate(-181.782 -140.421)"/><line y1="18.158" transform="translate(164.91 150.402)" fill="none" stroke="#000" stroke-linecap="round" stroke-linejoin="round" stroke-width="2"/><path d="M316.558,213.9l-2.865,1.744-.064-.1,1.856-4.669L316.558,206l1.073,4.879,1.856,4.657-.048.1Z" transform="translate(-151.649 -62.074)"/><line y1="18.158" transform="translate(147.03 144.045)" fill="none" stroke="#000" stroke-linecap="round" stroke-linejoin="round" stroke-width="2"/><path d="M271.558,197.9l-2.865,1.744-.064-.1,1.856-4.669L271.558,190l1.073,4.879,1.856,4.657-.048.1Z" transform="translate(-124.529 -52.432)"/><line y1="18.158" transform="translate(183.585 144.045)" fill="none" stroke="#000" stroke-linecap="round" stroke-linejoin="round" stroke-width="2"/><path d="M363.558,197.9l-2.865,1.744-.064-.1,1.856-4.669L363.558,190l1.073,4.879,1.856,4.657-.048.1Z" transform="translate(-179.974 -52.432)"/><line y1="29.681" transform="translate(280.534 202.056)" fill="none" stroke="#000" stroke-linecap="round" stroke-linejoin="round" stroke-width="2"/><path d="M607.558,343.9l-2.865,1.744-.064-.1,1.856-4.669L607.558,336l1.073,4.879,1.856,4.657-.048.1Z" transform="translate(-327.024 -140.421)"/><line y1="29.681" transform="translate(299.607 216.36)" fill="none" stroke="#000" stroke-linecap="round" stroke-linejoin="round" stroke-width="2"/><path d="M655.558,379.9l-2.865,1.744-.064-.1,1.856-4.669L655.558,372l1.073,4.879,1.856,4.657-.048.1Z" transform="translate(-355.952 -162.117)"/><line y1="29.681" transform="translate(318.281 202.056)" fill="none" stroke="#000" stroke-linecap="round" stroke-linejoin="round" stroke-width="2"/><path d="M702.558,343.9l-2.865,1.744-.064-.1,1.856-4.669L702.558,336l1.073,4.879,1.856,4.657-.048.1Z" transform="translate(-384.277 -140.421)"/><line y1="18.158" transform="translate(298.415 152.389)" fill="none" stroke="#000" stroke-linecap="round" stroke-linejoin="round" stroke-width="2"/><path d="M652.558,218.9l-2.865,1.744-.064-.1,1.855-4.669L652.558,211l1.073,4.879,1.856,4.657-.048.1Z" transform="translate(-354.144 -65.088)"/><line y1="18.158" transform="translate(280.534 146.031)" fill="none" stroke="#000" stroke-linecap="round" stroke-linejoin="round" stroke-width="2"/><path d="M607.558,202.9l-2.865,1.744-.064-.1,1.856-4.669L607.558,195l1.073,4.879,1.856,4.657-.048.1Z" transform="translate(-327.024 -55.445)"/><line y1="18.158" transform="translate(317.089 146.031)" fill="none" stroke="#000" stroke-linecap="round" stroke-linejoin="round" stroke-width="2"/><path d="M699.558,202.9l-2.865,1.744-.064-.1,1.856-4.669L699.558,195l1.073,4.879,1.856,4.657-.048.1Z" transform="translate(-382.469 -55.445)"/><line y2="29.681" transform="translate(219.345 195.579)" fill="none" stroke="#000" stroke-linecap="round" stroke-linejoin="round" stroke-width="2"/><path d="M453.558,404.464l2.865-1.744.064.1-1.856,4.669-1.073,4.879-1.073-4.879-1.856-4.657.048-.1Z" transform="translate(-234.214 -180.631)"/><line y2="29.681" transform="translate(244.774 195.579)" fill="none" stroke="#000" stroke-linecap="round" stroke-linejoin="round" stroke-width="2"/><path d="M517.558,404.464l2.865-1.744.064.1-1.856,4.669-1.073,4.879-1.073-4.879-1.856-4.657.048-.1Z" transform="translate(-272.784 -180.631)"/><path d="M469.481,212.15S464.657,192.8,458.59,215" transform="translate(-239.011 -61.073)" fill="none" stroke="#000" stroke-linecap="round" stroke-linejoin="round" stroke-width="2"/><path d="M455.924,224.09l3.2-.993.04.111-2.932,4.077L454,231.747q.076-2.5.147-4.995l-.668-4.979.072-.083Z" transform="translate(-235.931 -71.53)"/><path d="M495.36,212.668s4.824-19.35,10.891,2.849" transform="translate(-261.171 -61.383)" fill="none" stroke="#000" stroke-linecap="round" stroke-linejoin="round" stroke-width="2"/><path d="M516.818,224.634l2.356-2.384.087.076-.667,4.991.143,4.995q-1.109-2.241-2.225-4.474l-2.932-4.1.024-.1Z" transform="translate(-272.151 -71.868)"/><line x2="26.105" transform="translate(480.792 426.828)" fill="none" stroke="#000" stroke-miterlimit="10" stroke-width="2"/><path d="M1175.464,913.558l-1.744-2.865.1-.064,4.669,1.856,4.879,1.073-4.879,1.073-4.657,1.855-.1-.048Z" transform="translate(-669.994 -486.73)"/><line x2="26.105" transform="translate(415.628 129.621)" fill="none" stroke="#000" stroke-miterlimit="10" stroke-width="2"/><path d="M1011.464,165.558l-1.744-2.865.1-.064,4.669,1.856,4.879,1.073-4.879,1.073-4.657,1.856-.1-.048Z" transform="translate(-571.157 -35.937)"/><line x2="26.105" transform="translate(62 180.878)" fill="none" stroke="#000" stroke-miterlimit="10" stroke-width="2"/><path d="M121.464,294.558l-1.744-2.865.1-.064,4.669,1.856,4.879,1.073-4.879,1.073-4.657,1.856-.1-.048Z" transform="translate(-34.786 -113.681)"/><circle cx="0.795" cy="0.795" r="0.795" transform="translate(200.869 363.453)"/><path d="M411.993,758.4a.6.6,0,1,1-.6.6.6.6,0,0,1,.6-.6m0-.4a.993.993,0,1,0,.993.993A.993.993,0,0,0,411.993,758Z" transform="translate(-210.33 -394.745)"/><circle cx="0.795" cy="0.795" r="0.795" transform="translate(205.239 363.453)"/><path d="M422.993,758.4a.6.6,0,1,1-.6.6.6.6,0,0,1,.6-.6m0-.4a.993.993,0,1,0,.993.993A.993.993,0,0,0,422.993,758Z" transform="translate(-216.959 -394.745)"/><circle cx="0.795" cy="0.795" r="0.795" transform="translate(206.034 365.44)"/><path d="M424.993,763.4a.6.6,0,1,1-.6.6.6.6,0,0,1,.6-.6m0-.4a.993.993,0,1,0,.993.993A.993.993,0,0,0,424.993,763Z" transform="translate(-218.165 -397.759)"/><circle cx="0.795" cy="0.795" r="0.795" transform="translate(210.405 365.44)"/><path d="M435.993,763.4a.6.6,0,1,1-.6.6.6.6,0,0,1,.6-.6m0-.4a.993.993,0,1,0,.993.993A.993.993,0,0,0,435.993,763Z" transform="translate(-224.794 -397.759)"/><circle cx="0.795" cy="0.795" r="0.795" transform="translate(213.981 361.467)"/><path d="M444.993,753.4a.6.6,0,1,1-.6.6.6.6,0,0,1,.6-.6m0-.4a.993.993,0,1,0,.993.993A.993.993,0,0,0,444.993,753Z" transform="translate(-230.218 -391.732)"/><circle cx="0.795" cy="0.795" r="0.795" transform="translate(218.351 361.467)"/><path d="M455.993,753.4a.6.6,0,1,1-.6.6.6.6,0,0,1,.6-.6m0-.4a.993.993,0,1,0,.993.993A.993.993,0,0,0,455.993,753Z" transform="translate(-236.847 -391.732)"/><circle cx="0.795" cy="0.795" r="0.795" transform="translate(211.994 372.195)"/><path d="M439.993,780.4a.6.6,0,1,1-.6.6.6.6,0,0,1,.6-.6m0-.4a.993.993,0,1,0,.993.993A.993.993,0,0,0,439.993,780Z" transform="translate(-227.205 -408.004)"/><circle cx="0.795" cy="0.795" r="0.795" transform="translate(208.418 371.4)"/><path d="M430.993,778.4a.6.6,0,1,1-.6.6.6.6,0,0,1,.6-.6m0-.4a.993.993,0,1,0,.993.993A.993.993,0,0,0,430.993,778Z" transform="translate(-221.781 -406.799)"/><circle cx="0.795" cy="0.795" r="0.795" transform="translate(210.405 373.784)"/><path d="M435.993,784.4a.6.6,0,1,1-.6.6.6.6,0,0,1,.6-.6m0-.4a.993.993,0,1,0,.993.993A.993.993,0,0,0,435.993,784Z" transform="translate(-224.794 -410.415)"/><circle cx="0.795" cy="0.795" r="0.795" transform="translate(216.365 372.195)"/><path d="M450.993,780.4a.6.6,0,1,1-.6.6.6.6,0,0,1,.6-.6m0-.4a.993.993,0,1,0,.993.993A.993.993,0,0,0,450.993,780Z" transform="translate(-233.834 -408.004)"/><circle cx="0.795" cy="0.795" r="0.795" transform="translate(206.034 368.619)"/><path d="M424.993,771.4a.6.6,0,1,1-.6.6.6.6,0,0,1,.6-.6m0-.4a.993.993,0,1,0,.993.993A.993.993,0,0,0,424.993,771Z" transform="translate(-218.165 -402.58)"/><circle cx="0.795" cy="0.795" r="0.795" transform="translate(210.405 368.619)"/><path d="M435.993,771.4a.6.6,0,1,1-.6.6.6.6,0,0,1,.6-.6m0-.4a.993.993,0,1,0,.993.993A.993.993,0,0,0,435.993,771Z" transform="translate(-224.794 -402.58)"/><circle cx="0.795" cy="0.795" r="0.795" transform="translate(222.722 373.387)"/><path d="M466.993,783.4a.6.6,0,1,1-.6.6.6.6,0,0,1,.6-.6m0-.4a.993.993,0,1,0,.993.993A.993.993,0,0,0,466.993,783Z" transform="translate(-243.477 -409.812)"/><circle cx="0.795" cy="0.795" r="0.795" transform="translate(227.093 373.387)"/><path d="M477.993,783.4a.6.6,0,1,1-.6.6.6.6,0,0,1,.6-.6m0-.4a.993.993,0,1,0,.993.993A.993.993,0,0,0,477.993,783Z" transform="translate(-250.106 -409.812)"/><circle cx="0.795" cy="0.795" r="0.795" transform="translate(220.735 384.115)"/><path d="M461.993,810.4a.6.6,0,1,1-.6.6.6.6,0,0,1,.6-.6m0-.4a.993.993,0,1,0,.993.993A.993.993,0,0,0,461.993,810Z" transform="translate(-240.463 -426.084)"/><circle cx="0.795" cy="0.795" r="0.795" transform="translate(223.914 385.307)"/><path d="M469.993,813.4a.6.6,0,1,1-.6.6.6.6,0,0,1,.6-.6m0-.4a.993.993,0,1,0,.993.993A.993.993,0,0,0,469.993,813Z" transform="translate(-245.285 -427.892)"/><circle cx="0.795" cy="0.795" r="0.795" transform="translate(221.53 370.605)"/><path d="M463.993,776.4a.6.6,0,1,1-.6.6.6.6,0,0,1,.6-.6m0-.4a.993.993,0,1,0,.993.993A.993.993,0,0,0,463.993,776Z" transform="translate(-241.669 -405.593)"/><circle cx="0.795" cy="0.795" r="0.795" transform="translate(225.901 370.605)"/><path d="M474.993,776.4a.6.6,0,1,1-.6.6.6.6,0,0,1,.6-.6m0-.4a.993.993,0,1,0,.993.993A.993.993,0,0,0,474.993,776Z" transform="translate(-248.298 -405.593)"/><circle cx="0.795" cy="0.795" r="0.795" transform="translate(219.543 381.333)"/><path d="M458.993,803.4a.6.6,0,1,1-.6.6.6.6,0,0,1,.6-.6m0-.4a.993.993,0,1,0,.993.993A.993.993,0,0,0,458.993,803Z" transform="translate(-238.655 -421.865)"/><circle cx="0.795" cy="0.795" r="0.795" transform="translate(223.914 381.333)"/><path d="M469.993,803.4a.6.6,0,1,1-.6.6.6.6,0,0,1,.6-.6m0-.4a.993.993,0,1,0,.993.993A.993.993,0,0,0,469.993,803Z" transform="translate(-245.285 -421.865)"/><circle cx="0.795" cy="0.795" r="0.795" transform="translate(227.888 369.016)"/><path d="M479.993,772.4a.6.6,0,1,1-.6.6.6.6,0,0,1,.6-.6m0-.4a.993.993,0,1,0,.993.993A.993.993,0,0,0,479.993,772Z" transform="translate(-251.311 -403.183)"/><circle cx="0.795" cy="0.795" r="0.795" transform="translate(232.258 369.016)"/><path d="M490.993,772.4a.6.6,0,1,1-.6.6.6.6,0,0,1,.6-.6m0-.4a.993.993,0,1,0,.993.993A.993.993,0,0,0,490.993,772Z" transform="translate(-257.94 -403.183)"/><circle cx="0.795" cy="0.795" r="0.795" transform="translate(225.901 379.744)"/><path d="M474.993,799.4a.6.6,0,1,1-.6.6.6.6,0,0,1,.6-.6m0-.4a.993.993,0,1,0,.993.993A.993.993,0,0,0,474.993,799Z" transform="translate(-248.298 -419.455)"/><circle cx="0.795" cy="0.795" r="0.795" transform="translate(230.272 379.744)"/><path d="M485.993,799.4a.6.6,0,1,1-.6.6.6.6,0,0,1,.6-.6m0-.4a.993.993,0,1,0,.993.993A.993.993,0,0,0,485.993,799Z" transform="translate(-254.927 -419.455)"/><circle cx="0.795" cy="0.795" r="0.795" transform="translate(217.557 368.221)"/><path d="M453.993,770.4a.6.6,0,1,1-.6.6.6.6,0,0,1,.6-.6m0-.4a.993.993,0,1,0,.993.993A.993.993,0,0,0,453.993,770Z" transform="translate(-235.642 -401.977)"/><circle cx="0.795" cy="0.795" r="0.795" transform="translate(221.927 368.221)"/><path d="M464.993,770.4a.6.6,0,1,1-.6.6.6.6,0,0,1,.6-.6m0-.4a.993.993,0,1,0,.993.993A.993.993,0,0,0,464.993,770Z" transform="translate(-242.271 -401.977)"/><circle cx="0.795" cy="0.795" r="0.795" transform="translate(215.57 378.949)"/><path d="M448.993,797.4a.6.6,0,1,1-.6.6.6.6,0,0,1,.6-.6m0-.4a.993.993,0,1,0,.993.993A.993.993,0,0,0,448.993,797Z" transform="translate(-232.629 -418.249)"/><circle cx="0.795" cy="0.795" r="0.795" transform="translate(219.941 378.949)"/><path d="M459.993,797.4a.6.6,0,1,1-.6.6.6.6,0,0,1,.6-.6m0-.4a.993.993,0,1,0,.993.993A.993.993,0,0,0,459.993,797Z" transform="translate(-239.258 -418.249)"/><circle cx="0.795" cy="0.795" r="0.795" transform="translate(231.066 365.837)"/><path d="M487.993,764.4a.6.6,0,1,1-.6.6.6.6,0,0,1,.6-.6m0-.4a.993.993,0,1,0,.993.993A.993.993,0,0,0,487.993,764Z" transform="translate(-256.132 -398.361)"/><circle cx="0.795" cy="0.795" r="0.795" transform="translate(235.437 365.837)"/><path d="M498.993,764.4a.6.6,0,1,1-.6.6.6.6,0,0,1,.6-.6m0-.4a.993.993,0,1,0,.993.993A.993.993,0,0,0,498.993,764Z" transform="translate(-262.762 -398.361)"/><circle cx="0.795" cy="0.795" r="0.795" transform="translate(229.08 376.565)"/><path d="M482.993,791.4a.6.6,0,1,1-.6.6.6.6,0,0,1,.6-.6m0-.4a.993.993,0,1,0,.993.993A.993.993,0,0,0,482.993,791Z" transform="translate(-253.119 -414.633)"/><circle cx="0.795" cy="0.795" r="0.795" transform="translate(233.45 376.565)"/><path d="M493.993,791.4a.6.6,0,1,1-.6.6.6.6,0,0,1,.6-.6m0-.4a.993.993,0,1,0,.993.993A.993.993,0,0,0,493.993,791Z" transform="translate(-259.748 -414.633)"/><circle cx="0.795" cy="0.795" r="0.795" transform="translate(232.258 363.453)"/><path d="M490.993,758.4a.6.6,0,1,1-.6.6.6.6,0,0,1,.6-.6m0-.4a.993.993,0,1,0,.993.993A.993.993,0,0,0,490.993,758Z" transform="translate(-257.94 -394.745)"/><circle cx="0.795" cy="0.795" r="0.795" transform="translate(236.629 363.453)"/><path d="M501.993,758.4a.6.6,0,1,1-.6.6.6.6,0,0,1,.6-.6m0-.4a.993.993,0,1,0,.993.993A.993.993,0,0,0,501.993,758Z" transform="translate(-264.57 -394.745)"/><circle cx="0.795" cy="0.795" r="0.795" transform="translate(230.272 374.181)"/><path d="M485.993,785.4a.6.6,0,1,1-.6.6.6.6,0,0,1,.6-.6m0-.4a.993.993,0,1,0,.993.993A.993.993,0,0,0,485.993,785Z" transform="translate(-254.927 -411.017)"/><circle cx="0.795" cy="0.795" r="0.795" transform="translate(234.642 374.181)"/><path d="M496.993,785.4a.6.6,0,1,1-.6.6.6.6,0,0,1,.6-.6m0-.4a.993.993,0,1,0,.993.993A.993.993,0,0,0,496.993,785Z" transform="translate(-261.556 -411.017)"/><circle cx="0.795" cy="0.795" r="0.795" transform="translate(235.04 361.864)"/><path d="M497.993,754.4a.6.6,0,1,1-.6.6.6.6,0,0,1,.6-.6m0-.4a.993.993,0,1,0,.993.993A.993.993,0,0,0,497.993,754Z" transform="translate(-262.159 -392.335)"/><circle cx="0.795" cy="0.795" r="0.795" transform="translate(239.41 361.864)"/><path d="M508.993,754.4a.6.6,0,1,1-.6.6.6.6,0,0,1,.6-.6m0-.4a.993.993,0,1,0,.993.993A.993.993,0,0,0,508.993,754Z" transform="translate(-268.788 -392.335)"/><circle cx="0.795" cy="0.795" r="0.795" transform="translate(233.053 372.592)"/><path d="M492.993,781.4a.6.6,0,1,1-.6.6.6.6,0,0,1,.6-.6m0-.4a.993.993,0,1,0,.993.993A.993.993,0,0,0,492.993,781Z" transform="translate(-259.146 -408.607)"/><circle cx="0.795" cy="0.795" r="0.795" transform="translate(237.424 372.592)"/><path d="M503.993,781.4a.6.6,0,1,1-.6.6.6.6,0,0,1,.6-.6m0-.4a.993.993,0,1,0,.993.993A.993.993,0,0,0,503.993,781Z" transform="translate(-265.775 -408.607)"/><circle cx="0.795" cy="0.795" r="0.795" transform="translate(222.722 365.44)"/><path d="M466.993,763.4a.6.6,0,1,1-.6.6.6.6,0,0,1,.6-.6m0-.4a.993.993,0,1,0,.993.993A.993.993,0,0,0,466.993,763Z" transform="translate(-243.477 -397.759)"/><circle cx="0.795" cy="0.795" r="0.795" transform="translate(227.093 365.44)"/><path d="M477.993,763.4a.6.6,0,1,1-.6.6.6.6,0,0,1,.6-.6m0-.4a.993.993,0,1,0,.993.993A.993.993,0,0,0,477.993,763Z" transform="translate(-250.106 -397.759)"/><circle cx="0.795" cy="0.795" r="0.795" transform="translate(220.735 376.168)"/><path d="M461.993,790.4a.6.6,0,1,1-.6.6.6.6,0,0,1,.6-.6m0-.4a.993.993,0,1,0,.993.993A.993.993,0,0,0,461.993,790Z" transform="translate(-240.463 -414.031)"/><circle cx="0.795" cy="0.795" r="0.795" transform="translate(225.106 376.168)"/><path d="M472.993,790.4a.6.6,0,1,1-.6.6.6.6,0,0,1,.6-.6m0-.4a.993.993,0,1,0,.993.993A.993.993,0,0,0,472.993,790Z" transform="translate(-247.092 -414.031)"/><circle cx="0.795" cy="0.795" r="0.795" transform="translate(213.981 365.44)"/><path d="M444.993,763.4a.6.6,0,1,1-.6.6.6.6,0,0,1,.6-.6m0-.4a.993.993,0,1,0,.993.993A.993.993,0,0,0,444.993,763Z" transform="translate(-230.218 -397.759)"/><circle cx="0.795" cy="0.795" r="0.795" transform="translate(218.351 365.44)"/><path d="M455.993,763.4a.6.6,0,1,1-.6.6.6.6,0,0,1,.6-.6m0-.4a.993.993,0,1,0,.993.993A.993.993,0,0,0,455.993,763Z" transform="translate(-236.847 -397.759)"/><circle cx="0.795" cy="0.795" r="0.795" transform="translate(211.994 376.168)"/><path d="M439.993,790.4a.6.6,0,1,1-.6.6.6.6,0,0,1,.6-.6m0-.4a.993.993,0,1,0,.993.993A.993.993,0,0,0,439.993,790Z" transform="translate(-227.205 -414.031)"/><circle cx="0.795" cy="0.795" r="0.795" transform="translate(216.365 376.168)"/><path d="M450.993,790.4a.6.6,0,1,1-.6.6.6.6,0,0,1,.6-.6m0-.4a.993.993,0,1,0,.993.993A.993.993,0,0,0,450.993,790Z" transform="translate(-233.834 -414.031)"/><circle cx="0.795" cy="0.795" r="0.795" transform="translate(220.735 363.851)"/><path d="M461.993,759.4a.6.6,0,1,1-.6.6.6.6,0,0,1,.6-.6m0-.4a.993.993,0,1,0,.993.993A.993.993,0,0,0,461.993,759Z" transform="translate(-240.463 -395.348)"/><circle cx="0.795" cy="0.795" r="0.795" transform="translate(225.106 363.851)"/><path d="M472.993,759.4a.6.6,0,1,1-.6.6.6.6,0,0,1,.6-.6m0-.4a.993.993,0,1,0,.993.993A.993.993,0,0,0,472.993,759Z" transform="translate(-247.092 -395.348)"/><circle cx="0.795" cy="0.795" r="0.795" transform="translate(221.927 361.467)"/><path d="M464.993,753.4a.6.6,0,1,1-.6.6.6.6,0,0,1,.6-.6m0-.4a.993.993,0,1,0,.993.993A.993.993,0,0,0,464.993,753Z" transform="translate(-242.271 -391.732)"/><circle cx="0.795" cy="0.795" r="0.795" transform="translate(226.298 361.467)"/><path d="M475.993,753.4a.6.6,0,1,1-.6.6.6.6,0,0,1,.6-.6m0-.4a.993.993,0,1,0,.993.993A.993.993,0,0,0,475.993,753Z" transform="translate(-248.9 -391.732)"/><circle cx="0.795" cy="0.795" r="0.795" transform="translate(241.397 364.248)"/><path d="M513.993,760.4a.6.6,0,1,1-.6.6.6.6,0,0,1,.6-.6m0-.4a.993.993,0,1,0,.993.993A.993.993,0,0,0,513.993,760Z" transform="translate(-271.802 -395.951)"/><circle cx="0.795" cy="0.795" r="0.795" transform="translate(245.768 364.248)"/><path d="M524.993,760.4a.6.6,0,1,1-.6.6.6.6,0,0,1,.6-.6m0-.4a.993.993,0,1,0,.993.993A.993.993,0,0,0,524.993,760Z" transform="translate(-278.431 -395.951)"/><circle cx="0.795" cy="0.795" r="0.795" transform="translate(242.589 361.864)"/><path d="M516.993,754.4a.6.6,0,1,1-.6.6.6.6,0,0,1,.6-.6m0-.4a.993.993,0,1,0,.993.993A.993.993,0,0,0,516.993,754Z" transform="translate(-273.61 -392.335)"/><circle cx="0.795" cy="0.795" r="0.795" transform="translate(246.96 361.864)"/><path d="M527.993,754.4a.6.6,0,1,1-.6.6.6.6,0,0,1,.6-.6m0-.4a.993.993,0,1,0,.993.993A.993.993,0,0,0,527.993,754Z" transform="translate(-280.239 -392.335)"/><circle cx="0.795" cy="0.795" r="0.795" transform="translate(248.946 364.645)"/><path d="M532.993,761.4a.6.6,0,1,1-.6.6.6.6,0,0,1,.6-.6m0-.4a.993.993,0,1,0,.993.993A.993.993,0,0,0,532.993,761Z" transform="translate(-283.252 -396.553)"/><circle cx="0.795" cy="0.795" r="0.795" transform="translate(253.317 364.645)"/><path d="M543.993,761.4a.6.6,0,1,1-.6.6.6.6,0,0,1,.6-.6m0-.4a.993.993,0,1,0,.993.993A.993.993,0,0,0,543.993,761Z" transform="translate(-289.882 -396.553)"/><circle cx="0.795" cy="0.795" r="0.795" transform="translate(250.138 362.261)"/><path d="M535.993,755.4a.6.6,0,1,1-.6.6.6.6,0,0,1,.6-.6m0-.4a.993.993,0,1,0,.993.993A.993.993,0,0,0,535.993,755Z" transform="translate(-285.06 -392.937)"/><circle cx="0.795" cy="0.795" r="0.795" transform="translate(254.509 362.261)"/><path d="M546.993,755.4a.6.6,0,1,1-.6.6.6.6,0,0,1,.6-.6m0-.4a.993.993,0,1,0,.993.993A.993.993,0,0,0,546.993,755Z" transform="translate(-291.69 -392.937)"/><circle cx="0.795" cy="0.795" r="0.795" transform="translate(236.629 369.016)"/><path d="M501.993,772.4a.6.6,0,1,1-.6.6.6.6,0,0,1,.6-.6m0-.4a.993.993,0,1,0,.993.993A.993.993,0,0,0,501.993,772Z" transform="translate(-264.57 -403.183)"/><circle cx="0.795" cy="0.795" r="0.795" transform="translate(241 369.016)"/><path d="M512.993,772.4a.6.6,0,1,1-.6.6.6.6,0,0,1,.6-.6m0-.4a.993.993,0,1,0,.993.993A.993.993,0,0,0,512.993,772Z" transform="translate(-271.199 -403.183)"/><circle cx="0.795" cy="0.795" r="0.795" transform="translate(240.602 371.4)"/><path d="M511.993,778.4a.6.6,0,1,1-.6.6.6.6,0,0,1,.6-.6m0-.4a.993.993,0,1,0,.993.993A.993.993,0,0,0,511.993,778Z" transform="translate(-270.596 -406.799)"/><circle cx="0.795" cy="0.795" r="0.795" transform="translate(237.821 366.632)"/><path d="M504.993,766.4a.6.6,0,1,1-.6.6.6.6,0,0,1,.6-.6m0-.4a.993.993,0,1,0,.993.993A.993.993,0,0,0,504.993,766Z" transform="translate(-266.378 -399.567)"/><circle cx="0.795" cy="0.795" r="0.795" transform="translate(242.192 366.632)"/><path d="M515.993,766.4a.6.6,0,1,1-.6.6.6.6,0,0,1,.6-.6m0-.4a.993.993,0,1,0,.993.993A.993.993,0,0,0,515.993,766Z" transform="translate(-273.007 -399.567)"/><circle cx="0.795" cy="0.795" r="0.795" transform="translate(244.178 369.413)"/><path d="M520.993,773.4a.6.6,0,1,1-.6.6.6.6,0,0,1,.6-.6m0-.4a.993.993,0,1,0,.993.993A.993.993,0,0,0,520.993,773Z" transform="translate(-276.02 -403.785)"/><circle cx="0.795" cy="0.795" r="0.795" transform="translate(248.549 369.413)"/><path d="M531.993,773.4a.6.6,0,1,1-.6.6.6.6,0,0,1,.6-.6m0-.4a.993.993,0,1,0,.993.993A.993.993,0,0,0,531.993,773Z" transform="translate(-282.65 -403.785)"/><circle cx="0.795" cy="0.795" r="0.795" transform="translate(245.37 367.029)"/><path d="M523.993,767.4a.6.6,0,1,1-.6.6.6.6,0,0,1,.6-.6m0-.4a.993.993,0,1,0,.993.993A.993.993,0,0,0,523.993,767Z" transform="translate(-277.828 -400.169)"/><circle cx="0.795" cy="0.795" r="0.795" transform="translate(249.741 367.029)"/><path d="M534.993,767.4a.6.6,0,1,1-.6.6.6.6,0,0,1,.6-.6m0-.4a.993.993,0,1,0,.993.993A.993.993,0,0,0,534.993,767Z" transform="translate(-284.458 -400.169)"/><circle cx="0.795" cy="0.795" r="0.795" transform="translate(256.496 364.248)"/><path d="M551.993,760.4a.6.6,0,1,1-.6.6.6.6,0,0,1,.6-.6m0-.4a.993.993,0,1,0,.993.993A.993.993,0,0,0,551.993,760Z" transform="translate(-294.703 -395.951)"/><circle cx="0.795" cy="0.795" r="0.795" transform="translate(260.866 364.248)"/><path d="M562.993,760.4a.6.6,0,1,1-.6.6.6.6,0,0,1,.6-.6m0-.4a.993.993,0,1,0,.993.993A.993.993,0,0,0,562.993,760Z" transform="translate(-301.332 -395.951)"/><circle cx="0.795" cy="0.795" r="0.795" transform="translate(257.688 361.864)"/><path d="M554.993,754.4a.6.6,0,1,1-.6.6.6.6,0,0,1,.6-.6m0-.4a.993.993,0,1,0,.993.993A.993.993,0,0,0,554.993,754Z" transform="translate(-296.511 -392.335)"/><circle cx="0.795" cy="0.795" r="0.795" transform="translate(262.058 361.864)"/><path d="M565.993,754.4a.6.6,0,1,1-.6.6.6.6,0,0,1,.6-.6m0-.4a.993.993,0,1,0,.993.993A.993.993,0,0,0,565.993,754Z" transform="translate(-303.14 -392.335)"/><circle cx="0.795" cy="0.795" r="0.795" transform="translate(251.728 370.208)"/><path d="M539.993,775.4a.6.6,0,1,1-.6.6.6.6,0,0,1,.6-.6m0-.4a.993.993,0,1,0,.993.993A.993.993,0,0,0,539.993,775Z" transform="translate(-287.471 -404.991)"/><circle cx="0.795" cy="0.795" r="0.795" transform="translate(256.098 370.208)"/><path d="M550.993,775.4a.6.6,0,1,1-.6.6.6.6,0,0,1,.6-.6m0-.4a.993.993,0,1,0,.993.993A.993.993,0,0,0,550.993,775Z" transform="translate(-294.1 -404.991)"/><circle cx="0.795" cy="0.795" r="0.795" transform="translate(252.92 367.824)"/><path d="M542.993,769.4a.6.6,0,1,1-.6.6.6.6,0,0,1,.6-.6m0-.4a.993.993,0,1,0,.993.993A.993.993,0,0,0,542.993,769Z" transform="translate(-289.279 -401.375)"/><circle cx="0.795" cy="0.795" r="0.795" transform="translate(257.29 367.824)"/><path d="M553.993,769.4a.6.6,0,1,1-.6.6.6.6,0,0,1,.6-.6m0-.4a.993.993,0,1,0,.993.993A.993.993,0,0,0,553.993,769Z" transform="translate(-295.908 -401.375)"/><circle cx="0.795" cy="0.795" r="0.795" transform="translate(258.88 366.235)"/><path d="M557.993,765.4a.6.6,0,1,1-.6.6.6.6,0,0,1,.6-.6m0-.4a.993.993,0,1,0,.993.993A.993.993,0,0,0,557.993,765Z" transform="translate(-298.319 -398.964)"/><circle cx="0.795" cy="0.795" r="0.795" transform="translate(197.69 360.672)"/><path d="M403.993,751.4a.6.6,0,1,1-.6.6.6.6,0,0,1,.6-.6m0-.4a.993.993,0,1,0,.993.993A.993.993,0,0,0,403.993,751Z" transform="translate(-205.509 -390.527)"/><circle cx="0.795" cy="0.795" r="0.795" transform="translate(202.061 360.672)"/><path d="M414.993,751.4a.6.6,0,1,1-.6.6.6.6,0,0,1,.6-.6m0-.4a.993.993,0,1,0,.993.993A.993.993,0,0,0,414.993,751Z" transform="translate(-212.138 -390.527)"/><circle cx="0.795" cy="0.795" r="0.795" transform="translate(206.034 360.672)"/><path d="M424.993,751.4a.6.6,0,1,1-.6.6.6.6,0,0,1,.6-.6m0-.4a.993.993,0,1,0,.993.993A.993.993,0,0,0,424.993,751Z" transform="translate(-218.165 -390.527)"/><circle cx="0.795" cy="0.795" r="0.795" transform="translate(210.405 360.672)"/><path d="M435.993,751.4a.6.6,0,1,1-.6.6.6.6,0,0,1,.6-.6m0-.4a.993.993,0,1,0,.993.993A.993.993,0,0,0,435.993,751Z" transform="translate(-224.794 -390.527)"/><circle cx="0.795" cy="0.795" r="0.795" transform="translate(209.213 363.453)"/><path d="M432.993,758.4a.6.6,0,1,1-.6.6.6.6,0,0,1,.6-.6m0-.4a.993.993,0,1,0,.993.993A.993.993,0,0,0,432.993,758Z" transform="translate(-222.986 -394.745)"/><circle cx="0.795" cy="0.795" r="0.795" transform="translate(230.272 361.864)"/><path d="M485.993,754.4a.6.6,0,1,1-.6.6.6.6,0,0,1,.6-.6m0-.4a.993.993,0,1,0,.993.993A.993.993,0,0,0,485.993,754Z" transform="translate(-254.927 -392.335)"/><circle cx="0.795" cy="0.795" r="0.795" transform="translate(203.253 366.235)"/><path d="M417.993,765.4a.6.6,0,1,1-.6.6.6.6,0,0,1,.6-.6m0-.4a.993.993,0,1,0,.993.993A.993.993,0,0,0,417.993,765Z" transform="translate(-213.946 -398.964)"/><circle cx="0.795" cy="0.795" r="0.795" transform="translate(213.981 369.016)"/><path d="M444.993,772.4a.6.6,0,1,1-.6.6.6.6,0,0,1,.6-.6m0-.4a.993.993,0,1,0,.993.993A.993.993,0,0,0,444.993,772Z" transform="translate(-230.218 -403.183)"/><circle cx="0.795" cy="0.795" r="0.795" transform="translate(264.84 364.248)"/><path d="M572.993,760.4a.6.6,0,1,1-.6.6.6.6,0,0,1,.6-.6m0-.4a.993.993,0,1,0,.993.993A.993.993,0,0,0,572.993,760Z" transform="translate(-307.359 -395.951)"/><circle cx="0.795" cy="0.795" r="0.795" transform="translate(266.032 361.864)"/><path d="M575.993,754.4a.6.6,0,1,1-.6.6.6.6,0,0,1,.6-.6m0-.4a.993.993,0,1,0,.993.993A.993.993,0,0,0,575.993,754Z" transform="translate(-309.167 -392.335)"/><circle cx="0.795" cy="0.795" r="0.795" transform="translate(260.072 370.208)"/><path d="M560.993,775.4a.6.6,0,1,1-.6.6.6.6,0,0,1,.6-.6m0-.4a.993.993,0,1,0,.993.993A.993.993,0,0,0,560.993,775Z" transform="translate(-300.127 -404.991)"/><circle cx="0.795" cy="0.795" r="0.795" transform="translate(261.264 367.824)"/><path d="M563.993,769.4a.6.6,0,1,1-.6.6.6.6,0,0,1,.6-.6m0-.4a.993.993,0,1,0,.993.993A.993.993,0,0,0,563.993,769Z" transform="translate(-301.935 -401.375)"/><circle cx="0.795" cy="0.795" r="0.795" transform="translate(262.853 366.235)"/><path d="M567.993,765.4a.6.6,0,1,1-.6.6.6.6,0,0,1,.6-.6m0-.4a.993.993,0,1,0,.993.993A.993.993,0,0,0,567.993,765Z" transform="translate(-304.346 -398.964)"/><circle cx="0.795" cy="0.795" r="0.795" transform="translate(225.901 383.32)"/><path d="M474.993,808.4a.6.6,0,1,1-.6.6.6.6,0,0,1,.6-.6m0-.4a.993.993,0,1,0,.993.993A.993.993,0,0,0,474.993,808Z" transform="translate(-248.298 -424.879)"/><circle cx="0.795" cy="0.795" r="0.795" transform="translate(229.477 382.128)"/><path d="M483.993,805.4a.6.6,0,1,1-.6.6.6.6,0,0,1,.6-.6m0-.4a.993.993,0,1,0,.993.993A.993.993,0,0,0,483.993,805Z" transform="translate(-253.722 -423.071)"/><circle cx="0.795" cy="0.795" r="0.795" transform="translate(248.549 381.333)"/><path d="M531.993,803.4a.6.6,0,1,1-.6.6.6.6,0,0,1,.6-.6m0-.4a.993.993,0,1,0,.993.993A.993.993,0,0,0,531.993,803Z" transform="translate(-282.65 -421.865)"/><circle cx="0.795" cy="0.795" r="0.795" transform="translate(245.37 381.333)"/><path d="M523.993,803.4a.6.6,0,1,1-.6.6.6.6,0,0,1,.6-.6m0-.4a.993.993,0,1,0,.993.993A.993.993,0,0,0,523.993,803Z" transform="translate(-277.828 -421.865)"/><circle cx="0.795" cy="0.795" r="0.795" transform="translate(242.986 382.923)"/><path d="M517.993,807.4a.6.6,0,1,1-.6.6.6.6,0,0,1,.6-.6m0-.4a.993.993,0,1,0,.993.993A.993.993,0,0,0,517.993,807Z" transform="translate(-274.212 -424.276)"/><circle cx="0.795" cy="0.795" r="0.795" transform="translate(246.562 383.32)"/><path d="M526.993,808.4a.6.6,0,1,1-.6.6.6.6,0,0,1,.6-.6m0-.4a.993.993,0,1,0,.993.993A.993.993,0,0,0,526.993,808Z" transform="translate(-279.636 -424.879)"/><circle cx="0.795" cy="0.795" r="0.795" transform="translate(242.192 384.909)"/><path d="M515.993,812.4a.6.6,0,1,1-.6.6.6.6,0,0,1,.6-.6m0-.4a.993.993,0,1,0,.993.993A.993.993,0,0,0,515.993,812Z" transform="translate(-273.007 -427.289)"/><circle cx="0.795" cy="0.795" r="0.795" transform="translate(244.973 384.909)"/><path d="M522.993,812.4a.6.6,0,1,1-.6.6.6.6,0,0,1,.6-.6m0-.4a.993.993,0,1,0,.993.993A.993.993,0,0,0,522.993,812Z" transform="translate(-277.226 -427.289)"/><circle cx="0.795" cy="0.795" r="0.795" transform="translate(228.285 384.909)"/><path d="M480.993,812.4a.6.6,0,1,1-.6.6.6.6,0,0,1,.6-.6m0-.4a.993.993,0,1,0,.993.993A.993.993,0,0,0,480.993,812Z" transform="translate(-251.914 -427.289)"/></g><path d="M4.229,0H-4.055V-1.644l3.91-4.167A9.645,9.645,0,0,0,1.046-7.346a2.467,2.467,0,0,0,.386-1.245,1.846,1.846,0,0,0-.407-1.266,1.468,1.468,0,0,0-1.162-.461,1.584,1.584,0,0,0-1.282.56,2.219,2.219,0,0,0-.469,1.473H-4.3A3.962,3.962,0,0,1-3.769-10.3a3.715,3.715,0,0,1,1.49-1.432A4.529,4.529,0,0,1-.1-12.252a4.288,4.288,0,0,1,2.9.9A3.172,3.172,0,0,1,3.839-8.824,4.064,4.064,0,0,1,3.374-7,10.148,10.148,0,0,1,1.781-4.831l-2.748,2.9h5.2Z" transform="translate(-5877 -8036)" fill="#12263f"/><path d="M-1.615-7.105H-.336a1.8,1.8,0,0,0,1.353-.457,1.673,1.673,0,0,0,.44-1.212,1.479,1.479,0,0,0-.436-1.137,1.689,1.689,0,0,0-1.2-.407,1.77,1.77,0,0,0-1.154.378,1.208,1.208,0,0,0-.465.984H-4.2a2.95,2.95,0,0,1,.51-1.7,3.4,3.4,0,0,1,1.428-1.175,4.765,4.765,0,0,1,2.021-.423,4.519,4.519,0,0,1,3,.917A3.13,3.13,0,0,1,3.856-8.807,2.543,2.543,0,0,1,3.349-7.28,3.29,3.29,0,0,1,2.021-6.209a3,3,0,0,1,1.523,1.1,2.972,2.972,0,0,1,.5,1.727A3.181,3.181,0,0,1,2.872-.805,4.723,4.723,0,0,1-.237.166,4.478,4.478,0,0,1-3.2-.789a3.118,3.118,0,0,1-1.15-2.523h2.4A1.39,1.39,0,0,0-1.436-2.2a1.881,1.881,0,0,0,1.258.432A1.89,1.89,0,0,0,1.162-2.22a1.562,1.562,0,0,0,.486-1.2q0-1.81-1.992-1.81h-1.27Z" transform="translate(-5935 -7806)" fill="#12263f"/><path d="M1.772,0h-2.4V-9.247l-2.864.888V-10.31L1.515-12.1h.257Z" transform="translate(-6282 -7981)" fill="#12263f"/><path d="M5.084,0H3.25V-7.071l-2.19.679V-7.884L4.888-9.255h.2ZM8.258-.9a.924.924,0,0,1,.3-.711,1.047,1.047,0,0,1,.74-.273,1.056,1.056,0,0,1,.746.273.924.924,0,0,1,.3.711.911.911,0,0,1-.292.7,1.06,1.06,0,0,1-.749.27A1.052,1.052,0,0,1,8.55-.2.911.911,0,0,1,8.258-.9Zm12.257-1H17.177L16.542,0H14.517l3.44-9.242h1.765L23.182,0H21.157ZM17.691-3.447H20L18.84-6.906Zm5.967-.038A4.025,4.025,0,0,1,24.41-6.03,2.437,2.437,0,0,1,26.438-7a2.138,2.138,0,0,1,1.758.774l.076-.647h1.663v6.64a2.935,2.935,0,0,1-.409,1.568,2.629,2.629,0,0,1-1.152,1.016,4.05,4.05,0,0,1-1.739.349,3.766,3.766,0,0,1-1.473-.3,2.614,2.614,0,0,1-1.085-.778L24.889.508a2.149,2.149,0,0,0,1.663.768,1.573,1.573,0,0,0,1.136-.39,1.464,1.464,0,0,0,.406-1.108V-.59a2.122,2.122,0,0,1-1.669.717,2.431,2.431,0,0,1-2-.968,4.024,4.024,0,0,1-.765-2.568Zm1.834.137a2.506,2.506,0,0,0,.375,1.465,1.191,1.191,0,0,0,1.028.531,1.274,1.274,0,0,0,1.2-.629V-4.874A1.271,1.271,0,0,0,26.908-5.5a1.2,1.2,0,0,0-1.038.54A2.825,2.825,0,0,0,25.492-3.348ZM35.458-.7a2.3,2.3,0,0,1-1.879.825,2.17,2.17,0,0,1-1.685-.635,2.71,2.71,0,0,1-.594-1.86v-4.5h1.834v4.442q0,1.074.978,1.074A1.325,1.325,0,0,0,35.395-2V-6.868h1.841V0H35.509ZM42.6,0a2.037,2.037,0,0,1-.184-.616,2.22,2.22,0,0,1-1.733.743A2.439,2.439,0,0,1,39.01-.457a1.878,1.878,0,0,1-.663-1.473,1.941,1.941,0,0,1,.809-1.676,3.994,3.994,0,0,1,2.339-.59h.844v-.394a1.132,1.132,0,0,0-.244-.762.961.961,0,0,0-.771-.286,1.093,1.093,0,0,0-.727.222.755.755,0,0,0-.263.609H38.5a1.843,1.843,0,0,1,.368-1.1,2.434,2.434,0,0,1,1.041-.8A3.794,3.794,0,0,1,41.418-7a3,3,0,0,1,2.015.638,2.232,2.232,0,0,1,.746,1.793v2.977a3.284,3.284,0,0,0,.273,1.479V0ZM41.082-1.276a1.58,1.58,0,0,0,.749-.181,1.188,1.188,0,0,0,.508-.486V-3.123h-.686q-1.377,0-1.466.952l-.006.108a.734.734,0,0,0,.241.565A.937.937,0,0,0,41.082-1.276ZM55.015-3.371a4.159,4.159,0,0,1-.7,2.574,2.334,2.334,0,0,1-1.968.924A2.144,2.144,0,0,1,50.559-.73L50.477,0h-1.65V-9.75h1.834v3.5A2.089,2.089,0,0,1,52.33-7a2.353,2.353,0,0,1,1.971.924,4.165,4.165,0,0,1,.714,2.6ZM53.181-3.5a2.732,2.732,0,0,0-.33-1.52,1.116,1.116,0,0,0-.984-.479,1.21,1.21,0,0,0-1.206.717v2.71a1.226,1.226,0,0,0,1.219.724,1.133,1.133,0,0,0,1.168-.876A4.519,4.519,0,0,0,53.181-3.5ZM60-5.148a4.984,4.984,0,0,0-.66-.051,1.344,1.344,0,0,0-1.365.7V0H56.145V-6.868h1.733l.051.819A1.7,1.7,0,0,1,59.458-7a1.922,1.922,0,0,1,.571.083ZM65-.7a2.3,2.3,0,0,1-1.879.825,2.17,2.17,0,0,1-1.685-.635,2.71,2.71,0,0,1-.594-1.86v-4.5h1.834v4.442q0,1.074.978,1.074A1.325,1.325,0,0,0,64.937-2V-6.868h1.841V0H65.051Zm5.357-7.858v1.688h1.174v1.346H70.357v3.428a.818.818,0,0,0,.146.546.733.733,0,0,0,.559.165,2.925,2.925,0,0,0,.54-.044v1.39a3.777,3.777,0,0,1-1.111.165,1.752,1.752,0,0,1-1.968-1.949v-3.7h-1V-6.868h1V-8.557ZM76.534,0a2.037,2.037,0,0,1-.184-.616,2.22,2.22,0,0,1-1.733.743,2.439,2.439,0,0,1-1.673-.584,1.878,1.878,0,0,1-.663-1.473,1.941,1.941,0,0,1,.809-1.676,3.994,3.994,0,0,1,2.339-.59h.844v-.394a1.132,1.132,0,0,0-.244-.762.961.961,0,0,0-.771-.286,1.093,1.093,0,0,0-.727.222.755.755,0,0,0-.263.609H72.433a1.843,1.843,0,0,1,.368-1.1,2.434,2.434,0,0,1,1.041-.8A3.794,3.794,0,0,1,75.353-7a3,3,0,0,1,2.015.638,2.232,2.232,0,0,1,.746,1.793v2.977a3.284,3.284,0,0,0,.273,1.479V0ZM75.017-1.276a1.58,1.58,0,0,0,.749-.181,1.188,1.188,0,0,0,.508-.486V-3.123h-.686q-1.377,0-1.466.952l-.006.108a.734.734,0,0,0,.241.565A.937.937,0,0,0,75.017-1.276ZM6.963,20H.628V18.743l2.99-3.187a7.376,7.376,0,0,0,.911-1.174,1.887,1.887,0,0,0,.3-.952,1.412,1.412,0,0,0-.311-.968,1.123,1.123,0,0,0-.889-.352,1.211,1.211,0,0,0-.981.428,1.7,1.7,0,0,0-.359,1.127H.444a3.03,3.03,0,0,1,.4-1.542,2.841,2.841,0,0,1,1.139-1.095,3.463,3.463,0,0,1,1.669-.4,3.279,3.279,0,0,1,2.219.686,2.425,2.425,0,0,1,.79,1.936,3.108,3.108,0,0,1-.355,1.4,7.761,7.761,0,0,1-1.219,1.657l-2.1,2.215H6.963Zm1.295-.9a.924.924,0,0,1,.3-.711,1.147,1.147,0,0,1,1.485,0,.924.924,0,0,1,.3.711.911.911,0,0,1-.292.7,1.166,1.166,0,0,1-1.492,0A.911.911,0,0,1,8.258,19.1Zm12.257-1H17.177L16.542,20H14.517l3.44-9.242h1.765L23.182,20H21.157Zm-2.825-1.542H20L18.84,13.094Zm5.967-.038a4.025,4.025,0,0,1,.752-2.545A2.437,2.437,0,0,1,26.438,13a2.138,2.138,0,0,1,1.758.774l.076-.647h1.663v6.64a2.935,2.935,0,0,1-.409,1.568,2.629,2.629,0,0,1-1.152,1.016,4.05,4.05,0,0,1-1.739.349,3.766,3.766,0,0,1-1.473-.3,2.614,2.614,0,0,1-1.085-.778l.813-1.117a2.149,2.149,0,0,0,1.663.768,1.573,1.573,0,0,0,1.136-.39,1.464,1.464,0,0,0,.406-1.108V19.41a2.122,2.122,0,0,1-1.669.717,2.431,2.431,0,0,1-2-.968,4.024,4.024,0,0,1-.765-2.568Zm1.834.137a2.506,2.506,0,0,0,.375,1.465,1.191,1.191,0,0,0,1.028.531,1.274,1.274,0,0,0,1.2-.629V15.126a1.271,1.271,0,0,0-1.187-.629,1.2,1.2,0,0,0-1.038.54A2.825,2.825,0,0,0,25.492,16.652Zm9.966,2.65a2.3,2.3,0,0,1-1.879.825,2.17,2.17,0,0,1-1.685-.635,2.71,2.71,0,0,1-.594-1.86v-4.5h1.834v4.442q0,1.074.978,1.074A1.325,1.325,0,0,0,35.395,18V13.132h1.841V20H35.509ZM42.6,20a2.037,2.037,0,0,1-.184-.616,2.22,2.22,0,0,1-1.733.743,2.439,2.439,0,0,1-1.673-.584,1.878,1.878,0,0,1-.663-1.473,1.941,1.941,0,0,1,.809-1.676,3.994,3.994,0,0,1,2.339-.59h.844v-.394a1.132,1.132,0,0,0-.244-.762.961.961,0,0,0-.771-.286,1.093,1.093,0,0,0-.727.222.755.755,0,0,0-.263.609H38.5a1.843,1.843,0,0,1,.368-1.1,2.434,2.434,0,0,1,1.041-.8A3.794,3.794,0,0,1,41.418,13a3,3,0,0,1,2.015.638,2.232,2.232,0,0,1,.746,1.793v2.977a3.284,3.284,0,0,0,.273,1.479V20Zm-1.517-1.276a1.58,1.58,0,0,0,.749-.181,1.188,1.188,0,0,0,.508-.486V16.877h-.686q-1.377,0-1.466.952l-.006.108a.734.734,0,0,0,.241.565A.937.937,0,0,0,41.082,18.724Zm9.94-7.281v1.688H52.2v1.346H51.022v3.428a.818.818,0,0,0,.146.546.733.733,0,0,0,.559.165,2.925,2.925,0,0,0,.54-.044v1.39a3.777,3.777,0,0,1-1.111.165,1.752,1.752,0,0,1-1.968-1.949v-3.7h-1V13.132h1V11.443Zm6.056,3.409a4.984,4.984,0,0,0-.66-.051,1.344,1.344,0,0,0-1.365.7V20H53.219V13.132h1.733l.051.819A1.7,1.7,0,0,1,56.532,13a1.922,1.922,0,0,1,.571.083ZM61.75,20a2.037,2.037,0,0,1-.184-.616,2.22,2.22,0,0,1-1.733.743,2.439,2.439,0,0,1-1.673-.584A1.878,1.878,0,0,1,57.5,18.07a1.941,1.941,0,0,1,.809-1.676,3.994,3.994,0,0,1,2.339-.59h.844v-.394a1.132,1.132,0,0,0-.244-.762.961.961,0,0,0-.771-.286,1.093,1.093,0,0,0-.727.222.755.755,0,0,0-.263.609H57.649a1.843,1.843,0,0,1,.368-1.1,2.434,2.434,0,0,1,1.041-.8A3.794,3.794,0,0,1,60.569,13a3,3,0,0,1,2.015.638,2.232,2.232,0,0,1,.746,1.793v2.977a3.284,3.284,0,0,0,.273,1.479V20Zm-1.517-1.276a1.58,1.58,0,0,0,.749-.181,1.188,1.188,0,0,0,.508-.486V16.877H60.8q-1.377,0-1.466.952l-.006.108a.734.734,0,0,0,.241.565A.937.937,0,0,0,60.233,18.724Zm6.7-7.281v1.688H68.11v1.346H66.936v3.428a.818.818,0,0,0,.146.546.733.733,0,0,0,.559.165,2.925,2.925,0,0,0,.54-.044v1.39a3.777,3.777,0,0,1-1.111.165A1.752,1.752,0,0,1,65.1,18.178v-3.7h-1V13.132h1V11.443ZM73.112,20a2.037,2.037,0,0,1-.184-.616,2.22,2.22,0,0,1-1.733.743,2.439,2.439,0,0,1-1.673-.584,1.878,1.878,0,0,1-.663-1.473,1.941,1.941,0,0,1,.809-1.676,3.994,3.994,0,0,1,2.339-.59h.844v-.394a1.132,1.132,0,0,0-.244-.762.961.961,0,0,0-.771-.286,1.093,1.093,0,0,0-.727.222.755.755,0,0,0-.263.609H69.012a1.843,1.843,0,0,1,.368-1.1,2.434,2.434,0,0,1,1.041-.8A3.794,3.794,0,0,1,71.932,13a3,3,0,0,1,2.015.638,2.232,2.232,0,0,1,.746,1.793v2.977a3.284,3.284,0,0,0,.273,1.479V20ZM71.6,18.724a1.58,1.58,0,0,0,.749-.181,1.188,1.188,0,0,0,.508-.486V16.877h-.686q-1.377,0-1.466.952l-.006.108a.734.734,0,0,0,.241.565A.937.937,0,0,0,71.6,18.724Zm4.221-2.209a4.139,4.139,0,0,1,.72-2.558A2.338,2.338,0,0,1,78.508,13a2.1,2.1,0,0,1,1.657.749v-3.5h1.841V20H80.349l-.089-.73a2.159,2.159,0,0,1-1.765.857,2.331,2.331,0,0,1-1.946-.955A4.272,4.272,0,0,1,75.816,16.515Zm1.834.137a2.711,2.711,0,0,0,.336,1.481,1.1,1.1,0,0,0,.978.515,1.227,1.227,0,0,0,1.2-.718V15.215a1.21,1.21,0,0,0-1.187-.718Q77.651,14.5,77.651,16.652ZM87.407,20a2.037,2.037,0,0,1-.184-.616,2.22,2.22,0,0,1-1.733.743,2.439,2.439,0,0,1-1.673-.584,1.878,1.878,0,0,1-.663-1.473,1.941,1.941,0,0,1,.809-1.676A3.994,3.994,0,0,1,86.3,15.8h.844v-.394a1.132,1.132,0,0,0-.244-.762.961.961,0,0,0-.771-.286,1.093,1.093,0,0,0-.727.222.755.755,0,0,0-.263.609H83.307a1.843,1.843,0,0,1,.368-1.1,2.434,2.434,0,0,1,1.041-.8A3.794,3.794,0,0,1,86.227,13a3,3,0,0,1,2.015.638,2.232,2.232,0,0,1,.746,1.793v2.977a3.284,3.284,0,0,0,.273,1.479V20ZM85.89,18.724a1.58,1.58,0,0,0,.749-.181,1.188,1.188,0,0,0,.508-.486V16.877h-.686q-1.377,0-1.466.952l-.006.108a.734.734,0,0,0,.241.565A.937.937,0,0,0,85.89,18.724ZM2.495,34.566h.978a1.377,1.377,0,0,0,1.035-.349,1.279,1.279,0,0,0,.336-.927,1.131,1.131,0,0,0-.333-.87,1.292,1.292,0,0,0-.917-.311,1.354,1.354,0,0,0-.882.289.923.923,0,0,0-.355.752H.521a2.256,2.256,0,0,1,.39-1.3A2.6,2.6,0,0,1,2,30.955a3.644,3.644,0,0,1,1.546-.324,3.456,3.456,0,0,1,2.3.7,2.393,2.393,0,0,1,.832,1.933,1.945,1.945,0,0,1-.387,1.168,2.516,2.516,0,0,1-1.016.819,2.3,2.3,0,0,1,1.165.838,2.273,2.273,0,0,1,.384,1.32,2.433,2.433,0,0,1-.9,1.974,3.611,3.611,0,0,1-2.377.743,3.424,3.424,0,0,1-2.263-.73,2.384,2.384,0,0,1-.879-1.93H2.241a1.063,1.063,0,0,0,.39.851,1.439,1.439,0,0,0,.962.33A1.445,1.445,0,0,0,4.618,38.3a1.194,1.194,0,0,0,.371-.917Q4.989,36,3.466,36H2.495ZM8.258,39.1a.924.924,0,0,1,.3-.711,1.147,1.147,0,0,1,1.485,0,.924.924,0,0,1,.3.711.911.911,0,0,1-.292.7,1.166,1.166,0,0,1-1.492,0A.911.911,0,0,1,8.258,39.1Zm12.6-3.1H17.2V38.47h4.291V40H15.3V30.758H21.48V32.3H17.2v2.2h3.656ZM24.9,37.759l1.276-4.627h1.917L25.771,40H24.02L21.7,33.132H23.62ZM32.779,40a2.037,2.037,0,0,1-.184-.616,2.22,2.22,0,0,1-1.733.743,2.439,2.439,0,0,1-1.673-.584,1.878,1.878,0,0,1-.663-1.473,1.941,1.941,0,0,1,.809-1.676,3.994,3.994,0,0,1,2.339-.59h.844v-.394a1.132,1.132,0,0,0-.244-.762.961.961,0,0,0-.771-.286,1.093,1.093,0,0,0-.727.222.755.755,0,0,0-.263.609H28.679a1.843,1.843,0,0,1,.368-1.1,2.434,2.434,0,0,1,1.041-.8A3.794,3.794,0,0,1,31.6,33a3,3,0,0,1,2.015.638,2.232,2.232,0,0,1,.746,1.793v2.977a3.284,3.284,0,0,0,.273,1.479V40Zm-1.517-1.276a1.58,1.58,0,0,0,.749-.181,1.188,1.188,0,0,0,.508-.486V36.877h-.686q-1.377,0-1.466.952l-.006.108a.734.734,0,0,0,.241.565A.937.937,0,0,0,31.262,38.724Zm7.363-.076a1.2,1.2,0,0,0,.825-.279.979.979,0,0,0,.33-.743H41.5a2.353,2.353,0,0,1-.381,1.279,2.513,2.513,0,0,1-1.025.9,3.208,3.208,0,0,1-1.438.321,2.982,2.982,0,0,1-2.323-.936,3.705,3.705,0,0,1-.851-2.587v-.121a3.663,3.663,0,0,1,.844-2.533A2.947,2.947,0,0,1,38.645,33a2.889,2.889,0,0,1,2.066.733,2.6,2.6,0,0,1,.79,1.952h-1.72a1.261,1.261,0,0,0-.33-.871,1.227,1.227,0,0,0-1.806.132,2.708,2.708,0,0,0-.327,1.516v.191a2.742,2.742,0,0,0,.324,1.526A1.119,1.119,0,0,0,38.625,38.648Zm8.036.654a2.3,2.3,0,0,1-1.879.825,2.17,2.17,0,0,1-1.685-.635,2.71,2.71,0,0,1-.594-1.86v-4.5h1.834v4.442q0,1.074.978,1.074A1.325,1.325,0,0,0,46.6,38V33.132h1.841V40H46.712ZM53.8,40a2.037,2.037,0,0,1-.184-.616,2.22,2.22,0,0,1-1.733.743,2.439,2.439,0,0,1-1.673-.584,1.878,1.878,0,0,1-.663-1.473,1.941,1.941,0,0,1,.809-1.676A3.994,3.994,0,0,1,52.7,35.8h.844v-.394a1.132,1.132,0,0,0-.244-.762.961.961,0,0,0-.771-.286,1.093,1.093,0,0,0-.727.222.755.755,0,0,0-.263.609H49.7a1.843,1.843,0,0,1,.368-1.1,2.434,2.434,0,0,1,1.041-.8A3.794,3.794,0,0,1,52.622,33a3,3,0,0,1,2.015.638,2.232,2.232,0,0,1,.746,1.793v2.977a3.284,3.284,0,0,0,.273,1.479V40Zm-1.517-1.276a1.58,1.58,0,0,0,.749-.181,1.188,1.188,0,0,0,.508-.486V36.877h-.686q-1.377,0-1.466.952l-.006.108a.734.734,0,0,0,.241.565A.937.937,0,0,0,52.286,38.724Zm7.363-.076a1.2,1.2,0,0,0,.825-.279.979.979,0,0,0,.33-.743h1.72a2.353,2.353,0,0,1-.381,1.279,2.513,2.513,0,0,1-1.025.9,3.208,3.208,0,0,1-1.438.321,2.982,2.982,0,0,1-2.323-.936,3.705,3.705,0,0,1-.851-2.587v-.121a3.663,3.663,0,0,1,.844-2.533A2.947,2.947,0,0,1,59.668,33a2.889,2.889,0,0,1,2.066.733,2.6,2.6,0,0,1,.79,1.952H60.8a1.261,1.261,0,0,0-.33-.871,1.227,1.227,0,0,0-1.806.132,2.708,2.708,0,0,0-.327,1.516v.191a2.742,2.742,0,0,0,.324,1.526A1.119,1.119,0,0,0,59.649,38.648ZM65.508,40H63.667V33.132h1.841Zm-1.949-8.646a.9.9,0,0,1,.276-.679,1.19,1.19,0,0,1,1.5,0,.969.969,0,0,1,0,1.365,1.177,1.177,0,0,1-1.492,0A.9.9,0,0,1,63.559,31.354ZM66.733,36.5a4.073,4.073,0,0,1,.394-1.822,2.881,2.881,0,0,1,1.133-1.238A3.306,3.306,0,0,1,69.977,33a3.127,3.127,0,0,1,2.269.851,3.414,3.414,0,0,1,.981,2.311l.013.47a3.59,3.59,0,0,1-.882,2.536,3.42,3.42,0,0,1-4.739,0,3.653,3.653,0,0,1-.885-2.59Zm1.834.13a2.567,2.567,0,0,0,.368,1.5,1.323,1.323,0,0,0,2.095.006A2.809,2.809,0,0,0,71.4,36.5a2.542,2.542,0,0,0-.375-1.488,1.217,1.217,0,0,0-1.054-.528,1.2,1.2,0,0,0-1.041.524A2.857,2.857,0,0,0,68.567,36.633Zm1.771-6.383h2L70.58,32.218H69.088Zm5.719,2.882.057.793A2.4,2.4,0,0,1,78.089,33a1.993,1.993,0,0,1,1.625.641,2.991,2.991,0,0,1,.546,1.917V40H78.425V35.607a1.19,1.19,0,0,0-.254-.847,1.137,1.137,0,0,0-.844-.263,1.262,1.262,0,0,0-1.162.66V40H74.331V33.132ZM84.6,36.515a4.139,4.139,0,0,1,.72-2.558A2.338,2.338,0,0,1,87.293,33a2.1,2.1,0,0,1,1.657.749v-3.5h1.841V40H89.134l-.089-.73a2.159,2.159,0,0,1-1.765.857,2.331,2.331,0,0,1-1.946-.955A4.272,4.272,0,0,1,84.6,36.515Zm1.834.137a2.711,2.711,0,0,0,.336,1.481,1.1,1.1,0,0,0,.978.515,1.228,1.228,0,0,0,1.2-.718V35.215a1.21,1.21,0,0,0-1.187-.718Q86.436,34.5,86.436,36.652Zm8.938,3.475a3.372,3.372,0,0,1-2.46-.927,3.294,3.294,0,0,1-.949-2.469v-.178a4.149,4.149,0,0,1,.4-1.85A2.935,2.935,0,0,1,93.5,33.446,3.18,3.18,0,0,1,95.17,33a2.85,2.85,0,0,1,2.219.889,3.611,3.611,0,0,1,.809,2.52v.749H93.825a1.7,1.7,0,0,0,.536,1.079,1.621,1.621,0,0,0,1.133.406,1.98,1.98,0,0,0,1.657-.768l.9,1.009a2.754,2.754,0,0,1-1.117.911A3.665,3.665,0,0,1,95.374,40.127Zm-.209-5.643a1.146,1.146,0,0,0-.885.37,1.915,1.915,0,0,0-.435,1.058H96.4v-.147a1.366,1.366,0,0,0-.33-.947A1.183,1.183,0,0,0,95.164,34.484ZM102.978,40V34.478h-1.022V33.132h1.022v-.584a2.371,2.371,0,0,1,.663-1.793,2.569,2.569,0,0,1,1.857-.638,4.289,4.289,0,0,1,.933.127l-.019,1.422a2.339,2.339,0,0,0-.559-.057q-1.035,0-1.035.971v.552h1.365v1.346h-1.365V40Zm8.138,0a2.037,2.037,0,0,1-.184-.616,2.22,2.22,0,0,1-1.733.743,2.439,2.439,0,0,1-1.673-.584,1.878,1.878,0,0,1-.663-1.473,1.941,1.941,0,0,1,.809-1.676,3.994,3.994,0,0,1,2.339-.59h.844v-.394a1.132,1.132,0,0,0-.244-.762.961.961,0,0,0-.771-.286,1.093,1.093,0,0,0-.727.222.755.755,0,0,0-.263.609h-1.834a1.843,1.843,0,0,1,.368-1.1,2.434,2.434,0,0,1,1.041-.8A3.794,3.794,0,0,1,109.935,33a3,3,0,0,1,2.015.638,2.232,2.232,0,0,1,.746,1.793v2.977a3.284,3.284,0,0,0,.273,1.479V40ZM109.6,38.724a1.58,1.58,0,0,0,.749-.181,1.188,1.188,0,0,0,.508-.486V36.877h-.686q-1.377,0-1.466.952l-.006.108a.734.734,0,0,0,.241.565A.937.937,0,0,0,109.6,38.724Zm6.2-5.592.057.793a2.4,2.4,0,0,1,1.974-.92,1.993,1.993,0,0,1,1.625.641A2.991,2.991,0,0,1,120,35.563V40h-1.834V35.607a1.19,1.19,0,0,0-.254-.847,1.137,1.137,0,0,0-.844-.263,1.262,1.262,0,0,0-1.162.66V40h-1.834V33.132Zm5.326,3.383a4.025,4.025,0,0,1,.752-2.545A2.437,2.437,0,0,1,123.9,33a2.138,2.138,0,0,1,1.758.774l.076-.647H127.4v6.64a2.935,2.935,0,0,1-.409,1.568,2.629,2.629,0,0,1-1.152,1.016,4.05,4.05,0,0,1-1.739.349,3.766,3.766,0,0,1-1.473-.3,2.614,2.614,0,0,1-1.085-.778l.813-1.117a2.149,2.149,0,0,0,1.663.768,1.573,1.573,0,0,0,1.136-.39,1.464,1.464,0,0,0,.406-1.108V39.41a2.122,2.122,0,0,1-1.669.717,2.431,2.431,0,0,1-2-.968,4.024,4.024,0,0,1-.765-2.568Zm1.834.137a2.506,2.506,0,0,0,.375,1.465,1.191,1.191,0,0,0,1.028.531,1.274,1.274,0,0,0,1.2-.629V35.126a1.271,1.271,0,0,0-1.187-.629,1.2,1.2,0,0,0-1.038.54A2.825,2.825,0,0,0,122.954,36.652Zm5.567-.149a4.073,4.073,0,0,1,.394-1.822,2.881,2.881,0,0,1,1.133-1.238A3.306,3.306,0,0,1,131.765,33a3.128,3.128,0,0,1,2.269.851,3.414,3.414,0,0,1,.981,2.311l.013.47a3.59,3.59,0,0,1-.882,2.536,3.42,3.42,0,0,1-4.739,0,3.653,3.653,0,0,1-.885-2.59Zm1.834.13a2.567,2.567,0,0,0,.368,1.5,1.323,1.323,0,0,0,2.095.006,2.809,2.809,0,0,0,.375-1.637,2.542,2.542,0,0,0-.375-1.488,1.217,1.217,0,0,0-1.054-.528,1.2,1.2,0,0,0-1.041.524A2.857,2.857,0,0,0,130.355,36.633Zm9.521,1.469a.591.591,0,0,0-.333-.53,3.785,3.785,0,0,0-1.07-.346q-2.45-.514-2.45-2.082a1.887,1.887,0,0,1,.759-1.527A3.06,3.06,0,0,1,138.766,33a3.293,3.293,0,0,1,2.092.616,1.94,1.94,0,0,1,.784,1.6h-1.834a.888.888,0,0,0-.254-.651,1.075,1.075,0,0,0-.793-.257,1.1,1.1,0,0,0-.717.209.661.661,0,0,0-.254.533.565.565,0,0,0,.289.492,2.971,2.971,0,0,0,.974.324,7.959,7.959,0,0,1,1.155.308,1.9,1.9,0,0,1,1.454,1.847,1.792,1.792,0,0,1-.806,1.52,3.478,3.478,0,0,1-2.082.581,3.632,3.632,0,0,1-1.533-.308,2.572,2.572,0,0,1-1.051-.844,1.962,1.962,0,0,1-.381-1.158h1.739a.958.958,0,0,0,.362.749,1.435,1.435,0,0,0,.9.26,1.328,1.328,0,0,0,.8-.2A.622.622,0,0,0,139.877,38.1Z" transform="translate(-5961 -7919)" fill="#12263f"/></g></svg>