<svg xmlns="http://www.w3.org/2000/svg" width="1240.996" height="514.28" viewBox="0 0 1240.996 514.28">
  <g id="Grupo_848502" data-name="Grupo 848502" transform="translate(-179 -2537.5)">
    <path id="Trazado_591470" data-name="Trazado 591470" d="M9.527,12.4H6.855V17H5.348V5.625H9.113A4.457,4.457,0,0,1,12.07,6.5a3.148,3.148,0,0,1,1.035,2.547,3.062,3.062,0,0,1-.574,1.852,3.428,3.428,0,0,1-1.6,1.18l2.672,4.828V17H12ZM6.855,11.172h2.3a2.6,2.6,0,0,0,1.777-.579,1.959,1.959,0,0,0,.66-1.55,2.062,2.062,0,0,0-.629-1.62,2.663,2.663,0,0,0-1.816-.571h-2.3Zm11.633,5.984a3.693,3.693,0,0,1-2.8-1.129,4.19,4.19,0,0,1-1.078-3.02v-.266a5.073,5.073,0,0,1,.48-2.246,3.748,3.748,0,0,1,1.344-1.547,3.378,3.378,0,0,1,1.871-.559,3.166,3.166,0,0,1,2.563,1.086,4.7,4.7,0,0,1,.914,3.109v.6H16.059a3,3,0,0,0,.73,2.02,2.3,2.3,0,0,0,1.777.77,2.517,2.517,0,0,0,1.3-.312,3.259,3.259,0,0,0,.93-.828l.883.688A3.55,3.55,0,0,1,18.488,17.156Zm-.18-7.578a1.928,1.928,0,0,0-1.469.637A3.1,3.1,0,0,0,16.105,12H20.34v-.109a2.753,2.753,0,0,0-.594-1.707A1.815,1.815,0,0,0,18.309,9.578Zm10.07,5.18a1.064,1.064,0,0,0-.441-.91,4.249,4.249,0,0,0-1.539-.559,7.277,7.277,0,0,1-1.742-.562,2.479,2.479,0,0,1-.953-.781,1.869,1.869,0,0,1-.309-1.078,2.193,2.193,0,0,1,.879-1.758,3.432,3.432,0,0,1,2.246-.719,3.532,3.532,0,0,1,2.332.742,2.357,2.357,0,0,1,.895,1.9H28.293a1.3,1.3,0,0,0-.5-1.023,1.888,1.888,0,0,0-1.27-.43,1.976,1.976,0,0,0-1.234.344,1.082,1.082,0,0,0-.445.9.877.877,0,0,0,.414.789,5.1,5.1,0,0,0,1.5.508A7.8,7.8,0,0,1,28.5,12.7a2.558,2.558,0,0,1,1,.809,1.988,1.988,0,0,1,.324,1.152,2.163,2.163,0,0,1-.906,1.816,3.8,3.8,0,0,1-2.352.684,4.257,4.257,0,0,1-1.8-.359,2.922,2.922,0,0,1-1.223-1,2.42,2.42,0,0,1-.441-1.395h1.445a1.5,1.5,0,0,0,.582,1.152,2.258,2.258,0,0,0,1.434.426,2.331,2.331,0,0,0,1.316-.332A1.02,1.02,0,0,0,28.379,14.758ZM33.277,17H31.832V8.547h1.445ZM31.715,6.3a.863.863,0,0,1,.215-.594.807.807,0,0,1,.637-.242.819.819,0,0,1,.641.242.854.854,0,0,1,.219.594.826.826,0,0,1-.219.586.834.834,0,0,1-.641.234.821.821,0,0,1-.637-.234A.834.834,0,0,1,31.715,6.3Zm3.523,6.4a4.952,4.952,0,0,1,.922-3.129,3.137,3.137,0,0,1,4.766-.168V5h1.445V17H41.043l-.07-.906a2.943,2.943,0,0,1-2.414,1.063,2.887,2.887,0,0,1-2.395-1.2,5.008,5.008,0,0,1-.926-3.141Zm1.445.164a3.749,3.749,0,0,0,.594,2.25,1.92,1.92,0,0,0,1.641.813A2.108,2.108,0,0,0,40.926,14.7V10.813a2.125,2.125,0,0,0-1.992-1.2,1.929,1.929,0,0,0-1.656.82A4.128,4.128,0,0,0,36.684,12.867Zm13.148,3.3a3.07,3.07,0,0,1-2.477.992,2.628,2.628,0,0,1-2.059-.785,3.4,3.4,0,0,1-.715-2.324v-5.5h1.445v5.461q0,1.922,1.563,1.922a2.163,2.163,0,0,0,2.2-1.234V8.547h1.445V17H49.863ZM53.051,12.7a4.993,4.993,0,0,1,.488-2.234A3.643,3.643,0,0,1,54.9,8.93a3.7,3.7,0,0,1,1.988-.539,3.565,3.565,0,0,1,2.793,1.2,4.6,4.6,0,0,1,1.066,3.18v.1a5.036,5.036,0,0,1-.473,2.215,3.589,3.589,0,0,1-1.352,1.527,3.743,3.743,0,0,1-2.02.547,3.556,3.556,0,0,1-2.785-1.2A4.575,4.575,0,0,1,53.051,12.8Zm1.453.172a3.616,3.616,0,0,0,.652,2.258,2.211,2.211,0,0,0,3.5-.012A3.955,3.955,0,0,0,59.3,12.7a3.61,3.61,0,0,0-.66-2.254,2.1,2.1,0,0,0-1.754-.863,2.075,2.075,0,0,0-1.727.852A3.925,3.925,0,0,0,54.5,12.867ZM67.48,14.758a1.064,1.064,0,0,0-.441-.91,4.249,4.249,0,0,0-1.539-.559,7.277,7.277,0,0,1-1.742-.562,2.479,2.479,0,0,1-.953-.781,1.869,1.869,0,0,1-.309-1.078,2.193,2.193,0,0,1,.879-1.758,3.432,3.432,0,0,1,2.246-.719,3.532,3.532,0,0,1,2.332.742,2.357,2.357,0,0,1,.895,1.9H67.395a1.3,1.3,0,0,0-.5-1.023,1.888,1.888,0,0,0-1.27-.43,1.976,1.976,0,0,0-1.234.344,1.082,1.082,0,0,0-.445.9.877.877,0,0,0,.414.789,5.1,5.1,0,0,0,1.5.508,7.8,7.8,0,0,1,1.754.578,2.558,2.558,0,0,1,1,.809,1.988,1.988,0,0,1,.324,1.152,2.163,2.163,0,0,1-.906,1.816,3.8,3.8,0,0,1-2.352.684,4.257,4.257,0,0,1-1.8-.359,2.922,2.922,0,0,1-1.223-1,2.42,2.42,0,0,1-.441-1.395h1.445a1.5,1.5,0,0,0,.582,1.152,2.258,2.258,0,0,0,1.434.426,2.331,2.331,0,0,0,1.316-.332A1.02,1.02,0,0,0,67.48,14.758ZM74.418,12.7a4.952,4.952,0,0,1,.922-3.129,3.137,3.137,0,0,1,4.766-.168V5h1.445V17H80.223l-.07-.906a2.943,2.943,0,0,1-2.414,1.063,2.887,2.887,0,0,1-2.395-1.2,5.008,5.008,0,0,1-.926-3.141Zm1.445.164a3.749,3.749,0,0,0,.594,2.25,1.92,1.92,0,0,0,1.641.813A2.108,2.108,0,0,0,80.105,14.7V10.813a2.125,2.125,0,0,0-1.992-1.2,1.929,1.929,0,0,0-1.656.82A4.128,4.128,0,0,0,75.863,12.867ZM87.3,17.156a3.693,3.693,0,0,1-2.8-1.129,4.19,4.19,0,0,1-1.078-3.02v-.266a5.073,5.073,0,0,1,.48-2.246A3.748,3.748,0,0,1,85.25,8.949a3.378,3.378,0,0,1,1.871-.559,3.166,3.166,0,0,1,2.563,1.086,4.7,4.7,0,0,1,.914,3.109v.6H84.871a3,3,0,0,0,.73,2.02,2.3,2.3,0,0,0,1.777.77,2.517,2.517,0,0,0,1.3-.312,3.259,3.259,0,0,0,.93-.828l.883.688A3.55,3.55,0,0,1,87.3,17.156Zm-.18-7.578a1.928,1.928,0,0,0-1.469.637A3.1,3.1,0,0,0,84.918,12h4.234v-.109a2.753,2.753,0,0,0-.594-1.707A1.815,1.815,0,0,0,87.121,9.578ZM93.84,17H92.395V5H93.84Zm8-4.453V17h-1.5V5.625h4.2a4.215,4.215,0,0,1,2.926.953A3.231,3.231,0,0,1,108.52,9.1a3.189,3.189,0,0,1-1.035,2.551,4.4,4.4,0,0,1-2.965.895Zm0-1.227h2.7a2.7,2.7,0,0,0,1.844-.567,2.075,2.075,0,0,0,.641-1.64,2.143,2.143,0,0,0-.641-1.628,2.525,2.525,0,0,0-1.758-.634H101.84Zm12.453-1.477a4.331,4.331,0,0,0-.711-.055A1.9,1.9,0,0,0,111.652,11v6h-1.445V8.547h1.406l.023.977a2.251,2.251,0,0,1,2.016-1.133,1.477,1.477,0,0,1,.641.109Zm4.836,7.313a3.693,3.693,0,0,1-2.8-1.129,4.19,4.19,0,0,1-1.078-3.02v-.266a5.073,5.073,0,0,1,.48-2.246,3.748,3.748,0,0,1,1.344-1.547,3.378,3.378,0,0,1,1.871-.559,3.166,3.166,0,0,1,2.563,1.086,4.7,4.7,0,0,1,.914,3.109v.6H116.7a3,3,0,0,0,.73,2.02,2.3,2.3,0,0,0,1.777.77,2.517,2.517,0,0,0,1.3-.312,3.259,3.259,0,0,0,.93-.828l.883.688A3.55,3.55,0,0,1,119.129,17.156Zm-.18-7.578a1.928,1.928,0,0,0-1.469.637A3.1,3.1,0,0,0,116.746,12h4.234v-.109a2.753,2.753,0,0,0-.594-1.707A1.815,1.815,0,0,0,118.949,9.578ZM31.629,30.852H27.973V41H26.48V30.852H22.832V29.625h8.8Zm4.961,2.992a4.331,4.331,0,0,0-.711-.055A1.9,1.9,0,0,0,33.949,35v6H32.5V32.547H33.91l.023.977a2.251,2.251,0,0,1,2.016-1.133,1.477,1.477,0,0,1,.641.109ZM42.824,41a3.036,3.036,0,0,1-.2-.891,3.225,3.225,0,0,1-2.406,1.047,2.984,2.984,0,0,1-2.051-.707,2.287,2.287,0,0,1-.8-1.793,2.39,2.39,0,0,1,1-2.051,4.733,4.733,0,0,1,2.824-.73H42.6v-.664A1.623,1.623,0,0,0,42.145,34a1.821,1.821,0,0,0-1.336-.449,2.107,2.107,0,0,0-1.3.391,1.151,1.151,0,0,0-.523.945H37.535a2,2,0,0,1,.449-1.223,3.066,3.066,0,0,1,1.219-.934,4.1,4.1,0,0,1,1.691-.344,3.342,3.342,0,0,1,2.289.73,2.635,2.635,0,0,1,.859,2.012v3.891a4.757,4.757,0,0,0,.3,1.852V41Zm-2.4-1.1a2.54,2.54,0,0,0,1.289-.352,2.127,2.127,0,0,0,.883-.914V36.9H41.465q-2.656,0-2.656,1.555a1.316,1.316,0,0,0,.453,1.063A1.742,1.742,0,0,0,40.426,39.9Zm7.844-9.4v2.047h1.578v1.117H48.27v5.249a1.173,1.173,0,0,0,.211.763.888.888,0,0,0,.719.254,3.5,3.5,0,0,0,.688-.094V41a4.215,4.215,0,0,1-1.109.155,1.8,1.8,0,0,1-1.461-.586,2.517,2.517,0,0,1-.492-1.664V33.664H45.285V32.547h1.539V30.5ZM56.754,41a3.036,3.036,0,0,1-.2-.891,3.225,3.225,0,0,1-2.406,1.047,2.984,2.984,0,0,1-2.051-.707,2.287,2.287,0,0,1-.8-1.793,2.39,2.39,0,0,1,1-2.051,4.733,4.733,0,0,1,2.824-.73h1.406v-.664A1.623,1.623,0,0,0,56.074,34a1.821,1.821,0,0,0-1.336-.449,2.107,2.107,0,0,0-1.3.391,1.151,1.151,0,0,0-.523.945H51.465a2,2,0,0,1,.449-1.223,3.066,3.066,0,0,1,1.219-.934,4.1,4.1,0,0,1,1.691-.344,3.342,3.342,0,0,1,2.289.73,2.635,2.635,0,0,1,.859,2.012v3.891a4.757,4.757,0,0,0,.3,1.852V41Zm-2.4-1.1a2.54,2.54,0,0,0,1.289-.352,2.127,2.127,0,0,0,.883-.914V36.9H55.395q-2.656,0-2.656,1.555a1.316,1.316,0,0,0,.453,1.063A1.742,1.742,0,0,0,54.355,39.9ZM61.6,32.547l.039.938a3.122,3.122,0,0,1,2.508-1.094,2.417,2.417,0,0,1,2.414,1.359,3.2,3.2,0,0,1,1.1-.984,3.242,3.242,0,0,1,1.6-.375q2.781,0,2.828,2.945V41H70.637V35.422a1.941,1.941,0,0,0-.414-1.355,1.823,1.823,0,0,0-1.391-.449,1.916,1.916,0,0,0-1.336.48,1.949,1.949,0,0,0-.617,1.293V41H65.426V35.461a1.613,1.613,0,0,0-1.8-1.844,1.934,1.934,0,0,0-1.945,1.211V41H60.23V32.547ZM75.832,41H74.387V32.547h1.445ZM74.27,30.3a.863.863,0,0,1,.215-.594.807.807,0,0,1,.637-.242.819.819,0,0,1,.641.242.854.854,0,0,1,.219.594.826.826,0,0,1-.219.586.834.834,0,0,1-.641.234.821.821,0,0,1-.637-.234A.834.834,0,0,1,74.27,30.3Zm7.383,10.852a3.693,3.693,0,0,1-2.8-1.129,4.19,4.19,0,0,1-1.078-3.02v-.266a5.073,5.073,0,0,1,.48-2.246A3.748,3.748,0,0,1,79.6,32.949a3.378,3.378,0,0,1,1.871-.559,3.166,3.166,0,0,1,2.563,1.086,4.7,4.7,0,0,1,.914,3.109v.6H79.223a3,3,0,0,0,.73,2.02,2.3,2.3,0,0,0,1.777.77,2.517,2.517,0,0,0,1.3-.312,3.259,3.259,0,0,0,.93-.828l.883.688A3.55,3.55,0,0,1,81.652,41.156Zm-.18-7.578A1.928,1.928,0,0,0,80,34.215,3.1,3.1,0,0,0,79.27,36H83.5v-.109a2.753,2.753,0,0,0-.594-1.707A1.815,1.815,0,0,0,81.473,33.578Zm6.516-1.031.047,1.063a3.08,3.08,0,0,1,2.531-1.219q2.68,0,2.7,3.023V41H91.824V35.406a1.946,1.946,0,0,0-.418-1.352,1.675,1.675,0,0,0-1.277-.437,2.086,2.086,0,0,0-1.234.375,2.546,2.546,0,0,0-.828.984V41H86.621V32.547ZM97.41,30.5v2.047h1.578v1.117H97.41v5.249a1.173,1.173,0,0,0,.211.763.888.888,0,0,0,.719.254,3.5,3.5,0,0,0,.688-.094V41a4.215,4.215,0,0,1-1.109.155,1.8,1.8,0,0,1-1.461-.586,2.517,2.517,0,0,1-.492-1.664V33.664H94.426V32.547h1.539V30.5Zm2.727,6.2a4.993,4.993,0,0,1,.488-2.234,3.643,3.643,0,0,1,1.359-1.531,3.7,3.7,0,0,1,1.988-.539,3.565,3.565,0,0,1,2.793,1.2,4.6,4.6,0,0,1,1.066,3.18v.1a5.036,5.036,0,0,1-.473,2.215,3.589,3.589,0,0,1-1.352,1.527,3.743,3.743,0,0,1-2.02.547,3.556,3.556,0,0,1-2.785-1.2,4.575,4.575,0,0,1-1.066-3.164Zm1.453.172a3.616,3.616,0,0,0,.652,2.258,2.211,2.211,0,0,0,3.5-.012,3.955,3.955,0,0,0,.648-2.418,3.61,3.61,0,0,0-.66-2.254,2.1,2.1,0,0,0-1.754-.863,2.075,2.075,0,0,0-1.727.852A3.925,3.925,0,0,0,101.59,36.867Z" transform="translate(956.791 2649)" fill="#12263f"/>
    <path id="Trazado_591477" data-name="Trazado 591477" d="M36.762,15.773h5.391V17h-6.9V5.625h1.508ZM43.254,12.7a4.993,4.993,0,0,1,.488-2.234A3.643,3.643,0,0,1,45.1,8.93a3.7,3.7,0,0,1,1.988-.539,3.565,3.565,0,0,1,2.793,1.2,4.6,4.6,0,0,1,1.066,3.18v.1a5.036,5.036,0,0,1-.473,2.215,3.589,3.589,0,0,1-1.352,1.527,3.743,3.743,0,0,1-2.02.547,3.556,3.556,0,0,1-2.785-1.2A4.575,4.575,0,0,1,43.254,12.8Zm1.453.172a3.616,3.616,0,0,0,.652,2.258,2.211,2.211,0,0,0,3.5-.012A3.955,3.955,0,0,0,49.5,12.7a3.61,3.61,0,0,0-.66-2.254,2.1,2.1,0,0,0-1.754-.863,2.075,2.075,0,0,0-1.727.852A3.925,3.925,0,0,0,44.707,12.867Zm7.7-.164a4.952,4.952,0,0,1,.922-3.129A3.137,3.137,0,0,1,58.1,9.406V5h1.445V17H58.215l-.07-.906a2.943,2.943,0,0,1-2.414,1.063,2.887,2.887,0,0,1-2.395-1.2,5.008,5.008,0,0,1-.926-3.141Zm1.445.164a3.749,3.749,0,0,0,.594,2.25,1.92,1.92,0,0,0,1.641.813A2.108,2.108,0,0,0,58.1,14.7V10.813a2.125,2.125,0,0,0-1.992-1.2,1.929,1.929,0,0,0-1.656.82A4.128,4.128,0,0,0,53.855,12.867ZM61.4,12.7a4.993,4.993,0,0,1,.488-2.234A3.643,3.643,0,0,1,63.25,8.93a3.7,3.7,0,0,1,1.988-.539,3.565,3.565,0,0,1,2.793,1.2,4.6,4.6,0,0,1,1.066,3.18v.1a5.036,5.036,0,0,1-.473,2.215,3.589,3.589,0,0,1-1.352,1.527,3.743,3.743,0,0,1-2.02.547,3.556,3.556,0,0,1-2.785-1.2A4.575,4.575,0,0,1,61.4,12.8Zm1.453.172a3.616,3.616,0,0,0,.652,2.258,2.211,2.211,0,0,0,3.5-.012,3.955,3.955,0,0,0,.648-2.418,3.61,3.61,0,0,0-.66-2.254,2.1,2.1,0,0,0-1.754-.863,2.075,2.075,0,0,0-1.727.852A3.925,3.925,0,0,0,62.855,12.867Zm12.977,1.891a1.064,1.064,0,0,0-.441-.91,4.249,4.249,0,0,0-1.539-.559,7.277,7.277,0,0,1-1.742-.562,2.479,2.479,0,0,1-.953-.781,1.869,1.869,0,0,1-.309-1.078,2.193,2.193,0,0,1,.879-1.758,3.432,3.432,0,0,1,2.246-.719,3.532,3.532,0,0,1,2.332.742,2.357,2.357,0,0,1,.895,1.9H75.746a1.3,1.3,0,0,0-.5-1.023,1.888,1.888,0,0,0-1.27-.43,1.976,1.976,0,0,0-1.234.344,1.082,1.082,0,0,0-.445.9.877.877,0,0,0,.414.789,5.1,5.1,0,0,0,1.5.508,7.8,7.8,0,0,1,1.754.578,2.558,2.558,0,0,1,1,.809,1.988,1.988,0,0,1,.324,1.152,2.163,2.163,0,0,1-.906,1.816,3.8,3.8,0,0,1-2.352.684,4.257,4.257,0,0,1-1.8-.359,2.922,2.922,0,0,1-1.223-1,2.42,2.42,0,0,1-.441-1.395H72a1.5,1.5,0,0,0,.582,1.152,2.258,2.258,0,0,0,1.434.426,2.331,2.331,0,0,0,1.316-.332A1.02,1.02,0,0,0,75.832,14.758ZM30.4,30.867a5.062,5.062,0,0,1-.883,3.109,2.829,2.829,0,0,1-2.391,1.18A3.1,3.1,0,0,1,24.7,34.18v4.07H23.258v-11.7h1.32l.07.938A2.977,2.977,0,0,1,27.1,26.391a2.882,2.882,0,0,1,2.41,1.148,5.117,5.117,0,0,1,.887,3.2ZM28.953,30.7a3.735,3.735,0,0,0-.609-2.258,1.963,1.963,0,0,0-1.672-.828A2.125,2.125,0,0,0,24.7,28.781V32.82a2.129,2.129,0,0,0,1.984,1.156,1.954,1.954,0,0,0,1.652-.824A4.077,4.077,0,0,0,28.953,30.7Zm7.367-2.859a4.331,4.331,0,0,0-.711-.055A1.9,1.9,0,0,0,33.68,29v6H32.234V26.547h1.406l.023.977a2.251,2.251,0,0,1,2.016-1.133,1.477,1.477,0,0,1,.641.109ZM39.219,35H37.773V26.547h1.445ZM37.656,24.3a.863.863,0,0,1,.215-.594.807.807,0,0,1,.637-.242.819.819,0,0,1,.641.242.854.854,0,0,1,.219.594.826.826,0,0,1-.219.586.834.834,0,0,1-.641.234.821.821,0,0,1-.637-.234A.834.834,0,0,1,37.656,24.3Zm5.234,2.242.039.938a3.122,3.122,0,0,1,2.508-1.094,2.417,2.417,0,0,1,2.414,1.359,3.2,3.2,0,0,1,1.1-.984,3.242,3.242,0,0,1,1.6-.375q2.781,0,2.828,2.945V35H51.93V29.422a1.941,1.941,0,0,0-.414-1.355,1.823,1.823,0,0,0-1.391-.449,1.916,1.916,0,0,0-1.336.48,1.949,1.949,0,0,0-.617,1.293V35H46.719V29.461a1.613,1.613,0,0,0-1.8-1.844,1.934,1.934,0,0,0-1.945,1.211V35H41.523V26.547ZM60.773,35a3.036,3.036,0,0,1-.2-.891,3.225,3.225,0,0,1-2.406,1.047,2.984,2.984,0,0,1-2.051-.707,2.287,2.287,0,0,1-.8-1.793,2.39,2.39,0,0,1,1-2.051,4.733,4.733,0,0,1,2.824-.73h1.406v-.664A1.623,1.623,0,0,0,60.094,28a1.821,1.821,0,0,0-1.336-.449,2.107,2.107,0,0,0-1.3.391,1.151,1.151,0,0,0-.523.945H55.484a2,2,0,0,1,.449-1.223,3.066,3.066,0,0,1,1.219-.934,4.1,4.1,0,0,1,1.691-.344,3.342,3.342,0,0,1,2.289.73,2.635,2.635,0,0,1,.859,2.012v3.891a4.757,4.757,0,0,0,.3,1.852V35Zm-2.4-1.1a2.54,2.54,0,0,0,1.289-.352,2.127,2.127,0,0,0,.883-.914V30.9H59.414q-2.656,0-2.656,1.555a1.316,1.316,0,0,0,.453,1.063A1.742,1.742,0,0,0,58.375,33.9Zm9.969-6.055a4.331,4.331,0,0,0-.711-.055A1.9,1.9,0,0,0,65.7,29v6H64.258V26.547h1.406l.023.977A2.251,2.251,0,0,1,67.7,26.391a1.477,1.477,0,0,1,.641.109ZM71.242,35H69.8V26.547h1.445ZM69.68,24.3a.863.863,0,0,1,.215-.594.807.807,0,0,1,.637-.242.819.819,0,0,1,.641.242.854.854,0,0,1,.219.594.826.826,0,0,1-.219.586.834.834,0,0,1-.641.234.821.821,0,0,1-.637-.234A.834.834,0,0,1,69.68,24.3ZM73.172,30.7a4.993,4.993,0,0,1,.488-2.234A3.643,3.643,0,0,1,75.02,26.93a3.7,3.7,0,0,1,1.988-.539,3.565,3.565,0,0,1,2.793,1.2,4.6,4.6,0,0,1,1.066,3.18v.1a5.036,5.036,0,0,1-.473,2.215,3.589,3.589,0,0,1-1.352,1.527,3.743,3.743,0,0,1-2.02.547,3.556,3.556,0,0,1-2.785-1.2A4.575,4.575,0,0,1,73.172,30.8Zm1.453.172a3.616,3.616,0,0,0,.652,2.258,2.211,2.211,0,0,0,3.5-.012,3.955,3.955,0,0,0,.648-2.418,3.61,3.61,0,0,0-.66-2.254,2.1,2.1,0,0,0-1.754-.863,2.075,2.075,0,0,0-1.727.852A3.925,3.925,0,0,0,74.625,30.867ZM87.6,32.758a1.064,1.064,0,0,0-.441-.91,4.249,4.249,0,0,0-1.539-.559,7.277,7.277,0,0,1-1.742-.562,2.478,2.478,0,0,1-.953-.781,1.869,1.869,0,0,1-.309-1.078,2.193,2.193,0,0,1,.879-1.758,3.432,3.432,0,0,1,2.246-.719,3.532,3.532,0,0,1,2.332.742,2.357,2.357,0,0,1,.895,1.9H87.516a1.3,1.3,0,0,0-.5-1.023,1.888,1.888,0,0,0-1.27-.43,1.976,1.976,0,0,0-1.234.344,1.082,1.082,0,0,0-.445.9.877.877,0,0,0,.414.789,5.1,5.1,0,0,0,1.5.508,7.8,7.8,0,0,1,1.754.578,2.558,2.558,0,0,1,1,.809,1.988,1.988,0,0,1,.324,1.152,2.163,2.163,0,0,1-.906,1.816,3.8,3.8,0,0,1-2.352.684,4.257,4.257,0,0,1-1.8-.359,2.922,2.922,0,0,1-1.223-1,2.42,2.42,0,0,1-.441-1.395h1.445a1.5,1.5,0,0,0,.582,1.152,2.258,2.258,0,0,0,1.434.426,2.331,2.331,0,0,0,1.316-.332A1.02,1.02,0,0,0,87.6,32.758Z" transform="translate(1111.791 2850)" fill="#12263f"/>
    <path id="Trazado_591473" data-name="Trazado 591473" d="M3.629,17V5.625H6.84a5.169,5.169,0,0,1,2.625.656,4.438,4.438,0,0,1,1.762,1.867,6.078,6.078,0,0,1,.629,2.781v.727a6.1,6.1,0,0,1-.621,2.82,4.369,4.369,0,0,1-1.773,1.859A5.5,5.5,0,0,1,6.777,17Zm1.5-10.148v8.922H6.707a3.434,3.434,0,0,0,2.7-1.079,4.458,4.458,0,0,0,.965-3.073v-.665a4.529,4.529,0,0,0-.91-3.014A3.239,3.239,0,0,0,6.879,6.852Zm15.422,4.891h-4.93v4.031h5.727V17H14.121V5.625H21.27V6.852H15.621v3.664h4.93Zm11.031,1.648a4.185,4.185,0,0,1-1.332,2.785,4.365,4.365,0,0,1-2.98.98,4.008,4.008,0,0,1-3.23-1.445,5.815,5.815,0,0,1-1.215-3.867V10.75a6.481,6.481,0,0,1,.566-2.789A4.231,4.231,0,0,1,25,6.113,4.47,4.47,0,0,1,27.4,5.469,4.11,4.11,0,0,1,30.309,6.48a4.235,4.235,0,0,1,1.273,2.8H30.074a3.268,3.268,0,0,0-.848-1.975A2.565,2.565,0,0,0,27.4,6.7a2.684,2.684,0,0,0-2.254,1.063,4.882,4.882,0,0,0-.816,3.026v1.1a5.018,5.018,0,0,0,.773,2.948A2.5,2.5,0,0,0,27.27,15.93a2.886,2.886,0,0,0,1.918-.566,3.143,3.143,0,0,0,.887-1.973Zm8.328.633H35.145L34.074,17H32.527L36.871,5.625h1.313L42.535,17H41ZM35.6,12.8h3.867l-1.937-5.32ZM52.809,17H51.3L45.574,8.234V17H44.066V5.625h1.508l5.742,8.8v-8.8h1.492ZM63.332,6.852H59.676V17H58.184V6.852H54.535V5.625h8.8Zm7.352,7.172H65.918L64.848,17H63.3L67.645,5.625h1.313L73.309,17H71.77ZM66.371,12.8h3.867L68.3,7.477Zm16.836.594a4.185,4.185,0,0,1-1.332,2.785,4.365,4.365,0,0,1-2.98.98,4.008,4.008,0,0,1-3.23-1.445,5.815,5.815,0,0,1-1.215-3.867V10.75a6.481,6.481,0,0,1,.566-2.789,4.231,4.231,0,0,1,1.605-1.848,4.47,4.47,0,0,1,2.406-.645A4.11,4.11,0,0,1,81.934,6.48a4.235,4.235,0,0,1,1.273,2.8H81.7a3.268,3.268,0,0,0-.848-1.975A2.565,2.565,0,0,0,79.027,6.7a2.684,2.684,0,0,0-2.254,1.063,4.882,4.882,0,0,0-.816,3.026v1.1a5.018,5.018,0,0,0,.773,2.948,2.5,2.5,0,0,0,2.164,1.095,2.886,2.886,0,0,0,1.918-.566,3.143,3.143,0,0,0,.887-1.973ZM86.863,17h-1.5V5.625h1.5Zm11.492-5.32a7.037,7.037,0,0,1-.562,2.918A4.261,4.261,0,0,1,96.2,16.5a4.4,4.4,0,0,1-6.4-1.887,6.752,6.752,0,0,1-.59-2.832v-.82a6.953,6.953,0,0,1,.57-2.9,4.218,4.218,0,0,1,4-2.594,4.41,4.41,0,0,1,2.41.66,4.253,4.253,0,0,1,1.605,1.914,7.071,7.071,0,0,1,.563,2.918Zm-1.492-.734a5.1,5.1,0,0,0-.812-3.105,2.68,2.68,0,0,0-2.273-1.082A2.651,2.651,0,0,0,91.539,7.84a5,5,0,0,0-.84,3v.836a5.107,5.107,0,0,0,.824,3.082,2.888,2.888,0,0,0,4.52.063,5.079,5.079,0,0,0,.82-3.035ZM94.512,2.563h1.75l-2.094,2.3L93,4.855ZM109.348,17H107.84l-5.727-8.766V17h-1.508V5.625h1.508l5.742,8.8v-8.8h1.492ZM13,29.93a7.053,7.053,0,0,1-2.809-1.363,2.6,2.6,0,0,1-.879-2,2.751,2.751,0,0,1,1.074-2.223,4.269,4.269,0,0,1,2.793-.879,4.66,4.66,0,0,1,2.09.453,3.436,3.436,0,0,1,1.422,1.25,3.2,3.2,0,0,1,.5,1.742H15.684a2.08,2.08,0,0,0-.656-1.627,2.669,2.669,0,0,0-1.852-.592,2.732,2.732,0,0,0-1.73.489,1.632,1.632,0,0,0-.621,1.358,1.468,1.468,0,0,0,.59,1.178,5.785,5.785,0,0,0,2.008.88,9.316,9.316,0,0,1,2.219.88A3.367,3.367,0,0,1,16.828,30.6a2.861,2.861,0,0,1,.387,1.508,2.658,2.658,0,0,1-1.078,2.215,4.6,4.6,0,0,1-2.883.832,5.347,5.347,0,0,1-2.187-.449A3.681,3.681,0,0,1,9.5,33.477,3,3,0,0,1,8.949,31.7h1.508a1.959,1.959,0,0,0,.762,1.629,3.207,3.207,0,0,0,2.035.6,2.948,2.948,0,0,0,1.82-.484,1.573,1.573,0,0,0,.633-1.32,1.545,1.545,0,0,0-.586-1.293A6.755,6.755,0,0,0,13,29.93Zm12.57-.187h-4.93v4.031h5.727V35H19.137V23.625h7.148v1.227H20.637v3.664h4.93ZM36.6,31.391a4.185,4.185,0,0,1-1.332,2.785,4.365,4.365,0,0,1-2.98.98,4.008,4.008,0,0,1-3.23-1.445,5.815,5.815,0,0,1-1.215-3.867V28.75a6.481,6.481,0,0,1,.566-2.789,4.231,4.231,0,0,1,1.605-1.848,4.47,4.47,0,0,1,2.406-.645,4.11,4.11,0,0,1,2.906,1.012,4.235,4.235,0,0,1,1.273,2.8H35.09a3.268,3.268,0,0,0-.848-1.975,2.565,2.565,0,0,0-1.824-.611,2.684,2.684,0,0,0-2.254,1.063,4.882,4.882,0,0,0-.816,3.026v1.1a5.018,5.018,0,0,0,.773,2.948,2.5,2.5,0,0,0,2.164,1.095,2.886,2.886,0,0,0,1.918-.566,3.143,3.143,0,0,0,.887-1.973Zm10.055-7.766v7.734a3.628,3.628,0,0,1-1.012,2.633,4.077,4.077,0,0,1-2.723,1.148l-.4.016a4.258,4.258,0,0,1-2.977-1.008,3.6,3.6,0,0,1-1.125-2.773v-7.75H39.9v7.7a2.372,2.372,0,0,0,2.617,2.6,2.63,2.63,0,0,0,1.949-.68,2.6,2.6,0,0,0,.676-1.914V23.625ZM57.762,35H56.254l-5.727-8.766V35H49.02V23.625h1.508l5.742,8.8v-8.8h1.492Zm2.664,0V23.625h3.211a5.169,5.169,0,0,1,2.625.656,4.438,4.438,0,0,1,1.762,1.867,6.078,6.078,0,0,1,.629,2.781v.727a6.1,6.1,0,0,1-.621,2.82,4.369,4.369,0,0,1-1.773,1.859A5.5,5.5,0,0,1,63.574,35Zm1.5-10.148v8.922H63.5a3.434,3.434,0,0,0,2.7-1.079,4.458,4.458,0,0,0,.965-3.073v-.665a4.529,4.529,0,0,0-.91-3.014,3.239,3.239,0,0,0-2.582-1.091ZM77.2,32.023H72.434L71.363,35H69.816L74.16,23.625h1.313L79.824,35H78.285ZM72.887,30.8h3.867l-1.937-5.32Zm12.641-.4H82.855V35H81.348V23.625h3.766a4.457,4.457,0,0,1,2.957.875,3.148,3.148,0,0,1,1.035,2.547,3.062,3.062,0,0,1-.574,1.852,3.428,3.428,0,0,1-1.6,1.18l2.672,4.828V35H88Zm-2.672-1.227h2.3a2.6,2.6,0,0,0,1.777-.579,1.959,1.959,0,0,0,.66-1.55,2.062,2.062,0,0,0-.629-1.62,2.663,2.663,0,0,0-1.816-.571h-2.3ZM92.816,35h-1.5V23.625h1.5Zm9.023-2.977H97.074L96,35H94.457L98.8,23.625h1.313L104.465,35h-1.539ZM97.527,30.8h3.867l-1.937-5.32Z" transform="translate(457.791 2754)" fill="#12263f"/>
    <path id="Trazado_591476" data-name="Trazado 591476" d="M26.262,15.773h5.391V17h-6.9V5.625h1.508ZM32.754,12.7a4.993,4.993,0,0,1,.488-2.234A3.643,3.643,0,0,1,34.6,8.93a3.7,3.7,0,0,1,1.988-.539,3.565,3.565,0,0,1,2.793,1.2,4.6,4.6,0,0,1,1.066,3.18v.1a5.036,5.036,0,0,1-.473,2.215,3.589,3.589,0,0,1-1.352,1.527,3.743,3.743,0,0,1-2.02.547,3.556,3.556,0,0,1-2.785-1.2A4.575,4.575,0,0,1,32.754,12.8Zm1.453.172a3.616,3.616,0,0,0,.652,2.258,2.211,2.211,0,0,0,3.5-.012A3.955,3.955,0,0,0,39,12.7a3.61,3.61,0,0,0-.66-2.254,2.1,2.1,0,0,0-1.754-.863,2.075,2.075,0,0,0-1.727.852A3.925,3.925,0,0,0,34.207,12.867Zm7.7-.164a4.952,4.952,0,0,1,.922-3.129A3.137,3.137,0,0,1,47.6,9.406V5h1.445V17H47.715l-.07-.906a2.943,2.943,0,0,1-2.414,1.063,2.887,2.887,0,0,1-2.395-1.2,5.008,5.008,0,0,1-.926-3.141Zm1.445.164a3.749,3.749,0,0,0,.594,2.25,1.92,1.92,0,0,0,1.641.813A2.108,2.108,0,0,0,47.6,14.7V10.813a2.125,2.125,0,0,0-1.992-1.2,1.929,1.929,0,0,0-1.656.82A4.128,4.128,0,0,0,43.355,12.867ZM50.9,12.7a4.993,4.993,0,0,1,.488-2.234A3.643,3.643,0,0,1,52.75,8.93a3.7,3.7,0,0,1,1.988-.539,3.565,3.565,0,0,1,2.793,1.2,4.6,4.6,0,0,1,1.066,3.18v.1a5.036,5.036,0,0,1-.473,2.215,3.589,3.589,0,0,1-1.352,1.527,3.743,3.743,0,0,1-2.02.547,3.556,3.556,0,0,1-2.785-1.2A4.575,4.575,0,0,1,50.9,12.8Zm1.453.172a3.616,3.616,0,0,0,.652,2.258,2.211,2.211,0,0,0,3.5-.012,3.955,3.955,0,0,0,.648-2.418,3.61,3.61,0,0,0-.66-2.254,2.1,2.1,0,0,0-1.754-.863,2.075,2.075,0,0,0-1.727.852A3.925,3.925,0,0,0,52.355,12.867Zm12.977,1.891a1.064,1.064,0,0,0-.441-.91,4.249,4.249,0,0,0-1.539-.559,7.277,7.277,0,0,1-1.742-.562,2.479,2.479,0,0,1-.953-.781,1.869,1.869,0,0,1-.309-1.078,2.193,2.193,0,0,1,.879-1.758,3.432,3.432,0,0,1,2.246-.719,3.532,3.532,0,0,1,2.332.742,2.357,2.357,0,0,1,.895,1.9H65.246a1.3,1.3,0,0,0-.5-1.023,1.888,1.888,0,0,0-1.27-.43,1.976,1.976,0,0,0-1.234.344,1.082,1.082,0,0,0-.445.9.877.877,0,0,0,.414.789,5.1,5.1,0,0,0,1.5.508,7.8,7.8,0,0,1,1.754.578,2.558,2.558,0,0,1,1,.809,1.988,1.988,0,0,1,.324,1.152,2.163,2.163,0,0,1-.906,1.816,3.8,3.8,0,0,1-2.352.684,4.257,4.257,0,0,1-1.8-.359,2.922,2.922,0,0,1-1.223-1,2.42,2.42,0,0,1-.441-1.395H61.5a1.5,1.5,0,0,0,.582,1.152,2.258,2.258,0,0,0,1.434.426,2.331,2.331,0,0,0,1.316-.332A1.02,1.02,0,0,0,65.332,14.758Zm-57.391,18a1.064,1.064,0,0,0-.441-.91,4.249,4.249,0,0,0-1.539-.559,7.277,7.277,0,0,1-1.742-.562,2.479,2.479,0,0,1-.953-.781,1.869,1.869,0,0,1-.309-1.078,2.193,2.193,0,0,1,.879-1.758,3.432,3.432,0,0,1,2.246-.719,3.532,3.532,0,0,1,2.332.742,2.357,2.357,0,0,1,.895,1.9H7.855a1.3,1.3,0,0,0-.5-1.023,1.888,1.888,0,0,0-1.27-.43,1.976,1.976,0,0,0-1.234.344,1.082,1.082,0,0,0-.445.9.877.877,0,0,0,.414.789,5.1,5.1,0,0,0,1.5.508,7.8,7.8,0,0,1,1.754.578,2.558,2.558,0,0,1,1,.809,1.988,1.988,0,0,1,.324,1.152,2.163,2.163,0,0,1-.906,1.816,3.8,3.8,0,0,1-2.352.684,4.257,4.257,0,0,1-1.8-.359,2.922,2.922,0,0,1-1.223-1A2.42,2.42,0,0,1,2.668,32.4H4.113A1.5,1.5,0,0,0,4.7,33.551a2.258,2.258,0,0,0,1.434.426,2.331,2.331,0,0,0,1.316-.332A1.02,1.02,0,0,0,7.941,32.758Zm6.836,2.4a3.693,3.693,0,0,1-2.8-1.129,4.19,4.19,0,0,1-1.078-3.02v-.266a5.073,5.073,0,0,1,.48-2.246,3.748,3.748,0,0,1,1.344-1.547,3.378,3.378,0,0,1,1.871-.559,3.166,3.166,0,0,1,2.563,1.086,4.7,4.7,0,0,1,.914,3.109v.6H12.348a3,3,0,0,0,.73,2.02,2.3,2.3,0,0,0,1.777.77,2.517,2.517,0,0,0,1.3-.312,3.259,3.259,0,0,0,.93-.828l.883.688A3.55,3.55,0,0,1,14.777,35.156Zm-.18-7.578a1.928,1.928,0,0,0-1.469.637A3.1,3.1,0,0,0,12.395,30h4.234v-.109a2.753,2.753,0,0,0-.594-1.707A1.815,1.815,0,0,0,14.6,27.578Zm8.539,6.4a2.082,2.082,0,0,0,1.352-.469,1.649,1.649,0,0,0,.641-1.172H26.5a2.621,2.621,0,0,1-.5,1.383,3.293,3.293,0,0,1-1.23,1.047,3.55,3.55,0,0,1-1.629.391A3.482,3.482,0,0,1,20.391,34a4.59,4.59,0,0,1-1.02-3.152v-.242a5.089,5.089,0,0,1,.453-2.2,3.451,3.451,0,0,1,1.3-1.492,3.7,3.7,0,0,1,2-.531,3.39,3.39,0,0,1,2.363.852,3.043,3.043,0,0,1,1,2.211H25.129a1.992,1.992,0,0,0-.621-1.348,1.932,1.932,0,0,0-1.379-.527,2.023,2.023,0,0,0-1.707.793,3.724,3.724,0,0,0-.605,2.293v.273a3.65,3.65,0,0,0,.6,2.25A2.033,2.033,0,0,0,23.137,33.977Zm10.2.188a3.07,3.07,0,0,1-2.477.992,2.628,2.628,0,0,1-2.059-.785,3.4,3.4,0,0,1-.715-2.324v-5.5h1.445v5.461q0,1.922,1.563,1.922A2.163,2.163,0,0,0,33.3,32.7V26.547h1.445V35H33.371Zm4.969-7.617.047,1.063a3.08,3.08,0,0,1,2.531-1.219q2.68,0,2.7,3.023V35H42.145V29.406a1.946,1.946,0,0,0-.418-1.352,1.675,1.675,0,0,0-1.277-.437,2.086,2.086,0,0,0-1.234.375,2.546,2.546,0,0,0-.828.984V35H36.941V26.547ZM45.418,30.7a4.952,4.952,0,0,1,.922-3.129,3.137,3.137,0,0,1,4.766-.168V23h1.445V35H51.223l-.07-.906a2.943,2.943,0,0,1-2.414,1.063,2.887,2.887,0,0,1-2.395-1.2,5.008,5.008,0,0,1-.926-3.141Zm1.445.164a3.749,3.749,0,0,0,.594,2.25,1.919,1.919,0,0,0,1.641.813A2.108,2.108,0,0,0,51.105,32.7V28.813a2.125,2.125,0,0,0-1.992-1.2,1.929,1.929,0,0,0-1.656.82A4.128,4.128,0,0,0,46.863,30.867ZM60.012,35a3.036,3.036,0,0,1-.2-.891A3.225,3.225,0,0,1,57.4,35.156a2.984,2.984,0,0,1-2.051-.707,2.287,2.287,0,0,1-.8-1.793,2.39,2.39,0,0,1,1-2.051,4.733,4.733,0,0,1,2.824-.73h1.406v-.664A1.623,1.623,0,0,0,59.332,28,1.821,1.821,0,0,0,58,27.555a2.107,2.107,0,0,0-1.3.391,1.151,1.151,0,0,0-.523.945H54.723a2,2,0,0,1,.449-1.223,3.066,3.066,0,0,1,1.219-.934,4.1,4.1,0,0,1,1.691-.344,3.342,3.342,0,0,1,2.289.73,2.635,2.635,0,0,1,.859,2.012v3.891a4.757,4.757,0,0,0,.3,1.852V35Zm-2.4-1.1a2.54,2.54,0,0,0,1.289-.352,2.127,2.127,0,0,0,.883-.914V30.9H58.652Q56,30.9,56,32.453a1.316,1.316,0,0,0,.453,1.063A1.742,1.742,0,0,0,57.613,33.9Zm9.969-6.055a4.331,4.331,0,0,0-.711-.055A1.9,1.9,0,0,0,64.941,29v6H63.5V26.547H64.9l.023.977a2.251,2.251,0,0,1,2.016-1.133,1.477,1.477,0,0,1,.641.109ZM70.48,35H69.035V26.547H70.48ZM68.918,24.3a.863.863,0,0,1,.215-.594.807.807,0,0,1,.637-.242.819.819,0,0,1,.641.242.854.854,0,0,1,.219.594.826.826,0,0,1-.219.586.834.834,0,0,1-.641.234.821.821,0,0,1-.637-.234A.834.834,0,0,1,68.918,24.3ZM72.41,30.7a4.993,4.993,0,0,1,.488-2.234,3.643,3.643,0,0,1,1.359-1.531,3.7,3.7,0,0,1,1.988-.539,3.565,3.565,0,0,1,2.793,1.2,4.6,4.6,0,0,1,1.066,3.18v.1a5.036,5.036,0,0,1-.473,2.215,3.589,3.589,0,0,1-1.352,1.527,3.743,3.743,0,0,1-2.02.547,3.556,3.556,0,0,1-2.785-1.2A4.575,4.575,0,0,1,72.41,30.8Zm1.453.172a3.616,3.616,0,0,0,.652,2.258,2.211,2.211,0,0,0,3.5-.012A3.955,3.955,0,0,0,78.66,30.7,3.61,3.61,0,0,0,78,28.441a2.1,2.1,0,0,0-1.754-.863,2.075,2.075,0,0,0-1.727.852A3.925,3.925,0,0,0,73.863,30.867ZM86.84,32.758a1.064,1.064,0,0,0-.441-.91,4.249,4.249,0,0,0-1.539-.559,7.277,7.277,0,0,1-1.742-.562,2.478,2.478,0,0,1-.953-.781,1.869,1.869,0,0,1-.309-1.078,2.193,2.193,0,0,1,.879-1.758,3.432,3.432,0,0,1,2.246-.719,3.532,3.532,0,0,1,2.332.742,2.357,2.357,0,0,1,.895,1.9H86.754a1.3,1.3,0,0,0-.5-1.023,1.888,1.888,0,0,0-1.27-.43,1.976,1.976,0,0,0-1.234.344,1.082,1.082,0,0,0-.445.9.877.877,0,0,0,.414.789,5.1,5.1,0,0,0,1.5.508,7.8,7.8,0,0,1,1.754.578,2.558,2.558,0,0,1,1,.809,1.988,1.988,0,0,1,.324,1.152,2.163,2.163,0,0,1-.906,1.816,3.8,3.8,0,0,1-2.352.684,4.257,4.257,0,0,1-1.8-.359,2.922,2.922,0,0,1-1.223-1,2.42,2.42,0,0,1-.441-1.395h1.445a1.5,1.5,0,0,0,.582,1.152,2.258,2.258,0,0,0,1.434.426,2.331,2.331,0,0,0,1.316-.332A1.02,1.02,0,0,0,86.84,32.758Z" transform="translate(466.791 2850)" fill="#12263f"/>
    <path id="Trazado_591474" data-name="Trazado 591474" d="M10.055,11.742H5.125v4.031h5.727V17H3.625V5.625h7.148V6.852H5.125v3.664h4.93Zm4.172,4.031h5.391V17h-6.9V5.625h1.508ZM22.938,17h-1.5V5.625h1.5Zm4.68-11.375,3.719,9.281,3.719-9.281H37V17H35.5V12.57l.141-4.781L31.906,17H30.758L27.031,7.813l.148,4.758V17h-1.5V5.625ZM41.258,17h-1.5V5.625h1.5Zm11.484,0H51.234L45.508,8.234V17H44V5.625h1.508l5.742,8.8v-8.8h1.492Zm8.945-2.977H56.922L55.852,17H54.3L58.648,5.625h1.313L64.313,17H62.773ZM57.375,12.8h3.867L59.3,7.477Zm16.836.594a4.185,4.185,0,0,1-1.332,2.785,4.365,4.365,0,0,1-2.98.98,4.008,4.008,0,0,1-3.23-1.445,5.815,5.815,0,0,1-1.215-3.867V10.75a6.481,6.481,0,0,1,.566-2.789,4.231,4.231,0,0,1,1.605-1.848,4.47,4.47,0,0,1,2.406-.645A4.11,4.11,0,0,1,72.938,6.48a4.235,4.235,0,0,1,1.273,2.8H72.7a3.268,3.268,0,0,0-.848-1.975A2.565,2.565,0,0,0,70.031,6.7a2.684,2.684,0,0,0-2.254,1.063,4.882,4.882,0,0,0-.816,3.026v1.1a5.018,5.018,0,0,0,.773,2.948A2.5,2.5,0,0,0,69.9,15.93a2.886,2.886,0,0,0,1.918-.566,3.143,3.143,0,0,0,.887-1.973ZM77.867,17h-1.5V5.625h1.5Zm11.492-5.32A7.037,7.037,0,0,1,88.8,14.6,4.261,4.261,0,0,1,87.2,16.5a4.4,4.4,0,0,1-6.4-1.887,6.752,6.752,0,0,1-.59-2.832v-.82a6.953,6.953,0,0,1,.57-2.9,4.218,4.218,0,0,1,4-2.594,4.41,4.41,0,0,1,2.41.66A4.253,4.253,0,0,1,88.8,8.043a7.071,7.071,0,0,1,.563,2.918Zm-1.492-.734a5.1,5.1,0,0,0-.812-3.105,2.68,2.68,0,0,0-2.273-1.082A2.651,2.651,0,0,0,82.543,7.84a5,5,0,0,0-.84,3v.836a5.107,5.107,0,0,0,.824,3.082,2.888,2.888,0,0,0,4.52.063,5.079,5.079,0,0,0,.82-3.035ZM85.516,2.563h1.75l-2.094,2.3-1.164,0ZM100.352,17H98.844L93.117,8.234V17H91.609V5.625h1.508l5.742,8.8v-8.8h1.492ZM22.031,35V23.625h3.211a5.169,5.169,0,0,1,2.625.656,4.438,4.438,0,0,1,1.762,1.867,6.078,6.078,0,0,1,.629,2.781v.727a6.1,6.1,0,0,1-.621,2.82,4.369,4.369,0,0,1-1.773,1.859A5.5,5.5,0,0,1,25.18,35Zm1.5-10.148v8.922h1.578a3.434,3.434,0,0,0,2.7-1.079,4.458,4.458,0,0,0,.965-3.073v-.665a4.529,4.529,0,0,0-.91-3.014,3.239,3.239,0,0,0-2.582-1.091Zm15.422,4.891h-4.93v4.031H39.75V35H32.523V23.625h7.148v1.227H34.023v3.664h4.93ZM54.32,35H52.813l-5.727-8.766V35H45.578V23.625h1.508l5.742,8.8v-8.8H54.32Zm10.094-5.664,2.969-5.711h1.7l-3.922,7.133V35h-1.5V30.758l-3.922-7.133h1.719Zm11.6,1.211V35h-1.5V23.625h4.2a4.215,4.215,0,0,1,2.926.953A3.231,3.231,0,0,1,82.7,27.1a3.189,3.189,0,0,1-1.035,2.551,4.4,4.4,0,0,1-2.965.895Zm0-1.227h2.7a2.7,2.7,0,0,0,1.844-.567,2.075,2.075,0,0,0,.641-1.64,2.143,2.143,0,0,0-.641-1.628,2.525,2.525,0,0,0-1.758-.634H76.016Z" transform="translate(181.791 2758)" fill="#12263f"/>
    <path id="Trazado_591475" data-name="Trazado 591475" d="M30.387,15.773h5.391V17h-6.9V5.625h1.508ZM36.879,12.7a4.993,4.993,0,0,1,.488-2.234A3.643,3.643,0,0,1,38.727,8.93a3.7,3.7,0,0,1,1.988-.539,3.565,3.565,0,0,1,2.793,1.2,4.6,4.6,0,0,1,1.066,3.18v.1a5.036,5.036,0,0,1-.473,2.215,3.589,3.589,0,0,1-1.352,1.527,3.743,3.743,0,0,1-2.02.547,3.556,3.556,0,0,1-2.785-1.2A4.575,4.575,0,0,1,36.879,12.8Zm1.453.172a3.616,3.616,0,0,0,.652,2.258,2.211,2.211,0,0,0,3.5-.012,3.955,3.955,0,0,0,.648-2.418,3.61,3.61,0,0,0-.66-2.254,2.1,2.1,0,0,0-1.754-.863,2.075,2.075,0,0,0-1.727.852A3.925,3.925,0,0,0,38.332,12.867Zm7.7-.164a4.952,4.952,0,0,1,.922-3.129,3.137,3.137,0,0,1,4.766-.168V5h1.445V17H51.84l-.07-.906a2.943,2.943,0,0,1-2.414,1.063,2.887,2.887,0,0,1-2.395-1.2,5.008,5.008,0,0,1-.926-3.141Zm1.445.164a3.749,3.749,0,0,0,.594,2.25,1.92,1.92,0,0,0,1.641.813A2.108,2.108,0,0,0,51.723,14.7V10.813a2.125,2.125,0,0,0-1.992-1.2,1.929,1.929,0,0,0-1.656.82A4.128,4.128,0,0,0,47.48,12.867Zm7.547-.172a4.993,4.993,0,0,1,.488-2.234A3.643,3.643,0,0,1,56.875,8.93a3.7,3.7,0,0,1,1.988-.539,3.565,3.565,0,0,1,2.793,1.2,4.6,4.6,0,0,1,1.066,3.18v.1a5.036,5.036,0,0,1-.473,2.215A3.589,3.589,0,0,1,60.9,16.609a3.743,3.743,0,0,1-2.02.547,3.556,3.556,0,0,1-2.785-1.2A4.575,4.575,0,0,1,55.027,12.8Zm1.453.172a3.616,3.616,0,0,0,.652,2.258,2.211,2.211,0,0,0,3.5-.012,3.955,3.955,0,0,0,.648-2.418,3.61,3.61,0,0,0-.66-2.254,2.1,2.1,0,0,0-1.754-.863,2.075,2.075,0,0,0-1.727.852A3.925,3.925,0,0,0,56.48,12.867ZM15.254,30.5v2.047h1.578v1.117H15.254v5.249a1.173,1.173,0,0,0,.211.763.888.888,0,0,0,.719.254,3.5,3.5,0,0,0,.688-.094V41a4.215,4.215,0,0,1-1.109.155A1.8,1.8,0,0,1,14.3,40.57a2.517,2.517,0,0,1-.492-1.664V33.664H12.27V32.547h1.539V30.5Zm6.773,10.656a3.693,3.693,0,0,1-2.8-1.129,4.19,4.19,0,0,1-1.078-3.02v-.266a5.073,5.073,0,0,1,.48-2.246,3.748,3.748,0,0,1,1.344-1.547,3.378,3.378,0,0,1,1.871-.559,3.166,3.166,0,0,1,2.563,1.086,4.7,4.7,0,0,1,.914,3.109v.6H19.6a3,3,0,0,0,.73,2.02,2.3,2.3,0,0,0,1.777.77,2.517,2.517,0,0,0,1.3-.312,3.259,3.259,0,0,0,.93-.828l.883.688A3.55,3.55,0,0,1,22.027,41.156Zm-.18-7.578a1.928,1.928,0,0,0-1.469.637A3.1,3.1,0,0,0,19.645,36h4.234v-.109a2.753,2.753,0,0,0-.594-1.707A1.815,1.815,0,0,0,21.848,33.578Zm9.234.266a4.331,4.331,0,0,0-.711-.055A1.9,1.9,0,0,0,28.441,35v6H27V32.547H28.4l.023.977a2.251,2.251,0,0,1,2.016-1.133,1.477,1.477,0,0,1,.641.109Zm4.57,6.133A2.082,2.082,0,0,0,37,39.508a1.649,1.649,0,0,0,.641-1.172h1.367a2.621,2.621,0,0,1-.5,1.383,3.293,3.293,0,0,1-1.23,1.047,3.55,3.55,0,0,1-1.629.391A3.482,3.482,0,0,1,32.906,40a4.59,4.59,0,0,1-1.02-3.152v-.242a5.089,5.089,0,0,1,.453-2.2,3.451,3.451,0,0,1,1.3-1.492,3.7,3.7,0,0,1,2-.531,3.39,3.39,0,0,1,2.363.852,3.043,3.043,0,0,1,1,2.211H37.645a1.992,1.992,0,0,0-.621-1.348,1.932,1.932,0,0,0-1.379-.527,2.023,2.023,0,0,0-1.707.793,3.724,3.724,0,0,0-.605,2.293v.273a3.65,3.65,0,0,0,.6,2.25A2.033,2.033,0,0,0,35.652,39.977ZM42.207,41H40.762V32.547h1.445ZM40.645,30.3a.863.863,0,0,1,.215-.594.807.807,0,0,1,.637-.242.819.819,0,0,1,.641.242.854.854,0,0,1,.219.594.826.826,0,0,1-.219.586.834.834,0,0,1-.641.234.821.821,0,0,1-.637-.234A.834.834,0,0,1,40.645,30.3ZM49.738,41a3.036,3.036,0,0,1-.2-.891,3.225,3.225,0,0,1-2.406,1.047,2.984,2.984,0,0,1-2.051-.707,2.287,2.287,0,0,1-.8-1.793,2.39,2.39,0,0,1,1-2.051,4.733,4.733,0,0,1,2.824-.73h1.406v-.664A1.623,1.623,0,0,0,49.059,34a1.821,1.821,0,0,0-1.336-.449,2.107,2.107,0,0,0-1.3.391,1.151,1.151,0,0,0-.523.945H44.449a2,2,0,0,1,.449-1.223,3.066,3.066,0,0,1,1.219-.934,4.1,4.1,0,0,1,1.691-.344,3.342,3.342,0,0,1,2.289.73,2.635,2.635,0,0,1,.859,2.012v3.891a4.757,4.757,0,0,0,.3,1.852V41Zm-2.4-1.1a2.54,2.54,0,0,0,1.289-.352,2.127,2.127,0,0,0,.883-.914V36.9H48.379q-2.656,0-2.656,1.555a1.316,1.316,0,0,0,.453,1.063A1.742,1.742,0,0,0,47.34,39.9Zm9.969-6.055a4.331,4.331,0,0,0-.711-.055A1.9,1.9,0,0,0,54.668,35v6H53.223V32.547h1.406l.023.977a2.251,2.251,0,0,1,2.016-1.133,1.477,1.477,0,0,1,.641.109ZM60.207,41H58.762V32.547h1.445ZM58.645,30.3a.863.863,0,0,1,.215-.594.807.807,0,0,1,.637-.242.819.819,0,0,1,.641.242.854.854,0,0,1,.219.594.826.826,0,0,1-.219.586.834.834,0,0,1-.641.234.821.821,0,0,1-.637-.234A.834.834,0,0,1,58.645,30.3ZM62.137,36.7a4.993,4.993,0,0,1,.488-2.234,3.643,3.643,0,0,1,1.359-1.531,3.7,3.7,0,0,1,1.988-.539,3.565,3.565,0,0,1,2.793,1.2,4.6,4.6,0,0,1,1.066,3.18v.1a5.036,5.036,0,0,1-.473,2.215,3.589,3.589,0,0,1-1.352,1.527,3.743,3.743,0,0,1-2.02.547,3.556,3.556,0,0,1-2.785-1.2A4.575,4.575,0,0,1,62.137,36.8Zm1.453.172a3.616,3.616,0,0,0,.652,2.258,2.211,2.211,0,0,0,3.5-.012,3.955,3.955,0,0,0,.648-2.418,3.61,3.61,0,0,0-.66-2.254,2.1,2.1,0,0,0-1.754-.863,2.075,2.075,0,0,0-1.727.852A3.925,3.925,0,0,0,63.59,36.867Zm12.977,1.891a1.064,1.064,0,0,0-.441-.91,4.249,4.249,0,0,0-1.539-.559,7.277,7.277,0,0,1-1.742-.562,2.479,2.479,0,0,1-.953-.781,1.869,1.869,0,0,1-.309-1.078,2.193,2.193,0,0,1,.879-1.758,3.432,3.432,0,0,1,2.246-.719,3.532,3.532,0,0,1,2.332.742,2.357,2.357,0,0,1,.895,1.9H76.48a1.3,1.3,0,0,0-.5-1.023,1.888,1.888,0,0,0-1.27-.43,1.976,1.976,0,0,0-1.234.344,1.082,1.082,0,0,0-.445.9.877.877,0,0,0,.414.789,5.1,5.1,0,0,0,1.5.508,7.8,7.8,0,0,1,1.754.578,2.558,2.558,0,0,1,1,.809,1.988,1.988,0,0,1,.324,1.152,2.163,2.163,0,0,1-.906,1.816,3.8,3.8,0,0,1-2.352.684,4.257,4.257,0,0,1-1.8-.359,2.922,2.922,0,0,1-1.223-1,2.42,2.42,0,0,1-.441-1.395h1.445a1.5,1.5,0,0,0,.582,1.152,2.258,2.258,0,0,0,1.434.426,2.331,2.331,0,0,0,1.316-.332A1.02,1.02,0,0,0,76.566,38.758Z" transform="translate(189.791 2851)" fill="#12263f"/>
    <path id="Trazado_591478" data-name="Trazado 591478" d="M11.867,15.008l3.25-9.383h1.641L12.539,17H11.211L7,5.625H8.633Zm12.844-3.266h-4.93v4.031h5.727V17H18.281V5.625H25.43V6.852H19.781v3.664h4.93Zm6.836.656H28.875V17H27.367V5.625h3.766A4.457,4.457,0,0,1,34.09,6.5a3.148,3.148,0,0,1,1.035,2.547,3.062,3.062,0,0,1-.574,1.852,3.428,3.428,0,0,1-1.6,1.18l2.672,4.828V17H34.016Zm-2.672-1.227h2.3a2.6,2.6,0,0,0,1.777-.579,1.959,1.959,0,0,0,.66-1.55,2.062,2.062,0,0,0-.629-1.62,2.663,2.663,0,0,0-1.816-.571h-2.3Zm15.586-4.32H40.8V17H39.313V6.852H35.664V5.625h8.8ZM47.758,17h-1.5V5.625h1.5Zm4.68-11.375,3.719,9.281,3.719-9.281H61.82V17h-1.5V12.57l.141-4.781L56.727,17H55.578L51.852,7.813,52,12.57V17H50.5V5.625ZM66.078,17h-1.5V5.625h1.5Zm9.172-5.258H70.32v4.031h5.727V17H68.82V5.625h7.148V6.852H70.32v3.664h4.93ZM86.656,17H85.148L79.422,8.234V17H77.914V5.625h1.508l5.742,8.8v-8.8h1.492ZM97.18,6.852H93.523V17H92.031V6.852H88.383V5.625h8.8ZM107.4,11.68a7.037,7.037,0,0,1-.562,2.918,4.261,4.261,0,0,1-1.594,1.9,4.4,4.4,0,0,1-6.4-1.887,6.752,6.752,0,0,1-.59-2.832v-.82a6.953,6.953,0,0,1,.57-2.9,4.218,4.218,0,0,1,4-2.594,4.41,4.41,0,0,1,2.41.66,4.253,4.253,0,0,1,1.605,1.914,7.071,7.071,0,0,1,.563,2.918Zm-1.492-.734a5.1,5.1,0,0,0-.812-3.105,2.68,2.68,0,0,0-2.273-1.082,2.651,2.651,0,0,0-2.238,1.082,5,5,0,0,0-.84,3v.836a5.107,5.107,0,0,0,.824,3.082,2.888,2.888,0,0,0,4.52.063,5.079,5.079,0,0,0,.82-3.035ZM113,11.93a7.053,7.053,0,0,1-2.809-1.363,2.6,2.6,0,0,1-.879-2,2.751,2.751,0,0,1,1.074-2.223,4.269,4.269,0,0,1,2.793-.879,4.66,4.66,0,0,1,2.09.453,3.436,3.436,0,0,1,1.422,1.25,3.2,3.2,0,0,1,.5,1.742h-1.508a2.08,2.08,0,0,0-.656-1.627A2.669,2.669,0,0,0,113.18,6.7a2.732,2.732,0,0,0-1.73.489,1.632,1.632,0,0,0-.621,1.358,1.468,1.468,0,0,0,.59,1.178,5.785,5.785,0,0,0,2.008.88,9.316,9.316,0,0,1,2.219.88,3.367,3.367,0,0,1,1.188,1.121,2.861,2.861,0,0,1,.387,1.508,2.658,2.658,0,0,1-1.078,2.215,4.6,4.6,0,0,1-2.883.832,5.347,5.347,0,0,1-2.187-.449,3.681,3.681,0,0,1-1.566-1.23,3,3,0,0,1-.551-1.773h1.508a1.959,1.959,0,0,0,.762,1.629,3.207,3.207,0,0,0,2.035.6,2.948,2.948,0,0,0,1.82-.484,1.573,1.573,0,0,0,.633-1.32,1.545,1.545,0,0,0-.586-1.293A6.755,6.755,0,0,0,113,11.93Zm16.383,2.094h-4.766L123.547,17H122l4.344-11.375h1.313L132.008,17h-1.539ZM125.07,12.8h3.867L127,7.477ZM15.281,29.977H10.508V35h-1.5V23.625h7.047v1.227H10.508v3.9h4.773Zm10.578-6.352v7.734a3.628,3.628,0,0,1-1.012,2.633,4.077,4.077,0,0,1-2.723,1.148l-.4.016a4.258,4.258,0,0,1-2.977-1.008,3.6,3.6,0,0,1-1.125-2.773v-7.75h1.484v7.7a2.372,2.372,0,0,0,2.617,2.6,2.63,2.63,0,0,0,1.949-.68,2.6,2.6,0,0,0,.676-1.914V23.625Zm8.8,6.117h-4.93v4.031h5.727V35H28.227V23.625h7.148v1.227H29.727v3.664h4.93ZM46.063,35H44.555l-5.727-8.766V35H37.32V23.625h1.508l5.742,8.8v-8.8h1.492ZM56.586,24.852H52.93V35H51.438V24.852H47.789V23.625h8.8ZM64.7,29.742h-4.93v4.031H65.5V35H58.273V23.625h7.148v1.227H59.773v3.664H64.7ZM80.07,35H78.563V29.742H72.828V35h-1.5V23.625h1.5v4.891h5.734V23.625H80.07Zm4.273,0h-1.5V23.625h1.5ZM84.3,20.484h1.75l-2.094,2.3-1.164,0ZM87.086,35V23.625H90.3a5.169,5.169,0,0,1,2.625.656,4.438,4.438,0,0,1,1.762,1.867,6.078,6.078,0,0,1,.629,2.781v.727a6.1,6.1,0,0,1-.621,2.82,4.369,4.369,0,0,1-1.773,1.859A5.5,5.5,0,0,1,90.234,35Zm1.5-10.148v8.922h1.578a3.434,3.434,0,0,0,2.7-1.079,4.458,4.458,0,0,0,.965-3.073v-.665a4.529,4.529,0,0,0-.91-3.014,3.239,3.239,0,0,0-2.582-1.091ZM101.75,30.4H99.078V35H97.57V23.625h3.766a4.457,4.457,0,0,1,2.957.875,3.148,3.148,0,0,1,1.035,2.547,3.062,3.062,0,0,1-.574,1.852,3.428,3.428,0,0,1-1.6,1.18l2.672,4.828V35h-1.609Zm-2.672-1.227h2.3a2.6,2.6,0,0,0,1.777-.579,1.959,1.959,0,0,0,.66-1.55,2.062,2.062,0,0,0-.629-1.62,2.663,2.663,0,0,0-1.816-.571h-2.3ZM109.039,35h-1.5V23.625h1.5Zm11.109-3.609a4.185,4.185,0,0,1-1.332,2.785,4.365,4.365,0,0,1-2.98.98,4.008,4.008,0,0,1-3.23-1.445,5.815,5.815,0,0,1-1.215-3.867V28.75a6.481,6.481,0,0,1,.566-2.789,4.231,4.231,0,0,1,1.605-1.848,4.47,4.47,0,0,1,2.406-.645,4.11,4.11,0,0,1,2.906,1.012,4.235,4.235,0,0,1,1.273,2.8h-1.508a3.268,3.268,0,0,0-.848-1.975,2.565,2.565,0,0,0-1.824-.611,2.684,2.684,0,0,0-2.254,1.063,4.882,4.882,0,0,0-.816,3.026v1.1a5.018,5.018,0,0,0,.773,2.948,2.5,2.5,0,0,0,2.164,1.095,2.886,2.886,0,0,0,1.918-.566,3.143,3.143,0,0,0,.887-1.973Zm8.328.633h-4.766L122.641,35h-1.547l4.344-11.375h1.313L131.1,35h-1.539ZM124.164,30.8h3.867l-1.937-5.32Z" transform="translate(721.791 2968)" fill="#12263f"/>
    <path id="Trazado_591466" data-name="Trazado 591466" d="M12.516,14.023H7.75L6.68,17H5.133L9.477,5.625h1.313L15.141,17H13.6ZM8.2,12.8H12.07l-1.937-5.32Zm9.977,2.977H23.57V17h-6.9V5.625H18.18Zm15.469-2.383a4.185,4.185,0,0,1-1.332,2.785,4.365,4.365,0,0,1-2.98.98,4.008,4.008,0,0,1-3.23-1.445,5.815,5.815,0,0,1-1.215-3.867V10.75a6.481,6.481,0,0,1,.566-2.789,4.231,4.231,0,0,1,1.605-1.848,4.47,4.47,0,0,1,2.406-.645A4.11,4.11,0,0,1,32.375,6.48a4.235,4.235,0,0,1,1.273,2.8H32.141a3.268,3.268,0,0,0-.848-1.975A2.565,2.565,0,0,0,29.469,6.7a2.684,2.684,0,0,0-2.254,1.063,4.882,4.882,0,0,0-.816,3.026v1.1a5.018,5.018,0,0,0,.773,2.948,2.5,2.5,0,0,0,2.164,1.095,2.886,2.886,0,0,0,1.918-.566,3.143,3.143,0,0,0,.887-1.973Zm8.328.633H37.211L36.141,17H34.594L38.938,5.625H40.25L44.6,17H43.063ZM37.664,12.8h3.867l-1.937-5.32ZM54.875,17H53.367L47.641,8.234V17H46.133V5.625h1.508l5.742,8.8v-8.8h1.492ZM65.4,6.852H61.742V17H60.25V6.852H56.6V5.625h8.8Zm7.352,7.172H67.984L66.914,17H65.367L69.711,5.625h1.313L75.375,17H73.836ZM68.438,12.8H72.3l-1.937-5.32Zm12.641-.4H78.406V17H76.9V5.625h3.766a4.457,4.457,0,0,1,2.957.875,3.148,3.148,0,0,1,1.035,2.547,3.062,3.062,0,0,1-.574,1.852,3.428,3.428,0,0,1-1.6,1.18l2.672,4.828V17H83.547Zm-2.672-1.227h2.3a2.6,2.6,0,0,0,1.777-.579,1.959,1.959,0,0,0,.66-1.55,2.062,2.062,0,0,0-.629-1.62A2.663,2.663,0,0,0,80.7,6.852h-2.3ZM88.367,17h-1.5V5.625h1.5Zm4.25-1.227h5.391V17h-6.9V5.625h1.508Zm8.609,0h5.391V17h-6.9V5.625h1.508Zm13.531-1.75h-4.766L108.922,17h-1.547l4.344-11.375h1.313L117.383,17h-1.539ZM110.445,12.8h3.867l-1.937-5.32Zm8.469,4.2V5.625h3.211a5.169,5.169,0,0,1,2.625.656,4.438,4.438,0,0,1,1.762,1.867,6.078,6.078,0,0,1,.629,2.781v.727a6.1,6.1,0,0,1-.621,2.82,4.369,4.369,0,0,1-1.773,1.859,5.5,5.5,0,0,1-2.684.664Zm1.5-10.148v8.922h1.578a3.434,3.434,0,0,0,2.7-1.079,4.458,4.458,0,0,0,.965-3.073v-.665a4.529,4.529,0,0,0-.91-3.014,3.239,3.239,0,0,0-2.582-1.091Zm17.742,4.828a7.037,7.037,0,0,1-.562,2.918A4.261,4.261,0,0,1,136,16.5a4.4,4.4,0,0,1-6.4-1.887,6.752,6.752,0,0,1-.59-2.832v-.82a6.953,6.953,0,0,1,.57-2.9,4.218,4.218,0,0,1,4-2.594,4.41,4.41,0,0,1,2.41.66,4.253,4.253,0,0,1,1.605,1.914,7.071,7.071,0,0,1,.563,2.918Zm-1.492-.734a5.1,5.1,0,0,0-.812-3.105,2.68,2.68,0,0,0-2.273-1.082A2.651,2.651,0,0,0,131.34,7.84a5,5,0,0,0-.84,3v.836a5.107,5.107,0,0,0,.824,3.082,2.888,2.888,0,0,0,4.52.063,5.079,5.079,0,0,0,.82-3.035Z" transform="translate(301.791 2572)" fill="#12263f"/>
    <path id="Trazado_591467" data-name="Trazado 591467" d="M46.867,14.023H42.1L41.031,17H39.484L43.828,5.625h1.313L49.492,17H47.953ZM42.555,12.8h3.867l-1.937-5.32Zm16.867,2.711a3.465,3.465,0,0,1-1.613,1.238,6.517,6.517,0,0,1-2.41.41A4.674,4.674,0,0,1,52.93,16.5a4.346,4.346,0,0,1-1.668-1.855,6.408,6.408,0,0,1-.605-2.789v-.992a5.982,5.982,0,0,1,1.2-3.984,4.179,4.179,0,0,1,3.371-1.414,4.316,4.316,0,0,1,2.867.91,3.965,3.965,0,0,1,1.328,2.582h-1.5A2.48,2.48,0,0,0,55.234,6.7a2.655,2.655,0,0,0-2.285,1.06,5.173,5.173,0,0,0-.785,3.069v.93a4.848,4.848,0,0,0,.875,3.046,2.836,2.836,0,0,0,2.367,1.13,5.228,5.228,0,0,0,1.477-.187,2.283,2.283,0,0,0,1.047-.631V12.563H55.3V11.336h4.125ZM69.93,5.625v7.734a3.628,3.628,0,0,1-1.012,2.633A4.077,4.077,0,0,1,66.2,17.141l-.4.016a4.258,4.258,0,0,1-2.977-1.008A3.6,3.6,0,0,1,61.7,13.375V5.625H63.18v7.7a2.6,2.6,0,0,0,.68,1.918,3.111,3.111,0,0,0,3.887,0,2.6,2.6,0,0,0,.676-1.914V5.625Zm8.477,8.4H73.641L72.57,17H71.023L75.367,5.625H76.68L81.031,17H79.492ZM74.094,12.8h3.867l-1.937-5.32Zm11.82-.867a7.053,7.053,0,0,1-2.809-1.363,2.6,2.6,0,0,1-.879-2A2.751,2.751,0,0,1,83.3,6.348a4.269,4.269,0,0,1,2.793-.879,4.66,4.66,0,0,1,2.09.453,3.436,3.436,0,0,1,1.422,1.25,3.2,3.2,0,0,1,.5,1.742H88.6a2.08,2.08,0,0,0-.656-1.627A2.669,2.669,0,0,0,86.094,6.7a2.732,2.732,0,0,0-1.73.489,1.632,1.632,0,0,0-.621,1.358,1.468,1.468,0,0,0,.59,1.178,5.785,5.785,0,0,0,2.008.88,9.316,9.316,0,0,1,2.219.88A3.367,3.367,0,0,1,89.746,12.6a2.861,2.861,0,0,1,.387,1.508,2.658,2.658,0,0,1-1.078,2.215,4.6,4.6,0,0,1-2.883.832,5.347,5.347,0,0,1-2.187-.449,3.681,3.681,0,0,1-1.566-1.23,3,3,0,0,1-.551-1.773h1.508a1.959,1.959,0,0,0,.762,1.629,3.207,3.207,0,0,0,2.035.6,2.948,2.948,0,0,0,1.82-.484,1.573,1.573,0,0,0,.633-1.32,1.545,1.545,0,0,0-.586-1.293A6.755,6.755,0,0,0,85.914,11.93ZM24.934,30.4H22.262V35H20.754V23.625H24.52a4.457,4.457,0,0,1,2.957.875,3.148,3.148,0,0,1,1.035,2.547,3.062,3.062,0,0,1-.574,1.852,3.428,3.428,0,0,1-1.6,1.18l2.672,4.828V35H27.4Zm-2.672-1.227h2.3a2.6,2.6,0,0,0,1.777-.579,1.959,1.959,0,0,0,.66-1.55,2.062,2.062,0,0,0-.629-1.62,2.663,2.663,0,0,0-1.816-.571h-2.3Zm14.781.57h-4.93v4.031H37.84V35H30.613V23.625h7.148v1.227H32.113v3.664h4.93Zm6.016.188a7.053,7.053,0,0,1-2.809-1.363,2.6,2.6,0,0,1-.879-2,2.751,2.751,0,0,1,1.074-2.223,4.269,4.269,0,0,1,2.793-.879,4.66,4.66,0,0,1,2.09.453,3.436,3.436,0,0,1,1.422,1.25,3.2,3.2,0,0,1,.5,1.742H45.746a2.08,2.08,0,0,0-.656-1.627,2.669,2.669,0,0,0-1.852-.592,2.732,2.732,0,0,0-1.73.489,1.632,1.632,0,0,0-.621,1.358,1.468,1.468,0,0,0,.59,1.178,5.786,5.786,0,0,0,2.008.88,9.316,9.316,0,0,1,2.219.88A3.367,3.367,0,0,1,46.891,30.6a2.861,2.861,0,0,1,.387,1.508A2.658,2.658,0,0,1,46.2,34.324a4.6,4.6,0,0,1-2.883.832,5.347,5.347,0,0,1-2.187-.449,3.681,3.681,0,0,1-1.566-1.23,3,3,0,0,1-.551-1.773H40.52a1.959,1.959,0,0,0,.762,1.629,3.207,3.207,0,0,0,2.035.6,2.948,2.948,0,0,0,1.82-.484,1.573,1.573,0,0,0,.633-1.32,1.545,1.545,0,0,0-.586-1.293A6.755,6.755,0,0,0,43.059,29.93ZM50.809,35h-1.5V23.625h1.5Zm2.742,0V23.625h3.211a5.169,5.169,0,0,1,2.625.656,4.438,4.438,0,0,1,1.762,1.867,6.078,6.078,0,0,1,.629,2.781v.727a6.1,6.1,0,0,1-.621,2.82,4.369,4.369,0,0,1-1.773,1.859A5.5,5.5,0,0,1,56.7,35Zm1.5-10.148v8.922h1.578a3.434,3.434,0,0,0,2.7-1.079,4.458,4.458,0,0,0,.965-3.073v-.665a4.529,4.529,0,0,0-.91-3.014A3.239,3.239,0,0,0,56.8,24.852Zm17-1.227v7.734a3.628,3.628,0,0,1-1.012,2.633,4.077,4.077,0,0,1-2.723,1.148l-.4.016a4.258,4.258,0,0,1-2.977-1.008,3.6,3.6,0,0,1-1.125-2.773v-7.75H65.3v7.7a2.372,2.372,0,0,0,2.617,2.6,2.63,2.63,0,0,0,1.949-.68,2.6,2.6,0,0,0,.676-1.914V23.625Zm8.477,8.4H75.762L74.691,35H73.145l4.344-11.375H78.8L83.152,35H81.613ZM76.215,30.8h3.867l-1.937-5.32Zm9.977,2.977h5.391V35h-6.9V23.625h1.508Zm13.531-4.031h-4.93v4.031h5.727V35H93.293V23.625h7.148v1.227H94.793v3.664h4.93Zm6.016.188a7.053,7.053,0,0,1-2.809-1.363,2.6,2.6,0,0,1-.879-2,2.751,2.751,0,0,1,1.074-2.223,4.269,4.269,0,0,1,2.793-.879,4.66,4.66,0,0,1,2.09.453,3.436,3.436,0,0,1,1.422,1.25,3.2,3.2,0,0,1,.5,1.742h-1.508a2.08,2.08,0,0,0-.656-1.627,2.669,2.669,0,0,0-1.852-.592,2.732,2.732,0,0,0-1.73.489,1.632,1.632,0,0,0-.621,1.358,1.468,1.468,0,0,0,.59,1.178,5.785,5.785,0,0,0,2.008.88,9.316,9.316,0,0,1,2.219.88A3.367,3.367,0,0,1,109.57,30.6a2.861,2.861,0,0,1,.387,1.508,2.658,2.658,0,0,1-1.078,2.215,4.6,4.6,0,0,1-2.883.832,5.347,5.347,0,0,1-2.187-.449,3.681,3.681,0,0,1-1.566-1.23,3,3,0,0,1-.551-1.773H103.2a1.959,1.959,0,0,0,.762,1.629,3.207,3.207,0,0,0,2.035.6,2.948,2.948,0,0,0,1.82-.484,1.573,1.573,0,0,0,.633-1.32,1.545,1.545,0,0,0-.586-1.293A6.755,6.755,0,0,0,105.738,29.93Z" transform="translate(634.791 2565)" fill="#0f2440"/>
    <path id="Trazado_591469" data-name="Trazado 591469" d="M19.508,6.852H15.852V17H14.359V6.852H10.711V5.625h8.8ZM25.367,12.4H22.7V17H21.188V5.625h3.766A4.457,4.457,0,0,1,27.91,6.5a3.148,3.148,0,0,1,1.035,2.547,3.062,3.062,0,0,1-.574,1.852,3.428,3.428,0,0,1-1.6,1.18l2.672,4.828V17H27.836ZM22.7,11.172H25a2.6,2.6,0,0,0,1.777-.579,1.959,1.959,0,0,0,.66-1.55,2.062,2.062,0,0,0-.629-1.62,2.663,2.663,0,0,0-1.816-.571H22.7Zm14.633,2.852H32.563L31.492,17H29.945L34.289,5.625H35.6L39.953,17H38.414ZM33.016,12.8h3.867l-1.937-5.32Zm15.32-5.945H44.68V17H43.188V6.852H39.539V5.625h8.8Zm7.352,7.172H50.922L49.852,17H48.3L52.648,5.625h1.313L58.313,17H56.773ZM51.375,12.8h3.867L53.3,7.477ZM61.781,5.625,65.5,14.906l3.719-9.281h1.945V17h-1.5V12.57L69.8,7.789,66.07,17H64.922L61.2,7.813l.148,4.758V17h-1.5V5.625ZM75.422,17h-1.5V5.625h1.5Zm9.172-5.258h-4.93v4.031h5.727V17H78.164V5.625h7.148V6.852H79.664v3.664h4.93ZM96,17H94.492L88.766,8.234V17H87.258V5.625h1.508l5.742,8.8v-8.8H96ZM106.523,6.852h-3.656V17h-1.492V6.852H97.727V5.625h8.8Zm10.219,4.828a7.037,7.037,0,0,1-.562,2.918,4.261,4.261,0,0,1-1.594,1.9,4.4,4.4,0,0,1-6.4-1.887,6.752,6.752,0,0,1-.59-2.832v-.82a6.953,6.953,0,0,1,.57-2.9,4.218,4.218,0,0,1,4-2.594,4.41,4.41,0,0,1,2.41.66,4.253,4.253,0,0,1,1.605,1.914,7.071,7.071,0,0,1,.563,2.918Zm-1.492-.734a5.1,5.1,0,0,0-.812-3.105,2.68,2.68,0,0,0-2.273-1.082,2.651,2.651,0,0,0-2.238,1.082,5,5,0,0,0-.84,3v.836a5.107,5.107,0,0,0,.824,3.082,2.888,2.888,0,0,0,4.52.063,5.079,5.079,0,0,0,.82-3.035ZM8.469,29.977H3.7V35H2.2V23.625H9.242v1.227H3.7v3.9H8.469ZM12.648,35h-1.5V23.625h1.5ZM12.6,20.484h1.75l-2.094,2.3-1.164,0Zm6.141,9.445a7.053,7.053,0,0,1-2.809-1.363,2.6,2.6,0,0,1-.879-2,2.751,2.751,0,0,1,1.074-2.223,4.269,4.269,0,0,1,2.793-.879,4.66,4.66,0,0,1,2.09.453,3.436,3.436,0,0,1,1.422,1.25,3.2,3.2,0,0,1,.5,1.742H21.43a2.08,2.08,0,0,0-.656-1.627,2.669,2.669,0,0,0-1.852-.592,2.732,2.732,0,0,0-1.73.489,1.632,1.632,0,0,0-.621,1.358,1.468,1.468,0,0,0,.59,1.178,5.785,5.785,0,0,0,2.008.88,9.316,9.316,0,0,1,2.219.88A3.367,3.367,0,0,1,22.574,30.6a2.861,2.861,0,0,1,.387,1.508,2.658,2.658,0,0,1-1.078,2.215A4.6,4.6,0,0,1,19,35.156a5.347,5.347,0,0,1-2.187-.449,3.681,3.681,0,0,1-1.566-1.23A3,3,0,0,1,14.7,31.7H16.2a1.959,1.959,0,0,0,.762,1.629,3.207,3.207,0,0,0,2.035.6,2.948,2.948,0,0,0,1.82-.484,1.573,1.573,0,0,0,.633-1.32,1.545,1.545,0,0,0-.586-1.293A6.755,6.755,0,0,0,18.742,29.93ZM26.492,35h-1.5V23.625h1.5ZM37.6,31.391a4.185,4.185,0,0,1-1.332,2.785,4.365,4.365,0,0,1-2.98.98,4.008,4.008,0,0,1-3.23-1.445,5.815,5.815,0,0,1-1.215-3.867V28.75a6.481,6.481,0,0,1,.566-2.789,4.231,4.231,0,0,1,1.605-1.848,4.47,4.47,0,0,1,2.406-.645,4.11,4.11,0,0,1,2.906,1.012,4.235,4.235,0,0,1,1.273,2.8H36.094a3.268,3.268,0,0,0-.848-1.975,2.565,2.565,0,0,0-1.824-.611,2.684,2.684,0,0,0-2.254,1.063,4.882,4.882,0,0,0-.816,3.026v1.1a5.018,5.018,0,0,0,.773,2.948,2.5,2.5,0,0,0,2.164,1.095,2.886,2.886,0,0,0,1.918-.566,3.143,3.143,0,0,0,.887-1.973ZM48.4,29.68a7.037,7.037,0,0,1-.562,2.918,4.261,4.261,0,0,1-1.594,1.9,4.4,4.4,0,0,1-6.4-1.887,6.752,6.752,0,0,1-.59-2.832v-.82a6.953,6.953,0,0,1,.57-2.9,4.218,4.218,0,0,1,4-2.594,4.41,4.41,0,0,1,2.41.66,4.253,4.253,0,0,1,1.605,1.914,7.071,7.071,0,0,1,.563,2.918Zm-1.492-.734a5.1,5.1,0,0,0-.812-3.105,2.68,2.68,0,0,0-2.273-1.082,2.651,2.651,0,0,0-2.238,1.082,5,5,0,0,0-.84,3v.836a5.107,5.107,0,0,0,.824,3.082,2.888,2.888,0,0,0,4.52.063,5.079,5.079,0,0,0,.82-3.035Zm10.484,1.813H53.578v-1.18h3.813ZM71.672,29.68a7.026,7.026,0,0,1-.523,2.84,4.388,4.388,0,0,1-1.469,1.863l2.031,1.594-1.023.945-2.4-1.906a4.88,4.88,0,0,1-1.187.141,4.244,4.244,0,0,1-4-2.543,6.752,6.752,0,0,1-.59-2.832v-.82a6.953,6.953,0,0,1,.57-2.9,4.218,4.218,0,0,1,4-2.594,4.4,4.4,0,0,1,2.418.664,4.284,4.284,0,0,1,1.605,1.91,7.016,7.016,0,0,1,.563,2.91Zm-1.5-.734a5.162,5.162,0,0,0-.8-3.1,2.89,2.89,0,0,0-4.516-.008,5,5,0,0,0-.84,3v.836a5.147,5.147,0,0,0,.816,3.078,2.885,2.885,0,0,0,4.52.066,5.079,5.079,0,0,0,.82-3.035Zm11.82-5.32v7.734a3.628,3.628,0,0,1-1.012,2.633,4.077,4.077,0,0,1-2.723,1.148l-.4.016a4.258,4.258,0,0,1-2.977-1.008,3.6,3.6,0,0,1-1.125-2.773v-7.75h1.484v7.7a2.372,2.372,0,0,0,2.617,2.6,2.63,2.63,0,0,0,1.949-.68,2.6,2.6,0,0,0,.676-1.914V23.625ZM85.969,35h-1.5V23.625h1.5Zm-.047-14.516h1.75l-2.094,2.3-1.164,0Zm4.727,3.141,3.719,9.281,3.719-9.281h1.945V35h-1.5V30.57l.141-4.781L94.938,35H93.789l-3.727-9.187.148,4.758V35h-1.5V23.625ZM104.289,35h-1.5V23.625h1.5ZM115.4,31.391a4.185,4.185,0,0,1-1.332,2.785,4.365,4.365,0,0,1-2.98.98,4.008,4.008,0,0,1-3.23-1.445,5.815,5.815,0,0,1-1.215-3.867V28.75a6.481,6.481,0,0,1,.566-2.789,4.231,4.231,0,0,1,1.605-1.848,4.47,4.47,0,0,1,2.406-.645,4.11,4.11,0,0,1,2.906,1.012,4.235,4.235,0,0,1,1.273,2.8h-1.508a3.268,3.268,0,0,0-.848-1.975,2.565,2.565,0,0,0-1.824-.611,2.684,2.684,0,0,0-2.254,1.063,4.882,4.882,0,0,0-.816,3.026v1.1a5.018,5.018,0,0,0,.773,2.948,2.5,2.5,0,0,0,2.164,1.095A2.886,2.886,0,0,0,113,33.363a3.143,3.143,0,0,0,.887-1.973Zm10.8-1.711a7.037,7.037,0,0,1-.562,2.918,4.261,4.261,0,0,1-1.594,1.9,4.4,4.4,0,0,1-6.4-1.887,6.752,6.752,0,0,1-.59-2.832v-.82a6.953,6.953,0,0,1,.57-2.9,4.218,4.218,0,0,1,4-2.594,4.41,4.41,0,0,1,2.41.66,4.253,4.253,0,0,1,1.605,1.914,7.071,7.071,0,0,1,.563,2.918Zm-1.492-.734a5.1,5.1,0,0,0-.812-3.105,2.68,2.68,0,0,0-2.273-1.082,2.651,2.651,0,0,0-2.238,1.082,5,5,0,0,0-.84,3v.836a5.107,5.107,0,0,0,.824,3.082,2.888,2.888,0,0,0,4.52.063,5.079,5.079,0,0,0,.82-3.035Z" transform="translate(1266.791 2560)" fill="#12263f"/>
    <path id="Trazado_193407" data-name="Trazado 193407" d="M972,520.557h44.178V451.821h186.753v68.736" transform="translate(-318.758 2477.289)" fill="none" stroke="#0a3699" stroke-width="2"/>
    <path id="Trazado_193411" data-name="Trazado 193411" d="M125.312,68.151V90.381H294.493V68.151" transform="translate(166.507 2519.275)" fill="none" stroke="#00caf2" stroke-width="1.5" stroke-dasharray="7 7"/>
    <path id="Trazado_193414" data-name="Trazado 193414" d="M1016,537v36.214h186.753v-53.3" transform="translate(-318.581 2477.565)" fill="none" stroke="#0a3699" stroke-width="2"/>
    <g id="Grupo_173182" data-name="Grupo 173182" transform="translate(264.589 2537.073)">
      <path id="Trazado_193403" data-name="Trazado 193403" d="M98.192,31.046h24.138V8.041H294.4V31.046h33.106" transform="translate(-98.192 12.589)" fill="none" stroke="#0a3699" stroke-width="2"/>
      <path id="Trazado_193417" data-name="Trazado 193417" d="M342.913,43V59.294l15.148-7.725Z" transform="translate(-122.801 -7.899)" fill="#0a3699"/>
      <rect id="Rectngulo_40520" data-name="Rectngulo 40520" width="2.008" height="8.032" transform="translate(218.104 40.121)" fill="#3d66c3"/>
    </g>
    <g id="Grupo_173200" data-name="Grupo 173200" transform="translate(-9.036 -598.852)">
      <path id="Trazado_193404" data-name="Trazado 193404" d="M132.79,286.5H118.262V262.869H9V521.745H48.865" transform="translate(180.036 3078.983)" fill="none" stroke="#0a3699" stroke-width="2"/>
      <path id="Trazado_193419" data-name="Trazado 193419" d="M69.913,511.779v16.294l15.148-7.725Z" transform="translate(152.875 3080.072)" fill="#0a3699"/>
      <rect id="Rectngulo_40522" data-name="Rectngulo 40522" width="2.008" height="8.032" transform="translate(220.78 3596.872)" fill="#3d66c3"/>
    </g>
    <g id="Grupo_173188" data-name="Grupo 173188" transform="translate(215.636 -269.093)">
      <g id="Grupo_173189" data-name="Grupo 173189" transform="translate(1014.364 2816.073)">
        <path id="Trazado_193410" data-name="Trazado 193410" d="M831,42.331h19.307V8.041H1020V227.985H986.112" transform="translate(-831 -8.041)" fill="none" stroke="#0a3699" stroke-width="2"/>
        <path id="Trazado_193498" data-name="Trazado 193498" d="M1162.148,295.786V279.493L1147,287.218Z" transform="translate(-1005.381 -66.885)" fill="#0a3699"/>
        <rect id="Rectngulo_40525" data-name="Rectngulo 40525" width="2.008" height="8.032" transform="translate(156.767 216.739)" fill="#3d66c3"/>
      </g>
    </g>
    <path id="Trazado_193499" data-name="Trazado 193499" d="M871,76.605V95.662h167.729" transform="translate(378.848 2513.994)" fill="none" stroke="#00caf2" stroke-width="1.5" stroke-dasharray="7 7"/>
    <path id="Trazado_193521" data-name="Trazado 193521" d="M134.378,305.065v37.5H25.2" transform="translate(154.8 2469.435)" fill="none" stroke="#00caf2" stroke-width="1.5" stroke-dasharray="7 7"/>
    <path id="Trazado_193605" data-name="Trazado 193605" d="M1136,440.542h77.095v64.027" transform="translate(-318.095 2477.243)" fill="none" stroke="#00caf2" stroke-width="1"/>
    <g id="Grupo_173181" data-name="Grupo 173181" transform="translate(0 -268.739)">
      <path id="Trazado_193448" data-name="Trazado 193448" d="M42.5,1A42.5,42.5,0,1,1,0,43.5,42.5,42.5,0,0,1,42.5,1" transform="translate(179.791 2808.004)" fill="#e7f9fa" stroke="#0a3699" stroke-width="1"/>
      <path id="Trazado_591480" data-name="Trazado 591480" d="M-1.453-9.112q0,4.571-1.892,6.993A6.6,6.6,0,0,1-8.885.3,6.651,6.651,0,0,1-14.4-2.074Q-16.3-4.45-16.348-8.885v-4.057q0-4.617,1.915-7.008a6.654,6.654,0,0,1,5.517-2.392,6.66,6.66,0,0,1,5.51,2.369q1.907,2.369,1.953,6.8Zm-4.375-4.46a8.07,8.07,0,0,0-.749-3.993,2.532,2.532,0,0,0-2.339-1.25,2.487,2.487,0,0,0-2.278,1.189,7.553,7.553,0,0,0-.78,3.72v5.364a8.472,8.472,0,0,0,.734,4.008A2.5,2.5,0,0,0-8.885-3.224,2.457,2.457,0,0,0-6.569-4.482,8.269,8.269,0,0,0-5.828-8.33ZM12.125,0H7.75V-16.862l-5.222,1.62V-18.8l9.127-3.27h.469Z" transform="translate(222.791 2863.739)" fill="#0f2440" stroke="#0a3699" stroke-width="0.8"/>
    </g>
    <g id="Grupo_173183" data-name="Grupo 173183" transform="translate(325.075 -270.739)">
      <path id="Trazado_193448-2" data-name="Trazado 193448" d="M42.5,1A42.5,42.5,0,1,1,0,43.5,42.5,42.5,0,0,1,42.5,1" transform="translate(179.715 2807.739)" fill="#e7f9fa" stroke="#0a3699" stroke-width="1"/>
      <path id="Trazado_591481" data-name="Trazado 591481" d="M-1.453-9.112q0,4.571-1.892,6.993A6.6,6.6,0,0,1-8.885.3,6.651,6.651,0,0,1-14.4-2.074Q-16.3-4.45-16.348-8.885v-4.057q0-4.617,1.915-7.008a6.654,6.654,0,0,1,5.517-2.392,6.66,6.66,0,0,1,5.51,2.369q1.907,2.369,1.953,6.8Zm-4.375-4.46a8.07,8.07,0,0,0-.749-3.993,2.532,2.532,0,0,0-2.339-1.25,2.487,2.487,0,0,0-2.278,1.189,7.553,7.553,0,0,0-.78,3.72v5.364a8.472,8.472,0,0,0,.734,4.008A2.5,2.5,0,0,0-8.885-3.224,2.457,2.457,0,0,0-6.569-4.482,8.269,8.269,0,0,0-5.828-8.33ZM16.6,0H1.5V-3l7.129-7.6A17.588,17.588,0,0,0,10.8-13.4a4.5,4.5,0,0,0,.7-2.271,3.366,3.366,0,0,0-.742-2.308,2.677,2.677,0,0,0-2.119-.84A2.888,2.888,0,0,0,6.3-17.793a4.047,4.047,0,0,0-.855,2.687H1.06a7.225,7.225,0,0,1,.961-3.678A6.774,6.774,0,0,1,4.738-21.4a8.258,8.258,0,0,1,3.981-.946,7.819,7.819,0,0,1,5.29,1.635,5.784,5.784,0,0,1,1.885,4.617,7.41,7.41,0,0,1-.848,3.33A18.506,18.506,0,0,1,12.14-8.81L7.129-3.527H16.6Z" transform="translate(222.715 2863.74)" fill="#12263f"/>
    </g>
    <path id="Trazado_225611" data-name="Trazado 225611" d="M125.312,68.151V90.381H294.493V68.151" transform="translate(491.507 2519.275)" fill="none" stroke="#00caf2" stroke-width="1.5" stroke-dasharray="7 7"/>
    <g id="Grupo_173184" data-name="Grupo 173184" transform="translate(589.589 2537.073)">
      <path id="Trazado_193403-2" data-name="Trazado 193403" d="M98.192,31.046h24.138V8.041H294.4V31.046h33.106" transform="translate(-98.192 12.589)" fill="none" stroke="#0a3699" stroke-width="2"/>
      <path id="Trazado_193417-2" data-name="Trazado 193417" d="M342.913,43V59.294l15.148-7.725Z" transform="translate(-122.801 -7.899)" fill="#0a3699"/>
      <rect id="Rectngulo_40520-2" data-name="Rectngulo 40520" width="2.008" height="8.032" transform="translate(218.104 40.121)" fill="#3d66c3"/>
    </g>
    <g id="Grupo_173185" data-name="Grupo 173185" transform="translate(650.075 -268.739)">
      <path id="Trazado_193448-3" data-name="Trazado 193448" d="M42.5,1A42.5,42.5,0,1,1,0,43.5,42.5,42.5,0,0,1,42.5,1" transform="translate(179.715 2807.739)" fill="#e7f9fa" stroke="#0a3699" stroke-width="1"/>
      <path id="Trazado_591482" data-name="Trazado 591482" d="M-1.453-9.112q0,4.571-1.892,6.993A6.6,6.6,0,0,1-8.885.3,6.651,6.651,0,0,1-14.4-2.074Q-16.3-4.45-16.348-8.885v-4.057q0-4.617,1.915-7.008a6.654,6.654,0,0,1,5.517-2.392,6.66,6.66,0,0,1,5.51,2.369q1.907,2.369,1.953,6.8Zm-4.375-4.46a8.07,8.07,0,0,0-.749-3.993,2.532,2.532,0,0,0-2.339-1.25,2.487,2.487,0,0,0-2.278,1.189,7.553,7.553,0,0,0-.78,3.72v5.364a8.472,8.472,0,0,0,.734,4.008A2.5,2.5,0,0,0-8.885-3.224,2.457,2.457,0,0,0-6.569-4.482,8.269,8.269,0,0,0-5.828-8.33Zm11.776.615H8.28a3.285,3.285,0,0,0,2.467-.833,3.051,3.051,0,0,0,.8-2.21,2.7,2.7,0,0,0-.795-2.074,3.08,3.08,0,0,0-2.187-.742,3.228,3.228,0,0,0-2.1.689,2.2,2.2,0,0,0-.848,1.794H1.241a5.38,5.38,0,0,1,.931-3.1,6.2,6.2,0,0,1,2.6-2.142,8.689,8.689,0,0,1,3.686-.772,8.241,8.241,0,0,1,5.479,1.673,5.707,5.707,0,0,1,1.983,4.609A4.637,4.637,0,0,1,15-13.275a6,6,0,0,1-2.422,1.953,5.476,5.476,0,0,1,2.778,2,5.42,5.42,0,0,1,.916,3.148A5.8,5.8,0,0,1,14.13-1.468,8.612,8.612,0,0,1,8.461.3a8.166,8.166,0,0,1-5.4-1.741,5.685,5.685,0,0,1-2.1-4.6H5.343a2.534,2.534,0,0,0,.931,2.028,3.43,3.43,0,0,0,2.293.787,3.447,3.447,0,0,0,2.445-.825A2.848,2.848,0,0,0,11.9-6.236q0-3.3-3.633-3.3H5.949Z" transform="translate(222.715 2863.74)" fill="#12263f"/>
    </g>
    <path id="Trazado_591468" data-name="Trazado 591468" d="M51.32,12.547V17h-1.5V5.625h4.2a4.215,4.215,0,0,1,2.926.953A3.231,3.231,0,0,1,58,9.1a3.189,3.189,0,0,1-1.035,2.551A4.4,4.4,0,0,1,54,12.547Zm0-1.227h2.7a2.7,2.7,0,0,0,1.844-.567,2.075,2.075,0,0,0,.641-1.64,2.143,2.143,0,0,0-.641-1.628A2.525,2.525,0,0,0,54.1,6.852H51.32ZM64.086,12.4H61.414V17H59.906V5.625h3.766a4.457,4.457,0,0,1,2.957.875,3.148,3.148,0,0,1,1.035,2.547A3.062,3.062,0,0,1,67.09,10.9a3.428,3.428,0,0,1-1.6,1.18l2.672,4.828V17H66.555Zm-2.672-1.227h2.3a2.6,2.6,0,0,0,1.777-.579,1.959,1.959,0,0,0,.66-1.55,2.062,2.062,0,0,0-.629-1.62,2.663,2.663,0,0,0-1.816-.571h-2.3Zm14.781.57h-4.93v4.031h5.727V17H69.766V5.625h7.148V6.852H71.266v3.664H76.2ZM20.508,24.852H16.852V35H15.359V24.852H11.711V23.625h8.8ZM26.367,30.4H23.7V35H22.188V23.625h3.766a4.457,4.457,0,0,1,2.957.875,3.148,3.148,0,0,1,1.035,2.547,3.062,3.062,0,0,1-.574,1.852,3.428,3.428,0,0,1-1.6,1.18l2.672,4.828V35H28.836ZM23.7,29.172H26a2.6,2.6,0,0,0,1.777-.579,1.959,1.959,0,0,0,.66-1.55,2.062,2.062,0,0,0-.629-1.62,2.663,2.663,0,0,0-1.816-.571H23.7Zm14.633,2.852H33.563L32.492,35H30.945l4.344-11.375H36.6L40.953,35H39.414ZM34.016,30.8h3.867l-1.937-5.32Zm15.32-5.945H45.68V35H44.188V24.852H40.539V23.625h8.8Zm7.352,7.172H51.922L50.852,35H49.3l4.344-11.375h1.313L59.313,35H57.773ZM52.375,30.8h3.867L54.3,25.477Zm10.406-7.172L66.5,32.906l3.719-9.281h1.945V35h-1.5V30.57l.141-4.781L67.07,35H65.922L62.2,25.813l.148,4.758V35h-1.5V23.625ZM76.422,35h-1.5V23.625h1.5Zm9.172-5.258h-4.93v4.031h5.727V35H79.164V23.625h7.148v1.227H80.664v3.664h4.93ZM97,35H95.492l-5.727-8.766V35H88.258V23.625h1.508l5.742,8.8v-8.8H97Zm10.523-10.148h-3.656V35h-1.492V24.852H98.727V23.625h8.8Zm10.219,4.828a7.037,7.037,0,0,1-.562,2.918,4.261,4.261,0,0,1-1.594,1.9,4.4,4.4,0,0,1-6.4-1.887,6.752,6.752,0,0,1-.59-2.832v-.82a6.953,6.953,0,0,1,.57-2.9,4.218,4.218,0,0,1,4-2.594,4.41,4.41,0,0,1,2.41.66,4.253,4.253,0,0,1,1.605,1.914,7.071,7.071,0,0,1,.563,2.918Zm-1.492-.734a5.1,5.1,0,0,0-.812-3.105,2.68,2.68,0,0,0-2.273-1.082,2.651,2.651,0,0,0-2.238,1.082,5,5,0,0,0-.84,3v.836a5.107,5.107,0,0,0,.824,3.082,2.888,2.888,0,0,0,4.52.063,5.079,5.079,0,0,0,.82-3.035Z" transform="translate(959.791 2563)" fill="#0f2440"/>
    <path id="Trazado_225612" data-name="Trazado 225612" d="M125.312,68.151V90.381H294.493V68.151" transform="translate(816.507 2519.275)" fill="none" stroke="#00caf2" stroke-width="1.5" stroke-dasharray="7 7"/>
    <g id="Grupo_173186" data-name="Grupo 173186" transform="translate(914.589 2537.073)">
      <path id="Trazado_193403-3" data-name="Trazado 193403" d="M98.192,31.046h24.138V8.041H294.4V31.046h33.106" transform="translate(-98.192 12.589)" fill="none" stroke="#0a3699" stroke-width="2"/>
      <path id="Trazado_193417-3" data-name="Trazado 193417" d="M342.913,43V59.294l15.148-7.725Z" transform="translate(-122.801 -7.899)" fill="#0a3699"/>
      <rect id="Rectngulo_40520-3" data-name="Rectngulo 40520" width="2.008" height="8.032" transform="translate(218.104 40.121)" fill="#3d66c3"/>
    </g>
    <g id="Grupo_173187" data-name="Grupo 173187" transform="translate(975.075 -269.739)">
      <path id="Trazado_193448-4" data-name="Trazado 193448" d="M42.5,1A42.5,42.5,0,1,1,0,43.5,42.5,42.5,0,0,1,42.5,1" transform="translate(179.715 2807.739)" fill="#e7f9fa" stroke="#0a3699" stroke-width="1"/>
      <path id="Trazado_591483" data-name="Trazado 591483" d="M-1.453-9.112q0,4.571-1.892,6.993A6.6,6.6,0,0,1-8.885.3,6.651,6.651,0,0,1-14.4-2.074Q-16.3-4.45-16.348-8.885v-4.057q0-4.617,1.915-7.008a6.654,6.654,0,0,1,5.517-2.392,6.66,6.66,0,0,1,5.51,2.369q1.907,2.369,1.953,6.8Zm-4.375-4.46a8.07,8.07,0,0,0-.749-3.993,2.532,2.532,0,0,0-2.339-1.25,2.487,2.487,0,0,0-2.278,1.189,7.553,7.553,0,0,0-.78,3.72v5.364a8.472,8.472,0,0,0,.734,4.008A2.5,2.5,0,0,0-8.885-3.224,2.457,2.457,0,0,0-6.569-4.482,8.269,8.269,0,0,0-5.828-8.33ZM14.44-8.295h2.5v3.527h-2.5V0H10.066V-4.768H1.029l-.2-2.755,9.188-14.516h4.42Zm-9.249,0h4.874v-7.78l-.288.5Z" transform="translate(222.715 2863.74)" fill="#12263f"/>
    </g>
    <g id="Grupo_173190" data-name="Grupo 173190" transform="translate(1098.075 -84.739)">
      <path id="Trazado_193448-5" data-name="Trazado 193448" d="M42.5,1A42.5,42.5,0,1,1,0,43.5,42.5,42.5,0,0,1,42.5,1" transform="translate(179.715 2807.739)" fill="#e7f9fa" stroke="#0a3699" stroke-width="1"/>
      <path id="Trazado_591484" data-name="Trazado 591484" d="M-1.453-9.112q0,4.571-1.892,6.993A6.6,6.6,0,0,1-8.885.3,6.651,6.651,0,0,1-14.4-2.074Q-16.3-4.45-16.348-8.885v-4.057q0-4.617,1.915-7.008a6.654,6.654,0,0,1,5.517-2.392,6.66,6.66,0,0,1,5.51,2.369q1.907,2.369,1.953,6.8Zm-4.375-4.46a8.07,8.07,0,0,0-.749-3.993,2.532,2.532,0,0,0-2.339-1.25,2.487,2.487,0,0,0-2.278,1.189,7.553,7.553,0,0,0-.78,3.72v5.364a8.472,8.472,0,0,0,.734,4.008A2.5,2.5,0,0,0-8.885-3.224,2.457,2.457,0,0,0-6.569-4.482,8.269,8.269,0,0,0-5.828-8.33Zm7.977,2.735,1.271-11.2H15.772v3.648H7.008l-.545,4.738a6.935,6.935,0,0,1,3.315-.833,6.353,6.353,0,0,1,4.935,1.953A7.8,7.8,0,0,1,16.5-7.069a7.99,7.99,0,0,1-.9,3.822A6.357,6.357,0,0,1,13.018-.628,8.057,8.057,0,0,1,9.052.3a8.555,8.555,0,0,1-3.708-.81,6.578,6.578,0,0,1-2.7-2.278A6.209,6.209,0,0,1,1.589-6.13H5.918A3.234,3.234,0,0,0,6.88-3.989a3.047,3.047,0,0,0,2.157.764,2.689,2.689,0,0,0,2.286-1.067,4.944,4.944,0,0,0,.8-3.02,4.088,4.088,0,0,0-.923-2.876,3.388,3.388,0,0,0-2.619-1,3.787,3.787,0,0,0-2.528.817l-.424.394Z" transform="translate(222.715 2863.74)" fill="#12263f"/>
    </g>
    <path id="Trazado_591471" data-name="Trazado 591471" d="M12.129,17V5.625H15.34a5.169,5.169,0,0,1,2.625.656,4.438,4.438,0,0,1,1.762,1.867,6.078,6.078,0,0,1,.629,2.781v.727a6.1,6.1,0,0,1-.621,2.82,4.369,4.369,0,0,1-1.773,1.859A5.5,5.5,0,0,1,15.277,17Zm1.5-10.148v8.922h1.578a3.434,3.434,0,0,0,2.7-1.079,4.458,4.458,0,0,0,.965-3.073v-.665a4.529,4.529,0,0,0-.91-3.014,3.239,3.239,0,0,0-2.582-1.091Zm15.422,4.891h-4.93v4.031h5.727V17H22.621V5.625H29.77V6.852H24.121v3.664h4.93Zm11.031,1.648a4.185,4.185,0,0,1-1.332,2.785,4.365,4.365,0,0,1-2.98.98,4.008,4.008,0,0,1-3.23-1.445,5.815,5.815,0,0,1-1.215-3.867V10.75a6.481,6.481,0,0,1,.566-2.789A4.231,4.231,0,0,1,33.5,6.113,4.47,4.47,0,0,1,35.9,5.469,4.11,4.11,0,0,1,38.809,6.48a4.235,4.235,0,0,1,1.273,2.8H38.574a3.268,3.268,0,0,0-.848-1.975A2.565,2.565,0,0,0,35.9,6.7a2.684,2.684,0,0,0-2.254,1.063,4.882,4.882,0,0,0-.816,3.026v1.1a5.018,5.018,0,0,0,.773,2.948A2.5,2.5,0,0,0,35.77,15.93a2.887,2.887,0,0,0,1.918-.566,3.143,3.143,0,0,0,.887-1.973Zm8.328.633H43.645L42.574,17H41.027L45.371,5.625h1.313L51.035,17H49.5ZM44.1,12.8h3.867l-1.937-5.32ZM61.309,17H59.8L54.074,8.234V17H52.566V5.625h1.508l5.742,8.8v-8.8h1.492ZM71.832,6.852H68.176V17H66.684V6.852H63.035V5.625h8.8Zm7.352,7.172H74.418L73.348,17H71.8L76.145,5.625h1.313L81.809,17H80.27ZM74.871,12.8h3.867L76.8,7.477Zm16.836.594a4.185,4.185,0,0,1-1.332,2.785,4.365,4.365,0,0,1-2.98.98,4.008,4.008,0,0,1-3.23-1.445,5.815,5.815,0,0,1-1.215-3.867V10.75a6.481,6.481,0,0,1,.566-2.789,4.231,4.231,0,0,1,1.605-1.848,4.47,4.47,0,0,1,2.406-.645A4.11,4.11,0,0,1,90.434,6.48a4.235,4.235,0,0,1,1.273,2.8H90.2a3.268,3.268,0,0,0-.848-1.975A2.565,2.565,0,0,0,87.527,6.7a2.684,2.684,0,0,0-2.254,1.063,4.882,4.882,0,0,0-.816,3.026v1.1a5.018,5.018,0,0,0,.773,2.948,2.5,2.5,0,0,0,2.164,1.095,2.886,2.886,0,0,0,1.918-.566,3.143,3.143,0,0,0,.887-1.973ZM95.363,17h-1.5V5.625h1.5Zm11.492-5.32a7.037,7.037,0,0,1-.562,2.918,4.261,4.261,0,0,1-1.594,1.9,4.4,4.4,0,0,1-6.4-1.887,6.752,6.752,0,0,1-.59-2.832v-.82a6.953,6.953,0,0,1,.57-2.9,4.218,4.218,0,0,1,4-2.594,4.41,4.41,0,0,1,2.41.66,4.253,4.253,0,0,1,1.605,1.914,7.071,7.071,0,0,1,.563,2.918Zm-1.492-.734a5.1,5.1,0,0,0-.812-3.105,2.68,2.68,0,0,0-2.273-1.082,2.651,2.651,0,0,0-2.238,1.082,5,5,0,0,0-.84,3v.836a5.107,5.107,0,0,0,.824,3.082,2.888,2.888,0,0,0,4.52.063,5.079,5.079,0,0,0,.82-3.035Zm-2.352-8.383h1.75l-2.094,2.3-1.164,0ZM117.848,17H116.34l-5.727-8.766V17h-1.508V5.625h1.508l5.742,8.8v-8.8h1.492Zm-86.7,13.547V35h-1.5V23.625h4.2a4.215,4.215,0,0,1,2.926.953A3.231,3.231,0,0,1,37.828,27.1a3.189,3.189,0,0,1-1.035,2.551,4.4,4.4,0,0,1-2.965.895Zm0-1.227h2.7a2.7,2.7,0,0,0,1.844-.567,2.075,2.075,0,0,0,.641-1.64,2.143,2.143,0,0,0-.641-1.628,2.525,2.525,0,0,0-1.758-.634H31.148ZM43.914,30.4H41.242V35H39.734V23.625H43.5a4.457,4.457,0,0,1,2.957.875,3.148,3.148,0,0,1,1.035,2.547,3.062,3.062,0,0,1-.574,1.852,3.428,3.428,0,0,1-1.6,1.18l2.672,4.828V35H46.383Zm-2.672-1.227h2.3a2.6,2.6,0,0,0,1.777-.579,1.959,1.959,0,0,0,.66-1.55,2.062,2.062,0,0,0-.629-1.62,2.663,2.663,0,0,0-1.816-.571h-2.3ZM51.2,35H49.7V23.625h1.5Zm4.68-11.375L59.6,32.906l3.719-9.281h1.945V35h-1.5V30.57l.141-4.781L60.172,35H59.023L55.3,25.813l.148,4.758V35h-1.5V23.625Zm18.313,8.4H69.43L68.359,35H66.813l4.344-11.375h1.313L76.82,35H75.281ZM69.883,30.8H73.75l-1.937-5.32Zm12.641-.4H79.852V35H78.344V23.625h3.766a4.457,4.457,0,0,1,2.957.875A3.148,3.148,0,0,1,86.1,27.047a3.062,3.062,0,0,1-.574,1.852,3.428,3.428,0,0,1-1.6,1.18L86.6,34.906V35H84.992Zm-2.672-1.227h2.3a2.6,2.6,0,0,0,1.777-.579,1.959,1.959,0,0,0,.66-1.55,2.062,2.062,0,0,0-.629-1.62,2.663,2.663,0,0,0-1.816-.571h-2.3ZM89.813,35h-1.5V23.625h1.5Zm9.023-2.977H94.07L93,35H91.453L95.8,23.625h1.313L101.461,35H99.922ZM94.523,30.8h3.867l-1.937-5.32Z" transform="translate(1102.241 2754.324)" fill="#0f2440"/>
    <path id="Trazado_225615" data-name="Trazado 225615" d="M296.732,68.151V96.918H125.312V68.151" transform="translate(956.888 2715.082)" fill="none" stroke="#00caf2" stroke-width="1.5" stroke-dasharray="7 7"/>
    <g id="Grupo_173191" data-name="Grupo 173191" transform="translate(1042.182 2744.027)">
      <path id="Trazado_193403-4" data-name="Trazado 193403" d="M327.507,31.046H303.369V8.041H131.3V31.046H98.192" transform="translate(-92.247 -8.041)" fill="none" stroke="#0a3699" stroke-width="2"/>
      <path id="Trazado_193417-4" data-name="Trazado 193417" d="M358.061,43V59.294l-15.148-7.725Z" transform="translate(-342.913 -28.529)" fill="#0a3699"/>
      <rect id="Rectngulo_40520-4" data-name="Rectngulo 40520" width="2.008" height="8.032" transform="translate(15.148 19.491)" fill="#3d66c3"/>
    </g>
    <g id="Grupo_173193" data-name="Grupo 173193" transform="translate(-163.144 -64.452)">
      <path id="Trazado_225614" data-name="Trazado 225614" d="M-2718.737-8793.248v-27.3" transform="translate(4049.791 11700)" fill="#0a3699" stroke="#0a3699" stroke-width="2"/>
      <path id="Trazado_225613" data-name="Trazado 225613" d="M9.2,9.892V0L0,4.69Z" transform="translate(1326.108 2911.35) rotate(-90)" fill="#0a3699"/>
      <rect id="Rectngulo_276288" data-name="Rectngulo 276288" width="1.219" height="4.877" transform="translate(1328.616 2902.152) rotate(-90)" fill="#3d66c3"/>
    </g>
    <g id="Grupo_173194" data-name="Grupo 173194" transform="translate(775.075 -81.739)">
      <path id="Trazado_193448-6" data-name="Trazado 193448" d="M42.5,1A42.5,42.5,0,1,1,0,43.5,42.5,42.5,0,0,1,42.5,1" transform="translate(179.715 2807.739)" fill="#e7f9fa" stroke="#0a3699" stroke-width="1"/>
      <path id="Trazado_591485" data-name="Trazado 591485" d="M-1.453-9.112q0,4.571-1.892,6.993A6.6,6.6,0,0,1-8.885.3,6.651,6.651,0,0,1-14.4-2.074Q-16.3-4.45-16.348-8.885v-4.057q0-4.617,1.915-7.008a6.654,6.654,0,0,1,5.517-2.392,6.66,6.66,0,0,1,5.51,2.369q1.907,2.369,1.953,6.8Zm-4.375-4.46a8.07,8.07,0,0,0-.749-3.993,2.532,2.532,0,0,0-2.339-1.25,2.487,2.487,0,0,0-2.278,1.189,7.553,7.553,0,0,0-.78,3.72v5.364a8.472,8.472,0,0,0,.734,4.008A2.5,2.5,0,0,0-8.885-3.224,2.457,2.457,0,0,0-6.569-4.482,8.269,8.269,0,0,0-5.828-8.33Zm19.193-8.694v3.6h-.424A7.432,7.432,0,0,0,8.166-17.12a6.273,6.273,0,0,0-2.172,4.163,5.958,5.958,0,0,1,4.435-1.786A5.614,5.614,0,0,1,15-12.685a8.252,8.252,0,0,1,1.7,5.419,8.117,8.117,0,0,1-.931,3.89A6.676,6.676,0,0,1,13.131-.666,7.652,7.652,0,0,1,9.279.3,7.147,7.147,0,0,1,3.656-2.119,9.4,9.4,0,0,1,1.514-8.583v-1.574a14.148,14.148,0,0,1,1.355-6.335,9.934,9.934,0,0,1,3.89-4.253,11.4,11.4,0,0,1,5.881-1.521ZM9.1-11.216a3.5,3.5,0,0,0-1.922.551A3.322,3.322,0,0,0,5.9-9.207v1.329a5.89,5.89,0,0,0,.863,3.422A2.788,2.788,0,0,0,9.188-3.224a2.757,2.757,0,0,0,2.278-1.11,4.529,4.529,0,0,0,.87-2.878,4.52,4.52,0,0,0-.878-2.9A2.861,2.861,0,0,0,9.1-11.216Z" transform="translate(222.715 2863.74)" fill="#12263f"/>
    </g>
    <path id="Trazado_591472" data-name="Trazado 591472" d="M20.508,6.852H16.852V17H15.359V6.852H11.711V5.625h8.8ZM26.367,12.4H23.7V17H22.188V5.625h3.766A4.457,4.457,0,0,1,28.91,6.5a3.148,3.148,0,0,1,1.035,2.547,3.062,3.062,0,0,1-.574,1.852,3.428,3.428,0,0,1-1.6,1.18l2.672,4.828V17H28.836ZM23.7,11.172H26a2.6,2.6,0,0,0,1.777-.579,1.959,1.959,0,0,0,.66-1.55,2.062,2.062,0,0,0-.629-1.62,2.663,2.663,0,0,0-1.816-.571H23.7Zm14.633,2.852H33.563L32.492,17H30.945L35.289,5.625H36.6L40.953,17H39.414ZM34.016,12.8h3.867l-1.937-5.32Zm15.32-5.945H45.68V17H44.188V6.852H40.539V5.625h8.8Zm7.352,7.172H51.922L50.852,17H49.3L53.648,5.625h1.313L59.313,17H57.773ZM52.375,12.8h3.867L54.3,7.477ZM62.781,5.625,66.5,14.906l3.719-9.281h1.945V17h-1.5V12.57L70.8,7.789,67.07,17H65.922L62.2,7.813l.148,4.758V17h-1.5V5.625ZM76.422,17h-1.5V5.625h1.5Zm9.172-5.258h-4.93v4.031h5.727V17H79.164V5.625h7.148V6.852H80.664v3.664h4.93ZM97,17H95.492L89.766,8.234V17H88.258V5.625h1.508l5.742,8.8v-8.8H97ZM107.523,6.852h-3.656V17h-1.492V6.852H98.727V5.625h8.8Zm10.219,4.828a7.037,7.037,0,0,1-.562,2.918,4.261,4.261,0,0,1-1.594,1.9,4.4,4.4,0,0,1-6.4-1.887,6.752,6.752,0,0,1-.59-2.832v-.82a6.953,6.953,0,0,1,.57-2.9,4.218,4.218,0,0,1,4-2.594,4.41,4.41,0,0,1,2.41.66,4.253,4.253,0,0,1,1.605,1.914,7.071,7.071,0,0,1,.563,2.918Zm-1.492-.734a5.1,5.1,0,0,0-.812-3.105,2.68,2.68,0,0,0-2.273-1.082,2.651,2.651,0,0,0-2.238,1.082,5,5,0,0,0-.84,3v.836a5.107,5.107,0,0,0,.824,3.082,2.888,2.888,0,0,0,4.52.063,5.079,5.079,0,0,0,.82-3.035ZM25.527,35V23.625h3.719a4.317,4.317,0,0,1,2.785.766,2.759,2.759,0,0,1,.934,2.266,2.31,2.31,0,0,1-.453,1.41,2.937,2.937,0,0,1-1.234.949,2.638,2.638,0,0,1,1.457.98,2.814,2.814,0,0,1,.535,1.723,3.042,3.042,0,0,1-.992,2.406,4.1,4.1,0,0,1-2.8.875Zm1.5-5.32v4.094H29.5a2.385,2.385,0,0,0,1.652-.543,1.907,1.907,0,0,0,.605-1.5q0-2.055-2.234-2.055Zm0-1.2h2.266a2.375,2.375,0,0,0,1.574-.493,1.654,1.654,0,0,0,.59-1.339,1.626,1.626,0,0,0-.547-1.366,2.686,2.686,0,0,0-1.664-.427H27.027ZM37.1,35H35.6V23.625h1.5ZM48.59,29.68a7.037,7.037,0,0,1-.562,2.918,4.261,4.261,0,0,1-1.594,1.9,4.4,4.4,0,0,1-6.4-1.887,6.752,6.752,0,0,1-.59-2.832v-.82a6.953,6.953,0,0,1,.57-2.9,4.218,4.218,0,0,1,4-2.594,4.41,4.41,0,0,1,2.41.66,4.253,4.253,0,0,1,1.605,1.914,7.071,7.071,0,0,1,.563,2.918ZM47.1,28.945a5.1,5.1,0,0,0-.812-3.105,2.68,2.68,0,0,0-2.273-1.082,2.651,2.651,0,0,0-2.238,1.082,5,5,0,0,0-.84,3v.836a5.107,5.107,0,0,0,.824,3.082,2.888,2.888,0,0,0,4.52.063,5.079,5.079,0,0,0,.82-3.035Zm5.25,4.828h5.391V35h-6.9V23.625h1.508ZM68.2,29.68a7.037,7.037,0,0,1-.562,2.918,4.261,4.261,0,0,1-1.594,1.9,4.4,4.4,0,0,1-6.4-1.887,6.752,6.752,0,0,1-.59-2.832v-.82a6.953,6.953,0,0,1,.57-2.9,4.218,4.218,0,0,1,4-2.594,4.41,4.41,0,0,1,2.41.66,4.253,4.253,0,0,1,1.605,1.914,7.071,7.071,0,0,1,.563,2.918Zm-1.492-.734a5.1,5.1,0,0,0-.812-3.105,2.68,2.68,0,0,0-2.273-1.082,2.651,2.651,0,0,0-2.238,1.082,5,5,0,0,0-.84,3v.836a5.107,5.107,0,0,0,.824,3.082,2.888,2.888,0,0,0,4.52.063,5.079,5.079,0,0,0,.82-3.035Zm-2.352-8.383h1.75l-2.094,2.3-1.164,0ZM78.848,33.508a3.465,3.465,0,0,1-1.613,1.238,6.517,6.517,0,0,1-2.41.41,4.674,4.674,0,0,1-2.469-.652,4.346,4.346,0,0,1-1.668-1.855,6.408,6.408,0,0,1-.605-2.789v-.992a5.982,5.982,0,0,1,1.2-3.984,4.179,4.179,0,0,1,3.371-1.414,4.316,4.316,0,0,1,2.867.91,3.965,3.965,0,0,1,1.328,2.582h-1.5A2.48,2.48,0,0,0,74.66,24.7a2.655,2.655,0,0,0-2.285,1.06,5.173,5.173,0,0,0-.785,3.069v.93a4.848,4.848,0,0,0,.875,3.046,2.836,2.836,0,0,0,2.367,1.13,5.229,5.229,0,0,0,1.477-.187,2.283,2.283,0,0,0,1.047-.631V30.563H74.723V29.336h4.125ZM82.957,35h-1.5V23.625h1.5Zm11.109-3.609a4.185,4.185,0,0,1-1.332,2.785,4.365,4.365,0,0,1-2.98.98,4.008,4.008,0,0,1-3.23-1.445,5.815,5.815,0,0,1-1.215-3.867V28.75a6.481,6.481,0,0,1,.566-2.789,4.231,4.231,0,0,1,1.605-1.848,4.47,4.47,0,0,1,2.406-.645,4.11,4.11,0,0,1,2.906,1.012,4.235,4.235,0,0,1,1.273,2.8H92.559a3.268,3.268,0,0,0-.848-1.975,2.565,2.565,0,0,0-1.824-.611,2.684,2.684,0,0,0-2.254,1.063,4.882,4.882,0,0,0-.816,3.026v1.1a5.018,5.018,0,0,0,.773,2.948,2.5,2.5,0,0,0,2.164,1.095,2.886,2.886,0,0,0,1.918-.566,3.143,3.143,0,0,0,.887-1.973Zm10.8-1.711A7.037,7.037,0,0,1,104.3,32.6a4.261,4.261,0,0,1-1.594,1.9,4.4,4.4,0,0,1-6.4-1.887,6.752,6.752,0,0,1-.59-2.832v-.82a6.953,6.953,0,0,1,.57-2.9,4.218,4.218,0,0,1,4-2.594,4.41,4.41,0,0,1,2.41.66,4.253,4.253,0,0,1,1.605,1.914,7.071,7.071,0,0,1,.563,2.918Zm-1.492-.734a5.1,5.1,0,0,0-.812-3.105,2.68,2.68,0,0,0-2.273-1.082,2.651,2.651,0,0,0-2.238,1.082,5,5,0,0,0-.84,3v.836a5.107,5.107,0,0,0,.824,3.082,2.888,2.888,0,0,0,4.52.063,5.079,5.079,0,0,0,.82-3.035Z" transform="translate(780.198 2754)" fill="#0f2440"/>
    <path id="Trazado_225616" data-name="Trazado 225616" d="M294.493,68.151v34.795H125.312V68.151" transform="translate(632.444 2709.054)" fill="none" stroke="#00caf2" stroke-width="1.5" stroke-dasharray="7 7"/>
    <g id="Grupo_173195" data-name="Grupo 173195" transform="translate(719.139 2744.139)">
      <path id="Trazado_193403-5" data-name="Trazado 193403" d="M327.507,31.046H303.369V8.041H131.3V31.046H98.192" transform="translate(-92.247 -8.041)" fill="none" stroke="#0a3699" stroke-width="2"/>
      <path id="Trazado_193417-5" data-name="Trazado 193417" d="M358.061,43V59.294l-15.148-7.725Z" transform="translate(-342.913 -28.529)" fill="#0a3699"/>
      <rect id="Rectngulo_40520-5" data-name="Rectngulo 40520" width="2.008" height="8.032" transform="translate(15.148 19.491)" fill="#3d66c3"/>
    </g>
    <g id="Grupo_173196" data-name="Grupo 173196" transform="translate(448.075 -78.739)">
      <path id="Trazado_193448-7" data-name="Trazado 193448" d="M42.5,1A42.5,42.5,0,1,1,0,43.5,42.5,42.5,0,0,1,42.5,1" transform="translate(179.715 2807.739)" fill="#e7f9fa" stroke="#0a3699" stroke-width="1"/>
      <path id="Trazado_591486" data-name="Trazado 591486" d="M-1.453-9.112q0,4.571-1.892,6.993A6.6,6.6,0,0,1-8.885.3,6.651,6.651,0,0,1-14.4-2.074Q-16.3-4.45-16.348-8.885v-4.057q0-4.617,1.915-7.008a6.654,6.654,0,0,1,5.517-2.392,6.66,6.66,0,0,1,5.51,2.369q1.907,2.369,1.953,6.8Zm-4.375-4.46a8.07,8.07,0,0,0-.749-3.993,2.532,2.532,0,0,0-2.339-1.25,2.487,2.487,0,0,0-2.278,1.189,7.553,7.553,0,0,0-.78,3.72v5.364a8.472,8.472,0,0,0,.734,4.008A2.5,2.5,0,0,0-8.885-3.224,2.457,2.457,0,0,0-6.569-4.482,8.269,8.269,0,0,0-5.828-8.33ZM16.484-19.6,7.962,0H3.345l8.537-18.512H.923v-3.527H16.484Z" transform="translate(222.715 2863.74)" fill="#12263f"/>
    </g>
    <path id="Trazado_225617" data-name="Trazado 225617" d="M294.493,68.151v34.795H125.312V68.151" transform="translate(305.444 2709.054)" fill="none" stroke="#00caf2" stroke-width="1.5" stroke-dasharray="7 7"/>
    <g id="Grupo_173197" data-name="Grupo 173197" transform="translate(392.139 2744.139)">
      <path id="Trazado_193403-6" data-name="Trazado 193403" d="M327.507,31.046H303.369V8.041H131.3V31.046H98.192" transform="translate(-92.247 -8.041)" fill="none" stroke="#0a3699" stroke-width="2"/>
      <path id="Trazado_193417-6" data-name="Trazado 193417" d="M358.061,43V59.294l-15.148-7.725Z" transform="translate(-342.913 -28.529)" fill="#0a3699"/>
      <rect id="Rectngulo_40520-6" data-name="Rectngulo 40520" width="2.008" height="8.032" transform="translate(15.148 19.491)" fill="#3d66c3"/>
    </g>
    <g id="Grupo_173198" data-name="Grupo 173198" transform="translate(124.075 -78.739)">
      <path id="Trazado_193448-8" data-name="Trazado 193448" d="M42.5,1A42.5,42.5,0,1,1,0,43.5,42.5,42.5,0,0,1,42.5,1" transform="translate(179.715 2807.739)" fill="#e7f9fa" stroke="#0a3699" stroke-width="1"/>
      <path id="Trazado_591487" data-name="Trazado 591487" d="M-1.453-9.112q0,4.571-1.892,6.993A6.6,6.6,0,0,1-8.885.3,6.651,6.651,0,0,1-14.4-2.074Q-16.3-4.45-16.348-8.885v-4.057q0-4.617,1.915-7.008a6.654,6.654,0,0,1,5.517-2.392,6.66,6.66,0,0,1,5.51,2.369q1.907,2.369,1.953,6.8Zm-4.375-4.46a8.07,8.07,0,0,0-.749-3.993,2.532,2.532,0,0,0-2.339-1.25,2.487,2.487,0,0,0-2.278,1.189,7.553,7.553,0,0,0-.78,3.72v5.364a8.472,8.472,0,0,0,.734,4.008A2.5,2.5,0,0,0-8.885-3.224,2.457,2.457,0,0,0-6.569-4.482,8.269,8.269,0,0,0-5.828-8.33Zm21.691-2.609a5.126,5.126,0,0,1-.8,2.846,5.774,5.774,0,0,1-2.21,1.983,6.391,6.391,0,0,1,2.543,2.127,5.455,5.455,0,0,1,.938,3.186,5.777,5.777,0,0,1-2,4.639A8.1,8.1,0,0,1,8.9.3a8.141,8.141,0,0,1-5.449-1.71A5.762,5.762,0,0,1,1.438-6.04a5.49,5.49,0,0,1,.938-3.194A6.276,6.276,0,0,1,4.9-11.353a5.715,5.715,0,0,1-2.2-1.983,5.162,5.162,0,0,1-.795-2.846,5.712,5.712,0,0,1,1.877-4.488,7.39,7.39,0,0,1,5.1-1.673,7.439,7.439,0,0,1,5.094,1.657A5.691,5.691,0,0,1,15.863-16.181Zm-3.92,9.824a3.173,3.173,0,0,0-.833-2.3,2.968,2.968,0,0,0-2.24-.863,2.963,2.963,0,0,0-2.225.855,3.168,3.168,0,0,0-.833,2.308A3.166,3.166,0,0,0,6.63-4.087,2.977,2.977,0,0,0,8.9-3.224a2.97,2.97,0,0,0,2.233-.833A3.16,3.16,0,0,0,11.943-6.357Zm-.454-9.612a3.028,3.028,0,0,0-.681-2.066,2.417,2.417,0,0,0-1.922-.78,2.434,2.434,0,0,0-1.907.757A3.01,3.01,0,0,0,6.3-15.969a3.163,3.163,0,0,0,.681,2.119,2.384,2.384,0,0,0,1.922.8,2.361,2.361,0,0,0,1.915-.8A3.186,3.186,0,0,0,11.489-15.969Z" transform="translate(222.715 2863.74)" fill="#12263f"/>
    </g>
    <g id="Grupo_173199" data-name="Grupo 173199" transform="translate(-818.763 -64.452)">
      <path id="Trazado_225614-2" data-name="Trazado 225614" d="M-2718.737-8793.248v-27.3" transform="translate(4049.791 11700)" fill="none" stroke="#0a3699" stroke-width="2"/>
      <path id="Trazado_225613-2" data-name="Trazado 225613" d="M9.2,9.892V0L0,4.69Z" transform="translate(1326.108 2911.35) rotate(-90)" fill="#0a3699"/>
      <rect id="Rectngulo_276288-2" data-name="Rectngulo 276288" width="1.219" height="4.877" transform="translate(1328.616 2902.152) rotate(-90)" fill="#3d66c3"/>
    </g>
    <path id="Trazado_591479" data-name="Trazado 591479" d="M32.867,14.023H28.1L27.031,17H25.484L29.828,5.625h1.313L35.492,17H33.953ZM28.555,12.8h3.867l-1.937-5.32Zm16.867,2.711a3.465,3.465,0,0,1-1.613,1.238,6.517,6.517,0,0,1-2.41.41A4.674,4.674,0,0,1,38.93,16.5a4.346,4.346,0,0,1-1.668-1.855,6.408,6.408,0,0,1-.605-2.789v-.992a5.982,5.982,0,0,1,1.2-3.984,4.179,4.179,0,0,1,3.371-1.414,4.316,4.316,0,0,1,2.867.91,3.965,3.965,0,0,1,1.328,2.582h-1.5A2.48,2.48,0,0,0,41.234,6.7a2.655,2.655,0,0,0-2.285,1.06,5.173,5.173,0,0,0-.785,3.069v.93a4.848,4.848,0,0,0,.875,3.046,2.836,2.836,0,0,0,2.367,1.13,5.228,5.228,0,0,0,1.477-.187,2.283,2.283,0,0,0,1.047-.631V12.563H41.3V11.336h4.125ZM55.93,5.625v7.734a3.628,3.628,0,0,1-1.012,2.633A4.077,4.077,0,0,1,52.2,17.141l-.4.016a4.258,4.258,0,0,1-2.977-1.008A3.6,3.6,0,0,1,47.7,13.375V5.625H49.18v7.7a2.6,2.6,0,0,0,.68,1.918,3.111,3.111,0,0,0,3.887,0,2.6,2.6,0,0,0,.676-1.914V5.625Zm8.477,8.4H59.641L58.57,17H57.023L61.367,5.625H62.68L67.031,17H65.492ZM60.094,12.8h3.867l-1.937-5.32Zm11.82-.867a7.053,7.053,0,0,1-2.809-1.363,2.6,2.6,0,0,1-.879-2A2.751,2.751,0,0,1,69.3,6.348a4.269,4.269,0,0,1,2.793-.879,4.66,4.66,0,0,1,2.09.453,3.436,3.436,0,0,1,1.422,1.25,3.2,3.2,0,0,1,.5,1.742H74.6a2.08,2.08,0,0,0-.656-1.627A2.669,2.669,0,0,0,72.094,6.7a2.732,2.732,0,0,0-1.73.489,1.632,1.632,0,0,0-.621,1.358,1.468,1.468,0,0,0,.59,1.178,5.785,5.785,0,0,0,2.008.88,9.316,9.316,0,0,1,2.219.88A3.367,3.367,0,0,1,75.746,12.6a2.861,2.861,0,0,1,.387,1.508,2.658,2.658,0,0,1-1.078,2.215,4.6,4.6,0,0,1-2.883.832,5.347,5.347,0,0,1-2.187-.449,3.681,3.681,0,0,1-1.566-1.23,3,3,0,0,1-.551-1.773h1.508a1.959,1.959,0,0,0,.762,1.629,3.207,3.207,0,0,0,2.035.6,2.948,2.948,0,0,0,1.82-.484,1.573,1.573,0,0,0,.633-1.32,1.545,1.545,0,0,0-.586-1.293A6.755,6.755,0,0,0,71.914,11.93ZM6.938,35V23.625h3.211a5.169,5.169,0,0,1,2.625.656,4.438,4.438,0,0,1,1.762,1.867,6.078,6.078,0,0,1,.629,2.781v.727a6.1,6.1,0,0,1-.621,2.82,4.369,4.369,0,0,1-1.773,1.859A5.5,5.5,0,0,1,10.086,35Zm1.5-10.148v8.922h1.578a3.434,3.434,0,0,0,2.7-1.079,4.458,4.458,0,0,0,.965-3.073v-.665a4.529,4.529,0,0,0-.91-3.014,3.239,3.239,0,0,0-2.582-1.091Zm15.422,4.891H18.93v4.031h5.727V35H17.43V23.625h7.148v1.227H18.93v3.664h4.93Zm4.164.8V35h-1.5V23.625h4.2a4.215,4.215,0,0,1,2.926.953A3.231,3.231,0,0,1,34.7,27.1a3.189,3.189,0,0,1-1.035,2.551,4.4,4.4,0,0,1-2.965.895Zm0-1.227h2.7a2.7,2.7,0,0,0,1.844-.567,2.075,2.075,0,0,0,.641-1.64,2.143,2.143,0,0,0-.641-1.628,2.525,2.525,0,0,0-1.758-.634H28.023Zm16.6-5.7v7.734a3.628,3.628,0,0,1-1.012,2.633,4.077,4.077,0,0,1-2.723,1.148l-.4.016a4.258,4.258,0,0,1-2.977-1.008,3.6,3.6,0,0,1-1.125-2.773v-7.75h1.484v7.7a2.372,2.372,0,0,0,2.617,2.6,2.63,2.63,0,0,0,1.949-.68,2.6,2.6,0,0,0,.676-1.914V23.625ZM51.164,30.4H48.492V35H46.984V23.625H50.75a4.457,4.457,0,0,1,2.957.875,3.148,3.148,0,0,1,1.035,2.547,3.062,3.062,0,0,1-.574,1.852,3.428,3.428,0,0,1-1.6,1.18l2.672,4.828V35H53.633Zm-2.672-1.227h2.3a2.6,2.6,0,0,0,1.777-.579,1.959,1.959,0,0,0,.66-1.55,2.062,2.062,0,0,0-.629-1.62,2.663,2.663,0,0,0-1.816-.571h-2.3Zm14.633,2.852H58.359L57.289,35H55.742l4.344-11.375H61.4L65.75,35H64.211ZM58.813,30.8H62.68l-1.937-5.32ZM67.281,35V23.625h3.211a5.169,5.169,0,0,1,2.625.656,4.438,4.438,0,0,1,1.762,1.867,6.078,6.078,0,0,1,.629,2.781v.727a6.1,6.1,0,0,1-.621,2.82,4.369,4.369,0,0,1-1.773,1.859A5.5,5.5,0,0,1,70.43,35Zm1.5-10.148v8.922h1.578a3.434,3.434,0,0,0,2.7-1.079,4.458,4.458,0,0,0,.965-3.073v-.665a4.529,4.529,0,0,0-.91-3.014,3.239,3.239,0,0,0-2.582-1.091Zm15.273,7.172H79.289L78.219,35H76.672l4.344-11.375h1.313L86.68,35H85.141ZM79.742,30.8h3.867l-1.937-5.32Zm11.82-.867a7.053,7.053,0,0,1-2.809-1.363,2.6,2.6,0,0,1-.879-2,2.751,2.751,0,0,1,1.074-2.223,4.269,4.269,0,0,1,2.793-.879,4.66,4.66,0,0,1,2.09.453,3.436,3.436,0,0,1,1.422,1.25,3.2,3.2,0,0,1,.5,1.742H94.25a2.08,2.08,0,0,0-.656-1.627,2.669,2.669,0,0,0-1.852-.592,2.732,2.732,0,0,0-1.73.489,1.632,1.632,0,0,0-.621,1.358,1.468,1.468,0,0,0,.59,1.178,5.785,5.785,0,0,0,2.008.88,9.316,9.316,0,0,1,2.219.88A3.367,3.367,0,0,1,95.395,30.6a2.861,2.861,0,0,1,.387,1.508A2.658,2.658,0,0,1,94.7,34.324a4.6,4.6,0,0,1-2.883.832,5.347,5.347,0,0,1-2.187-.449,3.681,3.681,0,0,1-1.566-1.23,3,3,0,0,1-.551-1.773h1.508a1.959,1.959,0,0,0,.762,1.629,3.207,3.207,0,0,0,2.035.6,2.948,2.948,0,0,0,1.82-.484,1.573,1.573,0,0,0,.633-1.32,1.545,1.545,0,0,0-.586-1.293A6.755,6.755,0,0,0,91.563,29.93Z" transform="translate(377.344 2990.197)" fill="#12263f"/>
    <path id="Trazado_225618" data-name="Trazado 225618" d="M125.312,68.151v37.838H294.493V68.151" transform="translate(221.061 2936.473)" fill="none" stroke="#00caf2" stroke-width="1.5" stroke-dasharray="7 7"/>
    <g id="Grupo_173202" data-name="Grupo 173202" transform="translate(319.143 2954.271)">
      <path id="Trazado_193403-7" data-name="Trazado 193403" d="M98.192,31.046h24.138V8.041H294.4V31.046h33.106" transform="translate(-98.192 12.589)" fill="none" stroke="#0a3699" stroke-width="2"/>
      <path id="Trazado_193417-7" data-name="Trazado 193417" d="M342.913,43V59.294l15.148-7.725Z" transform="translate(-122.801 -7.899)" fill="#0a3699"/>
      <rect id="Rectngulo_40520-7" data-name="Rectngulo 40520" width="2.008" height="8.032" transform="translate(218.104 40.121)" fill="#3d66c3"/>
    </g>
    <g id="Grupo_173203" data-name="Grupo 173203" transform="translate(54.554 148.458)">
      <path id="Trazado_193448-9" data-name="Trazado 193448" d="M42.5,1A42.5,42.5,0,1,1,0,43.5,42.5,42.5,0,0,1,42.5,1" transform="translate(179.791 2808.004)" fill="#e7f9fa" stroke="#0a3699" stroke-width="1"/>
      <path id="Trazado_591488" data-name="Trazado 591488" d="M-1.453-9.112q0,4.571-1.892,6.993A6.6,6.6,0,0,1-8.885.3,6.651,6.651,0,0,1-14.4-2.074Q-16.3-4.45-16.348-8.885v-4.057q0-4.617,1.915-7.008a6.654,6.654,0,0,1,5.517-2.392,6.66,6.66,0,0,1,5.51,2.369q1.907,2.369,1.953,6.8Zm-4.375-4.46a8.07,8.07,0,0,0-.749-3.993,2.532,2.532,0,0,0-2.339-1.25,2.487,2.487,0,0,0-2.278,1.189,7.553,7.553,0,0,0-.78,3.72v5.364a8.472,8.472,0,0,0,.734,4.008A2.5,2.5,0,0,0-8.885-3.224,2.457,2.457,0,0,0-6.569-4.482,8.269,8.269,0,0,0-5.828-8.33ZM11.731-8.81a5.524,5.524,0,0,1-4,1.68A5.908,5.908,0,0,1,3.058-9.135,7.926,7.926,0,0,1,1.3-14.546a8.442,8.442,0,0,1,.946-3.973,6.939,6.939,0,0,1,2.641-2.815A7.328,7.328,0,0,1,8.7-22.342a7.009,7.009,0,0,1,3.875,1.09,7.165,7.165,0,0,1,2.634,3.133,11.25,11.25,0,0,1,.954,4.677v1.62q0,5.51-2.74,8.658A10.358,10.358,0,0,1,5.661.2L4.586.212V-3.436l.969-.015Q11.262-3.708,11.731-8.81ZM8.81-10.475a3.06,3.06,0,0,0,1.824-.545,3.641,3.641,0,0,0,1.158-1.317v-1.8a6.015,6.015,0,0,0-.848-3.451,2.631,2.631,0,0,0-2.271-1.226,2.554,2.554,0,0,0-2.165,1.2,5.117,5.117,0,0,0-.848,3.02,4.979,4.979,0,0,0,.825,2.959A2.687,2.687,0,0,0,8.81-10.475Z" transform="translate(222.791 2863.739)" fill="#0f2440"/>
    </g>
    <g id="Grupo_173204" data-name="Grupo 173204" transform="translate(385.554 148.458)">
      <path id="Trazado_193448-10" data-name="Trazado 193448" d="M42.5,1A42.5,42.5,0,1,1,0,43.5,42.5,42.5,0,0,1,42.5,1" transform="translate(179.791 2808.004)" fill="#e7f9fa" stroke="#0a3699" stroke-width="1"/>
      <path id="Trazado_591489" data-name="Trazado 591489" d="M-5.661,0h-4.375V-16.862l-5.222,1.62V-18.8l9.127-3.27h.469ZM16.333-9.112q0,4.571-1.892,6.993A6.6,6.6,0,0,1,8.9.3a6.651,6.651,0,0,1-5.51-2.376Q1.483-4.45,1.438-8.885v-4.057q0-4.617,1.915-7.008A6.654,6.654,0,0,1,8.87-22.342a6.66,6.66,0,0,1,5.51,2.369q1.907,2.369,1.953,6.8Zm-4.375-4.46a8.07,8.07,0,0,0-.749-3.993,2.532,2.532,0,0,0-2.339-1.25,2.487,2.487,0,0,0-2.278,1.189,7.553,7.553,0,0,0-.78,3.72v5.364a8.472,8.472,0,0,0,.734,4.008A2.5,2.5,0,0,0,8.9-3.224a2.457,2.457,0,0,0,2.316-1.258,8.269,8.269,0,0,0,.742-3.849Z" transform="translate(222.791 2863.739)" fill="#0f2440"/>
    </g>
    <g id="Grupo_848472" data-name="Grupo 848472" transform="translate(-308.263 -266.796)">
      <path id="Trazado_225614-3" data-name="Trazado 225614" d="M-2718.737-8793.248v-27.3" transform="translate(4049.791 11700)" fill="none" stroke="#0a3699" stroke-width="2"/>
      <path id="Trazado_225613-3" data-name="Trazado 225613" d="M9.2,9.892V0L0,4.69Z" transform="translate(1326.108 2911.35) rotate(-90)" fill="#0a3699"/>
      <rect id="Rectngulo_276288-3" data-name="Rectngulo 276288" width="1.219" height="4.877" transform="translate(1328.616 2902.152) rotate(-90)" fill="#3d66c3"/>
    </g>
    <g id="Grupo_848473" data-name="Grupo 848473" transform="translate(-1095.763 -64.452)">
      <path id="Trazado_225614-4" data-name="Trazado 225614" d="M-2718.737-8793.248v-27.3" transform="translate(4049.791 11700)" fill="none" stroke="#0a3699" stroke-width="2"/>
      <path id="Trazado_225613-4" data-name="Trazado 225613" d="M9.2,9.892V0L0,4.69Z" transform="translate(1326.108 2911.35) rotate(-90)" fill="#0a3699"/>
      <rect id="Rectngulo_276288-4" data-name="Rectngulo 276288" width="1.219" height="4.877" transform="translate(1328.616 2902.152) rotate(-90)" fill="#3d66c3"/>
    </g>
    <path id="Trazado_591434" data-name="Trazado 591434" d="M134.378,305.065v86.3H25.2" transform="translate(154.8 2513.852)" fill="none" stroke="#d9d2a9" stroke-width="1.5" stroke-dasharray="7 7"/>
    <path id="Trazado_591435" data-name="Trazado 591435" d="M294.493,68.151v79.083H125.312V68.151" transform="translate(305.444 2750.766)" fill="none" stroke="#d9d2a9" stroke-width="1.5" stroke-dasharray="7 7"/>
    <path id="Trazado_591436" data-name="Trazado 591436" d="M294.493,68.151v79.083H125.312V68.151" transform="translate(956.888 2750.766)" fill="none" stroke="#d9d2a9" stroke-width="1.5" stroke-dasharray="7 7"/>
    <path id="Trazado_591441" data-name="Trazado 591441" d="M125.312,68.151v81.239H294.493V68.151" transform="translate(816.507 2550.266)" fill="none" stroke="#d9d2a9" stroke-width="1.5" stroke-dasharray="7 7"/>
  </g>
</svg>
